<?xml version="1.0" encoding="UTF-8"?>
<svg id="Layer_1" data-name="Layer 1" xmlns="http://www.w3.org/2000/svg" viewBox="0 0 310 500">
  <g>
    <path d="M12.62,43.02V25.52h7.2c1.55,0,2.88,.25,3.99,.74,1.11,.49,1.96,1.21,2.56,2.14,.6,.93,.9,2.05,.9,3.35s-.3,2.39-.9,3.31c-.6,.92-1.46,1.64-2.56,2.15-1.11,.51-2.44,.76-3.99,.76h-5.38l1.43-1.5v6.55h-3.25Zm3.25-6.2l-1.43-1.6h5.22c1.43,0,2.51-.3,3.24-.91s1.09-1.46,1.09-2.56-.36-1.95-1.09-2.56-1.8-.91-3.24-.91h-5.22l1.43-1.6v10.15Z" style="fill: #0a486f;"/>
    <path d="M36.46,43.19c-1.35,0-2.56-.29-3.64-.89s-1.92-1.4-2.54-2.44c-.62-1.03-.92-2.21-.92-3.53s.31-2.53,.92-3.55c.62-1.02,1.46-1.82,2.53-2.41,1.07-.59,2.28-.89,3.65-.89s2.61,.3,3.69,.89c1.07,.59,1.92,1.4,2.53,2.41,.61,1.02,.91,2.2,.91,3.55s-.3,2.51-.91,3.54c-.61,1.03-1.46,1.83-2.54,2.43s-2.31,.89-3.67,.89Zm0-2.65c.77,0,1.45-.17,2.05-.51s1.07-.83,1.41-1.47c.34-.64,.51-1.38,.51-2.21s-.17-1.59-.51-2.21c-.34-.62-.81-1.11-1.41-1.45s-1.27-.51-2.02-.51-1.43,.17-2.03,.51-1.08,.82-1.43,1.45c-.35,.62-.52,1.36-.52,2.21s.17,1.57,.52,2.21c.35,.64,.83,1.13,1.43,1.47s1.27,.51,2,.51Z" style="fill: #0a486f;"/>
    <path d="M46.62,43.02v-13.35h2.97v3.67l-.35-1.07c.38-.9,1.01-1.59,1.88-2.06,.87-.48,1.92-.71,3.17-.71v2.97c-.12-.02-.23-.03-.35-.04s-.22-.01-.32-.01c-1.2,0-2.15,.34-2.85,1.02-.7,.68-1.05,1.73-1.05,3.12v6.45h-3.1Z" style="fill: #0a486f;"/>
    <path d="M62.19,32.27v-2.5h8.9v2.5h-8.9Zm2.2,10.75v-14.08c0-1.42,.41-2.54,1.24-3.39,.82-.84,2-1.26,3.54-1.26,.55,0,1.07,.06,1.56,.17,.49,.12,.9,.3,1.24,.55l-.88,2.32c-.22-.15-.47-.28-.77-.38-.3-.1-.61-.15-.93-.15-.65,0-1.14,.18-1.47,.54-.33,.36-.5,.89-.5,1.59v1.55l.08,1.38v11.15h-3.1Z" style="fill: #0a486f;"/>
    <path d="M77.24,43.19c-1,0-1.88-.17-2.62-.51s-1.33-.82-1.74-1.43c-.41-.61-.61-1.29-.61-2.06s.18-1.42,.54-2.02,.95-1.08,1.76-1.42c.82-.35,1.9-.53,3.25-.53h3.88v2.08h-3.65c-1.05,0-1.76,.17-2.14,.51s-.56,.77-.56,1.29c0,.55,.23,.99,.67,1.33,.45,.33,1.08,.5,1.88,.5s1.45-.17,2.06-.52c.61-.35,1.05-.87,1.34-1.55l.5,1.88c-.3,.78-.83,1.39-1.6,1.83-.77,.43-1.75,.65-2.95,.65Zm4.2-.17v-2.73l-.15-.55v-4.72c0-.92-.28-1.63-.84-2.14-.56-.51-1.4-.76-2.54-.76-.73,0-1.46,.12-2.17,.35-.72,.23-1.33,.56-1.85,.97l-1.22-2.27c.73-.55,1.59-.97,2.58-1.25,.98-.28,2.01-.42,3.08-.42,1.95,0,3.45,.47,4.5,1.4,1.05,.93,1.57,2.37,1.57,4.3v7.83h-2.95Z" style="fill: #0a486f;"/>
    <path d="M91.91,43.02l-5.73-13.35h3.23l4.95,11.77h-1.6l5.1-11.77h3l-5.72,13.35h-3.22Z" style="fill: #0a486f;"/>
    <path d="M108.81,43.19c-1.35,0-2.56-.29-3.64-.89-1.08-.59-1.92-1.4-2.54-2.44-.62-1.03-.93-2.21-.93-3.53s.31-2.53,.93-3.55c.62-1.02,1.46-1.82,2.52-2.41,1.07-.59,2.28-.89,3.65-.89s2.61,.3,3.69,.89c1.08,.59,1.92,1.4,2.53,2.41s.91,2.2,.91,3.55-.3,2.51-.91,3.54c-.61,1.03-1.45,1.83-2.54,2.43-1.08,.59-2.31,.89-3.68,.89Zm0-2.65c.77,0,1.45-.17,2.05-.51s1.07-.83,1.41-1.47,.51-1.38,.51-2.21-.17-1.59-.51-2.21-.81-1.11-1.41-1.45-1.28-.51-2.03-.51-1.42,.17-2.03,.51c-.6,.34-1.07,.82-1.42,1.45-.35,.62-.53,1.36-.53,2.21s.17,1.57,.53,2.21c.35,.64,.82,1.13,1.42,1.47,.6,.34,1.27,.51,2,.51Z" style="fill: #0a486f;"/>
    <path d="M118.96,43.02v-13.35h2.97v3.67l-.35-1.07c.38-.9,1.01-1.59,1.88-2.06,.87-.48,1.93-.71,3.18-.71v2.97c-.12-.02-.23-.03-.35-.04s-.23-.01-.33-.01c-1.2,0-2.15,.34-2.85,1.02-.7,.68-1.05,1.73-1.05,3.12v6.45h-3.1Z" style="fill: #0a486f;"/>
    <path d="M142.59,43.19c-1.48,0-2.78-.29-3.89-.89s-1.97-1.4-2.58-2.43c-.61-1.02-.91-2.2-.91-3.54s.29-2.51,.89-3.54,1.41-1.83,2.45-2.43c1.04-.59,2.23-.89,3.56-.89s2.46,.29,3.47,.86c1.02,.58,1.82,1.38,2.4,2.41,.58,1.03,.88,2.26,.88,3.67,0,.12,0,.26-.01,.44,0,.18-.02,.33-.04,.46h-11.12v-2.07h9.47l-1.25,.65c.02-.75-.14-1.42-.46-2.01s-.77-1.05-1.34-1.38c-.57-.32-1.23-.49-2-.49s-1.42,.16-2.01,.49c-.59,.33-1.04,.79-1.36,1.39-.32,.6-.48,1.29-.48,2.08v.5c0,.8,.18,1.51,.54,2.12,.36,.62,.87,1.1,1.54,1.44,.67,.34,1.44,.51,2.32,.51,.75,0,1.43-.12,2.03-.38s1.13-.62,1.6-1.1l1.7,1.95c-.62,.7-1.38,1.23-2.29,1.6-.91,.37-1.95,.55-3.11,.55Z" style="fill: #0a486f;"/>
    <path d="M156.01,43.19c-1.13,0-2.21-.15-3.23-.44-1.02-.29-1.83-.64-2.45-1.06l1.2-2.38c.6,.38,1.32,.7,2.15,.94,.83,.24,1.68,.36,2.53,.36,.97,0,1.67-.13,2.11-.39,.44-.26,.66-.61,.66-1.06,0-.37-.15-.65-.45-.84s-.69-.34-1.17-.44c-.48-.1-1.02-.19-1.61-.28s-1.18-.2-1.77-.34c-.59-.14-1.13-.35-1.61-.62-.48-.28-.88-.65-1.18-1.11-.3-.47-.45-1.09-.45-1.88,0-.83,.24-1.56,.72-2.19s1.16-1.11,2.04-1.46c.88-.35,1.91-.53,3.11-.53,.88,0,1.79,.1,2.71,.31,.92,.21,1.7,.5,2.31,.86l-1.23,2.38c-.62-.37-1.25-.62-1.9-.76-.65-.14-1.29-.21-1.93-.21-.93,0-1.63,.14-2.1,.41s-.7,.63-.7,1.06c0,.4,.15,.7,.45,.9,.3,.2,.69,.36,1.17,.46,.48,.11,1.02,.21,1.61,.3s1.18,.21,1.76,.35,1.12,.34,1.61,.6c.49,.26,.89,.62,1.19,1.09,.3,.47,.45,1.07,.45,1.82,0,.85-.25,1.58-.74,2.19-.49,.61-1.18,1.08-2.08,1.43s-1.96,.51-3.21,.51Z" style="fill: #0a486f;"/>
    <path d="M164.76,47.87V29.67h2.97v3.15l-.12,3.55,.25,3.55v7.95h-3.1Zm7.38-4.68c-1.1,0-2.09-.25-2.98-.74-.88-.49-1.58-1.25-2.1-2.26-.52-1.02-.77-2.3-.77-3.85s.25-2.85,.74-3.86,1.19-1.76,2.09-2.25,1.91-.74,3.03-.74c1.3,0,2.46,.28,3.47,.85,1.02,.57,1.82,1.37,2.41,2.4s.89,2.23,.89,3.6-.3,2.59-.89,3.61c-.59,1.02-1.4,1.82-2.41,2.39-1.02,.57-2.18,.85-3.47,.85Zm-.38-2.65c.77,0,1.45-.17,2.04-.52,.59-.35,1.06-.84,1.41-1.48s.53-1.37,.53-2.2-.18-1.59-.53-2.21-.82-1.11-1.41-1.45-1.27-.51-2.04-.51-1.4,.17-2,.51c-.6,.34-1.08,.82-1.43,1.45s-.53,1.36-.53,2.21,.18,1.57,.53,2.2,.83,1.12,1.43,1.48c.6,.35,1.27,.52,2,.52Z" style="fill: #0a486f;"/>
    <path d="M188.16,43.19c-1.48,0-2.78-.29-3.89-.89-1.11-.59-1.97-1.4-2.58-2.43-.61-1.02-.91-2.2-.91-3.54s.3-2.51,.89-3.54c.59-1.03,1.41-1.83,2.45-2.43,1.04-.59,2.23-.89,3.56-.89s2.46,.29,3.47,.86,1.82,1.38,2.4,2.41c.58,1.03,.88,2.26,.88,3.67,0,.12,0,.26-.01,.44,0,.18-.02,.33-.04,.46h-11.12v-2.07h9.48l-1.25,.65c.02-.75-.14-1.42-.46-2.01-.33-.59-.77-1.05-1.34-1.38-.57-.32-1.23-.49-2-.49s-1.42,.16-2.01,.49c-.59,.33-1.05,.79-1.36,1.39s-.47,1.29-.47,2.08v.5c0,.8,.18,1.51,.54,2.12,.36,.62,.87,1.1,1.54,1.44s1.44,.51,2.33,.51c.75,0,1.42-.12,2.02-.38,.6-.25,1.13-.62,1.6-1.1l1.7,1.95c-.62,.7-1.38,1.23-2.29,1.6-.91,.37-1.95,.55-3.11,.55Z" style="fill: #0a486f;"/>
    <path d="M197.46,43.02v-13.35h2.97v3.67l-.35-1.07c.38-.9,1.01-1.59,1.88-2.06,.87-.48,1.92-.71,3.17-.71v2.97c-.12-.02-.23-.03-.35-.04s-.22-.01-.32-.01c-1.2,0-2.15,.34-2.85,1.02-.7,.68-1.05,1.73-1.05,3.12v6.45h-3.1Z" style="fill: #0a486f;"/>
    <path d="M214.21,43.19c-1.48,0-2.78-.29-3.89-.89-1.11-.59-1.97-1.4-2.57-2.43-.61-1.02-.91-2.2-.91-3.54s.29-2.51,.89-3.54,1.41-1.83,2.45-2.43c1.04-.59,2.23-.89,3.56-.89s2.46,.29,3.48,.86c1.02,.58,1.82,1.38,2.4,2.41s.88,2.26,.88,3.67c0,.12,0,.26-.01,.44,0,.18-.02,.33-.04,.46h-11.12v-2.07h9.47l-1.25,.65c.02-.75-.14-1.42-.46-2.01-.32-.59-.77-1.05-1.34-1.38-.57-.32-1.23-.49-2-.49s-1.42,.16-2.01,.49c-.59,.33-1.05,.79-1.36,1.39-.32,.6-.48,1.29-.48,2.08v.5c0,.8,.18,1.51,.54,2.12s.87,1.1,1.54,1.44c.67,.34,1.44,.51,2.32,.51,.75,0,1.43-.12,2.03-.38s1.13-.62,1.6-1.1l1.7,1.95c-.62,.7-1.38,1.23-2.29,1.6-.91,.37-1.95,.55-3.11,.55Z" style="fill: #0a486f;"/>
  </g>
  <g>
    <path d="M14.98,77.24h6.05v.64h-6.76v-9.8h6.55v.64h-5.84v8.51Zm-.08-4.65h5.31v.63h-5.31v-.63Z" style="fill: #01426a;"/>
    <path d="M25.25,77.95c-.61,0-1.17-.09-1.7-.27s-.94-.4-1.23-.67l.32-.56c.28,.24,.65,.45,1.12,.62,.47,.17,.97,.26,1.51,.26,.77,0,1.32-.12,1.65-.38s.5-.58,.5-.99c0-.3-.09-.54-.26-.71-.17-.17-.4-.31-.69-.4-.29-.09-.61-.17-.95-.23-.35-.06-.69-.13-1.04-.2-.35-.07-.66-.18-.95-.32s-.52-.33-.69-.58c-.17-.25-.26-.58-.26-.99,0-.37,.1-.71,.31-1.01,.21-.3,.51-.54,.92-.72,.41-.18,.92-.27,1.54-.27,.46,0,.92,.06,1.38,.2,.46,.13,.84,.3,1.13,.52l-.32,.56c-.31-.23-.65-.4-1.04-.5-.38-.1-.77-.15-1.16-.15-.71,0-1.23,.13-1.56,.39-.33,.26-.5,.59-.5,.98,0,.31,.09,.55,.26,.74,.17,.18,.4,.32,.69,.42,.29,.1,.61,.18,.95,.24s.69,.13,1.04,.2c.34,.07,.66,.18,.95,.31s.52,.32,.69,.56c.17,.24,.26,.56,.26,.96s-.11,.75-.33,1.05c-.22,.3-.54,.53-.97,.7-.43,.17-.96,.25-1.58,.25Z" style="fill: #01426a;"/>
    <path d="M28.89,71.18v-.6h4.37v.6h-4.37Zm3.33,6.76c-.64,0-1.14-.18-1.48-.53-.34-.35-.51-.84-.51-1.46v-6.97h.7v6.9c0,.47,.12,.83,.35,1.08s.57,.38,1.01,.38,.84-.14,1.13-.41l.29,.49c-.19,.18-.41,.31-.68,.39-.27,.08-.54,.13-.82,.13Z" style="fill: #01426a;"/>
    <path d="M37.64,77.95c-.54,0-1.01-.09-1.41-.26-.4-.17-.7-.42-.91-.73-.21-.32-.31-.68-.31-1.09,0-.37,.09-.71,.26-1.02s.46-.55,.86-.74c.4-.19,.94-.29,1.61-.29h2.69v.55h-2.67c-.76,0-1.29,.14-1.59,.42-.3,.28-.46,.63-.46,1.05,0,.47,.18,.84,.53,1.12,.35,.28,.85,.42,1.5,.42s1.14-.14,1.56-.42c.42-.28,.74-.69,.95-1.22l.2,.48c-.2,.53-.53,.95-1,1.27-.47,.31-1.07,.47-1.8,.47Zm2.63-.06v-1.67l-.03-.25v-2.74c0-.68-.19-1.2-.55-1.55s-.91-.53-1.62-.53c-.5,0-.97,.09-1.41,.26-.43,.17-.8,.39-1.11,.66l-.35-.5c.37-.33,.8-.58,1.32-.76,.51-.18,1.05-.27,1.61-.27,.91,0,1.6,.23,2.09,.69s.73,1.14,.73,2.04v4.63h-.67Z" style="fill: #01426a;"/>
    <path d="M52.93,70.53c.59,0,1.1,.11,1.53,.34,.43,.23,.77,.57,1.01,1.04,.24,.46,.37,1.03,.37,1.71v4.27h-.7v-4.21c0-.82-.2-1.45-.6-1.88s-.96-.64-1.68-.64c-.55,0-1.03,.12-1.43,.35-.4,.23-.71,.56-.92,.98-.21,.42-.32,.92-.32,1.51v3.89h-.7v-4.21c0-.82-.2-1.45-.6-1.88-.4-.43-.96-.64-1.68-.64-.55,0-1.03,.12-1.43,.35-.4,.23-.71,.56-.92,.98s-.32,.92-.32,1.51v3.89h-.7v-7.31h.67v2.02l-.1-.22c.21-.57,.57-1.02,1.08-1.35,.5-.33,1.11-.5,1.82-.5s1.34,.18,1.84,.55c.5,.37,.81,.92,.95,1.64l-.24-.1c.2-.62,.56-1.13,1.11-1.52,.54-.39,1.2-.58,1.97-.58Z" style="fill: #01426a;"/>
    <path d="M61.58,77.95c-.7,0-1.32-.16-1.87-.48-.55-.32-.98-.76-1.3-1.32-.32-.56-.48-1.2-.48-1.92s.16-1.37,.48-1.92,.76-.99,1.3-1.31c.54-.32,1.17-.47,1.87-.47s1.33,.16,1.88,.47c.55,.32,.98,.75,1.3,1.31,.32,.56,.48,1.2,.48,1.92s-.16,1.36-.48,1.92c-.32,.56-.75,1-1.3,1.32s-1.18,.48-1.88,.48Zm0-.63c.56,0,1.06-.13,1.51-.38,.45-.26,.8-.62,1.05-1.08s.38-1,.38-1.61-.13-1.15-.38-1.62c-.25-.46-.6-.82-1.05-1.08-.45-.26-.95-.38-1.51-.38s-1.06,.13-1.5,.38c-.44,.26-.79,.62-1.05,1.08-.26,.46-.39,1-.39,1.62s.13,1.14,.39,1.61,.61,.83,1.05,1.08,.95,.38,1.5,.38Z" style="fill: #01426a;"/>
    <path d="M69.26,77.95c-.61,0-1.17-.09-1.7-.27s-.94-.4-1.23-.67l.32-.56c.28,.24,.65,.45,1.12,.62,.47,.17,.97,.26,1.51,.26,.77,0,1.32-.12,1.65-.38s.5-.58,.5-.99c0-.3-.09-.54-.26-.71-.17-.17-.4-.31-.69-.4-.29-.09-.61-.17-.95-.23-.35-.06-.69-.13-1.04-.2-.35-.07-.66-.18-.95-.32s-.52-.33-.69-.58c-.17-.25-.26-.58-.26-.99,0-.37,.1-.71,.31-1.01,.21-.3,.51-.54,.92-.72,.41-.18,.92-.27,1.54-.27,.46,0,.92,.06,1.38,.2,.46,.13,.84,.3,1.13,.52l-.32,.56c-.31-.23-.65-.4-1.04-.5-.38-.1-.77-.15-1.16-.15-.71,0-1.23,.13-1.56,.39-.33,.26-.5,.59-.5,.98,0,.31,.09,.55,.26,.74,.17,.18,.4,.32,.69,.42,.29,.1,.61,.18,.95,.24s.69,.13,1.04,.2c.34,.07,.66,.18,.95,.31s.52,.32,.69,.56c.17,.24,.26,.56,.26,.96s-.11,.75-.33,1.05c-.22,.3-.54,.53-.97,.7-.43,.17-.96,.25-1.58,.25Z" style="fill: #01426a;"/>
    <path d="M79.54,77.89l-3.29-7.31h.74l3.08,6.92h-.34l3.11-6.92h.71l-3.3,7.31h-.71Z" style="fill: #01426a;"/>
    <path d="M87.06,77.95c-.54,0-1.01-.09-1.41-.26-.4-.17-.7-.42-.91-.73-.21-.32-.31-.68-.31-1.09,0-.37,.09-.71,.26-1.02,.17-.3,.46-.55,.86-.74s.94-.29,1.61-.29h2.69v.55h-2.67c-.76,0-1.29,.14-1.59,.42-.3,.28-.46,.63-.46,1.05,0,.47,.18,.84,.53,1.12,.35,.28,.85,.42,1.5,.42s1.14-.14,1.56-.42c.42-.28,.74-.69,.94-1.22l.2,.48c-.2,.53-.53,.95-1,1.27-.47,.31-1.07,.47-1.8,.47Zm2.63-.06v-1.67l-.03-.25v-2.74c0-.68-.18-1.2-.55-1.55-.37-.35-.91-.53-1.62-.53-.5,0-.97,.09-1.41,.26-.43,.17-.8,.39-1.11,.66l-.35-.5c.36-.33,.8-.58,1.32-.76,.51-.18,1.05-.27,1.61-.27,.91,0,1.6,.23,2.09,.69,.49,.46,.73,1.14,.73,2.04v4.63h-.67Z" style="fill: #01426a;"/>
    <path d="M93.25,77.89v-10.39h.7v10.39h-.7Z" style="fill: #01426a;"/>
    <path d="M97.25,68.8c-.16,0-.29-.06-.41-.17-.11-.11-.17-.24-.17-.39,0-.16,.06-.29,.17-.41,.11-.11,.25-.17,.41-.17,.17,0,.31,.05,.41,.16s.16,.24,.16,.4-.05,.29-.16,.41c-.11,.11-.25,.17-.41,.17Zm-.35,9.09v-7.31h.7v7.31h-.7Z" style="fill: #01426a;"/>
    <path d="M103.37,77.95c-.68,0-1.29-.16-1.84-.47-.54-.31-.98-.75-1.29-1.31-.32-.56-.48-1.2-.48-1.93s.16-1.38,.48-1.94c.32-.56,.75-.99,1.29-1.3,.55-.31,1.16-.47,1.84-.47,.64,0,1.22,.15,1.74,.45s.93,.72,1.23,1.27c.3,.55,.46,1.21,.46,1.99s-.15,1.41-.45,1.97c-.3,.56-.71,.99-1.23,1.29-.52,.3-1.1,.45-1.76,.45Zm.04-.63c.56,0,1.06-.13,1.51-.38s.79-.62,1.05-1.08c.26-.47,.39-1,.39-1.61s-.13-1.15-.39-1.62c-.26-.46-.61-.82-1.05-1.08-.44-.26-.95-.38-1.51-.38s-1.06,.13-1.5,.38c-.44,.26-.79,.62-1.05,1.08-.26,.46-.38,1-.38,1.62s.13,1.14,.38,1.61c.26,.47,.61,.83,1.05,1.08s.94,.38,1.5,.38Zm2.96,.57v-2.39l.12-1.27-.14-1.27v-5.45h.7v10.39h-.69Z" style="fill: #01426a;"/>
    <path d="M111.98,77.95c-.54,0-1.01-.09-1.41-.26-.4-.17-.7-.42-.91-.73-.21-.32-.31-.68-.31-1.09,0-.37,.09-.71,.26-1.02s.46-.55,.86-.74,.94-.29,1.61-.29h2.69v.55h-2.67c-.76,0-1.29,.14-1.59,.42-.3,.28-.46,.63-.46,1.05,0,.47,.18,.84,.53,1.12,.35,.28,.85,.42,1.5,.42s1.14-.14,1.56-.42c.42-.28,.74-.69,.94-1.22l.2,.48c-.2,.53-.53,.95-1,1.27-.47,.31-1.07,.47-1.8,.47Zm2.63-.06v-1.67l-.03-.25v-2.74c0-.68-.18-1.2-.55-1.55-.37-.35-.91-.53-1.62-.53-.5,0-.97,.09-1.41,.26-.43,.17-.81,.39-1.11,.66l-.35-.5c.36-.33,.8-.58,1.32-.76,.51-.18,1.05-.27,1.61-.27,.91,0,1.6,.23,2.09,.69s.73,1.14,.73,2.04v4.63h-.67Z" style="fill: #01426a;"/>
    <path d="M121.74,70.53c.6,0,1.12,.11,1.56,.34,.44,.23,.79,.57,1.04,1.04,.25,.46,.37,1.03,.37,1.71v4.27h-.7v-4.21c0-.82-.21-1.45-.62-1.88-.42-.43-1-.64-1.74-.64-.57,0-1.06,.12-1.48,.35s-.74,.56-.96,.98c-.22,.42-.33,.92-.33,1.51v3.89h-.7v-7.31h.67v2.03l-.1-.22c.22-.58,.59-1.03,1.11-1.37,.51-.33,1.14-.5,1.89-.5Z" style="fill: #01426a;"/>
    <path d="M130.41,77.95c-.68,0-1.29-.16-1.84-.47-.55-.31-.98-.75-1.29-1.31-.32-.56-.48-1.2-.48-1.93s.16-1.38,.48-1.94,.75-.99,1.29-1.3,1.16-.47,1.84-.47c.64,0,1.23,.15,1.74,.45s.93,.72,1.23,1.27c.3,.55,.45,1.21,.45,1.99s-.15,1.41-.45,1.97c-.3,.56-.71,.99-1.23,1.29-.52,.3-1.1,.45-1.76,.45Zm.04-.63c.56,0,1.06-.13,1.5-.38s.79-.62,1.05-1.08c.26-.47,.39-1,.39-1.61s-.13-1.15-.39-1.62c-.26-.46-.61-.82-1.05-1.08-.44-.26-.94-.38-1.5-.38s-1.06,.13-1.5,.38c-.44,.26-.79,.62-1.05,1.08-.26,.46-.38,1-.38,1.62s.13,1.14,.38,1.61,.61,.83,1.05,1.08,.95,.38,1.5,.38Zm2.95,.57v-2.39l.13-1.27-.14-1.27v-5.45h.7v10.39h-.69Z" style="fill: #01426a;"/>
    <path d="M139.9,77.95c-.7,0-1.32-.16-1.87-.48s-.98-.76-1.3-1.32c-.32-.56-.48-1.2-.48-1.92s.16-1.37,.48-1.92,.76-.99,1.3-1.31c.55-.32,1.17-.47,1.87-.47s1.33,.16,1.88,.47c.55,.32,.98,.75,1.3,1.31s.48,1.2,.48,1.92-.16,1.36-.48,1.92c-.32,.56-.75,1-1.3,1.32s-1.18,.48-1.88,.48Zm0-.63c.56,0,1.06-.13,1.51-.38,.45-.26,.8-.62,1.05-1.08s.38-1,.38-1.61-.13-1.15-.38-1.62c-.25-.46-.6-.82-1.05-1.08-.45-.26-.95-.38-1.51-.38s-1.06,.13-1.5,.38c-.44,.26-.79,.62-1.05,1.08-.26,.46-.38,1-.38,1.62s.13,1.14,.38,1.61,.61,.83,1.05,1.08,.95,.38,1.5,.38Z" style="fill: #01426a;"/>
    <path d="M149.32,77.89v-10.39h.7v10.39h-.7Z" style="fill: #01426a;"/>
    <path d="M154.95,77.95c-.54,0-1.01-.09-1.41-.26-.4-.17-.7-.42-.91-.73-.21-.32-.31-.68-.31-1.09,0-.37,.09-.71,.26-1.02s.46-.55,.86-.74,.94-.29,1.61-.29h2.69v.55h-2.67c-.76,0-1.29,.14-1.59,.42-.3,.28-.46,.63-.46,1.05,0,.47,.18,.84,.53,1.12,.35,.28,.85,.42,1.5,.42s1.14-.14,1.56-.42c.42-.28,.74-.69,.94-1.22l.2,.48c-.2,.53-.53,.95-1,1.27-.47,.31-1.07,.47-1.8,.47Zm2.63-.06v-1.67l-.03-.25v-2.74c0-.68-.18-1.2-.55-1.55-.37-.35-.91-.53-1.62-.53-.5,0-.97,.09-1.41,.26-.43,.17-.81,.39-1.11,.66l-.35-.5c.36-.33,.8-.58,1.32-.76,.51-.18,1.05-.27,1.61-.27,.91,0,1.6,.23,2.09,.69s.73,1.14,.73,2.04v4.63h-.67Z" style="fill: #01426a;"/>
    <path d="M165.08,68.8c-.16,0-.29-.06-.41-.17-.11-.11-.17-.24-.17-.39,0-.16,.06-.29,.17-.41,.11-.11,.25-.17,.41-.17,.17,0,.31,.05,.41,.16s.16,.24,.16,.4-.05,.29-.16,.41c-.11,.11-.25,.17-.41,.17Zm-.35,9.09v-7.31h.7v7.31h-.7Z" style="fill: #01426a;"/>
    <path d="M171.96,70.53c.6,0,1.12,.11,1.56,.34,.44,.23,.79,.57,1.04,1.04,.25,.46,.37,1.03,.37,1.71v4.27h-.7v-4.21c0-.82-.21-1.45-.62-1.88-.42-.43-1-.64-1.74-.64-.57,0-1.06,.12-1.48,.35s-.74,.56-.96,.98c-.22,.42-.33,.92-.33,1.51v3.89h-.7v-7.31h.67v2.03l-.1-.22c.22-.58,.59-1.03,1.11-1.37,.51-.33,1.14-.5,1.89-.5Z" style="fill: #01426a;"/>
    <path d="M176.61,71.18v-.6h4.37v.6h-4.37Zm1.34,6.71v-8.43c0-.61,.17-1.09,.53-1.46,.35-.37,.85-.55,1.5-.55,.27,0,.54,.04,.8,.12,.26,.08,.48,.2,.64,.36l-.28,.53c-.14-.14-.31-.24-.5-.31-.2-.06-.41-.1-.63-.1-.45,0-.79,.12-1.02,.37-.23,.25-.35,.61-.35,1.1v1.57s.01,6.8,.01,6.8h-.7Z" style="fill: #01426a;"/>
    <path d="M185.26,77.95c-.7,0-1.32-.16-1.87-.48s-.98-.76-1.3-1.32c-.32-.56-.48-1.2-.48-1.92s.16-1.37,.48-1.92,.76-.99,1.3-1.31c.55-.32,1.17-.47,1.87-.47s1.33,.16,1.88,.47c.55,.32,.98,.75,1.3,1.31s.48,1.2,.48,1.92-.16,1.36-.48,1.92c-.32,.56-.75,1-1.3,1.32s-1.18,.48-1.88,.48Zm0-.63c.56,0,1.06-.13,1.51-.38,.45-.26,.8-.62,1.05-1.08s.38-1,.38-1.61-.13-1.15-.38-1.62c-.25-.46-.6-.82-1.05-1.08-.45-.26-.95-.38-1.51-.38s-1.06,.13-1.5,.38c-.44,.26-.79,.62-1.05,1.08-.26,.46-.38,1-.38,1.62s.13,1.14,.38,1.61,.61,.83,1.05,1.08,.95,.38,1.5,.38Z" style="fill: #01426a;"/>
    <path d="M191.08,77.89v-7.31h.67v2l-.07-.22c.21-.59,.55-1.04,1.04-1.36,.49-.32,1.09-.47,1.82-.47v.69s-.06,0-.08,0c-.03,0-.06,0-.08,0-.81,0-1.45,.25-1.9,.76-.46,.51-.69,1.22-.69,2.12v3.81h-.7Z" style="fill: #01426a;"/>
    <path d="M205.7,70.53c.59,0,1.1,.11,1.53,.34,.43,.23,.77,.57,1.01,1.04,.24,.46,.36,1.03,.36,1.71v4.27h-.7v-4.21c0-.82-.2-1.45-.6-1.88-.4-.43-.96-.64-1.68-.64-.55,0-1.03,.12-1.43,.35s-.71,.56-.92,.98-.32,.92-.32,1.51v3.89h-.7v-4.21c0-.82-.2-1.45-.6-1.88s-.96-.64-1.68-.64c-.55,0-1.03,.12-1.43,.35s-.71,.56-.92,.98-.32,.92-.32,1.51v3.89h-.7v-7.31h.67v2.02l-.1-.22c.21-.57,.57-1.02,1.08-1.35,.5-.33,1.11-.5,1.82-.5s1.34,.18,1.84,.55c.5,.37,.81,.92,.95,1.64l-.24-.1c.2-.62,.56-1.13,1.11-1.52,.54-.39,1.2-.58,1.97-.58Z" style="fill: #01426a;"/>
    <path d="M213.47,77.95c-.54,0-1.01-.09-1.41-.26-.4-.17-.7-.42-.91-.73-.21-.32-.31-.68-.31-1.09,0-.37,.09-.71,.26-1.02s.46-.55,.86-.74,.94-.29,1.61-.29h2.69v.55h-2.67c-.76,0-1.29,.14-1.59,.42-.3,.28-.46,.63-.46,1.05,0,.47,.18,.84,.53,1.12,.35,.28,.85,.42,1.5,.42s1.14-.14,1.56-.42c.42-.28,.74-.69,.94-1.22l.2,.48c-.2,.53-.53,.95-1,1.27-.47,.31-1.07,.47-1.8,.47Zm2.63-.06v-1.67l-.03-.25v-2.74c0-.68-.18-1.2-.55-1.55-.37-.35-.91-.53-1.62-.53-.5,0-.97,.09-1.41,.26-.43,.17-.81,.39-1.11,.66l-.35-.5c.36-.33,.8-.58,1.32-.76,.51-.18,1.05-.27,1.61-.27,.91,0,1.6,.23,2.09,.69s.73,1.14,.73,2.04v4.63h-.67Z" style="fill: #01426a;"/>
    <path d="M222.55,77.95c-.71,0-1.34-.16-1.9-.48-.56-.32-.99-.76-1.32-1.32-.32-.56-.48-1.2-.48-1.92s.16-1.37,.48-1.93,.76-1,1.32-1.31c.55-.31,1.19-.47,1.9-.47,.59,0,1.12,.11,1.6,.34,.48,.22,.87,.56,1.17,1.01l-.52,.38c-.26-.37-.59-.65-.98-.83-.39-.18-.82-.27-1.27-.27-.57,0-1.08,.13-1.53,.38-.45,.26-.81,.62-1.06,1.08-.26,.46-.38,1-.38,1.62s.13,1.16,.38,1.62,.61,.82,1.06,1.08c.45,.26,.96,.38,1.53,.38,.46,0,.88-.09,1.27-.27,.39-.18,.72-.45,.98-.83l.52,.38c-.3,.45-.69,.78-1.17,1.01-.48,.22-1.02,.34-1.6,.34Z" style="fill: #01426a;"/>
    <path d="M227.77,68.8c-.16,0-.29-.06-.41-.17-.11-.11-.17-.24-.17-.39,0-.16,.06-.29,.17-.41,.11-.11,.25-.17,.41-.17,.17,0,.31,.05,.41,.16s.16,.24,.16,.4-.05,.29-.16,.41c-.11,.11-.25,.17-.41,.17Zm-.35,9.09v-7.31h.7v7.31h-.7Z" style="fill: #01426a;"/>
    <path d="M233.93,77.95c-.7,0-1.32-.16-1.87-.48s-.98-.76-1.3-1.32c-.32-.56-.48-1.2-.48-1.92s.16-1.37,.48-1.92,.76-.99,1.3-1.31c.55-.32,1.17-.47,1.87-.47s1.33,.16,1.88,.47c.55,.32,.98,.75,1.3,1.31s.48,1.2,.48,1.92-.16,1.36-.48,1.92c-.32,.56-.75,1-1.3,1.32s-1.18,.48-1.88,.48Zm0-.63c.56,0,1.06-.13,1.51-.38,.45-.26,.8-.62,1.05-1.08s.38-1,.38-1.61-.13-1.15-.38-1.62c-.25-.46-.6-.82-1.05-1.08-.45-.26-.95-.38-1.51-.38s-1.06,.13-1.5,.38c-.44,.26-.79,.62-1.05,1.08-.26,.46-.38,1-.38,1.62s.13,1.14,.38,1.61,.61,.83,1.05,1.08,.95,.38,1.5,.38Zm-.8-7.92l1.95-1.65h1.01l-2.2,1.65h-.76Z" style="fill: #01426a;"/>
    <path d="M243.33,70.53c.6,0,1.12,.11,1.56,.34,.44,.23,.79,.57,1.04,1.04,.25,.46,.37,1.03,.37,1.71v4.27h-.7v-4.21c0-.82-.21-1.45-.62-1.88-.42-.43-1-.64-1.74-.64-.57,0-1.06,.12-1.48,.35s-.74,.56-.96,.98c-.22,.42-.33,.92-.33,1.51v3.89h-.7v-7.31h.67v2.03l-.1-.22c.22-.58,.59-1.03,1.11-1.37,.51-.33,1.14-.5,1.89-.5Z" style="fill: #01426a;"/>
    <path d="M14.39,85.6c-.16,0-.29-.06-.41-.17-.11-.11-.17-.24-.17-.39,0-.16,.06-.29,.17-.41,.11-.11,.25-.17,.41-.17,.17,0,.31,.05,.41,.16,.11,.11,.16,.24,.16,.4s-.05,.29-.16,.41-.25,.17-.41,.17Zm-.35,9.09v-7.31h.7v7.31h-.7Z" style="fill: #01426a;"/>
    <path d="M21.26,87.32c.6,0,1.12,.12,1.56,.34s.79,.57,1.04,1.04c.25,.46,.37,1.03,.37,1.71v4.27h-.7v-4.21c0-.82-.21-1.45-.62-1.88-.42-.43-1-.64-1.74-.64-.57,0-1.06,.12-1.48,.35s-.74,.56-.96,.98c-.22,.42-.33,.92-.33,1.51v3.89h-.7v-7.31h.67v2.03l-.1-.22c.22-.58,.59-1.03,1.11-1.37s1.14-.5,1.89-.5Z" style="fill: #01426a;"/>
    <path d="M29.96,94.42c-.69,0-1.31-.15-1.85-.46-.55-.3-.98-.72-1.3-1.26-.32-.54-.48-1.15-.48-1.84s.16-1.32,.48-1.85,.76-.95,1.3-1.25c.55-.3,1.16-.45,1.85-.45s1.26,.14,1.79,.43c.53,.28,.95,.69,1.25,1.22,.31,.53,.46,1.16,.46,1.9s-.15,1.36-.46,1.89c-.31,.53-.73,.94-1.25,1.23s-1.12,.43-1.79,.43Zm.2,3.04c-.66,0-1.29-.1-1.89-.31-.6-.21-1.08-.49-1.46-.85l.38-.53c.36,.34,.8,.6,1.31,.78,.51,.19,1.06,.28,1.64,.28,.98,0,1.7-.23,2.16-.69,.46-.46,.69-1.18,.69-2.16v-2.03l.14-1.09-.11-1.09v-2.39h.67v6.52c0,1.22-.3,2.12-.89,2.7-.59,.57-1.48,.86-2.65,.86Zm-.14-3.67c.59,0,1.11-.12,1.55-.37,.45-.25,.8-.59,1.06-1.04,.26-.44,.38-.95,.38-1.52s-.13-1.09-.38-1.53c-.26-.44-.61-.78-1.06-1.02-.45-.24-.97-.36-1.55-.36s-1.08,.12-1.53,.36c-.45,.24-.81,.58-1.06,1.02-.26,.44-.38,.95-.38,1.53s.13,1.08,.38,1.52c.26,.44,.61,.79,1.06,1.04,.45,.25,.96,.37,1.53,.37Z" style="fill: #01426a;"/>
    <path d="M36.66,94.69v-7.31h.67v2l-.07-.22c.21-.59,.55-1.04,1.04-1.36,.49-.32,1.09-.48,1.82-.48v.69s-.06,0-.08,0c-.03,0-.06,0-.08,0-.81,0-1.45,.25-1.9,.76-.46,.51-.69,1.21-.69,2.12v3.81h-.7Z" style="fill: #01426a;"/>
    <path d="M45.15,94.74c-.74,0-1.39-.16-1.95-.48-.57-.32-1.01-.76-1.33-1.32-.32-.56-.48-1.2-.48-1.92s.15-1.37,.46-1.93c.3-.55,.72-.99,1.25-1.31,.53-.32,1.13-.48,1.79-.48s1.26,.15,1.79,.46c.53,.31,.94,.74,1.25,1.29,.3,.55,.46,1.2,.46,1.92,0,.03,0,.06,0,.09s0,.07,0,.11h-6.45v-.55h6.08l-.28,.27c0-.57-.11-1.08-.36-1.53-.25-.45-.58-.81-1-1.06-.42-.26-.91-.39-1.46-.39s-1.02,.13-1.45,.39c-.42,.26-.76,.61-1,1.06-.24,.45-.36,.97-.36,1.55v.13c0,.6,.13,1.13,.4,1.59,.27,.46,.63,.82,1.1,1.08,.47,.26,1,.38,1.6,.38,.47,0,.9-.08,1.31-.25s.75-.42,1.03-.77l.41,.46c-.32,.39-.72,.69-1.2,.89-.48,.2-1,.3-1.56,.3Z" style="fill: #01426a;"/>
    <path d="M52.38,94.74c-.61,0-1.17-.09-1.7-.27s-.94-.4-1.22-.67l.32-.56c.28,.24,.65,.45,1.12,.62,.47,.17,.97,.26,1.51,.26,.77,0,1.32-.13,1.65-.38s.5-.58,.5-.99c0-.3-.09-.53-.26-.71-.17-.17-.4-.3-.69-.4-.29-.09-.61-.17-.95-.23-.34-.06-.69-.13-1.04-.2s-.66-.18-.95-.32c-.29-.14-.52-.33-.69-.58-.17-.25-.26-.58-.26-.99,0-.37,.1-.71,.31-1.01,.21-.3,.51-.54,.92-.72,.41-.18,.92-.27,1.54-.27,.46,0,.92,.07,1.38,.2s.84,.3,1.13,.52l-.32,.56c-.31-.23-.65-.4-1.04-.5-.38-.1-.77-.15-1.16-.15-.71,0-1.23,.13-1.56,.39-.33,.26-.5,.59-.5,.98,0,.31,.09,.55,.26,.73,.17,.18,.4,.32,.69,.42,.29,.1,.61,.18,.95,.24,.35,.06,.69,.13,1.04,.2,.34,.08,.66,.18,.95,.32s.52,.32,.69,.56c.17,.24,.26,.56,.26,.96s-.11,.75-.33,1.05-.54,.53-.97,.7-.96,.25-1.58,.25Z" style="fill: #01426a;"/>
    <path d="M59.2,94.74c-.54,0-1.01-.09-1.41-.26-.4-.17-.7-.42-.91-.74-.21-.32-.32-.68-.32-1.09,0-.37,.09-.71,.26-1.01s.46-.55,.86-.74c.4-.19,.94-.29,1.61-.29h2.69v.55h-2.67c-.76,0-1.29,.14-1.59,.42-.3,.28-.46,.63-.46,1.05,0,.47,.18,.84,.53,1.12,.36,.28,.85,.42,1.5,.42s1.14-.14,1.56-.42c.42-.28,.74-.69,.94-1.22l.2,.47c-.2,.53-.53,.96-1,1.27s-1.07,.47-1.8,.47Zm2.63-.06v-1.67l-.03-.25v-2.74c0-.68-.18-1.2-.55-1.55-.37-.36-.91-.53-1.62-.53-.5,0-.97,.09-1.41,.26-.43,.17-.8,.39-1.11,.67l-.35-.5c.36-.33,.8-.58,1.32-.76s1.05-.27,1.61-.27c.9,0,1.6,.23,2.09,.69,.48,.46,.73,1.14,.73,2.04v4.63h-.67Z" style="fill: #01426a;"/>
    <path d="M68.21,94.74c-.68,0-1.29-.16-1.84-.47-.54-.31-.98-.75-1.29-1.31-.32-.56-.48-1.2-.48-1.93s.16-1.38,.48-1.94c.32-.55,.75-.99,1.29-1.3,.55-.31,1.16-.47,1.84-.47,.64,0,1.22,.15,1.74,.45,.52,.3,.93,.72,1.23,1.27s.46,1.21,.46,1.99-.15,1.41-.45,1.97c-.3,.56-.71,.99-1.22,1.29s-1.1,.45-1.76,.45Zm.04-.63c.56,0,1.06-.13,1.51-.38s.79-.62,1.05-1.08,.38-1,.38-1.61-.13-1.16-.38-1.62c-.26-.46-.61-.82-1.05-1.08-.44-.26-.95-.38-1.51-.38s-1.06,.13-1.5,.38c-.44,.26-.79,.62-1.05,1.08-.26,.46-.38,1-.38,1.62s.13,1.14,.38,1.61c.26,.47,.61,.83,1.05,1.08s.94,.38,1.5,.38Zm2.96,.57v-2.39l.12-1.27-.14-1.27v-5.45h.7v10.39h-.69Z" style="fill: #01426a;"/>
    <path d="M76.81,94.74c-.54,0-1.01-.09-1.41-.26-.4-.17-.7-.42-.91-.74-.21-.32-.32-.68-.32-1.09,0-.37,.09-.71,.26-1.01s.46-.55,.86-.74c.4-.19,.94-.29,1.61-.29h2.69v.55h-2.67c-.76,0-1.29,.14-1.59,.42-.3,.28-.46,.63-.46,1.05,0,.47,.18,.84,.53,1.12,.36,.28,.85,.42,1.5,.42s1.14-.14,1.56-.42c.42-.28,.74-.69,.94-1.22l.2,.47c-.2,.53-.53,.96-1,1.27s-1.07,.47-1.8,.47Zm2.63-.06v-1.67l-.03-.25v-2.74c0-.68-.18-1.2-.55-1.55-.37-.36-.91-.53-1.62-.53-.5,0-.97,.09-1.41,.26-.43,.17-.8,.39-1.11,.67l-.35-.5c.36-.33,.8-.58,1.32-.76s1.05-.27,1.61-.27c.9,0,1.6,.23,2.09,.69,.48,.46,.73,1.14,.73,2.04v4.63h-.67Z" style="fill: #01426a;"/>
    <path d="M82.92,94.74c-.16,0-.3-.06-.41-.17-.12-.12-.18-.26-.18-.43s.06-.31,.18-.42c.12-.11,.25-.17,.41-.17s.3,.06,.41,.17c.12,.11,.17,.25,.17,.42s-.06,.31-.17,.43-.25,.17-.41,.17Z" style="fill: #01426a;"/>
  </g>
</svg>