<?xml version="1.0" encoding="UTF-8"?>
<svg id="Layer_1" data-name="Layer 1" xmlns="http://www.w3.org/2000/svg" viewBox="0 0 310 500">
  <g>
    <path d="M10.78,43.27c-1.37,0-2.67-.2-3.91-.59-1.24-.39-2.24-.9-2.99-1.51l1.12-2.52c.7,.55,1.57,1.01,2.6,1.38,1.03,.37,2.09,.55,3.17,.55,.92,0,1.66-.1,2.23-.3,.57-.2,.98-.47,1.25-.81s.4-.73,.4-1.16c0-.53-.19-.96-.57-1.29-.38-.32-.88-.58-1.49-.77-.61-.19-1.28-.37-2.02-.52-.74-.16-1.48-.35-2.23-.59s-1.42-.53-2.04-.89-1.11-.84-1.49-1.44-.56-1.37-.56-2.3,.25-1.82,.76-2.61c.51-.79,1.28-1.42,2.32-1.9s2.36-.71,3.96-.71c1.05,0,2.09,.13,3.12,.4s1.93,.65,2.7,1.15l-1.02,2.53c-.78-.47-1.59-.81-2.43-1.04s-1.63-.34-2.4-.34c-.88,0-1.61,.11-2.17,.33-.57,.22-.98,.5-1.24,.86-.26,.36-.39,.75-.39,1.19,0,.53,.19,.96,.56,1.29,.38,.33,.87,.58,1.48,.76,.61,.18,1.29,.36,2.04,.52s1.49,.36,2.23,.59c.73,.23,1.41,.52,2.02,.88,.62,.36,1.11,.83,1.49,1.43s.56,1.35,.56,2.26-.25,1.8-.76,2.59c-.51,.79-1.29,1.43-2.34,1.9s-2.38,.71-3.98,.71Z" style="fill: #0a486f;"/>
    <path d="M26.43,43.19c-1.13,0-2.13-.21-3-.64-.87-.43-1.55-1.08-2.04-1.95-.49-.88-.74-1.98-.74-3.31v-7.62h3.15v7.23c0,1.18,.27,2.07,.82,2.66,.55,.59,1.32,.89,2.3,.89,.73,0,1.38-.15,1.92-.45,.55-.3,.98-.75,1.27-1.35s.45-1.34,.45-2.23v-6.75h3.12v13.35h-2.98v-3.62l.52,1.12c-.45,.85-1.11,1.51-1.98,1.97s-1.82,.7-2.85,.7Z" style="fill: #0a486f;"/>
    <path d="M48.83,43.19c-1.13,0-2.21-.15-3.23-.44-1.02-.29-1.83-.64-2.45-1.06l1.2-2.38c.6,.38,1.32,.7,2.15,.94,.83,.24,1.67,.36,2.52,.36,.97,0,1.67-.13,2.11-.39,.44-.26,.66-.61,.66-1.06,0-.37-.15-.65-.45-.84-.3-.19-.69-.34-1.18-.44-.48-.1-1.02-.19-1.61-.28-.59-.08-1.18-.2-1.77-.34-.59-.14-1.13-.35-1.61-.62s-.88-.65-1.17-1.11c-.3-.47-.45-1.09-.45-1.88,0-.83,.24-1.56,.73-2.19s1.16-1.11,2.04-1.46c.88-.35,1.91-.53,3.11-.53,.88,0,1.79,.1,2.71,.31,.92,.21,1.7,.5,2.31,.86l-1.23,2.38c-.62-.37-1.25-.62-1.9-.76-.65-.14-1.29-.21-1.93-.21-.93,0-1.63,.14-2.1,.41s-.7,.63-.7,1.06c0,.4,.15,.7,.45,.9,.3,.2,.69,.36,1.18,.46,.48,.11,1.02,.21,1.61,.3,.59,.09,1.18,.21,1.76,.35,.58,.14,1.12,.34,1.61,.6,.49,.26,.89,.62,1.19,1.09,.3,.47,.45,1.07,.45,1.82,0,.85-.25,1.58-.74,2.19-.49,.61-1.18,1.08-2.07,1.43-.89,.34-1.96,.51-3.21,.51Z" style="fill: #0a486f;"/>
    <path d="M63.55,43.19c-1.35,0-2.56-.29-3.64-.89-1.08-.59-1.92-1.4-2.54-2.44-.62-1.03-.92-2.21-.92-3.53s.31-2.53,.92-3.55c.62-1.02,1.46-1.82,2.52-2.41,1.07-.59,2.28-.89,3.65-.89s2.61,.3,3.69,.89c1.08,.59,1.92,1.4,2.53,2.41,.61,1.02,.91,2.2,.91,3.55s-.3,2.51-.91,3.54c-.61,1.03-1.45,1.83-2.54,2.43-1.08,.59-2.31,.89-3.68,.89Zm0-2.65c.77,0,1.45-.17,2.05-.51s1.07-.83,1.41-1.47c.34-.64,.51-1.38,.51-2.21s-.17-1.59-.51-2.21c-.34-.62-.81-1.11-1.41-1.45s-1.27-.51-2.02-.51-1.43,.17-2.03,.51c-.6,.34-1.07,.82-1.42,1.45s-.52,1.36-.52,2.21,.17,1.57,.52,2.21,.83,1.13,1.42,1.47c.6,.34,1.27,.51,2,.51Z" style="fill: #0a486f;"/>
    <path d="M73.7,43.02V24.47h3.1v18.55h-3.1Z" style="fill: #0a486f;"/>
    <path d="M82.5,27.47c-.58,0-1.06-.18-1.44-.55s-.56-.82-.56-1.35c0-.5,.19-.93,.56-1.3,.38-.37,.85-.55,1.44-.55s1.06,.17,1.44,.51c.38,.34,.56,.78,.56,1.31s-.18,.99-.55,1.36c-.37,.38-.85,.56-1.45,.56Zm-1.55,15.55v-13.35h3.1v13.35h-3.1Z" style="fill: #0a486f;"/>
    <path d="M94.3,43.19c-1.4,0-2.65-.29-3.74-.89-1.09-.59-1.95-1.4-2.56-2.43-.62-1.02-.92-2.2-.92-3.54s.31-2.53,.92-3.55c.62-1.02,1.47-1.82,2.56-2.41,1.09-.59,2.34-.89,3.74-.89,1.28,0,2.43,.27,3.43,.8,1,.53,1.75,1.31,2.25,2.33l-2.38,1.4c-.4-.62-.89-1.08-1.46-1.39-.58-.31-1.2-.46-1.86-.46-.77,0-1.46,.17-2.07,.51-.62,.34-1.1,.82-1.45,1.45s-.52,1.36-.52,2.21,.17,1.59,.52,2.22c.35,.63,.83,1.12,1.45,1.46,.62,.34,1.31,.51,2.07,.51,.67,0,1.29-.15,1.86-.46,.57-.31,1.06-.78,1.46-1.41l2.38,1.4c-.5,1-1.25,1.77-2.25,2.31-1,.54-2.14,.81-3.43,.81Z" style="fill: #0a486f;"/>
    <path d="M104.27,27.47c-.58,0-1.06-.18-1.44-.55s-.56-.82-.56-1.35c0-.5,.19-.93,.56-1.3,.38-.37,.85-.55,1.44-.55s1.06,.17,1.44,.51c.38,.34,.56,.78,.56,1.31s-.18,.99-.55,1.36c-.37,.38-.85,.56-1.45,.56Zm-1.55,15.55v-13.35h3.1v13.35h-3.1Z" style="fill: #0a486f;"/>
    <path d="M108.17,32.27v-2.5h8.9v2.5h-8.9Zm6.8,10.92c-1.47,0-2.6-.38-3.4-1.14-.8-.76-1.2-1.87-1.2-3.34v-12h3.1v11.9c0,.63,.17,1.12,.5,1.47,.33,.35,.8,.53,1.4,.53,.68,0,1.25-.18,1.7-.55l.9,2.23c-.38,.3-.84,.52-1.38,.67-.53,.15-1.08,.22-1.62,.22Z" style="fill: #0a486f;"/>
    <path d="M126.2,43.19c-1.13,0-2.13-.21-3-.64-.87-.43-1.55-1.08-2.04-1.95-.49-.88-.74-1.98-.74-3.31v-7.62h3.15v7.23c0,1.18,.27,2.07,.82,2.66,.55,.59,1.32,.89,2.3,.89,.73,0,1.38-.15,1.92-.45,.55-.3,.98-.75,1.27-1.35s.45-1.34,.45-2.23v-6.75h3.12v13.35h-2.98v-3.62l.52,1.12c-.45,.85-1.11,1.51-1.98,1.97s-1.82,.7-2.85,.7Z" style="fill: #0a486f;"/>
    <path d="M143.22,43.19c-1.28,0-2.44-.28-3.46-.85-1.02-.57-1.83-1.36-2.41-2.39-.58-1.03-.88-2.23-.88-3.61s.29-2.57,.88-3.6c.58-1.03,1.39-1.83,2.41-2.4,1.03-.57,2.18-.85,3.46-.85,1.12,0,2.12,.25,3,.74,.88,.49,1.58,1.24,2.1,2.25s.78,2.3,.78,3.86-.25,2.83-.75,3.85c-.5,1.02-1.19,1.77-2.06,2.26-.88,.49-1.9,.74-3.06,.74Zm.38-2.65c.75,0,1.42-.17,2.01-.51,.59-.34,1.07-.83,1.43-1.47,.36-.64,.54-1.38,.54-2.21s-.18-1.59-.54-2.21c-.36-.62-.83-1.11-1.43-1.45-.59-.34-1.26-.51-2.01-.51s-1.42,.17-2.01,.51c-.59,.34-1.07,.82-1.42,1.45-.36,.62-.54,1.36-.54,2.21s.18,1.57,.54,2.21c.36,.64,.83,1.13,1.42,1.47,.59,.34,1.26,.51,2.01,.51Zm4.07,2.48v-3.15l.08-3.55-.25-3.55v-8.3h3.15v18.55h-2.98Z" style="fill: #0a486f;"/>
    <path d="M169.17,29.49c1.08,0,2.04,.21,2.86,.62s1.48,1.06,1.98,1.92c.49,.87,.74,1.98,.74,3.33v7.65h-3.12v-7.25c0-1.18-.28-2.07-.83-2.65s-1.33-.88-2.35-.88c-.73,0-1.38,.15-1.95,.45-.57,.3-1,.75-1.31,1.34-.31,.59-.46,1.34-.46,2.24v6.75h-3.1V24.47h3.1v8.83l-.65-1.12c.45-.85,1.12-1.51,2.01-1.98,.89-.47,1.92-.7,3.09-.7Z" style="fill: #0a486f;"/>
    <path d="M182.75,43.19c-1,0-1.88-.17-2.62-.51s-1.33-.82-1.74-1.43c-.41-.61-.61-1.29-.61-2.06s.18-1.42,.54-2.02,.95-1.08,1.76-1.42c.82-.35,1.9-.53,3.25-.53h3.88v2.08h-3.65c-1.05,0-1.76,.17-2.14,.51s-.56,.77-.56,1.29c0,.55,.23,.99,.67,1.33,.45,.33,1.08,.5,1.88,.5s1.45-.17,2.06-.52c.61-.35,1.05-.87,1.34-1.55l.5,1.88c-.3,.78-.83,1.39-1.6,1.83-.77,.43-1.75,.65-2.95,.65Zm4.2-.17v-2.73l-.15-.55v-4.72c0-.92-.28-1.63-.84-2.14-.56-.51-1.4-.76-2.54-.76-.73,0-1.46,.12-2.17,.35-.72,.23-1.33,.56-1.85,.97l-1.22-2.27c.73-.55,1.59-.97,2.58-1.25,.98-.28,2.01-.42,3.08-.42,1.95,0,3.45,.47,4.5,1.4,1.05,.93,1.57,2.37,1.57,4.3v7.83h-2.95Z" style="fill: #0a486f;"/>
    <path d="M204.9,43.19c-1.13,0-2.21-.15-3.23-.44-1.02-.29-1.83-.64-2.45-1.06l1.2-2.38c.6,.38,1.32,.7,2.15,.94,.83,.24,1.67,.36,2.53,.36,.97,0,1.67-.13,2.11-.39,.44-.26,.66-.61,.66-1.06,0-.37-.15-.65-.45-.84-.3-.19-.69-.34-1.17-.44-.48-.1-1.02-.19-1.61-.28s-1.18-.2-1.78-.34c-.59-.14-1.13-.35-1.61-.62s-.88-.65-1.17-1.11c-.3-.47-.45-1.09-.45-1.88,0-.83,.24-1.56,.73-2.19,.48-.62,1.16-1.11,2.04-1.46,.88-.35,1.91-.53,3.11-.53,.88,0,1.79,.1,2.71,.31s1.7,.5,2.31,.86l-1.23,2.38c-.62-.37-1.25-.62-1.9-.76-.65-.14-1.29-.21-1.92-.21-.93,0-1.63,.14-2.1,.41s-.7,.63-.7,1.06c0,.4,.15,.7,.45,.9,.3,.2,.69,.36,1.17,.46,.48,.11,1.02,.21,1.61,.3,.59,.09,1.18,.21,1.76,.35,.58,.14,1.12,.34,1.61,.6,.49,.26,.89,.62,1.19,1.09,.3,.47,.45,1.07,.45,1.82,0,.85-.25,1.58-.74,2.19-.49,.61-1.18,1.08-2.08,1.43s-1.96,.51-3.21,.51Z" style="fill: #0a486f;"/>
    <path d="M215.2,27.47c-.58,0-1.06-.18-1.44-.55s-.56-.82-.56-1.35c0-.5,.19-.93,.56-1.3,.38-.37,.85-.55,1.44-.55s1.06,.17,1.44,.51c.38,.34,.56,.78,.56,1.31s-.18,.99-.55,1.36c-.37,.38-.85,.56-1.45,.56Zm-1.55,15.55v-13.35h3.1v13.35h-3.1Z" style="fill: #0a486f;"/>
    <path d="M226.52,43.19c-1.28,0-2.44-.28-3.46-.85-1.02-.57-1.83-1.36-2.41-2.39-.58-1.03-.88-2.23-.88-3.61s.29-2.57,.88-3.6c.58-1.03,1.39-1.83,2.41-2.4,1.03-.57,2.18-.85,3.46-.85,1.12,0,2.12,.25,3,.74,.88,.49,1.58,1.24,2.1,2.25s.78,2.3,.78,3.86-.25,2.83-.75,3.85c-.5,1.02-1.19,1.77-2.06,2.26-.88,.49-1.9,.74-3.06,.74Zm.38-2.65c.75,0,1.42-.17,2.01-.51,.59-.34,1.07-.83,1.42-1.47s.54-1.38,.54-2.21-.18-1.59-.54-2.21-.83-1.11-1.42-1.45c-.59-.34-1.26-.51-2.01-.51s-1.42,.17-2.01,.51-1.07,.82-1.42,1.45-.54,1.36-.54,2.21,.18,1.57,.54,2.21,.83,1.13,1.42,1.47,1.26,.51,2.01,.51Zm4.08,2.48v-3.15l.07-3.55-.25-3.55v-8.3h3.15v18.55h-2.97Z" style="fill: #0a486f;"/>
    <path d="M244.02,43.19c-1.35,0-2.56-.29-3.64-.89-1.07-.59-1.92-1.4-2.54-2.44-.62-1.03-.92-2.21-.92-3.53s.31-2.53,.92-3.55c.62-1.02,1.46-1.82,2.53-2.41,1.07-.59,2.28-.89,3.65-.89s2.61,.3,3.69,.89c1.08,.59,1.92,1.4,2.53,2.41s.91,2.2,.91,3.55-.3,2.51-.91,3.54c-.61,1.03-1.45,1.83-2.54,2.43-1.08,.59-2.31,.89-3.67,.89Zm0-2.65c.77,0,1.45-.17,2.05-.51,.6-.34,1.07-.83,1.41-1.47,.34-.64,.51-1.38,.51-2.21s-.17-1.59-.51-2.21c-.34-.62-.81-1.11-1.41-1.45-.6-.34-1.27-.51-2.02-.51s-1.42,.17-2.03,.51c-.6,.34-1.08,.82-1.42,1.45s-.53,1.36-.53,2.21,.18,1.57,.53,2.21,.83,1.13,1.42,1.47c.6,.34,1.27,.51,2,.51Z" style="fill: #0a486f;"/>
    <path d="M5.08,77.87v-18.2h2.97v3.15l-.12,3.55,.25,3.55v7.95h-3.1Zm7.38-4.68c-1.1,0-2.09-.25-2.98-.74-.88-.49-1.58-1.25-2.1-2.26-.52-1.02-.77-2.3-.77-3.85s.25-2.85,.74-3.86,1.19-1.76,2.09-2.25c.9-.49,1.91-.74,3.03-.74,1.3,0,2.46,.28,3.47,.85s1.82,1.37,2.41,2.4c.59,1.03,.89,2.23,.89,3.6s-.3,2.59-.89,3.61c-.59,1.02-1.4,1.82-2.41,2.39s-2.17,.85-3.47,.85Zm-.38-2.65c.77,0,1.45-.17,2.04-.52,.59-.35,1.06-.84,1.41-1.48s.52-1.37,.52-2.2-.17-1.59-.52-2.21-.82-1.11-1.41-1.45-1.27-.51-2.04-.51-1.4,.17-2,.51c-.6,.34-1.08,.82-1.43,1.45s-.52,1.36-.52,2.21,.17,1.57,.52,2.2,.83,1.12,1.43,1.48c.6,.35,1.27,.52,2,.52Z" style="fill: #0a486f;"/>
    <path d="M22.23,73.02v-13.35h2.97v3.67l-.35-1.07c.38-.9,1.01-1.59,1.88-2.06,.87-.48,1.92-.71,3.17-.71v2.97c-.12-.02-.23-.03-.35-.04s-.23-.01-.32-.01c-1.2,0-2.15,.34-2.85,1.02-.7,.68-1.05,1.73-1.05,3.12v6.45h-3.1Z" style="fill: #0a486f;"/>
    <path d="M38.7,73.19c-1.35,0-2.56-.29-3.64-.89-1.08-.59-1.92-1.4-2.54-2.44-.62-1.03-.92-2.21-.92-3.53s.31-2.53,.92-3.55c.62-1.02,1.46-1.82,2.52-2.41,1.07-.59,2.28-.89,3.65-.89s2.61,.3,3.69,.89c1.08,.59,1.92,1.4,2.53,2.41,.61,1.02,.91,2.2,.91,3.55s-.3,2.51-.91,3.54c-.61,1.03-1.45,1.83-2.54,2.43-1.08,.59-2.31,.89-3.68,.89Zm0-2.65c.77,0,1.45-.17,2.05-.51s1.07-.83,1.41-1.47c.34-.64,.51-1.38,.51-2.21s-.17-1.59-.51-2.21c-.34-.62-.81-1.11-1.41-1.45s-1.27-.51-2.02-.51-1.43,.17-2.03,.51c-.6,.34-1.07,.82-1.42,1.45s-.52,1.36-.52,2.21,.17,1.57,.52,2.21,.83,1.13,1.42,1.47c.6,.34,1.27,.51,2,.51Z" style="fill: #0a486f;"/>
    <path d="M54.95,73.19c-1.4,0-2.65-.29-3.74-.89-1.09-.59-1.95-1.4-2.56-2.43-.62-1.02-.92-2.2-.92-3.54s.31-2.53,.92-3.55c.62-1.02,1.47-1.82,2.56-2.41,1.09-.59,2.34-.89,3.74-.89,1.28,0,2.43,.27,3.43,.8,1,.53,1.75,1.31,2.25,2.33l-2.38,1.4c-.4-.62-.89-1.08-1.46-1.39-.58-.31-1.2-.46-1.86-.46-.77,0-1.46,.17-2.07,.51-.62,.34-1.1,.82-1.45,1.45s-.52,1.36-.52,2.21,.17,1.59,.52,2.22c.35,.63,.83,1.12,1.45,1.46,.62,.34,1.31,.51,2.07,.51,.67,0,1.29-.15,1.86-.46,.57-.31,1.06-.78,1.46-1.41l2.38,1.4c-.5,1-1.25,1.77-2.25,2.31-1,.54-2.14,.81-3.43,.81Z" style="fill: #0a486f;"/>
    <path d="M69.62,73.19c-1.48,0-2.78-.29-3.89-.89s-1.97-1.4-2.58-2.43c-.61-1.02-.91-2.2-.91-3.54s.3-2.51,.89-3.54c.59-1.03,1.41-1.83,2.45-2.43,1.04-.59,2.23-.89,3.56-.89s2.46,.29,3.48,.86c1.02,.58,1.82,1.38,2.4,2.41,.58,1.03,.88,2.26,.88,3.67,0,.12,0,.26-.01,.44,0,.18-.02,.33-.04,.46h-11.12v-2.07h9.48l-1.25,.65c.02-.75-.14-1.42-.46-2.01s-.77-1.05-1.34-1.38c-.57-.32-1.23-.49-2-.49s-1.42,.16-2.01,.49c-.59,.33-1.05,.79-1.36,1.39-.32,.6-.48,1.29-.48,2.08v.5c0,.8,.18,1.51,.54,2.12,.36,.62,.87,1.1,1.54,1.44,.67,.34,1.44,.51,2.32,.51,.75,0,1.43-.12,2.02-.38,.6-.25,1.13-.62,1.6-1.1l1.7,1.95c-.62,.7-1.38,1.23-2.29,1.6-.91,.37-1.95,.55-3.11,.55Z" style="fill: #0a486f;"/>
    <path d="M83.05,73.19c-1.13,0-2.21-.15-3.23-.44-1.02-.29-1.83-.64-2.45-1.06l1.2-2.38c.6,.38,1.32,.7,2.15,.94,.83,.24,1.67,.36,2.52,.36,.97,0,1.67-.13,2.11-.39,.44-.26,.66-.61,.66-1.06,0-.37-.15-.65-.45-.84-.3-.19-.69-.34-1.18-.44-.48-.1-1.02-.19-1.61-.28-.59-.08-1.18-.2-1.77-.34-.59-.14-1.13-.35-1.61-.62s-.88-.65-1.17-1.11c-.3-.47-.45-1.09-.45-1.88,0-.83,.24-1.56,.73-2.19s1.16-1.11,2.04-1.46c.88-.35,1.91-.53,3.11-.53,.88,0,1.79,.1,2.71,.31,.92,.21,1.7,.5,2.31,.86l-1.23,2.38c-.62-.37-1.25-.62-1.9-.76-.65-.14-1.29-.21-1.93-.21-.93,0-1.63,.14-2.1,.41s-.7,.63-.7,1.06c0,.4,.15,.7,.45,.9,.3,.2,.69,.36,1.18,.46,.48,.11,1.02,.21,1.61,.3,.59,.09,1.18,.21,1.76,.35,.58,.14,1.12,.34,1.61,.6,.49,.26,.89,.62,1.19,1.09,.3,.47,.45,1.07,.45,1.82,0,.85-.25,1.58-.74,2.19-.49,.61-1.18,1.08-2.07,1.43-.89,.34-1.96,.51-3.21,.51Z" style="fill: #0a486f;"/>
    <path d="M95.8,73.19c-1,0-1.88-.17-2.62-.51s-1.33-.82-1.74-1.43c-.41-.61-.61-1.29-.61-2.06s.18-1.42,.54-2.02c.36-.6,.95-1.08,1.76-1.42,.82-.35,1.9-.53,3.25-.53h3.88v2.08h-3.65c-1.05,0-1.76,.17-2.14,.51s-.56,.77-.56,1.29c0,.55,.23,.99,.68,1.33,.45,.33,1.07,.5,1.88,.5s1.45-.17,2.06-.52c.61-.35,1.05-.87,1.34-1.55l.5,1.88c-.3,.78-.83,1.39-1.6,1.83-.77,.43-1.75,.65-2.95,.65Zm4.2-.17v-2.73l-.15-.55v-4.72c0-.92-.28-1.63-.84-2.14-.56-.51-1.4-.76-2.54-.76-.73,0-1.46,.12-2.17,.35-.72,.23-1.33,.56-1.85,.97l-1.23-2.27c.73-.55,1.59-.97,2.58-1.25,.98-.28,2.01-.42,3.07-.42,1.95,0,3.45,.47,4.5,1.4,1.05,.93,1.58,2.37,1.58,4.3v7.83h-2.95Z" style="fill: #0a486f;"/>
    <path d="M112.57,73.19c-1.28,0-2.44-.28-3.46-.85-1.02-.57-1.83-1.36-2.41-2.39-.58-1.03-.88-2.23-.88-3.61s.29-2.57,.88-3.6c.58-1.03,1.39-1.83,2.41-2.4,1.03-.57,2.18-.85,3.46-.85,1.12,0,2.12,.25,3,.74,.88,.49,1.58,1.24,2.1,2.25s.78,2.3,.78,3.86-.25,2.83-.75,3.85c-.5,1.02-1.19,1.77-2.06,2.26-.88,.49-1.9,.74-3.06,.74Zm.38-2.65c.75,0,1.42-.17,2.01-.51,.59-.34,1.07-.83,1.43-1.47,.36-.64,.54-1.38,.54-2.21s-.18-1.59-.54-2.21c-.36-.62-.83-1.11-1.43-1.45-.59-.34-1.26-.51-2.01-.51s-1.42,.17-2.01,.51c-.59,.34-1.07,.82-1.42,1.45-.36,.62-.54,1.36-.54,2.21s.18,1.57,.54,2.21c.36,.64,.83,1.13,1.42,1.47,.59,.34,1.26,.51,2.01,.51Zm4.07,2.48v-3.15l.08-3.55-.25-3.55v-8.3h3.15v18.55h-2.98Z" style="fill: #0a486f;"/>
    <path d="M128.1,73.19c-1,0-1.88-.17-2.62-.51s-1.33-.82-1.74-1.43c-.41-.61-.61-1.29-.61-2.06s.18-1.42,.54-2.02c.36-.6,.95-1.08,1.76-1.42,.82-.35,1.9-.53,3.25-.53h3.88v2.08h-3.65c-1.05,0-1.76,.17-2.14,.51s-.56,.77-.56,1.29c0,.55,.23,.99,.68,1.33,.45,.33,1.07,.5,1.88,.5s1.45-.17,2.06-.52c.61-.35,1.05-.87,1.34-1.55l.5,1.88c-.3,.78-.83,1.39-1.6,1.83-.77,.43-1.75,.65-2.95,.65Zm4.2-.17v-2.73l-.15-.55v-4.72c0-.92-.28-1.63-.84-2.14-.56-.51-1.4-.76-2.54-.76-.73,0-1.46,.12-2.17,.35-.72,.23-1.33,.56-1.85,.97l-1.23-2.27c.73-.55,1.59-.97,2.58-1.25,.98-.28,2.01-.42,3.07-.42,1.95,0,3.45,.47,4.5,1.4,1.05,.93,1.58,2.37,1.58,4.3v7.83h-2.95Z" style="fill: #0a486f;"/>
    <path d="M152.22,73.19c-1.4,0-2.65-.29-3.74-.89-1.09-.59-1.95-1.4-2.56-2.43-.62-1.02-.92-2.2-.92-3.54s.31-2.53,.92-3.55c.62-1.02,1.47-1.82,2.56-2.41,1.09-.59,2.34-.89,3.74-.89,1.28,0,2.43,.27,3.43,.8,1,.53,1.75,1.31,2.25,2.33l-2.38,1.4c-.4-.62-.89-1.08-1.46-1.39-.57-.31-1.2-.46-1.86-.46-.77,0-1.46,.17-2.07,.51-.62,.34-1.1,.82-1.45,1.45s-.52,1.36-.52,2.21,.17,1.59,.52,2.22c.35,.63,.83,1.12,1.45,1.46,.62,.34,1.31,.51,2.07,.51,.67,0,1.29-.15,1.86-.46,.58-.31,1.06-.78,1.46-1.41l2.38,1.4c-.5,1-1.25,1.77-2.25,2.31-1,.54-2.14,.81-3.43,.81Z" style="fill: #0a486f;"/>
    <path d="M166.62,73.19c-1.35,0-2.56-.29-3.64-.89-1.07-.59-1.92-1.4-2.54-2.44-.62-1.03-.92-2.21-.92-3.53s.31-2.53,.92-3.55c.62-1.02,1.46-1.82,2.53-2.41,1.07-.59,2.28-.89,3.65-.89s2.61,.3,3.69,.89c1.08,.59,1.92,1.4,2.53,2.41s.91,2.2,.91,3.55-.3,2.51-.91,3.54c-.61,1.03-1.45,1.83-2.54,2.43-1.08,.59-2.31,.89-3.67,.89Zm0-2.65c.77,0,1.45-.17,2.05-.51,.6-.34,1.07-.83,1.41-1.47,.34-.64,.51-1.38,.51-2.21s-.17-1.59-.51-2.21c-.34-.62-.81-1.11-1.41-1.45-.6-.34-1.27-.51-2.02-.51s-1.42,.17-2.03,.51c-.6,.34-1.08,.82-1.42,1.45s-.53,1.36-.53,2.21,.18,1.57,.53,2.21,.83,1.13,1.42,1.47c.6,.34,1.27,.51,2,.51Z" style="fill: #0a486f;"/>
    <path d="M184.32,59.49c1.08,0,2.04,.21,2.86,.62s1.48,1.06,1.98,1.92c.49,.87,.74,1.98,.74,3.33v7.65h-3.12v-7.25c0-1.18-.28-2.07-.83-2.65s-1.33-.88-2.35-.88c-.73,0-1.38,.15-1.95,.45-.57,.3-1,.75-1.31,1.34-.31,.59-.46,1.34-.46,2.24v6.75h-3.1v-13.35h2.97v3.62l-.52-1.12c.45-.85,1.12-1.51,2.01-1.98,.89-.47,1.92-.7,3.09-.7Z" style="fill: #0a486f;"/>
    <path d="M207.02,73.19c-1.48,0-2.78-.29-3.89-.89s-1.97-1.4-2.58-2.43c-.61-1.02-.91-2.2-.91-3.54s.3-2.51,.89-3.54c.59-1.03,1.41-1.83,2.45-2.43,1.04-.59,2.23-.89,3.56-.89s2.46,.29,3.48,.86,1.82,1.38,2.4,2.41c.58,1.03,.88,2.26,.88,3.67,0,.12,0,.26-.01,.44,0,.18-.02,.33-.04,.46h-11.12v-2.07h9.48l-1.25,.65c.02-.75-.14-1.42-.46-2.01s-.77-1.05-1.34-1.38c-.57-.32-1.23-.49-2-.49s-1.42,.16-2.01,.49c-.59,.33-1.05,.79-1.36,1.39s-.47,1.29-.47,2.08v.5c0,.8,.18,1.51,.54,2.12s.87,1.1,1.54,1.44c.67,.34,1.44,.51,2.33,.51,.75,0,1.42-.12,2.02-.38,.6-.25,1.13-.62,1.6-1.1l1.7,1.95c-.62,.7-1.38,1.23-2.29,1.6-.91,.37-1.95,.55-3.11,.55Zm-2.65-15.35l3.38-3.42h3.7l-4.38,3.42h-2.7Z" style="fill: #0a486f;"/>
    <path d="M214.47,73.02l5.85-7.65-.03,1.65-5.62-7.35h3.5l3.92,5.23h-1.32l3.95-5.23h3.38l-5.65,7.38,.02-1.67,5.88,7.65h-3.55l-4.12-5.58,1.33,.18-4.05,5.4h-3.48Z" style="fill: #0a486f;"/>
    <path d="M232.2,57.47c-.58,0-1.06-.18-1.44-.55s-.56-.82-.56-1.35c0-.5,.19-.93,.56-1.3,.38-.37,.85-.55,1.44-.55s1.06,.17,1.44,.51c.38,.34,.56,.78,.56,1.31s-.18,.99-.55,1.36c-.37,.38-.85,.56-1.45,.56Zm-1.55,15.55v-13.35h3.1v13.35h-3.1Z" style="fill: #0a486f;"/>
    <path d="M236.1,62.27v-2.5h8.9v2.5h-8.9Zm6.8,10.92c-1.47,0-2.6-.38-3.4-1.14s-1.2-1.87-1.2-3.34v-12h3.1v11.9c0,.63,.17,1.12,.5,1.47,.33,.35,.8,.53,1.4,.53,.68,0,1.25-.18,1.7-.55l.9,2.23c-.38,.3-.84,.52-1.38,.67-.53,.15-1.08,.22-1.62,.22Z" style="fill: #0a486f;"/>
    <path d="M254.47,73.19c-1.35,0-2.56-.29-3.64-.89-1.07-.59-1.92-1.4-2.54-2.44-.62-1.03-.92-2.21-.92-3.53s.31-2.53,.92-3.55c.62-1.02,1.46-1.82,2.53-2.41,1.07-.59,2.28-.89,3.65-.89s2.61,.3,3.69,.89c1.08,.59,1.92,1.4,2.53,2.41s.91,2.2,.91,3.55-.3,2.51-.91,3.54c-.61,1.03-1.45,1.83-2.54,2.43-1.08,.59-2.31,.89-3.67,.89Zm0-2.65c.77,0,1.45-.17,2.05-.51,.6-.34,1.07-.83,1.41-1.47,.34-.64,.51-1.38,.51-2.21s-.17-1.59-.51-2.21c-.34-.62-.81-1.11-1.41-1.45-.6-.34-1.27-.51-2.02-.51s-1.42,.17-2.03,.51c-.6,.34-1.08,.82-1.42,1.45s-.53,1.36-.53,2.21,.18,1.57,.53,2.21,.83,1.13,1.42,1.47c.6,.34,1.27,.51,2,.51Z" style="fill: #0a486f;"/>
    <path d="M266.05,73.19c-.58,0-1.07-.19-1.45-.57s-.58-.84-.58-1.38,.19-.99,.58-1.36,.87-.56,1.45-.56,1.06,.19,1.42,.56,.55,.83,.55,1.36-.18,.99-.55,1.38-.84,.57-1.42,.57Zm-1.25-5.97l-.6-11.7h3.7l-.65,11.7h-2.45Z" style="fill: #0a486f;"/>
  </g>
  <rect x="1.5" y="265.5" width="307" height="50" rx="8" ry="8" style="fill: #ffc600;"/>
  <g>
    <path d="M6.98,115.24h6.05v.64H6.26v-9.8h6.55v.64H6.98v8.51Zm-.08-4.65h5.31v.63H6.89v-.63Z" style="fill: #01426a;"/>
    <path d="M15.41,115.89v-10.39h.7v10.39h-.7Z" style="fill: #01426a;"/>
    <path d="M31.76,108.53c.59,0,1.1,.11,1.53,.34,.43,.23,.77,.57,1.01,1.04,.24,.46,.36,1.03,.36,1.71v4.27h-.7v-4.21c0-.82-.2-1.45-.6-1.88s-.96-.64-1.68-.64c-.55,0-1.03,.12-1.43,.35s-.71,.56-.92,.98c-.21,.42-.32,.92-.32,1.51v3.89h-.7v-4.21c0-.82-.2-1.45-.6-1.88-.4-.43-.96-.64-1.68-.64-.55,0-1.03,.12-1.43,.35-.4,.23-.71,.56-.92,.98s-.32,.92-.32,1.51v3.89h-.7v-7.31h.67v2.02l-.1-.22c.21-.57,.57-1.02,1.08-1.35,.5-.33,1.11-.5,1.82-.5s1.34,.18,1.84,.55c.5,.37,.81,.92,.95,1.64l-.24-.1c.2-.62,.56-1.13,1.11-1.52,.54-.39,1.2-.58,1.97-.58Z" style="fill: #01426a;"/>
    <path d="M40.41,115.95c-.7,0-1.32-.16-1.87-.48-.55-.32-.98-.76-1.3-1.32-.32-.56-.48-1.2-.48-1.92s.16-1.37,.48-1.92c.32-.56,.76-.99,1.3-1.31,.55-.32,1.17-.47,1.87-.47s1.33,.16,1.88,.47c.55,.32,.98,.75,1.3,1.31,.32,.56,.48,1.2,.48,1.92s-.16,1.36-.48,1.92c-.32,.56-.75,1-1.3,1.32s-1.18,.48-1.88,.48Zm0-.63c.56,0,1.06-.13,1.51-.38,.45-.26,.8-.62,1.05-1.08s.38-1,.38-1.61-.13-1.15-.38-1.62c-.25-.46-.6-.82-1.05-1.08-.45-.26-.95-.38-1.51-.38s-1.06,.13-1.5,.38c-.44,.26-.79,.62-1.05,1.08-.26,.46-.39,1-.39,1.62s.13,1.14,.39,1.61c.26,.47,.61,.83,1.05,1.08s.94,.38,1.5,.38Z" style="fill: #01426a;"/>
    <path d="M49.8,108.53c.6,0,1.12,.11,1.56,.34,.44,.23,.79,.57,1.04,1.04,.25,.46,.37,1.03,.37,1.71v4.27h-.7v-4.21c0-.82-.21-1.45-.62-1.88-.42-.43-1-.64-1.74-.64-.57,0-1.06,.12-1.48,.35-.42,.23-.74,.56-.96,.98-.22,.42-.33,.92-.33,1.51v3.89h-.7v-7.31h.67v2.03l-.1-.22c.22-.58,.59-1.03,1.11-1.37,.51-.33,1.14-.5,1.89-.5Z" style="fill: #01426a;"/>
    <path d="M54.45,109.18v-.6h4.37v.6h-4.37Zm3.33,6.76c-.64,0-1.14-.18-1.48-.53-.34-.35-.51-.84-.51-1.46v-6.97h.7v6.9c0,.47,.12,.83,.35,1.08s.57,.38,1.01,.38,.83-.14,1.13-.41l.29,.49c-.19,.18-.41,.31-.68,.39-.27,.08-.54,.13-.82,.13Z" style="fill: #01426a;"/>
    <path d="M64.08,115.95c-.7,0-1.32-.16-1.87-.48-.55-.32-.98-.76-1.3-1.32-.32-.56-.48-1.2-.48-1.92s.16-1.37,.48-1.92c.32-.56,.76-.99,1.3-1.31,.55-.32,1.17-.47,1.87-.47s1.33,.16,1.88,.47c.55,.32,.98,.75,1.3,1.31,.32,.56,.48,1.2,.48,1.92s-.16,1.36-.48,1.92c-.32,.56-.75,1-1.3,1.32s-1.18,.48-1.88,.48Zm0-.63c.56,0,1.06-.13,1.51-.38,.45-.26,.8-.62,1.05-1.08s.38-1,.38-1.61-.13-1.15-.38-1.62c-.25-.46-.6-.82-1.05-1.08-.45-.26-.95-.38-1.51-.38s-1.06,.13-1.5,.38c-.44,.26-.79,.62-1.05,1.08-.26,.46-.39,1-.39,1.62s.13,1.14,.39,1.61c.26,.47,.61,.83,1.05,1.08s.94,.38,1.5,.38Z" style="fill: #01426a;"/>
    <path d="M76.32,115.95c-.68,0-1.29-.16-1.84-.47-.55-.31-.98-.75-1.29-1.31-.32-.56-.48-1.2-.48-1.93s.16-1.38,.48-1.94c.32-.56,.75-.99,1.29-1.3s1.16-.47,1.84-.47c.64,0,1.23,.15,1.74,.45s.93,.72,1.23,1.27c.3,.55,.46,1.21,.46,1.99s-.15,1.41-.45,1.97c-.3,.56-.71,.99-1.22,1.29-.52,.3-1.1,.45-1.76,.45Zm.04-.63c.56,0,1.06-.13,1.51-.38,.44-.26,.79-.62,1.05-1.08,.26-.47,.38-1,.38-1.61s-.13-1.15-.38-1.62c-.26-.46-.61-.82-1.05-1.08-.44-.26-.95-.38-1.51-.38s-1.06,.13-1.5,.38c-.44,.26-.79,.62-1.05,1.08-.26,.46-.39,1-.39,1.62s.13,1.14,.39,1.61c.26,.47,.61,.83,1.05,1.08s.94,.38,1.5,.38Zm2.95,.57v-2.39l.13-1.27-.14-1.27v-5.45h.7v10.39h-.69Z" style="fill: #01426a;"/>
    <path d="M85.92,115.95c-.74,0-1.39-.16-1.95-.48-.56-.32-1.01-.76-1.33-1.32-.32-.56-.48-1.2-.48-1.92s.15-1.37,.46-1.92c.3-.56,.72-.99,1.25-1.31,.53-.32,1.13-.47,1.79-.47s1.26,.15,1.79,.46c.53,.31,.94,.74,1.25,1.29,.3,.56,.46,1.2,.46,1.93,0,.03,0,.06,0,.09,0,.03,0,.07,0,.1h-6.45v-.55h6.08l-.28,.27c0-.57-.11-1.08-.36-1.53-.25-.45-.58-.81-1-1.06-.42-.26-.91-.38-1.46-.38s-1.02,.13-1.45,.38c-.42,.26-.76,.61-1,1.06s-.36,.97-.36,1.55v.13c0,.6,.13,1.13,.4,1.59s.63,.82,1.1,1.08c.47,.26,1,.38,1.6,.38,.47,0,.9-.08,1.31-.25,.41-.17,.75-.42,1.03-.77l.41,.46c-.32,.39-.72,.69-1.2,.89-.48,.2-1,.3-1.56,.3Z" style="fill: #01426a;"/>
    <path d="M96.76,115.95c-.61,0-1.17-.09-1.7-.27s-.94-.4-1.23-.67l.32-.56c.28,.24,.65,.45,1.12,.62,.47,.17,.97,.26,1.51,.26,.76,0,1.32-.12,1.65-.38s.5-.58,.5-.99c0-.3-.09-.54-.26-.71-.17-.17-.4-.31-.69-.4s-.61-.17-.95-.23c-.35-.06-.69-.13-1.04-.2-.35-.07-.66-.18-.95-.32-.29-.14-.52-.33-.69-.58-.17-.25-.26-.58-.26-.99,0-.37,.1-.71,.31-1.01,.21-.3,.51-.54,.92-.72,.41-.18,.92-.27,1.54-.27,.46,0,.92,.06,1.38,.2,.46,.13,.84,.3,1.13,.52l-.32,.56c-.31-.23-.65-.4-1.04-.5-.38-.1-.77-.15-1.16-.15-.71,0-1.23,.13-1.56,.39-.33,.26-.5,.59-.5,.98,0,.31,.09,.55,.26,.74,.17,.18,.4,.32,.69,.42,.29,.1,.61,.18,.95,.24,.34,.06,.69,.13,1.04,.2,.35,.07,.66,.18,.95,.31s.52,.32,.69,.56c.17,.24,.26,.56,.26,.96s-.11,.75-.33,1.05c-.22,.3-.54,.53-.97,.7s-.96,.25-1.58,.25Z" style="fill: #01426a;"/>
    <path d="M104.57,115.95c-.63,0-1.17-.12-1.62-.34-.46-.23-.81-.57-1.06-1.04-.25-.46-.37-1.03-.37-1.71v-4.27h.7v4.21c0,.82,.21,1.45,.63,1.88,.42,.43,1.01,.64,1.78,.64,.55,0,1.03-.12,1.43-.35s.71-.56,.92-.99c.21-.42,.32-.93,.32-1.5v-3.89h.7v7.31h-.67v-2.03l.1,.24c-.21,.57-.57,1.02-1.07,1.35-.5,.33-1.09,.5-1.79,.5Z" style="fill: #01426a;"/>
    <path d="M114.57,118.6v-10.02h.67v2.39l-.11,1.27,.14,1.27v5.08h-.7Zm3.67-2.66c-.64,0-1.23-.15-1.74-.45-.52-.3-.93-.72-1.23-1.28-.3-.56-.46-1.22-.46-1.98s.15-1.43,.46-1.98c.3-.56,.71-.98,1.23-1.28,.52-.3,1.1-.45,1.74-.45,.69,0,1.31,.16,1.85,.47s.98,.75,1.29,1.31,.47,1.2,.47,1.93-.16,1.37-.47,1.93c-.31,.56-.74,1-1.29,1.31-.55,.31-1.16,.47-1.85,.47Zm-.04-.63c.56,0,1.06-.13,1.51-.38s.8-.62,1.06-1.08,.39-1,.39-1.61-.13-1.15-.39-1.62c-.26-.46-.61-.82-1.06-1.08-.45-.26-.95-.38-1.51-.38s-1.06,.13-1.5,.38c-.44,.26-.79,.62-1.05,1.08-.26,.46-.38,1-.38,1.62s.13,1.14,.38,1.61,.61,.83,1.05,1.08c.44,.26,.94,.38,1.5,.38Z" style="fill: #01426a;"/>
    <path d="M124.02,115.89v-7.31h.67v2l-.07-.22c.21-.59,.55-1.04,1.04-1.36,.49-.32,1.09-.47,1.82-.47v.69s-.06,0-.08,0c-.03,0-.06,0-.08,0-.81,0-1.45,.25-1.9,.76-.46,.51-.69,1.22-.69,2.12v3.81h-.7Z" style="fill: #01426a;"/>
    <path d="M132.5,115.95c-.74,0-1.39-.16-1.95-.48s-1.01-.76-1.33-1.32c-.32-.56-.48-1.2-.48-1.92s.15-1.37,.46-1.92c.3-.56,.72-.99,1.25-1.31,.53-.32,1.13-.47,1.79-.47s1.26,.15,1.79,.46c.53,.31,.94,.74,1.25,1.29,.3,.56,.46,1.2,.46,1.93,0,.03,0,.06,0,.09s0,.07,0,.1h-6.45v-.55h6.08l-.28,.27c0-.57-.11-1.08-.36-1.53-.25-.45-.58-.81-1-1.06-.42-.26-.91-.38-1.46-.38s-1.02,.13-1.45,.38c-.42,.26-.76,.61-1,1.06-.24,.45-.36,.97-.36,1.55v.13c0,.6,.13,1.13,.4,1.59,.27,.46,.63,.82,1.1,1.08s1,.38,1.6,.38c.47,0,.9-.08,1.31-.25,.41-.17,.75-.42,1.03-.77l.41,.46c-.32,.39-.72,.69-1.2,.89-.48,.2-1,.3-1.56,.3Z" style="fill: #01426a;"/>
    <path d="M139.74,115.95c-.61,0-1.17-.09-1.7-.27s-.94-.4-1.22-.67l.32-.56c.28,.24,.65,.45,1.12,.62,.47,.17,.97,.26,1.51,.26,.76,0,1.32-.12,1.65-.38s.5-.58,.5-.99c0-.3-.09-.54-.26-.71-.17-.17-.4-.31-.69-.4-.29-.09-.61-.17-.95-.23-.35-.06-.69-.13-1.04-.2-.35-.07-.66-.18-.95-.32s-.52-.33-.69-.58c-.17-.25-.26-.58-.26-.99,0-.37,.1-.71,.31-1.01,.21-.3,.51-.54,.92-.72,.41-.18,.92-.27,1.54-.27,.46,0,.92,.06,1.38,.2s.84,.3,1.13,.52l-.32,.56c-.31-.23-.65-.4-1.04-.5-.38-.1-.77-.15-1.16-.15-.71,0-1.23,.13-1.56,.39-.33,.26-.5,.59-.5,.98,0,.31,.09,.55,.26,.74,.17,.18,.4,.32,.69,.42,.29,.1,.61,.18,.95,.24,.34,.06,.69,.13,1.04,.2,.35,.07,.66,.18,.95,.31s.52,.32,.69,.56c.17,.24,.26,.56,.26,.96s-.11,.75-.33,1.05c-.22,.3-.54,.53-.97,.7-.43,.17-.96,.25-1.58,.25Z" style="fill: #01426a;"/>
    <path d="M143.38,109.18v-.6h4.37v.6h-4.37Zm3.33,6.76c-.64,0-1.14-.18-1.48-.53-.34-.35-.51-.84-.51-1.46v-6.97h.7v6.9c0,.47,.12,.83,.35,1.08s.57,.38,1.01,.38,.84-.14,1.13-.41l.29,.49c-.19,.18-.41,.31-.68,.39-.27,.08-.54,.13-.82,.13Z" style="fill: #01426a;"/>
    <path d="M152.13,115.95c-.54,0-1.01-.09-1.41-.26-.4-.17-.7-.42-.91-.73-.21-.32-.31-.68-.31-1.09,0-.37,.09-.71,.26-1.02s.46-.55,.86-.74,.94-.29,1.61-.29h2.69v.55h-2.67c-.76,0-1.29,.14-1.59,.42-.3,.28-.46,.63-.46,1.05,0,.47,.18,.84,.53,1.12,.35,.28,.85,.42,1.5,.42s1.14-.14,1.56-.42c.42-.28,.74-.69,.94-1.22l.2,.48c-.2,.53-.53,.95-1,1.27-.47,.31-1.07,.47-1.8,.47Zm2.63-.06v-1.67l-.03-.25v-2.74c0-.68-.18-1.2-.55-1.55-.37-.35-.91-.53-1.62-.53-.5,0-.97,.09-1.41,.26-.43,.17-.81,.39-1.11,.66l-.35-.5c.36-.33,.8-.58,1.32-.76,.51-.18,1.05-.27,1.61-.27,.91,0,1.6,.23,2.09,.69s.73,1.14,.73,2.04v4.63h-.67Z" style="fill: #01426a;"/>
    <path d="M167.42,108.53c.59,0,1.1,.11,1.53,.34,.43,.23,.77,.57,1.01,1.04,.24,.46,.36,1.03,.36,1.71v4.27h-.7v-4.21c0-.82-.2-1.45-.6-1.88-.4-.43-.96-.64-1.68-.64-.55,0-1.03,.12-1.43,.35s-.71,.56-.92,.98-.32,.92-.32,1.51v3.89h-.7v-4.21c0-.82-.2-1.45-.6-1.88s-.96-.64-1.68-.64c-.55,0-1.03,.12-1.43,.35s-.71,.56-.92,.98-.32,.92-.32,1.51v3.89h-.7v-7.31h.67v2.02l-.1-.22c.21-.57,.57-1.02,1.08-1.35,.5-.33,1.11-.5,1.82-.5s1.34,.18,1.84,.55c.5,.37,.81,.92,.95,1.64l-.24-.1c.2-.62,.56-1.13,1.11-1.52,.54-.39,1.2-.58,1.97-.58Z" style="fill: #01426a;"/>
    <path d="M176.07,115.95c-.7,0-1.32-.16-1.87-.48s-.98-.76-1.3-1.32c-.32-.56-.48-1.2-.48-1.92s.16-1.37,.48-1.92,.76-.99,1.3-1.31c.55-.32,1.17-.47,1.87-.47s1.33,.16,1.88,.47c.55,.32,.98,.75,1.3,1.31s.48,1.2,.48,1.92-.16,1.36-.48,1.92c-.32,.56-.75,1-1.3,1.32s-1.18,.48-1.88,.48Zm0-.63c.56,0,1.06-.13,1.51-.38,.45-.26,.8-.62,1.05-1.08s.38-1,.38-1.61-.13-1.15-.38-1.62c-.25-.46-.6-.82-1.05-1.08-.45-.26-.95-.38-1.51-.38s-1.06,.13-1.5,.38c-.44,.26-.79,.62-1.05,1.08-.26,.46-.38,1-.38,1.62s.13,1.14,.38,1.61,.61,.83,1.05,1.08,.95,.38,1.5,.38Z" style="fill: #01426a;"/>
    <path d="M189.06,108.53c.6,0,1.12,.11,1.56,.34,.44,.23,.79,.57,1.04,1.04,.25,.46,.37,1.03,.37,1.71v4.27h-.7v-4.21c0-.82-.21-1.45-.62-1.88-.42-.43-1-.64-1.74-.64-.57,0-1.06,.12-1.48,.35s-.74,.56-.96,.98c-.22,.42-.33,.92-.33,1.51v3.89h-.7v-10.39h.7v5.11l-.13-.22c.22-.58,.59-1.03,1.11-1.37,.51-.33,1.14-.5,1.89-.5Z" style="fill: #01426a;"/>
    <path d="M196.88,115.95c-.54,0-1.01-.09-1.41-.26-.4-.17-.7-.42-.91-.73-.21-.32-.31-.68-.31-1.09,0-.37,.09-.71,.26-1.02s.46-.55,.86-.74,.94-.29,1.61-.29h2.69v.55h-2.67c-.76,0-1.29,.14-1.59,.42-.3,.28-.46,.63-.46,1.05,0,.47,.18,.84,.53,1.12,.35,.28,.85,.42,1.5,.42s1.14-.14,1.56-.42c.42-.28,.74-.69,.94-1.22l.2,.48c-.2,.53-.53,.95-1,1.27-.47,.31-1.07,.47-1.8,.47Zm2.63-.06v-1.67l-.03-.25v-2.74c0-.68-.18-1.2-.55-1.55-.37-.35-.91-.53-1.62-.53-.5,0-.97,.09-1.41,.26-.43,.17-.81,.39-1.11,.66l-.35-.5c.36-.33,.8-.58,1.32-.76,.51-.18,1.05-.27,1.61-.27,.91,0,1.6,.23,2.09,.69s.73,1.14,.73,2.04v4.63h-.67Z" style="fill: #01426a;"/>
    <path d="M208.52,115.95c-.61,0-1.17-.09-1.7-.27s-.94-.4-1.22-.67l.32-.56c.28,.24,.65,.45,1.12,.62,.47,.17,.97,.26,1.51,.26,.76,0,1.32-.12,1.65-.38s.5-.58,.5-.99c0-.3-.09-.54-.26-.71-.17-.17-.4-.31-.69-.4-.29-.09-.61-.17-.95-.23-.35-.06-.69-.13-1.04-.2-.35-.07-.66-.18-.95-.32s-.52-.33-.69-.58c-.17-.25-.26-.58-.26-.99,0-.37,.1-.71,.31-1.01,.21-.3,.51-.54,.92-.72,.41-.18,.92-.27,1.54-.27,.46,0,.92,.06,1.38,.2s.84,.3,1.13,.52l-.32,.56c-.31-.23-.65-.4-1.04-.5-.38-.1-.77-.15-1.16-.15-.71,0-1.23,.13-1.56,.39-.33,.26-.5,.59-.5,.98,0,.31,.09,.55,.26,.74,.17,.18,.4,.32,.69,.42,.29,.1,.61,.18,.95,.24,.34,.06,.69,.13,1.04,.2,.35,.07,.66,.18,.95,.31s.52,.32,.69,.56c.17,.24,.26,.56,.26,.96s-.11,.75-.33,1.05c-.22,.3-.54,.53-.97,.7-.43,.17-.96,.25-1.58,.25Z" style="fill: #01426a;"/>
    <path d="M213.71,106.8c-.16,0-.29-.06-.41-.17-.11-.11-.17-.24-.17-.39,0-.16,.06-.29,.17-.41,.11-.11,.25-.17,.41-.17,.17,0,.31,.05,.41,.16s.16,.24,.16,.4-.05,.29-.16,.41c-.11,.11-.25,.17-.41,.17Zm-.35,9.09v-7.31h.7v7.31h-.7Z" style="fill: #01426a;"/>
    <path d="M219.83,115.95c-.68,0-1.29-.16-1.84-.47-.55-.31-.98-.75-1.29-1.31-.32-.56-.48-1.2-.48-1.93s.16-1.38,.48-1.94,.75-.99,1.29-1.3,1.16-.47,1.84-.47c.64,0,1.23,.15,1.74,.45s.93,.72,1.23,1.27c.3,.55,.45,1.21,.45,1.99s-.15,1.41-.45,1.97c-.3,.56-.71,.99-1.23,1.29-.52,.3-1.1,.45-1.76,.45Zm.04-.63c.56,0,1.06-.13,1.5-.38s.79-.62,1.05-1.08c.26-.47,.39-1,.39-1.61s-.13-1.15-.39-1.62c-.26-.46-.61-.82-1.05-1.08-.44-.26-.94-.38-1.5-.38s-1.06,.13-1.5,.38c-.44,.26-.79,.62-1.05,1.08-.26,.46-.38,1-.38,1.62s.13,1.14,.38,1.61,.61,.83,1.05,1.08,.95,.38,1.5,.38Zm2.95,.57v-2.39l.13-1.27-.14-1.27v-5.45h.7v10.39h-.69Z" style="fill: #01426a;"/>
    <path d="M229.32,115.95c-.7,0-1.32-.16-1.87-.48s-.98-.76-1.3-1.32c-.32-.56-.48-1.2-.48-1.92s.16-1.37,.48-1.92,.76-.99,1.3-1.31c.55-.32,1.17-.47,1.87-.47s1.33,.16,1.88,.47c.55,.32,.98,.75,1.3,1.31s.48,1.2,.48,1.92-.16,1.36-.48,1.92c-.32,.56-.75,1-1.3,1.32s-1.18,.48-1.88,.48Zm0-.63c.56,0,1.06-.13,1.51-.38,.45-.26,.8-.62,1.05-1.08s.38-1,.38-1.61-.13-1.15-.38-1.62c-.25-.46-.6-.82-1.05-1.08-.45-.26-.95-.38-1.51-.38s-1.06,.13-1.5,.38c-.44,.26-.79,.62-1.05,1.08-.26,.46-.38,1-.38,1.62s.13,1.14,.38,1.61,.61,.83,1.05,1.08,.95,.38,1.5,.38Z" style="fill: #01426a;"/>
    <path d="M240.72,115.95c-.54,0-1.01-.09-1.41-.26-.4-.17-.7-.42-.91-.73-.21-.32-.31-.68-.31-1.09,0-.37,.09-.71,.26-1.02s.46-.55,.86-.74,.94-.29,1.61-.29h2.69v.55h-2.67c-.76,0-1.29,.14-1.59,.42-.3,.28-.46,.63-.46,1.05,0,.47,.18,.84,.53,1.12,.35,.28,.85,.42,1.5,.42s1.14-.14,1.56-.42c.42-.28,.74-.69,.94-1.22l.2,.48c-.2,.53-.53,.95-1,1.27-.47,.31-1.07,.47-1.8,.47Zm2.63-.06v-1.67l-.03-.25v-2.74c0-.68-.18-1.2-.55-1.55-.37-.35-.91-.53-1.62-.53-.5,0-.97,.09-1.41,.26-.43,.17-.81,.39-1.11,.66l-.35-.5c.36-.33,.8-.58,1.32-.76,.51-.18,1.05-.27,1.61-.27,.91,0,1.6,.23,2.09,.69s.73,1.14,.73,2.04v4.63h-.67Z" style="fill: #01426a;"/>
    <path d="M246.91,118.6v-10.02h.67v2.39l-.11,1.27,.14,1.27v5.08h-.7Zm3.67-2.66c-.64,0-1.23-.15-1.74-.45-.52-.3-.93-.72-1.23-1.28-.3-.56-.46-1.22-.46-1.98s.15-1.43,.46-1.98c.3-.56,.71-.98,1.23-1.28,.52-.3,1.1-.45,1.74-.45,.69,0,1.31,.16,1.85,.47s.98,.75,1.29,1.31,.47,1.2,.47,1.93-.16,1.37-.47,1.93c-.31,.56-.74,1-1.29,1.31-.55,.31-1.16,.47-1.85,.47Zm-.04-.63c.56,0,1.06-.13,1.51-.38s.8-.62,1.06-1.08,.39-1,.39-1.61-.13-1.15-.39-1.62c-.26-.46-.61-.82-1.06-1.08-.45-.26-.95-.38-1.51-.38s-1.06,.13-1.5,.38c-.44,.26-.79,.62-1.05,1.08-.26,.46-.38,1-.38,1.62s.13,1.14,.38,1.61,.61,.83,1.05,1.08c.44,.26,.94,.38,1.5,.38Z" style="fill: #01426a;"/>
    <path d="M256.36,115.89v-7.31h.67v2l-.07-.22c.21-.59,.55-1.04,1.04-1.36,.49-.32,1.09-.47,1.82-.47v.69s-.06,0-.08,0c-.03,0-.06,0-.08,0-.81,0-1.45,.25-1.9,.76-.46,.51-.69,1.22-.69,2.12v3.81h-.7Z" style="fill: #01426a;"/>
    <path d="M264.73,115.95c-.7,0-1.32-.16-1.87-.48s-.98-.76-1.3-1.32c-.32-.56-.48-1.2-.48-1.92s.16-1.37,.48-1.92,.76-.99,1.3-1.31c.55-.32,1.17-.47,1.87-.47s1.33,.16,1.88,.47c.55,.32,.98,.75,1.3,1.31s.48,1.2,.48,1.92-.16,1.36-.48,1.92c-.32,.56-.75,1-1.3,1.32s-1.18,.48-1.88,.48Zm0-.63c.56,0,1.06-.13,1.51-.38,.45-.26,.8-.62,1.05-1.08s.38-1,.38-1.61-.13-1.15-.38-1.62c-.25-.46-.6-.82-1.05-1.08-.45-.26-.95-.38-1.51-.38s-1.06,.13-1.5,.38c-.44,.26-.79,.62-1.05,1.08-.26,.46-.38,1-.38,1.62s.13,1.14,.38,1.61,.61,.83,1.05,1.08,.95,.38,1.5,.38Z" style="fill: #01426a;"/>
    <path d="M270.55,115.89v-10.39h.7v5.45l-.14,1.27,.11,1.27v2.39h-.67Zm3.67,.06c-.64,0-1.23-.15-1.74-.45-.52-.3-.93-.73-1.23-1.29-.3-.56-.46-1.22-.46-1.97s.15-1.44,.46-1.99c.3-.55,.71-.97,1.23-1.27,.52-.3,1.1-.45,1.74-.45,.69,0,1.31,.16,1.85,.47s.98,.75,1.29,1.3,.47,1.2,.47,1.94-.16,1.37-.47,1.93c-.31,.56-.74,1-1.29,1.31-.55,.31-1.16,.47-1.85,.47Zm-.04-.63c.56,0,1.06-.13,1.51-.38s.8-.62,1.06-1.08,.39-1,.39-1.61-.13-1.15-.39-1.62c-.26-.46-.61-.82-1.06-1.08-.45-.26-.95-.38-1.51-.38s-1.06,.13-1.5,.38c-.44,.26-.79,.62-1.05,1.08-.26,.46-.38,1-.38,1.62s.13,1.14,.38,1.61,.61,.83,1.05,1.08c.44,.26,.94,.38,1.5,.38Z" style="fill: #01426a;"/>
    <path d="M281.98,115.95c-.54,0-1.01-.09-1.41-.26-.4-.17-.7-.42-.91-.73-.21-.32-.31-.68-.31-1.09,0-.37,.09-.71,.26-1.02s.46-.55,.86-.74,.94-.29,1.61-.29h2.69v.55h-2.67c-.76,0-1.29,.14-1.59,.42-.3,.28-.46,.63-.46,1.05,0,.47,.18,.84,.53,1.12,.35,.28,.85,.42,1.5,.42s1.14-.14,1.56-.42c.42-.28,.74-.69,.94-1.22l.2,.48c-.2,.53-.53,.95-1,1.27-.47,.31-1.07,.47-1.8,.47Zm2.63-.06v-1.67l-.03-.25v-2.74c0-.68-.18-1.2-.55-1.55-.37-.35-.91-.53-1.62-.53-.5,0-.97,.09-1.41,.26-.43,.17-.81,.39-1.11,.66l-.35-.5c.36-.33,.8-.58,1.32-.76,.51-.18,1.05-.27,1.61-.27,.91,0,1.6,.23,2.09,.69s.73,1.14,.73,2.04v4.63h-.67Z" style="fill: #01426a;"/>
    <path d="M290.98,115.95c-.68,0-1.29-.16-1.84-.47-.55-.31-.98-.75-1.29-1.31-.32-.56-.48-1.2-.48-1.93s.16-1.38,.48-1.94,.75-.99,1.29-1.3,1.16-.47,1.84-.47c.64,0,1.23,.15,1.74,.45s.93,.72,1.23,1.27c.3,.55,.45,1.21,.45,1.99s-.15,1.41-.45,1.97c-.3,.56-.71,.99-1.23,1.29-.52,.3-1.1,.45-1.76,.45Zm.04-.63c.56,0,1.06-.13,1.5-.38s.79-.62,1.05-1.08c.26-.47,.39-1,.39-1.61s-.13-1.15-.39-1.62c-.26-.46-.61-.82-1.05-1.08-.44-.26-.94-.38-1.5-.38s-1.06,.13-1.5,.38c-.44,.26-.79,.62-1.05,1.08-.26,.46-.38,1-.38,1.62s.13,1.14,.38,1.61,.61,.83,1.05,1.08,.95,.38,1.5,.38Zm2.95,.57v-2.39l.13-1.27-.14-1.27v-5.45h.7v10.39h-.69Z" style="fill: #01426a;"/>
    <path d="M300.47,115.95c-.7,0-1.32-.16-1.87-.48s-.98-.76-1.3-1.32c-.32-.56-.48-1.2-.48-1.92s.16-1.37,.48-1.92,.76-.99,1.3-1.31c.55-.32,1.17-.47,1.87-.47s1.33,.16,1.88,.47c.55,.32,.98,.75,1.3,1.31s.48,1.2,.48,1.92-.16,1.36-.48,1.92c-.32,.56-.75,1-1.3,1.32s-1.18,.48-1.88,.48Zm0-.63c.56,0,1.06-.13,1.51-.38,.45-.26,.8-.62,1.05-1.08s.38-1,.38-1.61-.13-1.15-.38-1.62c-.25-.46-.6-.82-1.05-1.08-.45-.26-.95-.38-1.51-.38s-1.06,.13-1.5,.38c-.44,.26-.79,.62-1.05,1.08-.26,.46-.38,1-.38,1.62s.13,1.14,.38,1.61,.61,.83,1.05,1.08,.95,.38,1.5,.38Z" style="fill: #01426a;"/>
    <path d="M8.94,132.74c-.71,0-1.34-.16-1.9-.48s-.99-.76-1.32-1.32c-.32-.56-.48-1.2-.48-1.92s.16-1.37,.48-1.93c.32-.56,.76-1,1.32-1.31,.56-.31,1.19-.47,1.9-.47,.59,0,1.12,.11,1.6,.34,.48,.22,.87,.56,1.17,1.01l-.52,.38c-.26-.37-.59-.65-.98-.83-.39-.18-.82-.27-1.27-.27-.57,0-1.08,.13-1.53,.38-.45,.26-.81,.62-1.06,1.08-.26,.46-.39,1-.39,1.62s.13,1.15,.39,1.62c.26,.46,.61,.82,1.06,1.08,.45,.26,.96,.38,1.53,.38,.46,0,.88-.09,1.27-.27,.39-.18,.72-.45,.98-.83l.52,.38c-.3,.45-.69,.78-1.17,1.01-.48,.22-1.01,.34-1.6,.34Z" style="fill: #01426a;"/>
    <path d="M16.67,132.74c-.7,0-1.32-.16-1.87-.48-.55-.32-.98-.76-1.3-1.32-.32-.56-.48-1.2-.48-1.92s.16-1.37,.48-1.93c.32-.55,.76-.99,1.3-1.31,.55-.32,1.17-.48,1.87-.48s1.33,.16,1.88,.48c.55,.32,.98,.75,1.3,1.31,.32,.56,.48,1.2,.48,1.93s-.16,1.36-.48,1.92c-.32,.56-.75,1-1.3,1.32s-1.18,.48-1.88,.48Zm0-.63c.56,0,1.06-.13,1.51-.38,.45-.26,.8-.62,1.05-1.08s.38-1,.38-1.61-.13-1.16-.38-1.62c-.25-.46-.6-.82-1.05-1.08-.45-.26-.95-.38-1.51-.38s-1.06,.13-1.5,.38c-.44,.26-.79,.62-1.05,1.08-.26,.46-.39,1-.39,1.62s.13,1.14,.39,1.61c.26,.47,.61,.83,1.05,1.08s.94,.38,1.5,.38Z" style="fill: #01426a;"/>
    <path d="M26.06,125.32c.6,0,1.12,.12,1.56,.34,.44,.23,.79,.57,1.04,1.04,.25,.46,.37,1.03,.37,1.71v4.27h-.7v-4.21c0-.82-.21-1.45-.62-1.88-.42-.43-1-.64-1.74-.64-.57,0-1.06,.12-1.48,.35-.42,.23-.74,.56-.96,.98-.22,.42-.33,.92-.33,1.51v3.89h-.7v-7.31h.67v2.03l-.1-.22c.22-.58,.59-1.03,1.11-1.37,.51-.33,1.14-.5,1.89-.5Z" style="fill: #01426a;"/>
    <path d="M38.48,132.74c-.74,0-1.39-.16-1.95-.48-.56-.32-1.01-.76-1.33-1.32-.32-.56-.48-1.2-.48-1.92s.15-1.37,.46-1.93c.3-.55,.72-.99,1.25-1.31,.53-.32,1.13-.48,1.79-.48s1.26,.15,1.79,.46c.53,.31,.94,.74,1.25,1.29,.3,.55,.46,1.2,.46,1.92,0,.03,0,.06,0,.09,0,.03,0,.07,0,.11h-6.45v-.55h6.08l-.28,.27c0-.57-.11-1.08-.36-1.53-.25-.45-.58-.81-1-1.06-.42-.26-.91-.39-1.46-.39s-1.02,.13-1.45,.39c-.42,.26-.76,.61-1,1.06s-.36,.97-.36,1.55v.13c0,.6,.13,1.13,.4,1.59s.63,.82,1.1,1.08c.47,.26,1,.38,1.6,.38,.47,0,.9-.08,1.31-.25,.41-.17,.75-.42,1.03-.77l.41,.46c-.32,.39-.72,.69-1.2,.89-.48,.2-1,.3-1.56,.3Zm-1.06-8.55l1.95-1.65h1.01l-2.2,1.65h-.76Z" style="fill: #01426a;"/>
    <path d="M42.7,132.69l3.04-3.95v.34s-2.88-3.7-2.88-3.7h.8l2.51,3.23h-.29l2.49-3.23h.78l-2.9,3.74v-.38s3.09,3.95,3.09,3.95h-.83l-2.65-3.44,.27,.03-2.63,3.42h-.8Z" style="fill: #01426a;"/>
    <path d="M51.48,123.6c-.16,0-.29-.06-.41-.17-.11-.11-.17-.24-.17-.39,0-.16,.06-.29,.17-.41,.11-.11,.25-.17,.41-.17,.17,0,.31,.05,.41,.16,.11,.11,.16,.24,.16,.4s-.05,.29-.16,.41c-.11,.11-.25,.17-.41,.17Zm-.35,9.09v-7.31h.7v7.31h-.7Z" style="fill: #01426a;"/>
    <path d="M53.58,125.98v-.6h4.37v.6h-4.37Zm3.33,6.76c-.64,0-1.14-.18-1.48-.53-.34-.36-.51-.84-.51-1.46v-6.97h.7v6.9c0,.47,.12,.83,.35,1.08s.57,.38,1.01,.38,.83-.13,1.13-.41l.29,.49c-.19,.18-.41,.31-.68,.39-.27,.08-.54,.12-.82,.12Z" style="fill: #01426a;"/>
    <path d="M63.21,132.74c-.7,0-1.32-.16-1.87-.48-.55-.32-.98-.76-1.3-1.32-.32-.56-.48-1.2-.48-1.92s.16-1.37,.48-1.93c.32-.55,.76-.99,1.3-1.31,.55-.32,1.17-.48,1.87-.48s1.33,.16,1.88,.48c.55,.32,.98,.75,1.3,1.31,.32,.56,.48,1.2,.48,1.93s-.16,1.36-.48,1.92c-.32,.56-.75,1-1.3,1.32s-1.18,.48-1.88,.48Zm0-.63c.56,0,1.06-.13,1.51-.38,.45-.26,.8-.62,1.05-1.08s.38-1,.38-1.61-.13-1.16-.38-1.62c-.25-.46-.6-.82-1.05-1.08-.45-.26-.95-.38-1.51-.38s-1.06,.13-1.5,.38c-.44,.26-.79,.62-1.05,1.08-.26,.46-.39,1-.39,1.62s.13,1.14,.39,1.61c.26,.47,.61,.83,1.05,1.08s.94,.38,1.5,.38Z" style="fill: #01426a;"/>
    <path d="M68.95,132.74c-.16,0-.3-.06-.41-.17-.12-.12-.17-.26-.17-.43s.06-.31,.17-.42c.12-.11,.25-.17,.41-.17s.3,.06,.41,.17c.12,.11,.17,.25,.17,.42s-.06,.31-.17,.43c-.12,.12-.25,.17-.41,.17Z" style="fill: #01426a;"/>
    <path d="M76.37,132.04h6.05v.64h-6.76v-9.8h6.55v.64h-5.84v8.51Zm-.08-4.65h5.31v.63h-5.31v-.63Z" style="fill: #01426a;"/>
    <path d="M88.37,125.32c.6,0,1.12,.12,1.56,.34,.44,.23,.79,.57,1.04,1.04,.25,.46,.37,1.03,.37,1.71v4.27h-.7v-4.21c0-.82-.21-1.45-.62-1.88-.42-.43-1-.64-1.74-.64-.57,0-1.06,.12-1.48,.35-.42,.23-.74,.56-.96,.98-.22,.42-.33,.92-.33,1.51v3.89h-.7v-7.31h.67v2.03l-.1-.22c.22-.58,.59-1.03,1.11-1.37,.51-.33,1.14-.5,1.89-.5Z" style="fill: #01426a;"/>
    <path d="M100.79,132.74c-.63,0-1.17-.11-1.62-.34-.46-.23-.81-.57-1.06-1.04-.25-.46-.37-1.03-.37-1.71v-4.27h.7v4.21c0,.82,.21,1.45,.63,1.88,.42,.43,1.01,.64,1.78,.64,.55,0,1.03-.12,1.43-.35s.71-.56,.92-.99c.21-.42,.32-.93,.32-1.5v-3.89h.7v7.31h-.67v-2.03l.1,.24c-.21,.57-.57,1.02-1.07,1.35-.5,.33-1.09,.5-1.79,.5Z" style="fill: #01426a;"/>
    <path d="M110.76,125.32c.6,0,1.12,.12,1.56,.34s.79,.57,1.04,1.04c.25,.46,.37,1.03,.37,1.71v4.27h-.7v-4.21c0-.82-.21-1.45-.62-1.88-.42-.43-1-.64-1.74-.64-.57,0-1.06,.12-1.48,.35s-.74,.56-.96,.98c-.22,.42-.33,.92-.33,1.51v3.89h-.7v-7.31h.67v2.03l-.1-.22c.22-.58,.59-1.03,1.11-1.37,.51-.33,1.14-.5,1.89-.5Z" style="fill: #01426a;"/>
    <path d="M120.21,132.69v-10.39h.7v10.39h-.7Z" style="fill: #01426a;"/>
    <path d="M125.83,132.74c-.54,0-1.01-.09-1.41-.26s-.7-.42-.91-.74c-.21-.32-.31-.68-.31-1.09,0-.37,.09-.71,.26-1.01s.46-.55,.86-.74c.4-.19,.94-.29,1.61-.29h2.69v.55h-2.67c-.76,0-1.29,.14-1.59,.42-.3,.28-.46,.63-.46,1.05,0,.47,.18,.84,.53,1.12,.35,.28,.85,.42,1.5,.42s1.14-.14,1.56-.42c.42-.28,.74-.69,.94-1.22l.2,.47c-.2,.53-.53,.96-1,1.27s-1.07,.47-1.8,.47Zm2.63-.06v-1.67l-.03-.25v-2.74c0-.68-.18-1.2-.55-1.55-.37-.36-.91-.53-1.62-.53-.5,0-.97,.09-1.41,.26-.43,.17-.81,.39-1.11,.67l-.35-.5c.36-.33,.8-.58,1.32-.76s1.05-.27,1.61-.27c.91,0,1.6,.23,2.09,.69,.49,.46,.73,1.14,.73,2.04v4.63h-.67Z" style="fill: #01426a;"/>
    <path d="M132.02,135.4v-10.02h.67v2.39l-.11,1.27,.14,1.27v5.08h-.7Zm3.67-2.66c-.64,0-1.23-.15-1.74-.45-.52-.3-.93-.73-1.23-1.28-.3-.55-.46-1.22-.46-1.98s.15-1.43,.46-1.98c.3-.56,.71-.98,1.23-1.28,.52-.3,1.1-.45,1.74-.45,.69,0,1.31,.16,1.85,.47,.55,.31,.98,.75,1.29,1.31s.47,1.2,.47,1.93-.16,1.37-.47,1.93c-.31,.56-.74,1-1.29,1.31s-1.16,.47-1.85,.47Zm-.04-.63c.56,0,1.06-.13,1.51-.38s.8-.62,1.06-1.08,.39-1,.39-1.61-.13-1.16-.39-1.62c-.26-.46-.61-.82-1.06-1.08-.45-.26-.95-.38-1.51-.38s-1.06,.13-1.5,.38c-.44,.26-.79,.62-1.05,1.08-.26,.46-.38,1-.38,1.62s.13,1.14,.38,1.61,.61,.83,1.05,1.08c.44,.26,.94,.38,1.5,.38Z" style="fill: #01426a;"/>
    <path d="M143.32,132.74c-.61,0-1.17-.09-1.7-.27s-.94-.4-1.22-.67l.32-.56c.28,.24,.65,.45,1.12,.62,.47,.17,.97,.26,1.51,.26,.76,0,1.32-.13,1.65-.38s.5-.58,.5-.99c0-.3-.09-.53-.26-.71-.17-.17-.4-.3-.69-.4-.29-.09-.61-.17-.95-.23-.35-.06-.69-.13-1.04-.2-.35-.07-.66-.18-.95-.32s-.52-.33-.69-.58-.26-.58-.26-.99c0-.37,.1-.71,.31-1.01,.21-.3,.51-.54,.92-.72,.41-.18,.92-.27,1.54-.27,.46,0,.92,.07,1.38,.2s.84,.3,1.13,.52l-.32,.56c-.31-.23-.65-.4-1.04-.5-.38-.1-.77-.15-1.16-.15-.71,0-1.23,.13-1.56,.39-.33,.26-.5,.59-.5,.98,0,.31,.09,.55,.26,.73,.17,.18,.4,.32,.69,.42,.29,.1,.61,.18,.95,.24,.34,.06,.69,.13,1.04,.2,.35,.08,.66,.18,.95,.32s.52,.32,.69,.56,.26,.56,.26,.96-.11,.75-.33,1.05c-.22,.3-.54,.53-.97,.7-.43,.17-.96,.25-1.58,.25Z" style="fill: #01426a;"/>
    <path d="M151.02,132.74c-.7,0-1.32-.16-1.87-.48s-.98-.76-1.3-1.32c-.32-.56-.48-1.2-.48-1.92s.16-1.37,.48-1.93c.32-.55,.76-.99,1.3-1.31,.55-.32,1.17-.48,1.87-.48s1.33,.16,1.88,.48c.55,.32,.98,.75,1.3,1.31,.32,.56,.48,1.2,.48,1.93s-.16,1.36-.48,1.92c-.32,.56-.75,1-1.3,1.32s-1.18,.48-1.88,.48Zm0-.63c.56,0,1.06-.13,1.51-.38,.45-.26,.8-.62,1.05-1.08s.38-1,.38-1.61-.13-1.16-.38-1.62c-.25-.46-.6-.82-1.05-1.08-.45-.26-.95-.38-1.51-.38s-1.06,.13-1.5,.38c-.44,.26-.79,.62-1.05,1.08-.26,.46-.38,1-.38,1.62s.13,1.14,.38,1.61,.61,.83,1.05,1.08,.95,.38,1.5,.38Z" style="fill: #01426a;"/>
    <path d="M163.26,132.74c-.68,0-1.29-.16-1.84-.47s-.98-.75-1.29-1.31c-.32-.56-.48-1.2-.48-1.93s.16-1.38,.48-1.94,.75-.99,1.29-1.3c.55-.31,1.16-.47,1.84-.47,.64,0,1.23,.15,1.74,.45,.52,.3,.93,.72,1.23,1.27,.3,.55,.45,1.21,.45,1.99s-.15,1.41-.45,1.97c-.3,.56-.71,.99-1.23,1.29-.52,.3-1.1,.45-1.76,.45Zm.04-.63c.56,0,1.06-.13,1.5-.38s.79-.62,1.05-1.08c.26-.47,.39-1,.39-1.61s-.13-1.16-.39-1.62c-.26-.46-.61-.82-1.05-1.08-.44-.26-.94-.38-1.5-.38s-1.06,.13-1.5,.38c-.44,.26-.79,.62-1.05,1.08-.26,.46-.38,1-.38,1.62s.13,1.14,.38,1.61,.61,.83,1.05,1.08,.95,.38,1.5,.38Zm2.95,.57v-2.39l.13-1.27-.14-1.27v-5.45h.7v10.39h-.69Z" style="fill: #01426a;"/>
    <path d="M172.86,132.74c-.74,0-1.39-.16-1.95-.48s-1.01-.76-1.33-1.32c-.32-.56-.48-1.2-.48-1.92s.15-1.37,.46-1.93c.3-.55,.72-.99,1.25-1.31,.53-.32,1.13-.48,1.79-.48s1.26,.15,1.79,.46c.53,.31,.94,.74,1.25,1.29,.3,.55,.46,1.2,.46,1.92,0,.03,0,.06,0,.09s0,.07,0,.11h-6.45v-.55h6.08l-.28,.27c0-.57-.11-1.08-.36-1.53-.25-.45-.58-.81-1-1.06-.42-.26-.91-.39-1.46-.39s-1.02,.13-1.45,.39c-.42,.26-.76,.61-1,1.06-.24,.45-.36,.97-.36,1.55v.13c0,.6,.13,1.13,.4,1.59,.27,.46,.63,.82,1.1,1.08s1,.38,1.6,.38c.47,0,.9-.08,1.31-.25,.41-.17,.75-.42,1.03-.77l.41,.46c-.32,.39-.72,.69-1.2,.89s-1,.3-1.56,.3Z" style="fill: #01426a;"/>
    <path d="M180.94,132.69v-.5l4.14-4.12c.39-.39,.69-.73,.88-1.03,.2-.29,.33-.57,.4-.82s.1-.5,.1-.74c0-.62-.21-1.1-.63-1.46s-1.04-.54-1.85-.54c-.62,0-1.16,.09-1.62,.28-.46,.19-.86,.47-1.2,.85l-.5-.45c.37-.43,.85-.76,1.42-.99,.57-.23,1.23-.35,1.95-.35,.64,0,1.2,.11,1.67,.31,.47,.21,.83,.51,1.09,.9,.26,.39,.38,.85,.38,1.38,0,.32-.04,.63-.13,.93-.09,.3-.25,.62-.48,.96s-.56,.72-.99,1.15l-3.89,3.88-.24-.28h6.2v.64h-6.73Z" style="fill: #01426a;"/>
    <path d="M188.85,129.97v-.52l5.32-6.57h.8l-5.31,6.57-.39-.11h7.92v.63h-8.34Zm5.59,2.72v-3.35s.01-2.39,.01-2.39h.69v5.74h-.7Z" style="fill: #01426a;"/>
    <path d="M202.46,125.32c.6,0,1.12,.12,1.56,.34s.79,.57,1.04,1.04c.25,.46,.37,1.03,.37,1.71v4.27h-.7v-4.21c0-.82-.21-1.45-.62-1.88-.42-.43-1-.64-1.74-.64-.57,0-1.06,.12-1.48,.35s-.74,.56-.96,.98c-.22,.42-.33,.92-.33,1.51v3.89h-.7v-10.39h.7v5.11l-.13-.22c.22-.58,.59-1.03,1.11-1.37,.51-.33,1.14-.5,1.89-.5Z" style="fill: #01426a;"/>
    <path d="M214.87,132.74c-.74,0-1.39-.16-1.95-.48s-1.01-.76-1.33-1.32c-.32-.56-.48-1.2-.48-1.92s.15-1.37,.46-1.93c.3-.55,.72-.99,1.25-1.31,.53-.32,1.13-.48,1.79-.48s1.26,.15,1.79,.46c.53,.31,.94,.74,1.25,1.29,.3,.55,.46,1.2,.46,1.92,0,.03,0,.06,0,.09s0,.07,0,.11h-6.45v-.55h6.08l-.28,.27c0-.57-.11-1.08-.36-1.53-.25-.45-.58-.81-1-1.06-.42-.26-.91-.39-1.46-.39s-1.02,.13-1.45,.39c-.42,.26-.76,.61-1,1.06-.24,.45-.36,.97-.36,1.55v.13c0,.6,.13,1.13,.4,1.59,.27,.46,.63,.82,1.1,1.08s1,.38,1.6,.38c.47,0,.9-.08,1.31-.25,.41-.17,.75-.42,1.03-.77l.41,.46c-.32,.39-.72,.69-1.2,.89s-1,.3-1.56,.3Z" style="fill: #01426a;"/>
    <path d="M220.26,132.69v-10.39h.7v10.39h-.7Z" style="fill: #01426a;"/>
    <path d="M230.33,132.74c-.68,0-1.29-.16-1.84-.47s-.98-.75-1.29-1.31c-.32-.56-.48-1.2-.48-1.93s.16-1.38,.48-1.94,.75-.99,1.29-1.3c.55-.31,1.16-.47,1.84-.47,.64,0,1.23,.15,1.74,.45,.52,.3,.93,.72,1.23,1.27,.3,.55,.45,1.21,.45,1.99s-.15,1.41-.45,1.97c-.3,.56-.71,.99-1.23,1.29-.52,.3-1.1,.45-1.76,.45Zm.04-.63c.56,0,1.06-.13,1.5-.38s.79-.62,1.05-1.08c.26-.47,.39-1,.39-1.61s-.13-1.16-.39-1.62c-.26-.46-.61-.82-1.05-1.08-.44-.26-.94-.38-1.5-.38s-1.06,.13-1.5,.38c-.44,.26-.79,.62-1.05,1.08-.26,.46-.38,1-.38,1.62s.13,1.14,.38,1.61,.61,.83,1.05,1.08,.95,.38,1.5,.38Zm2.95,.57v-2.39l.13-1.27-.14-1.27v-5.45h.7v10.39h-.69Z" style="fill: #01426a;"/>
    <path d="M237.31,123.6c-.16,0-.29-.06-.41-.17-.11-.11-.17-.24-.17-.39,0-.16,.06-.29,.17-.41s.25-.17,.41-.17c.17,0,.31,.05,.41,.16,.11,.11,.16,.24,.16,.4s-.05,.29-.16,.41-.25,.17-.41,.17Zm-.35,9.09v-7.31h.7v7.31h-.7Z" style="fill: #01426a;"/>
    <path d="M244.19,125.32c.6,0,1.12,.12,1.56,.34s.79,.57,1.04,1.04c.25,.46,.37,1.03,.37,1.71v4.27h-.7v-4.21c0-.82-.21-1.45-.62-1.88-.42-.43-1-.64-1.74-.64-.57,0-1.06,.12-1.48,.35s-.74,.56-.96,.98c-.22,.42-.33,.92-.33,1.51v3.89h-.7v-7.31h.67v2.03l-.1-.22c.22-.58,.59-1.03,1.11-1.37,.51-.33,1.14-.5,1.89-.5Z" style="fill: #01426a;"/>
    <path d="M253.01,132.74c-.74,0-1.39-.16-1.95-.48s-1.01-.76-1.33-1.32c-.32-.56-.48-1.2-.48-1.92s.15-1.37,.46-1.93c.3-.55,.72-.99,1.25-1.31,.53-.32,1.13-.48,1.79-.48s1.26,.15,1.79,.46c.53,.31,.94,.74,1.25,1.29,.3,.55,.46,1.2,.46,1.92,0,.03,0,.06,0,.09s0,.07,0,.11h-6.45v-.55h6.08l-.28,.27c0-.57-.11-1.08-.36-1.53-.25-.45-.58-.81-1-1.06-.42-.26-.91-.39-1.46-.39s-1.02,.13-1.45,.39c-.42,.26-.76,.61-1,1.06-.24,.45-.36,.97-.36,1.55v.13c0,.6,.13,1.13,.4,1.59,.27,.46,.63,.82,1.1,1.08s1,.38,1.6,.38c.47,0,.9-.08,1.31-.25,.41-.17,.75-.42,1.03-.77l.41,.46c-.32,.39-.72,.69-1.2,.89s-1,.3-1.56,.3Z" style="fill: #01426a;"/>
    <path d="M258.4,132.69v-7.31h.67v2l-.07-.22c.21-.59,.55-1.04,1.04-1.36,.49-.32,1.09-.48,1.82-.48v.69s-.06,0-.08,0c-.03,0-.06,0-.08,0-.81,0-1.45,.25-1.9,.76-.46,.51-.69,1.21-.69,2.12v3.81h-.7Z" style="fill: #01426a;"/>
    <path d="M266.77,132.74c-.7,0-1.32-.16-1.87-.48s-.98-.76-1.3-1.32c-.32-.56-.48-1.2-.48-1.92s.16-1.37,.48-1.93c.32-.55,.76-.99,1.3-1.31,.55-.32,1.17-.48,1.87-.48s1.33,.16,1.88,.48c.55,.32,.98,.75,1.3,1.31,.32,.56,.48,1.2,.48,1.93s-.16,1.36-.48,1.92c-.32,.56-.75,1-1.3,1.32s-1.18,.48-1.88,.48Zm0-.63c.56,0,1.06-.13,1.51-.38,.45-.26,.8-.62,1.05-1.08s.38-1,.38-1.61-.13-1.16-.38-1.62c-.25-.46-.6-.82-1.05-1.08-.45-.26-.95-.38-1.51-.38s-1.06,.13-1.5,.38c-.44,.26-.79,.62-1.05,1.08-.26,.46-.38,1-.38,1.62s.13,1.14,.38,1.61,.61,.83,1.05,1.08,.95,.38,1.5,.38Z" style="fill: #01426a;"/>
    <path d="M278.04,132.74c-.61,0-1.17-.09-1.7-.27s-.94-.4-1.22-.67l.32-.56c.28,.24,.65,.45,1.12,.62,.47,.17,.97,.26,1.51,.26,.76,0,1.32-.13,1.65-.38s.5-.58,.5-.99c0-.3-.09-.53-.26-.71-.17-.17-.4-.3-.69-.4-.29-.09-.61-.17-.95-.23-.35-.06-.69-.13-1.04-.2-.35-.07-.66-.18-.95-.32s-.52-.33-.69-.58-.26-.58-.26-.99c0-.37,.1-.71,.31-1.01,.21-.3,.51-.54,.92-.72,.41-.18,.92-.27,1.54-.27,.46,0,.92,.07,1.38,.2s.84,.3,1.13,.52l-.32,.56c-.31-.23-.65-.4-1.04-.5-.38-.1-.77-.15-1.16-.15-.71,0-1.23,.13-1.56,.39-.33,.26-.5,.59-.5,.98,0,.31,.09,.55,.26,.73,.17,.18,.4,.32,.69,.42,.29,.1,.61,.18,.95,.24,.34,.06,.69,.13,1.04,.2,.35,.08,.66,.18,.95,.32s.52,.32,.69,.56,.26,.56,.26,.96-.11,.75-.33,1.05c-.22,.3-.54,.53-.97,.7-.43,.17-.96,.25-1.58,.25Z" style="fill: #01426a;"/>
    <path d="M285.85,132.74c-.74,0-1.39-.16-1.95-.48s-1.01-.76-1.33-1.32c-.32-.56-.48-1.2-.48-1.92s.15-1.37,.46-1.93c.3-.55,.72-.99,1.25-1.31,.53-.32,1.13-.48,1.79-.48s1.26,.15,1.79,.46c.53,.31,.94,.74,1.25,1.29,.3,.55,.46,1.2,.46,1.92,0,.03,0,.06,0,.09s0,.07,0,.11h-6.45v-.55h6.08l-.28,.27c0-.57-.11-1.08-.36-1.53-.25-.45-.58-.81-1-1.06-.42-.26-.91-.39-1.46-.39s-1.02,.13-1.45,.39c-.42,.26-.76,.61-1,1.06-.24,.45-.36,.97-.36,1.55v.13c0,.6,.13,1.13,.4,1.59,.27,.46,.63,.82,1.1,1.08s1,.38,1.6,.38c.47,0,.9-.08,1.31-.25,.41-.17,.75-.42,1.03-.77l.41,.46c-.32,.39-.72,.69-1.2,.89s-1,.3-1.56,.3Z" style="fill: #01426a;"/>
    <path d="M291.24,132.69v-7.31h.67v2l-.07-.22c.21-.59,.55-1.04,1.04-1.36,.49-.32,1.09-.48,1.82-.48v.69s-.06,0-.08,0c-.03,0-.06,0-.08,0-.81,0-1.45,.25-1.9,.76-.46,.51-.69,1.21-.69,2.12v3.81h-.7Z" style="fill: #01426a;"/>
    <path d="M298.73,132.74c-.54,0-1.01-.09-1.41-.26s-.7-.42-.91-.74c-.21-.32-.31-.68-.31-1.09,0-.37,.09-.71,.26-1.01s.46-.55,.86-.74c.4-.19,.94-.29,1.61-.29h2.69v.55h-2.67c-.76,0-1.29,.14-1.59,.42-.3,.28-.46,.63-.46,1.05,0,.47,.18,.84,.53,1.12,.35,.28,.85,.42,1.5,.42s1.14-.14,1.56-.42c.42-.28,.74-.69,.94-1.22l.2,.47c-.2,.53-.53,.96-1,1.27s-1.07,.47-1.8,.47Zm2.63-.06v-1.67l-.03-.25v-2.74c0-.68-.18-1.2-.55-1.55-.37-.36-.91-.53-1.62-.53-.5,0-.97,.09-1.41,.26-.43,.17-.81,.39-1.11,.67l-.35-.5c.36-.33,.8-.58,1.32-.76s1.05-.27,1.61-.27c.91,0,1.6,.23,2.09,.69,.49,.46,.73,1.14,.73,2.04v4.63h-.67Z" style="fill: #01426a;"/>
    <path d="M8.01,149.54c-.54,0-1.01-.09-1.41-.26-.4-.17-.7-.42-.91-.73s-.31-.68-.31-1.09c0-.37,.09-.71,.26-1.02,.17-.3,.46-.55,.86-.74,.4-.19,.94-.29,1.61-.29h2.69v.55h-2.67c-.76,0-1.29,.14-1.59,.42-.3,.28-.46,.63-.46,1.05,0,.47,.18,.84,.53,1.12,.35,.28,.85,.42,1.5,.42s1.14-.14,1.56-.42c.42-.28,.74-.69,.94-1.22l.2,.48c-.2,.53-.53,.96-1,1.27s-1.07,.47-1.8,.47Zm2.63-.06v-1.67l-.03-.25v-2.74c0-.68-.18-1.2-.55-1.55-.37-.36-.91-.53-1.62-.53-.5,0-.97,.09-1.41,.26-.43,.17-.8,.39-1.11,.66l-.35-.5c.36-.33,.8-.58,1.32-.76,.51-.18,1.05-.27,1.61-.27,.9,0,1.6,.23,2.09,.69,.48,.46,.73,1.14,.73,2.04v4.63h-.67Z" style="fill: #01426a;"/>
    <path d="M17.1,149.54c-.71,0-1.34-.16-1.9-.48-.56-.32-.99-.76-1.32-1.32-.32-.56-.48-1.2-.48-1.92s.16-1.37,.48-1.93c.32-.56,.76-1,1.32-1.31s1.19-.47,1.9-.47c.59,0,1.12,.11,1.6,.34,.48,.22,.87,.56,1.17,1.01l-.52,.38c-.26-.37-.59-.65-.98-.83-.39-.18-.82-.27-1.27-.27-.57,0-1.08,.13-1.53,.38-.45,.26-.81,.62-1.06,1.08-.26,.46-.39,1-.39,1.62s.13,1.16,.39,1.62c.26,.46,.61,.82,1.06,1.08,.45,.26,.96,.38,1.53,.38,.46,0,.88-.09,1.27-.27,.39-.18,.72-.45,.98-.83l.52,.38c-.3,.45-.69,.78-1.17,1.01-.48,.22-1.01,.34-1.6,.34Z" style="fill: #01426a;"/>
    <path d="M21.97,149.49v-7.31h.67v2l-.07-.22c.21-.59,.55-1.04,1.04-1.36s1.09-.48,1.82-.48v.69s-.06,0-.08,0c-.03,0-.06,0-.08,0-.81,0-1.45,.25-1.9,.76-.46,.51-.69,1.22-.69,2.12v3.81h-.7Z" style="fill: #01426a;"/>
    <path d="M30.46,149.54c-.74,0-1.39-.16-1.95-.48-.56-.32-1.01-.76-1.33-1.32-.32-.56-.48-1.2-.48-1.92s.15-1.37,.46-1.92c.3-.56,.72-.99,1.25-1.31,.53-.32,1.13-.48,1.79-.48s1.26,.15,1.79,.46c.53,.31,.94,.74,1.25,1.29s.46,1.2,.46,1.92c0,.03,0,.06,0,.09,0,.03,0,.07,0,.1h-6.45v-.55h6.08l-.28,.27c0-.57-.11-1.08-.36-1.53-.25-.45-.58-.81-1-1.06s-.91-.39-1.46-.39-1.02,.13-1.45,.39-.76,.61-1,1.06c-.24,.45-.36,.97-.36,1.55v.13c0,.6,.13,1.13,.4,1.59,.27,.46,.63,.82,1.1,1.08,.47,.26,1,.38,1.6,.38,.47,0,.9-.08,1.31-.25,.41-.17,.75-.42,1.03-.77l.41,.46c-.32,.39-.72,.69-1.2,.89-.48,.2-1,.3-1.56,.3Z" style="fill: #01426a;"/>
    <path d="M38.66,149.54c-.68,0-1.29-.16-1.84-.47s-.98-.75-1.29-1.31c-.32-.56-.48-1.2-.48-1.93s.16-1.38,.48-1.94c.32-.56,.75-.99,1.29-1.3s1.16-.47,1.84-.47c.64,0,1.23,.15,1.74,.45,.52,.3,.93,.72,1.23,1.27,.3,.55,.46,1.21,.46,1.99s-.15,1.41-.45,1.97-.71,.99-1.22,1.29c-.52,.3-1.1,.45-1.76,.45Zm.04-.63c.56,0,1.06-.13,1.51-.38,.44-.26,.79-.62,1.05-1.08,.26-.47,.38-1,.38-1.61s-.13-1.16-.38-1.62c-.26-.46-.61-.82-1.05-1.08-.44-.26-.95-.38-1.51-.38s-1.06,.13-1.5,.38-.79,.62-1.05,1.08c-.26,.46-.39,1-.39,1.62s.13,1.14,.39,1.61c.26,.47,.61,.83,1.05,1.08,.44,.26,.94,.38,1.5,.38Zm2.95,.57v-2.39l.13-1.27-.14-1.27v-5.45h.7v10.39h-.69Z" style="fill: #01426a;"/>
    <path d="M45.65,140.4c-.16,0-.29-.06-.41-.17-.11-.11-.17-.24-.17-.39,0-.16,.06-.29,.17-.41,.11-.11,.25-.17,.41-.17,.17,0,.31,.05,.41,.16,.11,.11,.16,.24,.16,.4s-.05,.29-.16,.41c-.11,.11-.25,.17-.41,.17Zm-.35,9.09v-7.31h.7v7.31h-.7Z" style="fill: #01426a;"/>
    <path d="M47.74,142.78v-.6h4.37v.6h-4.37Zm3.33,6.76c-.64,0-1.14-.18-1.48-.53s-.51-.84-.51-1.46v-6.97h.7v6.9c0,.47,.12,.83,.35,1.08s.57,.38,1.01,.38,.83-.14,1.13-.41l.29,.49c-.19,.18-.41,.31-.68,.39-.27,.08-.54,.13-.82,.13Z" style="fill: #01426a;"/>
    <path d="M56.49,149.54c-.54,0-1.01-.09-1.41-.26-.4-.17-.7-.42-.91-.73s-.31-.68-.31-1.09c0-.37,.09-.71,.26-1.02,.17-.3,.46-.55,.86-.74,.4-.19,.94-.29,1.61-.29h2.69v.55h-2.67c-.76,0-1.29,.14-1.59,.42-.3,.28-.46,.63-.46,1.05,0,.47,.18,.84,.53,1.12,.35,.28,.85,.42,1.5,.42s1.14-.14,1.56-.42c.42-.28,.74-.69,.94-1.22l.2,.48c-.2,.53-.53,.96-1,1.27s-1.07,.47-1.8,.47Zm2.63-.06v-1.67l-.03-.25v-2.74c0-.68-.18-1.2-.55-1.55-.37-.36-.91-.53-1.62-.53-.5,0-.97,.09-1.41,.26-.43,.17-.8,.39-1.11,.66l-.35-.5c.36-.33,.8-.58,1.32-.76,.51-.18,1.05-.27,1.61-.27,.9,0,1.6,.23,2.09,.69,.48,.46,.73,1.14,.73,2.04v4.63h-.67Z" style="fill: #01426a;"/>
    <path d="M65.5,149.54c-.68,0-1.29-.16-1.84-.47s-.98-.75-1.29-1.31c-.32-.56-.48-1.2-.48-1.93s.16-1.38,.48-1.94c.32-.56,.75-.99,1.29-1.3s1.16-.47,1.84-.47c.64,0,1.23,.15,1.74,.45,.52,.3,.93,.72,1.23,1.27,.3,.55,.46,1.21,.46,1.99s-.15,1.41-.45,1.97-.71,.99-1.22,1.29c-.52,.3-1.1,.45-1.76,.45Zm.04-.63c.56,0,1.06-.13,1.51-.38,.44-.26,.79-.62,1.05-1.08,.26-.47,.38-1,.38-1.61s-.13-1.16-.38-1.62c-.26-.46-.61-.82-1.05-1.08-.44-.26-.95-.38-1.51-.38s-1.06,.13-1.5,.38-.79,.62-1.05,1.08c-.26,.46-.39,1-.39,1.62s.13,1.14,.39,1.61c.26,.47,.61,.83,1.05,1.08,.44,.26,.94,.38,1.5,.38Zm2.95,.57v-2.39l.13-1.27-.14-1.27v-5.45h.7v10.39h-.69Z" style="fill: #01426a;"/>
    <path d="M74.99,149.54c-.7,0-1.32-.16-1.87-.48-.55-.32-.98-.76-1.3-1.32-.32-.56-.48-1.2-.48-1.92s.16-1.37,.48-1.92c.32-.56,.76-.99,1.3-1.31,.55-.32,1.17-.48,1.87-.48s1.33,.16,1.88,.48,.98,.75,1.3,1.31c.32,.55,.48,1.2,.48,1.92s-.16,1.36-.48,1.92c-.32,.56-.75,1-1.3,1.32-.55,.32-1.18,.48-1.88,.48Zm0-.63c.56,0,1.06-.13,1.51-.38,.45-.26,.8-.62,1.05-1.08s.38-1,.38-1.61-.13-1.16-.38-1.62-.6-.82-1.05-1.08c-.45-.26-.95-.38-1.51-.38s-1.06,.13-1.5,.38-.79,.62-1.05,1.08c-.26,.46-.39,1-.39,1.62s.13,1.14,.39,1.61c.26,.47,.61,.83,1.05,1.08,.44,.26,.94,.38,1.5,.38Z" style="fill: #01426a;"/>
    <path d="M86.38,149.54c-.54,0-1.01-.09-1.41-.26-.4-.17-.7-.42-.91-.73s-.31-.68-.31-1.09c0-.37,.09-.71,.26-1.02,.17-.3,.46-.55,.86-.74,.4-.19,.94-.29,1.61-.29h2.69v.55h-2.67c-.76,0-1.29,.14-1.59,.42-.3,.28-.46,.63-.46,1.05,0,.47,.18,.84,.53,1.12,.35,.28,.85,.42,1.5,.42s1.14-.14,1.56-.42c.42-.28,.74-.69,.94-1.22l.2,.48c-.2,.53-.53,.96-1,1.27s-1.07,.47-1.8,.47Zm2.63-.06v-1.67l-.03-.25v-2.74c0-.68-.18-1.2-.55-1.55-.37-.36-.91-.53-1.62-.53-.5,0-.97,.09-1.41,.26-.43,.17-.8,.39-1.11,.66l-.35-.5c.36-.33,.8-.58,1.32-.76,.51-.18,1.05-.27,1.61-.27,.9,0,1.6,.23,2.09,.69,.48,.46,.73,1.14,.73,2.04v4.63h-.67Z" style="fill: #01426a;"/>
    <path d="M98.02,149.54c-.61,0-1.17-.09-1.7-.27-.53-.18-.94-.4-1.23-.67l.32-.56c.28,.24,.65,.45,1.12,.62,.47,.17,.97,.26,1.51,.26,.76,0,1.31-.13,1.65-.38s.5-.58,.5-.99c0-.3-.09-.53-.26-.71-.17-.17-.4-.31-.69-.4-.29-.09-.61-.17-.95-.23-.35-.06-.69-.13-1.04-.2-.35-.07-.66-.18-.95-.32-.29-.14-.52-.33-.69-.58-.17-.25-.26-.58-.26-.99,0-.37,.1-.71,.31-1.01,.21-.3,.51-.54,.92-.72,.41-.18,.92-.27,1.54-.27,.46,0,.92,.06,1.38,.2,.46,.13,.84,.3,1.13,.52l-.32,.56c-.31-.23-.65-.4-1.04-.5-.38-.1-.77-.15-1.16-.15-.71,0-1.23,.13-1.56,.39-.33,.26-.5,.59-.5,.98,0,.31,.09,.55,.26,.73s.4,.32,.69,.42,.61,.18,.95,.24c.34,.06,.69,.13,1.04,.2s.66,.18,.95,.31c.29,.14,.52,.32,.69,.56,.17,.24,.26,.56,.26,.96s-.11,.75-.33,1.05c-.22,.3-.54,.53-.97,.7s-.96,.25-1.58,.25Z" style="fill: #01426a;"/>
    <path d="M105.83,149.54c-.63,0-1.17-.11-1.62-.34-.46-.23-.81-.57-1.06-1.04-.25-.46-.37-1.03-.37-1.71v-4.27h.7v4.21c0,.82,.21,1.45,.63,1.88,.42,.43,1.01,.64,1.78,.64,.55,0,1.03-.12,1.43-.35,.4-.23,.71-.56,.92-.99,.21-.42,.32-.93,.32-1.51v-3.89h.7v7.31h-.67v-2.03l.1,.24c-.21,.57-.57,1.02-1.07,1.35-.5,.33-1.09,.5-1.79,.5Z" style="fill: #01426a;"/>
    <path d="M118.72,149.54c-.71,0-1.34-.16-1.9-.48-.56-.32-.99-.76-1.32-1.32s-.48-1.2-.48-1.92,.16-1.37,.48-1.93c.32-.56,.76-1,1.32-1.31,.55-.31,1.19-.47,1.9-.47,.59,0,1.12,.11,1.6,.34,.48,.22,.87,.56,1.17,1.01l-.52,.38c-.26-.37-.59-.65-.98-.83-.39-.18-.82-.27-1.27-.27-.57,0-1.08,.13-1.53,.38-.45,.26-.81,.62-1.06,1.08s-.38,1-.38,1.62,.13,1.16,.38,1.62c.26,.46,.61,.82,1.06,1.08,.45,.26,.96,.38,1.53,.38,.46,0,.88-.09,1.27-.27,.39-.18,.72-.45,.98-.83l.52,.38c-.3,.45-.69,.78-1.17,1.01-.48,.22-1.02,.34-1.6,.34Z" style="fill: #01426a;"/>
    <path d="M126.56,149.54c-.63,0-1.17-.11-1.62-.34-.46-.23-.81-.57-1.06-1.04-.25-.46-.37-1.03-.37-1.71v-4.27h.7v4.21c0,.82,.21,1.45,.63,1.88,.42,.43,1.01,.64,1.78,.64,.55,0,1.03-.12,1.43-.35,.4-.23,.71-.56,.92-.99,.21-.42,.32-.93,.32-1.51v-3.89h.7v7.31h-.67v-2.03l.1,.24c-.21,.57-.57,1.02-1.07,1.35-.5,.33-1.09,.5-1.79,.5Z" style="fill: #01426a;"/>
    <path d="M135.93,149.54c-.74,0-1.39-.16-1.95-.48-.56-.32-1.01-.76-1.33-1.32s-.48-1.2-.48-1.92,.15-1.37,.46-1.92c.3-.56,.72-.99,1.25-1.31,.53-.32,1.13-.48,1.79-.48s1.26,.15,1.79,.46,.94,.74,1.25,1.29c.3,.56,.46,1.2,.46,1.92,0,.03,0,.06,0,.09,0,.03,0,.07,0,.1h-6.45v-.55h6.08l-.28,.27c0-.57-.11-1.08-.36-1.53-.25-.45-.58-.81-1-1.06s-.91-.39-1.46-.39-1.02,.13-1.45,.39c-.42,.26-.76,.61-1,1.06-.24,.45-.36,.97-.36,1.55v.13c0,.6,.13,1.13,.4,1.59,.27,.46,.63,.82,1.1,1.08,.47,.26,1,.38,1.6,.38,.47,0,.9-.08,1.31-.25,.41-.17,.75-.42,1.03-.77l.41,.46c-.32,.39-.72,.69-1.2,.89s-1,.3-1.56,.3Z" style="fill: #01426a;"/>
    <path d="M144.89,142.12c.6,0,1.12,.11,1.56,.34,.44,.23,.79,.57,1.04,1.04,.25,.46,.37,1.03,.37,1.71v4.27h-.7v-4.21c0-.82-.21-1.45-.62-1.88-.42-.43-1-.64-1.74-.64-.57,0-1.06,.12-1.48,.35-.42,.23-.74,.56-.96,.98-.22,.42-.33,.92-.33,1.51v3.89h-.7v-7.31h.67v2.03l-.1-.22c.22-.58,.59-1.03,1.11-1.37,.51-.33,1.14-.5,1.89-.5Z" style="fill: #01426a;"/>
    <path d="M149.54,142.78v-.6h4.37v.6h-4.37Zm3.33,6.76c-.64,0-1.14-.18-1.48-.53s-.51-.84-.51-1.46v-6.97h.7v6.9c0,.47,.12,.83,.35,1.08s.57,.38,1.01,.38,.84-.14,1.13-.41l.29,.49c-.19,.18-.41,.31-.68,.39-.27,.08-.54,.13-.82,.13Z" style="fill: #01426a;"/>
    <path d="M158.29,149.54c-.54,0-1.01-.09-1.41-.26-.4-.17-.7-.42-.91-.73s-.31-.68-.31-1.09c0-.37,.09-.71,.26-1.02,.17-.3,.46-.55,.86-.74,.4-.19,.94-.29,1.61-.29h2.69v.55h-2.67c-.76,0-1.29,.14-1.59,.42-.3,.28-.46,.63-.46,1.05,0,.47,.18,.84,.53,1.12s.85,.42,1.5,.42,1.14-.14,1.56-.42,.74-.69,.94-1.22l.2,.48c-.2,.53-.53,.96-1,1.27s-1.07,.47-1.8,.47Zm2.63-.06v-1.67l-.03-.25v-2.74c0-.68-.18-1.2-.55-1.55-.37-.36-.91-.53-1.62-.53-.5,0-.97,.09-1.41,.26-.43,.17-.81,.39-1.11,.66l-.35-.5c.36-.33,.8-.58,1.32-.76,.51-.18,1.05-.27,1.61-.27,.91,0,1.6,.23,2.09,.69s.73,1.14,.73,2.04v4.63h-.67Z" style="fill: #01426a;"/>
    <path d="M164.39,149.54c-.16,0-.3-.06-.41-.18-.12-.12-.18-.26-.18-.43s.06-.31,.18-.42c.12-.11,.25-.17,.41-.17s.3,.05,.41,.17c.12,.11,.17,.25,.17,.42s-.06,.31-.17,.43c-.12,.12-.25,.18-.41,.18Z" style="fill: #01426a;"/>
  </g>
  <g>
    <path d="M114.38,298.04c-1.01,0-1.95-.17-2.8-.5s-1.6-.81-2.22-1.42-1.12-1.33-1.47-2.16c-.35-.82-.53-1.73-.53-2.72s.18-1.89,.53-2.72c.35-.82,.85-1.54,1.48-2.16s1.38-1.09,2.23-1.43c.85-.33,1.79-.5,2.8-.5s1.97,.17,2.84,.52c.87,.35,1.61,.87,2.21,1.55l-1.24,1.2c-.51-.53-1.08-.93-1.71-1.19s-1.31-.39-2.03-.39-1.44,.13-2.08,.38-1.19,.61-1.66,1.06c-.47,.46-.83,1-1.09,1.62-.26,.63-.39,1.31-.39,2.04s.13,1.42,.39,2.04c.26,.63,.62,1.17,1.09,1.62,.47,.46,1.02,.81,1.66,1.06s1.33,.38,2.08,.38,1.4-.13,2.03-.39c.63-.26,1.2-.66,1.71-1.21l1.24,1.2c-.61,.68-1.35,1.2-2.21,1.56s-1.82,.53-2.86,.53Z" style="fill: #01426a;"/>
    <path d="M126.22,298c-1,0-1.9-.22-2.69-.66-.79-.44-1.42-1.05-1.87-1.83s-.68-1.66-.68-2.65,.23-1.88,.68-2.65c.46-.77,1.08-1.37,1.86-1.81,.79-.44,1.68-.67,2.7-.67s1.9,.22,2.69,.66c.79,.44,1.41,1.04,1.86,1.81,.45,.77,.67,1.66,.67,2.66s-.23,1.89-.67,2.66c-.45,.77-1.07,1.38-1.86,1.82s-1.69,.66-2.69,.66Zm0-1.6c.65,0,1.23-.14,1.74-.44,.51-.29,.92-.71,1.21-1.25,.29-.54,.44-1.16,.44-1.87s-.15-1.35-.44-1.87-.69-.93-1.21-1.23c-.51-.29-1.09-.44-1.74-.44s-1.22,.14-1.73,.44c-.51,.29-.91,.7-1.22,1.23-.3,.53-.46,1.15-.46,1.87s.15,1.33,.46,1.87c.3,.54,.71,.95,1.22,1.25,.51,.29,1.08,.44,1.73,.44Z" style="fill: #01426a;"/>
    <path d="M139.34,287.72c.82,0,1.55,.16,2.18,.48,.63,.32,1.12,.8,1.47,1.44s.53,1.46,.53,2.45v5.79h-1.82v-5.59c0-.97-.24-1.71-.71-2.2s-1.14-.74-2-.74c-.65,0-1.21,.13-1.69,.38-.48,.25-.85,.63-1.11,1.12-.26,.49-.39,1.11-.39,1.84v5.19h-1.82v-10.07h1.75v2.72l-.29-.72c.33-.66,.84-1.17,1.52-1.54,.68-.37,1.48-.55,2.39-.55Z" style="fill: #01426a;"/>
    <path d="M145.46,289.32v-1.5h6.42v1.5h-6.42Zm4.9,8.68c-1.01,0-1.8-.27-2.36-.82-.56-.54-.84-1.32-.84-2.34v-9.23h1.82v9.16c0,.54,.14,.96,.41,1.25,.27,.29,.66,.44,1.17,.44,.57,0,1.04-.16,1.42-.48l.57,1.31c-.28,.24-.61,.42-1,.53-.39,.11-.79,.17-1.21,.17Z" style="fill: #01426a;"/>
    <path d="M155.68,285.88c-.35,0-.65-.11-.88-.34-.23-.23-.35-.51-.35-.84s.12-.63,.35-.86,.53-.34,.88-.34,.65,.11,.88,.33c.23,.22,.35,.5,.35,.83s-.11,.63-.34,.87-.53,.35-.89,.35Zm-.91,12.01v-10.07h1.82v10.07h-1.82Z" style="fill: #01426a;"/>
    <path d="M165.45,287.72c.82,0,1.55,.16,2.18,.48s1.12,.8,1.47,1.44,.53,1.46,.53,2.45v5.79h-1.82v-5.59c0-.97-.24-1.71-.71-2.2-.48-.49-1.14-.74-2-.74-.65,0-1.21,.13-1.69,.38-.48,.25-.85,.63-1.11,1.12-.26,.49-.39,1.11-.39,1.84v5.19h-1.82v-10.07h1.75v2.72l-.29-.72c.33-.66,.84-1.17,1.52-1.54,.68-.37,1.48-.55,2.39-.55Z" style="fill: #01426a;"/>
    <path d="M177.25,298c-.86,0-1.62-.16-2.27-.47s-1.16-.8-1.52-1.45c-.36-.65-.54-1.47-.54-2.46v-5.79h1.82v5.59c0,.99,.24,1.73,.71,2.22,.47,.49,1.14,.74,2,.74,.63,0,1.19-.13,1.65-.39,.47-.26,.83-.64,1.08-1.14,.25-.5,.38-1.11,.38-1.81v-5.21h1.82v10.07h-1.73v-2.72l.28,.72c-.33,.67-.82,1.19-1.48,1.56-.66,.37-1.4,.55-2.22,.55Z" style="fill: #01426a;"/>
    <path d="M188.82,298c-.75,0-1.4-.13-1.97-.38-.56-.25-1-.61-1.3-1.05-.3-.45-.46-.96-.46-1.53s.13-1.04,.39-1.48,.68-.8,1.27-1.06c.59-.27,1.38-.4,2.38-.4h3.19v1.31h-3.12c-.91,0-1.53,.15-1.84,.46-.32,.3-.47,.67-.47,1.1,0,.49,.2,.89,.59,1.19,.39,.3,.94,.45,1.63,.45s1.28-.15,1.8-.46c.51-.3,.88-.75,1.11-1.33l.36,1.25c-.24,.6-.67,1.07-1.27,1.42-.61,.35-1.38,.52-2.3,.52Zm3.31-.11v-2.13l-.09-.4v-3.63c0-.77-.22-1.37-.67-1.79-.45-.42-1.12-.64-2.02-.64-.6,0-1.18,.1-1.75,.29-.57,.2-1.05,.46-1.44,.79l-.76-1.37c.52-.42,1.14-.74,1.87-.96,.73-.22,1.49-.33,2.29-.33,1.38,0,2.45,.34,3.19,1.01,.75,.67,1.12,1.7,1.12,3.08v6.08h-1.73Z" style="fill: #01426a;"/>
    <path d="M197.24,297.89v-10.07h1.75v2.74l-.17-.68c.28-.7,.75-1.23,1.41-1.6,.66-.37,1.47-.55,2.43-.55v1.77c-.08-.01-.15-.02-.22-.02h-.2c-.98,0-1.75,.29-2.32,.87-.57,.58-.86,1.42-.86,2.53v5.02h-1.82Z" style="fill: #01426a;"/>
  </g>
</svg>