<?xml version="1.0" encoding="UTF-8"?>
<svg id="Layer_1" data-name="Layer 1" xmlns="http://www.w3.org/2000/svg" viewBox="0 0 310 500">
  <g>
    <path d="M5.63,43.02V23.47H14.81c2.33,0,4.1,.46,5.33,1.38,1.23,.92,1.84,2.16,1.84,3.7,0,1.04-.24,1.93-.73,2.67-.48,.74-1.13,1.3-1.94,1.7-.81,.4-1.69,.6-2.64,.6l.5-1.01c1.1,0,2.08,.2,2.96,.6s1.56,.98,2.07,1.75c.5,.76,.75,1.71,.75,2.85,0,1.68-.64,2.98-1.91,3.91-1.28,.93-3.17,1.4-5.68,1.4H5.63Zm3.63-2.85h5.89c1.34,0,2.37-.22,3.1-.67s1.09-1.16,1.09-2.15-.36-1.68-1.09-2.14c-.73-.46-1.76-.68-3.1-.68h-6.17v-2.82h5.42c1.25,0,2.22-.22,2.9-.67,.69-.45,1.03-1.12,1.03-2.01s-.34-1.59-1.03-2.04c-.69-.45-1.66-.67-2.9-.67h-5.14v13.85Z" style="fill: #0a486f;"/>
    <path d="M28.3,25.65c-.65,0-1.19-.2-1.61-.61-.42-.41-.63-.91-.63-1.51,0-.56,.21-1.04,.63-1.45s.95-.61,1.61-.61,1.19,.19,1.61,.57c.42,.38,.63,.87,.63,1.47s-.21,1.1-.61,1.52c-.41,.42-.95,.63-1.62,.63Zm-1.73,17.37v-14.91h3.46v14.91h-3.46Z" style="fill: #0a486f;"/>
    <path d="M41.65,43.21c-1.66,0-3.1-.33-4.34-.99-1.24-.66-2.2-1.56-2.88-2.71-.68-1.15-1.02-2.46-1.02-3.95s.33-2.81,.99-3.95c.66-1.14,1.57-2.05,2.74-2.71,1.16-.66,2.49-.99,3.98-.99s2.75,.32,3.88,.96c1.14,.64,2.03,1.54,2.68,2.69,.65,1.15,.98,2.52,.98,4.1,0,.13,0,.29-.01,.49,0,.2-.02,.37-.04,.52h-12.43v-2.32h10.58l-1.4,.73c.02-.84-.15-1.59-.52-2.25-.36-.66-.86-1.17-1.49-1.54-.63-.36-1.38-.54-2.23-.54s-1.59,.18-2.25,.54c-.66,.36-1.17,.88-1.52,1.55-.35,.67-.53,1.44-.53,2.32v.56c0,.89,.2,1.69,.6,2.37,.4,.69,.97,1.22,1.72,1.61,.74,.38,1.61,.57,2.6,.57,.84,0,1.59-.14,2.26-.42,.67-.28,1.27-.69,1.79-1.23l1.9,2.18c-.69,.78-1.54,1.38-2.56,1.79-1.02,.41-2.17,.61-3.48,.61Z" style="fill: #0a486f;"/>
    <path d="M60.47,27.91c1.21,0,2.28,.23,3.2,.7,.92,.47,1.66,1.18,2.21,2.15,.55,.97,.82,2.21,.82,3.71v8.54h-3.49v-8.1c0-1.32-.31-2.31-.92-2.96-.61-.65-1.49-.98-2.62-.98-.82,0-1.55,.17-2.18,.5-.63,.33-1.12,.83-1.47,1.49-.34,.66-.52,1.49-.52,2.5v7.54h-3.46v-14.91h3.32v4.05l-.59-1.26c.5-.95,1.25-1.68,2.25-2.21,1-.52,2.15-.78,3.45-.78Z" style="fill: #0a486f;"/>
    <path d="M75.1,43.02l-6.4-14.91h3.6l5.53,13.15h-1.79l5.7-13.15h3.35l-6.4,14.91h-3.6Z" style="fill: #0a486f;"/>
    <path d="M94.29,43.21c-1.66,0-3.1-.33-4.34-.99-1.24-.66-2.2-1.56-2.88-2.71-.68-1.15-1.02-2.46-1.02-3.95s.33-2.81,.99-3.95c.66-1.14,1.57-2.05,2.74-2.71,1.16-.66,2.49-.99,3.98-.99s2.75,.32,3.88,.96c1.14,.64,2.03,1.54,2.68,2.69,.65,1.15,.98,2.52,.98,4.1,0,.13,0,.29-.01,.49,0,.2-.02,.37-.04,.52h-12.43v-2.32h10.58l-1.4,.73c.02-.84-.15-1.59-.52-2.25-.36-.66-.86-1.17-1.49-1.54-.63-.36-1.38-.54-2.23-.54s-1.59,.18-2.25,.54c-.66,.36-1.17,.88-1.52,1.55-.35,.67-.53,1.44-.53,2.32v.56c0,.89,.2,1.69,.6,2.37,.4,.69,.97,1.22,1.72,1.61,.74,.38,1.61,.57,2.6,.57,.84,0,1.59-.14,2.26-.42,.67-.28,1.27-.69,1.79-1.23l1.9,2.18c-.69,.78-1.54,1.38-2.56,1.79-1.02,.41-2.17,.61-3.48,.61Z" style="fill: #0a486f;"/>
    <path d="M113.11,27.91c1.21,0,2.28,.23,3.2,.7,.92,.47,1.66,1.18,2.21,2.15,.55,.97,.82,2.21,.82,3.71v8.54h-3.49v-8.1c0-1.32-.31-2.31-.92-2.96-.61-.65-1.49-.98-2.62-.98-.82,0-1.55,.17-2.18,.5-.63,.33-1.12,.83-1.47,1.49-.34,.66-.52,1.49-.52,2.5v7.54h-3.46v-14.91h3.32v4.05l-.59-1.26c.5-.95,1.25-1.68,2.25-2.21,1-.52,2.15-.78,3.45-.78Z" style="fill: #0a486f;"/>
    <path d="M125.54,25.65c-.65,0-1.19-.2-1.61-.61-.42-.41-.63-.91-.63-1.51,0-.56,.21-1.04,.63-1.45s.95-.61,1.61-.61,1.19,.19,1.61,.57c.42,.38,.63,.87,.63,1.47s-.21,1.1-.61,1.52c-.41,.42-.95,.63-1.62,.63Zm-1.73,17.37v-14.91h3.46v14.91h-3.46Z" style="fill: #0a486f;"/>
    <path d="M138.19,43.21c-1.43,0-2.72-.32-3.87-.95s-2.04-1.52-2.69-2.67c-.65-1.15-.98-2.49-.98-4.04s.33-2.87,.98-4.02c.65-1.15,1.55-2.05,2.69-2.68,1.15-.63,2.43-.95,3.87-.95,1.25,0,2.36,.27,3.35,.82,.99,.55,1.77,1.39,2.35,2.51,.58,1.13,.87,2.56,.87,4.31s-.28,3.17-.84,4.3c-.56,1.14-1.33,1.98-2.3,2.53-.98,.55-2.12,.82-3.42,.82Zm.42-2.96c.84,0,1.59-.19,2.25-.57,.66-.38,1.19-.93,1.59-1.65,.4-.72,.6-1.54,.6-2.47s-.2-1.77-.6-2.47c-.4-.7-.93-1.24-1.59-1.62-.66-.38-1.41-.57-2.25-.57s-1.59,.19-2.25,.57c-.66,.38-1.19,.92-1.59,1.62-.4,.7-.6,1.52-.6,2.47s.2,1.75,.6,2.47c.4,.72,.93,1.27,1.59,1.65,.66,.38,1.41,.57,2.25,.57Zm4.55,2.76v-3.52l.08-3.97-.28-3.97v-9.27h3.52v20.72h-3.32Z" style="fill: #0a486f;"/>
    <path d="M157.73,43.21c-1.51,0-2.86-.33-4.06-.99-1.2-.66-2.15-1.57-2.83-2.72-.69-1.15-1.03-2.47-1.03-3.94s.34-2.83,1.03-3.97c.69-1.14,1.63-2.03,2.82-2.69,1.19-.66,2.55-.99,4.08-.99s2.92,.33,4.12,.99c1.2,.66,2.14,1.56,2.82,2.69,.68,1.14,1.02,2.46,1.02,3.97s-.34,2.81-1.02,3.95c-.68,1.14-1.62,2.05-2.83,2.71-1.21,.66-2.58,.99-4.11,.99Zm0-2.96c.86,0,1.62-.19,2.29-.57,.67-.38,1.2-.93,1.58-1.65,.38-.72,.57-1.54,.57-2.47s-.19-1.77-.57-2.47c-.38-.7-.91-1.24-1.58-1.62-.67-.38-1.43-.57-2.26-.57s-1.59,.19-2.26,.57c-.67,.38-1.2,.92-1.59,1.62-.39,.7-.59,1.52-.59,2.47s.2,1.75,.59,2.47c.39,.72,.92,1.27,1.59,1.65,.67,.38,1.42,.57,2.23,.57Z" style="fill: #0a486f;"/>
  </g>
  <rect x="1.5" y="75" width="307" height="55" rx="8" ry="8" style="fill: none; stroke: #919191; stroke-miterlimit: 10; stroke-width: .75px;"/>
  <rect x="1.5" y="154.5" width="307" height="55" rx="8" ry="8" style="fill: none; stroke: #919191; stroke-miterlimit: 10; stroke-width: .75px;"/>
  <rect x="1.5" y="312.5" width="307" height="50" rx="8" ry="8" style="fill: #ffc600;"/>
  <g>
    <path d="M70.6,107.89h-1.23l-5.07-7.79h-.05c.07,.91,.1,1.75,.1,2.51v5.27h-1v-9.28h1.22l5.06,7.76h.05c0-.11-.03-.48-.06-1.1-.03-.62-.04-1.06-.03-1.33v-5.33h1.01v9.28Z" style="fill: #919191;"/>
    <path d="M79,104.4c0,1.13-.29,2.02-.86,2.66-.57,.64-1.36,.96-2.37,.96-.62,0-1.17-.15-1.66-.44s-.85-.71-1.12-1.26-.39-1.19-.39-1.92c0-1.13,.28-2.02,.85-2.65,.57-.63,1.35-.95,2.36-.95s1.75,.32,2.32,.97c.57,.65,.86,1.52,.86,2.63Zm-5.3,0c0,.89,.18,1.57,.53,2.03s.88,.7,1.57,.7,1.21-.23,1.57-.69c.36-.46,.54-1.14,.54-2.03s-.18-1.56-.54-2.02c-.36-.46-.89-.69-1.58-.69s-1.21,.23-1.56,.68-.53,1.13-.53,2.02Z" style="fill: #919191;"/>
    <path d="M89.71,107.89v-4.53c0-.55-.12-.97-.36-1.25-.24-.28-.6-.42-1.1-.42-.66,0-1.14,.19-1.45,.56s-.47,.96-.47,1.74v3.88h-1.05v-4.53c0-.55-.12-.97-.36-1.25-.24-.28-.61-.42-1.11-.42-.66,0-1.14,.2-1.45,.59-.31,.4-.46,1.04-.46,1.95v3.65h-1.05v-6.96h.86l.17,.95h.05c.2-.34,.48-.6,.84-.79,.36-.19,.77-.29,1.22-.29,1.09,0,1.8,.39,2.13,1.18h.05c.21-.36,.51-.65,.9-.86s.84-.32,1.35-.32c.79,0,1.38,.2,1.77,.61,.39,.4,.59,1.05,.59,1.94v4.54h-1.05Z" style="fill: #919191;"/>
    <path d="M96.17,100.82c.91,0,1.62,.31,2.13,.94,.51,.62,.76,1.51,.76,2.65s-.25,2.03-.77,2.66c-.51,.63-1.22,.95-2.12,.95-.45,0-.87-.08-1.24-.25-.37-.17-.69-.42-.94-.77h-.08l-.22,.9h-.76v-9.88h1.05v2.4c0,.54-.02,1.02-.05,1.45h.05c.49-.69,1.22-1.04,2.18-1.04Zm-.15,.88c-.72,0-1.24,.21-1.56,.62-.32,.41-.48,1.11-.48,2.09s.16,1.68,.49,2.1c.33,.42,.85,.63,1.57,.63,.65,0,1.13-.24,1.45-.71,.32-.47,.48-1.15,.48-2.03s-.16-1.58-.48-2.02-.81-.67-1.47-.67Z" style="fill: #919191;"/>
    <path d="M104.08,100.8c.31,0,.59,.03,.83,.08l-.15,.98c-.29-.06-.54-.1-.76-.1-.56,0-1.04,.23-1.44,.69-.4,.46-.6,1.03-.6,1.71v3.73h-1.05v-6.96h.87l.12,1.29h.05c.26-.45,.57-.8,.93-1.05s.76-.37,1.2-.37Z" style="fill: #919191;"/>
    <path d="M109.15,108.02c-1.03,0-1.84-.31-2.43-.94-.59-.63-.89-1.5-.89-2.61s.28-2.01,.83-2.67c.55-.66,1.29-.99,2.22-.99,.87,0,1.56,.29,2.07,.86,.51,.57,.76,1.33,.76,2.27v.67h-4.79c.02,.82,.23,1.44,.62,1.86,.39,.42,.94,.63,1.65,.63,.75,0,1.49-.16,2.22-.47v.94c-.37,.16-.72,.28-1.06,.35-.33,.07-.73,.1-1.2,.1Zm-.29-6.33c-.56,0-1,.18-1.34,.55-.33,.36-.53,.87-.59,1.51h3.64c0-.66-.15-1.17-.44-1.53-.3-.35-.72-.53-1.27-.53Z" style="fill: #919191;"/>
    <path d="M121.61,106.96h-.06c-.49,.71-1.21,1.06-2.18,1.06-.91,0-1.62-.31-2.12-.93-.51-.62-.76-1.51-.76-2.65s.25-2.04,.76-2.67,1.21-.95,2.12-.95,1.67,.34,2.17,1.03h.08l-.04-.5-.03-.49v-2.83h1.05v9.88h-.86l-.14-.93Zm-2.11,.18c.72,0,1.24-.2,1.56-.59,.32-.39,.49-1.02,.49-1.89v-.22c0-.99-.16-1.69-.49-2.11-.33-.42-.85-.63-1.57-.63-.62,0-1.09,.24-1.42,.72-.33,.48-.49,1.16-.49,2.03s.16,1.56,.49,2.01,.8,.68,1.43,.68Z" style="fill: #919191;"/>
    <path d="M127.78,108.02c-1.03,0-1.84-.31-2.43-.94-.59-.63-.89-1.5-.89-2.61s.28-2.01,.83-2.67c.55-.66,1.29-.99,2.22-.99,.87,0,1.56,.29,2.07,.86,.51,.57,.76,1.33,.76,2.27v.67h-4.79c.02,.82,.23,1.44,.62,1.86,.39,.42,.94,.63,1.65,.63,.75,0,1.49-.16,2.22-.47v.94c-.37,.16-.72,.28-1.06,.35-.33,.07-.73,.1-1.2,.1Zm-.29-6.33c-.56,0-1,.18-1.34,.55-.33,.36-.53,.87-.59,1.51h3.64c0-.66-.15-1.17-.44-1.53-.3-.35-.72-.53-1.27-.53Z" style="fill: #919191;"/>
    <path d="M136.51,100.93v4.51c0,.57,.13,.99,.39,1.27s.66,.42,1.21,.42c.73,0,1.26-.2,1.6-.6,.34-.4,.5-1.05,.5-1.95v-3.66h1.05v6.96h-.87l-.15-.93h-.06c-.22,.34-.52,.6-.9,.79-.38,.18-.82,.27-1.31,.27-.85,0-1.48-.2-1.9-.6-.42-.4-.63-1.05-.63-1.93v-4.55h1.07Z" style="fill: #919191;"/>
    <path d="M147.98,105.99c0,.65-.24,1.15-.72,1.5s-1.16,.53-2.03,.53c-.92,0-1.64-.15-2.16-.44v-.98c.33,.17,.69,.3,1.08,.4,.38,.1,.75,.15,1.11,.15,.55,0,.97-.09,1.27-.26,.3-.18,.44-.44,.44-.8,0-.27-.12-.5-.35-.69-.24-.19-.69-.42-1.37-.68-.65-.24-1.11-.45-1.38-.63-.27-.18-.48-.38-.61-.61-.13-.23-.2-.5-.2-.82,0-.57,.23-1.01,.69-1.34,.46-.33,1.09-.49,1.9-.49,.75,0,1.48,.15,2.2,.46l-.37,.86c-.7-.29-1.33-.43-1.9-.43-.5,0-.88,.08-1.13,.23s-.38,.37-.38,.65c0,.19,.05,.34,.14,.48,.1,.13,.25,.26,.46,.37s.62,.29,1.22,.51c.83,.3,1.38,.6,1.67,.91,.29,.3,.44,.69,.44,1.15Z" style="fill: #919191;"/>
    <path d="M150.69,100.93v4.51c0,.57,.13,.99,.39,1.27s.66,.42,1.21,.42c.73,0,1.26-.2,1.6-.6,.34-.4,.5-1.05,.5-1.95v-3.66h1.05v6.96h-.87l-.15-.93h-.06c-.22,.34-.52,.6-.9,.79-.38,.18-.82,.27-1.31,.27-.85,0-1.48-.2-1.9-.6-.42-.4-.63-1.05-.63-1.93v-4.55h1.07Z" style="fill: #919191;"/>
    <path d="M161.95,107.89l-.21-.99h-.05c-.35,.44-.69,.73-1.04,.89-.34,.15-.78,.23-1.29,.23-.69,0-1.23-.18-1.62-.53s-.59-.86-.59-1.52c0-1.4,1.12-2.14,3.37-2.21l1.18-.04v-.43c0-.55-.12-.95-.35-1.21-.24-.26-.61-.39-1.13-.39-.58,0-1.24,.18-1.97,.53l-.32-.81c.34-.19,.72-.33,1.13-.44s.82-.16,1.23-.16c.83,0,1.44,.18,1.84,.55,.4,.37,.6,.96,.6,1.77v4.75h-.78Zm-2.38-.74c.66,0,1.17-.18,1.54-.54,.38-.36,.56-.86,.56-1.51v-.63l-1.05,.04c-.84,.03-1.44,.16-1.81,.39-.37,.23-.56,.59-.56,1.08,0,.38,.12,.67,.35,.87s.55,.3,.97,.3Z" style="fill: #919191;"/>
    <path d="M168.08,100.8c.31,0,.59,.03,.83,.08l-.15,.98c-.29-.06-.54-.1-.76-.1-.56,0-1.04,.23-1.44,.69-.4,.46-.6,1.03-.6,1.71v3.73h-1.05v-6.96h.87l.12,1.29h.05c.26-.45,.57-.8,.93-1.05,.36-.25,.76-.37,1.2-.37Z" style="fill: #919191;"/>
    <path d="M170.12,99.05c0-.24,.06-.42,.18-.53,.12-.11,.27-.17,.44-.17s.32,.06,.44,.17c.12,.11,.18,.29,.18,.53s-.06,.41-.18,.53c-.12,.12-.27,.17-.44,.17-.18,0-.33-.06-.44-.17-.12-.12-.18-.29-.18-.53Zm1.14,8.84h-1.05v-6.96h1.05v6.96Z" style="fill: #919191;"/>
    <path d="M179.5,104.4c0,1.13-.29,2.02-.86,2.66-.57,.64-1.36,.96-2.37,.96-.62,0-1.17-.15-1.66-.44s-.85-.71-1.12-1.26c-.26-.55-.39-1.19-.39-1.92,0-1.13,.28-2.02,.85-2.65,.57-.63,1.35-.95,2.36-.95s1.75,.32,2.32,.97,.86,1.52,.86,2.63Zm-5.3,0c0,.89,.18,1.57,.53,2.03s.88,.7,1.57,.7,1.21-.23,1.57-.69c.36-.46,.54-1.14,.54-2.03s-.18-1.56-.54-2.02c-.36-.46-.89-.69-1.58-.69s-1.21,.23-1.56,.68-.53,1.13-.53,2.02Z" style="fill: #919191;"/>
  </g>
  <g>
    <path d="M67.81,179.44c-1.02,0-1.82,.34-2.42,1.02-.59,.68-.89,1.61-.89,2.79s.28,2.15,.85,2.81c.57,.66,1.38,.99,2.43,.99,.65,0,1.39-.12,2.22-.35v.95c-.64,.24-1.44,.36-2.38,.36-1.37,0-2.42-.41-3.16-1.24-.74-.83-1.11-2.01-1.11-3.54,0-.96,.18-1.79,.54-2.51,.36-.72,.87-1.27,1.55-1.66,.67-.39,1.47-.58,2.38-.58,.97,0,1.82,.18,2.55,.53l-.46,.93c-.7-.33-1.4-.5-2.11-.5Z" style="fill: #919191;"/>
    <path d="M77.88,184.4c0,1.13-.29,2.02-.86,2.66-.57,.64-1.36,.96-2.37,.96-.62,0-1.17-.15-1.66-.44s-.85-.71-1.12-1.26-.39-1.19-.39-1.92c0-1.13,.28-2.02,.85-2.65,.57-.63,1.35-.95,2.36-.95s1.75,.32,2.32,.97c.57,.65,.86,1.52,.86,2.63Zm-5.3,0c0,.89,.18,1.57,.53,2.03s.88,.7,1.57,.7,1.21-.23,1.57-.69c.36-.46,.54-1.14,.54-2.03s-.18-1.56-.54-2.02c-.36-.46-.89-.69-1.58-.69s-1.21,.23-1.56,.68-.53,1.13-.53,2.02Z" style="fill: #919191;"/>
    <path d="M84.49,187.89v-4.5c0-.57-.13-.99-.39-1.27s-.66-.42-1.21-.42c-.73,0-1.26,.2-1.6,.59s-.51,1.04-.51,1.95v3.65h-1.05v-6.96h.86l.17,.95h.05c.22-.34,.52-.61,.91-.8,.39-.19,.82-.28,1.3-.28,.84,0,1.47,.2,1.89,.61,.42,.4,.63,1.05,.63,1.94v4.54h-1.05Z" style="fill: #919191;"/>
    <path d="M89.95,187.15c.19,0,.37-.01,.54-.04,.17-.03,.31-.06,.41-.09v.81c-.11,.06-.28,.1-.5,.14-.22,.04-.42,.05-.6,.05-1.35,0-2.02-.71-2.02-2.13v-4.14h-1v-.51l1-.44,.44-1.49h.61v1.61h2.02v.82h-2.02v4.09c0,.42,.1,.74,.3,.96s.47,.34,.82,.34Z" style="fill: #919191;"/>
    <path d="M95.47,180.8c.31,0,.59,.03,.83,.08l-.15,.98c-.29-.06-.54-.1-.76-.1-.56,0-1.04,.23-1.44,.69-.4,.46-.6,1.03-.6,1.71v3.73h-1.05v-6.96h.87l.12,1.29h.05c.26-.45,.57-.8,.93-1.05s.76-.37,1.2-.37Z" style="fill: #919191;"/>
    <path d="M101.88,187.89l-.21-.99h-.05c-.35,.44-.69,.73-1.04,.89-.35,.15-.78,.23-1.29,.23-.69,0-1.23-.18-1.62-.53-.39-.36-.59-.86-.59-1.52,0-1.4,1.12-2.14,3.37-2.21l1.18-.04v-.43c0-.55-.12-.95-.35-1.21-.24-.26-.61-.39-1.13-.39-.58,0-1.24,.18-1.97,.53l-.32-.81c.34-.19,.72-.33,1.13-.44,.41-.11,.82-.16,1.23-.16,.83,0,1.44,.18,1.84,.55,.4,.37,.6,.96,.6,1.77v4.75h-.78Zm-2.38-.74c.66,0,1.17-.18,1.55-.54,.38-.36,.56-.86,.56-1.51v-.63l-1.05,.04c-.84,.03-1.44,.16-1.81,.39-.37,.23-.56,.59-.56,1.08,0,.38,.12,.67,.35,.87,.23,.2,.55,.3,.97,.3Z" style="fill: #919191;"/>
    <path d="M109.32,185.99c0,.65-.24,1.15-.72,1.5s-1.16,.53-2.03,.53c-.92,0-1.64-.15-2.16-.44v-.98c.33,.17,.69,.3,1.08,.4,.38,.1,.75,.15,1.11,.15,.55,0,.97-.09,1.27-.26,.3-.18,.44-.44,.44-.8,0-.27-.12-.5-.35-.69-.24-.19-.69-.42-1.37-.68-.65-.24-1.11-.45-1.38-.63-.27-.18-.48-.38-.61-.61-.13-.23-.2-.5-.2-.82,0-.57,.23-1.01,.69-1.34,.46-.33,1.09-.49,1.9-.49,.75,0,1.48,.15,2.2,.46l-.37,.86c-.7-.29-1.33-.43-1.9-.43-.5,0-.88,.08-1.13,.23s-.38,.37-.38,.65c0,.19,.05,.34,.14,.48,.1,.13,.25,.26,.46,.37s.62,.29,1.22,.51c.83,.3,1.38,.6,1.67,.91,.29,.3,.44,.69,.44,1.15Z" style="fill: #919191;"/>
    <path d="M113.97,188.02c-1.03,0-1.84-.31-2.43-.94-.59-.63-.89-1.5-.89-2.61s.28-2.01,.83-2.67c.55-.66,1.29-.99,2.22-.99,.87,0,1.56,.29,2.07,.86,.51,.57,.76,1.33,.76,2.27v.67h-4.79c.02,.82,.23,1.44,.62,1.86,.39,.42,.94,.63,1.65,.63,.75,0,1.49-.16,2.22-.47v.94c-.37,.16-.72,.28-1.06,.35-.33,.07-.73,.1-1.2,.1Zm-.29-6.33c-.56,0-1,.18-1.34,.55-.33,.36-.53,.87-.59,1.51h3.64c0-.66-.15-1.17-.44-1.53-.3-.35-.72-.53-1.27-.53Z" style="fill: #919191;"/>
    <path d="M123.09,187.89v-4.5c0-.57-.13-.99-.39-1.27s-.66-.42-1.21-.42c-.73,0-1.26,.2-1.6,.59s-.51,1.04-.51,1.95v3.65h-1.05v-6.96h.86l.17,.95h.05c.22-.34,.52-.61,.91-.8,.39-.19,.82-.28,1.3-.28,.84,0,1.47,.2,1.89,.61,.42,.4,.63,1.05,.63,1.94v4.54h-1.05Zm-.79-7.89c-.18,0-.36-.04-.53-.12-.17-.08-.34-.17-.51-.26-.17-.1-.33-.18-.48-.26-.15-.08-.3-.12-.45-.12-.21,0-.37,.06-.48,.19-.11,.13-.19,.32-.25,.58h-.62c.06-.51,.2-.91,.45-1.2,.24-.29,.56-.44,.94-.44,.19,0,.38,.04,.56,.12,.18,.08,.36,.17,.52,.26,.17,.1,.32,.18,.48,.26,.15,.08,.3,.12,.43,.12,.21,0,.36-.06,.46-.19,.1-.12,.18-.32,.25-.58h.63c-.06,.51-.2,.91-.44,1.2-.24,.29-.56,.44-.96,.44Z" style="fill: #919191;"/>
    <path d="M130.58,187.89l-.21-.99h-.05c-.35,.44-.69,.73-1.04,.89-.35,.15-.78,.23-1.29,.23-.69,0-1.23-.18-1.62-.53-.39-.36-.59-.86-.59-1.52,0-1.4,1.12-2.14,3.37-2.21l1.18-.04v-.43c0-.55-.12-.95-.35-1.21-.24-.26-.61-.39-1.13-.39-.58,0-1.24,.18-1.97,.53l-.32-.81c.34-.19,.72-.33,1.13-.44,.41-.11,.82-.16,1.23-.16,.83,0,1.44,.18,1.84,.55,.4,.37,.6,.96,.6,1.77v4.75h-.78Zm-2.38-.74c.66,0,1.17-.18,1.55-.54,.38-.36,.56-.86,.56-1.51v-.63l-1.05,.04c-.84,.03-1.44,.16-1.81,.39-.37,.23-.56,.59-.56,1.08,0,.38,.12,.67,.35,.87,.23,.2,.55,.3,.97,.3Z" style="fill: #919191;"/>
  </g>
  <g>
    <path d="M47.26,260.89v-9.8h3.51c.82,0,1.53,.13,2.11,.39,.59,.26,1.04,.64,1.36,1.13s.48,1.09,.48,1.79-.16,1.27-.48,1.76c-.32,.49-.77,.87-1.36,1.13-.59,.27-1.29,.4-2.11,.4h-3.12l.32-.34v3.54h-.71Zm.71-3.5l-.32-.34h3.12c1.05,0,1.85-.23,2.4-.7,.55-.47,.82-1.12,.82-1.96s-.27-1.5-.82-1.97-1.35-.69-2.4-.69h-3.12l.32-.35v6.01Zm6.09,3.5l-2.55-3.56h.81l2.55,3.56h-.81Z" style="fill: #01426a;"/>
    <path d="M60.09,260.95c-.74,0-1.39-.16-1.95-.48-.56-.32-1.01-.76-1.33-1.32-.32-.56-.48-1.2-.48-1.92s.15-1.37,.46-1.92c.3-.56,.72-.99,1.25-1.31,.53-.32,1.13-.47,1.79-.47s1.26,.15,1.79,.46c.53,.31,.94,.74,1.25,1.29,.3,.56,.46,1.2,.46,1.93,0,.03,0,.06,0,.09,0,.03,0,.07,0,.1h-6.45v-.55h6.08l-.28,.27c0-.57-.11-1.08-.36-1.53-.25-.45-.58-.81-1-1.06-.42-.26-.91-.38-1.46-.38s-1.02,.13-1.45,.38c-.42,.26-.76,.61-1,1.06s-.36,.97-.36,1.55v.13c0,.6,.13,1.13,.4,1.59s.63,.82,1.1,1.08c.47,.26,1,.38,1.6,.38,.47,0,.9-.08,1.31-.25,.41-.17,.75-.42,1.03-.77l.41,.46c-.32,.39-.72,.69-1.2,.89-.48,.2-1,.3-1.56,.3Z" style="fill: #01426a;"/>
    <path d="M68.38,260.95c-.71,0-1.34-.16-1.9-.48s-.99-.76-1.32-1.32c-.32-.56-.48-1.2-.48-1.92s.16-1.37,.48-1.93c.32-.56,.76-1,1.32-1.31s1.19-.47,1.9-.47c.59,0,1.12,.11,1.6,.34,.48,.22,.87,.56,1.17,1.01l-.52,.38c-.26-.37-.59-.65-.98-.83-.39-.18-.82-.27-1.27-.27-.57,0-1.08,.13-1.53,.38-.45,.26-.81,.62-1.06,1.08-.26,.46-.39,1-.39,1.62s.13,1.16,.39,1.62c.26,.46,.61,.82,1.06,1.08,.45,.26,.96,.38,1.53,.38,.46,0,.88-.09,1.27-.27,.39-.18,.72-.45,.98-.83l.52,.38c-.3,.45-.69,.78-1.17,1.01-.48,.22-1.01,.34-1.6,.34Z" style="fill: #01426a;"/>
    <path d="M76.1,260.95c-.7,0-1.32-.16-1.87-.48-.55-.32-.98-.76-1.3-1.32-.32-.56-.48-1.2-.48-1.92s.16-1.37,.48-1.92c.32-.56,.76-.99,1.3-1.31,.55-.32,1.17-.47,1.87-.47s1.33,.16,1.88,.47c.55,.32,.98,.75,1.3,1.31,.32,.56,.48,1.2,.48,1.92s-.16,1.36-.48,1.92c-.32,.56-.75,1-1.3,1.32s-1.18,.48-1.88,.48Zm0-.63c.56,0,1.06-.13,1.51-.38,.45-.26,.8-.62,1.05-1.08s.38-1,.38-1.61-.13-1.15-.38-1.62c-.25-.46-.6-.82-1.05-1.08-.45-.26-.95-.38-1.51-.38s-1.06,.13-1.5,.38c-.44,.26-.79,.62-1.05,1.08-.26,.46-.39,1-.39,1.62s.13,1.14,.39,1.61c.26,.47,.61,.83,1.05,1.08s.94,.38,1.5,.38Z" style="fill: #01426a;"/>
    <path d="M81.93,260.89v-7.31h.67v2l-.07-.22c.21-.59,.55-1.04,1.04-1.36,.49-.32,1.09-.47,1.82-.47v.69s-.06,0-.08,0c-.03,0-.06,0-.08,0-.81,0-1.45,.25-1.9,.76-.46,.51-.69,1.22-.69,2.12v3.81h-.7Z" style="fill: #01426a;"/>
    <path d="M90.26,260.95c-.68,0-1.29-.16-1.84-.47-.55-.31-.98-.75-1.29-1.31-.32-.56-.48-1.2-.48-1.93s.16-1.38,.48-1.94c.32-.56,.75-.99,1.29-1.3s1.16-.47,1.84-.47c.64,0,1.23,.15,1.74,.45s.93,.72,1.23,1.27c.3,.55,.46,1.21,.46,1.99s-.15,1.41-.45,1.97c-.3,.56-.71,.99-1.22,1.29-.52,.3-1.1,.45-1.76,.45Zm.04-.63c.56,0,1.06-.13,1.51-.38,.44-.26,.79-.62,1.05-1.08,.26-.47,.38-1,.38-1.61s-.13-1.15-.38-1.62c-.26-.46-.61-.82-1.05-1.08-.44-.26-.95-.38-1.51-.38s-1.06,.13-1.5,.38c-.44,.26-.79,.62-1.05,1.08-.26,.46-.39,1-.39,1.62s.13,1.14,.39,1.61c.26,.47,.61,.83,1.05,1.08s.94,.38,1.5,.38Zm2.95,.57v-2.39l.13-1.27-.14-1.27v-5.45h.7v10.39h-.69Z" style="fill: #01426a;"/>
    <path d="M98.87,260.95c-.54,0-1.01-.09-1.41-.26-.4-.17-.7-.42-.91-.73-.21-.32-.31-.68-.31-1.09,0-.37,.09-.71,.26-1.02s.46-.55,.86-.74,.94-.29,1.61-.29h2.69v.55h-2.67c-.76,0-1.29,.14-1.59,.42-.3,.28-.46,.63-.46,1.05,0,.47,.18,.84,.53,1.12,.35,.28,.85,.42,1.5,.42s1.14-.14,1.56-.42c.42-.28,.74-.69,.94-1.22l.2,.48c-.2,.53-.53,.95-1,1.27-.47,.31-1.07,.47-1.8,.47Zm2.63-.06v-1.67l-.03-.25v-2.74c0-.68-.18-1.2-.55-1.55s-.91-.53-1.62-.53c-.5,0-.97,.09-1.41,.26-.43,.17-.8,.39-1.11,.66l-.35-.5c.36-.33,.8-.58,1.32-.76,.51-.18,1.05-.27,1.61-.27,.9,0,1.6,.23,2.09,.69,.48,.46,.73,1.14,.73,2.04v4.63h-.67Z" style="fill: #01426a;"/>
    <path d="M105.05,260.89v-7.31h.67v2l-.07-.22c.21-.59,.55-1.04,1.04-1.36,.49-.32,1.09-.47,1.82-.47v.69s-.06,0-.08,0c-.03,0-.06,0-.08,0-.81,0-1.45,.25-1.9,.76-.46,.51-.69,1.22-.69,2.12v3.81h-.7Z" style="fill: #01426a;"/>
    <path d="M117.14,260.95c-.63,0-1.17-.12-1.62-.34-.46-.23-.81-.57-1.06-1.04-.25-.46-.37-1.03-.37-1.71v-4.27h.7v4.21c0,.82,.21,1.45,.63,1.88s1.01,.64,1.78,.64c.55,0,1.03-.12,1.43-.35s.71-.56,.92-.99,.32-.93,.32-1.5v-3.89h.7v7.31h-.67v-2.03l.1,.24c-.21,.57-.57,1.02-1.07,1.35-.5,.33-1.09,.5-1.78,.5Z" style="fill: #01426a;"/>
    <path d="M125.38,260.95c-.61,0-1.17-.09-1.7-.27s-.94-.4-1.23-.67l.32-.56c.28,.24,.65,.45,1.12,.62,.47,.17,.97,.26,1.51,.26,.77,0,1.32-.12,1.65-.38,.34-.25,.5-.58,.5-.99,0-.3-.09-.54-.26-.71-.17-.17-.4-.31-.69-.4-.29-.09-.61-.17-.95-.23-.35-.06-.69-.13-1.04-.2-.35-.07-.66-.18-.95-.32-.29-.14-.52-.33-.69-.58-.17-.25-.26-.58-.26-.99,0-.37,.1-.71,.31-1.01,.21-.3,.51-.54,.92-.72,.41-.18,.92-.27,1.54-.27,.46,0,.92,.06,1.38,.2,.46,.13,.84,.3,1.13,.52l-.32,.56c-.31-.23-.65-.4-1.04-.5-.38-.1-.77-.15-1.16-.15-.71,0-1.23,.13-1.56,.39-.33,.26-.5,.59-.5,.98,0,.31,.09,.55,.26,.74,.17,.18,.4,.32,.69,.42,.29,.1,.61,.18,.95,.24s.69,.13,1.04,.2c.35,.07,.66,.18,.95,.31,.29,.13,.52,.32,.69,.56,.17,.24,.26,.56,.26,.96s-.11,.75-.33,1.05c-.22,.3-.54,.53-.97,.7-.43,.17-.96,.25-1.58,.25Z" style="fill: #01426a;"/>
    <path d="M133.19,260.95c-.63,0-1.17-.12-1.62-.34-.46-.23-.81-.57-1.06-1.04-.25-.46-.37-1.03-.37-1.71v-4.27h.7v4.21c0,.82,.21,1.45,.63,1.88s1.01,.64,1.78,.64c.55,0,1.03-.12,1.43-.35s.71-.56,.92-.99,.32-.93,.32-1.5v-3.89h.7v7.31h-.67v-2.03l.1,.24c-.21,.57-.57,1.02-1.07,1.35-.5,.33-1.09,.5-1.78,.5Z" style="fill: #01426a;"/>
    <path d="M141.57,260.95c-.54,0-1.01-.09-1.41-.26-.4-.17-.7-.42-.91-.73-.21-.32-.31-.68-.31-1.09,0-.37,.09-.71,.26-1.02s.46-.55,.86-.74,.94-.29,1.61-.29h2.69v.55h-2.67c-.76,0-1.29,.14-1.59,.42-.3,.28-.46,.63-.46,1.05,0,.47,.18,.84,.53,1.12,.35,.28,.85,.42,1.5,.42s1.14-.14,1.56-.42c.42-.28,.74-.69,.94-1.22l.2,.48c-.2,.53-.53,.95-1,1.27-.47,.31-1.07,.47-1.8,.47Zm2.63-.06v-1.67l-.03-.25v-2.74c0-.68-.18-1.2-.55-1.55-.37-.35-.91-.53-1.62-.53-.5,0-.97,.09-1.41,.26-.43,.17-.81,.39-1.11,.66l-.35-.5c.36-.33,.8-.58,1.32-.76,.51-.18,1.05-.27,1.61-.27,.91,0,1.6,.23,2.09,.69s.73,1.14,.73,2.04v4.63h-.67Z" style="fill: #01426a;"/>
    <path d="M147.75,260.89v-7.31h.67v2l-.07-.22c.21-.59,.55-1.04,1.04-1.36,.49-.32,1.09-.47,1.82-.47v.69s-.06,0-.08,0c-.03,0-.06,0-.08,0-.81,0-1.45,.25-1.9,.76-.46,.51-.69,1.22-.69,2.12v3.81h-.7Z" style="fill: #01426a;"/>
    <path d="M153.62,251.8c-.16,0-.29-.06-.41-.17-.11-.11-.17-.24-.17-.39,0-.16,.06-.29,.17-.41,.11-.11,.25-.17,.41-.17,.17,0,.31,.05,.41,.16,.11,.11,.16,.24,.16,.4s-.05,.29-.16,.41c-.11,.11-.25,.17-.41,.17Zm-.35,9.09v-7.31h.7v7.31h-.7Z" style="fill: #01426a;"/>
    <path d="M159.78,260.95c-.7,0-1.32-.16-1.87-.48s-.98-.76-1.3-1.32c-.32-.56-.48-1.2-.48-1.92s.16-1.37,.48-1.92,.76-.99,1.3-1.31c.55-.32,1.17-.47,1.87-.47s1.33,.16,1.88,.47c.55,.32,.98,.75,1.3,1.31s.48,1.2,.48,1.92-.16,1.36-.48,1.92c-.32,.56-.75,1-1.3,1.32s-1.18,.48-1.88,.48Zm0-.63c.56,0,1.06-.13,1.51-.38,.45-.26,.8-.62,1.05-1.08s.38-1,.38-1.61-.13-1.15-.38-1.62c-.25-.46-.6-.82-1.05-1.08-.45-.26-.95-.38-1.51-.38s-1.06,.13-1.5,.38c-.44,.26-.79,.62-1.05,1.08-.26,.46-.38,1-.38,1.62s.13,1.14,.38,1.61,.61,.83,1.05,1.08,.95,.38,1.5,.38Z" style="fill: #01426a;"/>
  </g>
  <g>
    <path d="M51.03,415.89v-9.8h3.82c.86,0,1.59,.14,2.2,.41,.61,.27,1.07,.66,1.4,1.18,.33,.51,.49,1.12,.49,1.83s-.16,1.32-.49,1.83c-.33,.51-.79,.9-1.4,1.17-.61,.27-1.34,.41-2.2,.41h-3.05l.63-.64v3.63h-1.4Zm1.4-3.49l-.63-.69h3.01c.9,0,1.58-.19,2.04-.58s.69-.93,.69-1.63-.23-1.24-.69-1.62-1.14-.57-2.04-.57h-3.01l.63-.7v5.8Zm5.15,3.49l-2.49-3.56h1.5l2.52,3.56h-1.53Z" style="fill: #2c85bc;"/>
    <path d="M64.31,415.97c-.79,0-1.49-.16-2.09-.49-.6-.33-1.07-.77-1.4-1.34-.33-.57-.5-1.22-.5-1.96s.16-1.39,.48-1.96c.32-.57,.77-1.02,1.33-1.34,.56-.32,1.2-.48,1.91-.48s1.35,.16,1.9,.48c.55,.32,.98,.76,1.3,1.34,.31,.57,.47,1.24,.47,2.01,0,.06,0,.12,0,.2,0,.08-.01,.15-.02,.21h-6.31v-.97h5.61l-.55,.34c0-.48-.09-.9-.29-1.27-.21-.37-.49-.67-.85-.88s-.78-.31-1.25-.31-.88,.1-1.25,.31c-.36,.21-.65,.5-.85,.88s-.31,.81-.31,1.3v.22c0,.5,.11,.94,.34,1.32,.23,.39,.55,.69,.96,.9s.88,.32,1.41,.32c.44,0,.84-.07,1.2-.22,.36-.15,.67-.37,.95-.67l.74,.87c-.34,.39-.75,.69-1.25,.9-.5,.21-1.06,.31-1.67,.31Z" style="fill: #2c85bc;"/>
    <path d="M72.81,415.97c-.76,0-1.43-.16-2.02-.49-.59-.33-1.06-.77-1.39-1.34-.34-.57-.5-1.22-.5-1.96s.17-1.39,.5-1.96c.34-.57,.8-1.02,1.39-1.34,.59-.32,1.27-.48,2.02-.48,.67,0,1.27,.13,1.8,.4,.53,.27,.94,.66,1.23,1.18l-1.02,.66c-.24-.36-.54-.63-.89-.8-.35-.17-.73-.26-1.13-.26-.49,0-.92,.11-1.3,.32s-.69,.52-.91,.9c-.22,.39-.34,.85-.34,1.38s.11,.99,.34,1.39c.22,.39,.53,.7,.91,.91s.82,.32,1.3,.32c.4,0,.78-.09,1.13-.26,.35-.17,.65-.44,.89-.8l1.02,.64c-.29,.51-.7,.91-1.23,1.18-.53,.28-1.13,.41-1.8,.41Z" style="fill: #2c85bc;"/>
    <path d="M80.69,415.97c-.63,0-1.19-.12-1.67-.35-.48-.23-.85-.59-1.12-1.07-.27-.48-.4-1.08-.4-1.81v-4.27h1.34v4.12c0,.73,.18,1.28,.53,1.64,.35,.36,.84,.55,1.48,.55,.47,0,.87-.1,1.22-.29,.35-.19,.61-.47,.8-.84s.28-.81,.28-1.34v-3.84h1.34v7.42h-1.27v-2l.21,.53c-.24,.5-.61,.88-1.09,1.15-.49,.27-1.03,.41-1.64,.41Z" style="fill: #2c85bc;"/>
    <path d="M87.05,418.6v-10.14h1.29v2l-.08,1.72,.14,1.72v4.69h-1.34Zm3.93-2.63c-.62,0-1.18-.14-1.69-.43s-.92-.71-1.22-1.27c-.3-.56-.46-1.26-.46-2.1s.15-1.54,.44-2.1c.29-.56,.7-.98,1.2-1.26,.51-.28,1.08-.42,1.71-.42,.73,0,1.37,.16,1.93,.48,.56,.32,1,.76,1.33,1.32,.33,.57,.49,1.23,.49,1.98s-.16,1.42-.49,1.99c-.33,.57-.77,1.01-1.33,1.33-.56,.32-1.2,.48-1.93,.48Zm-.11-1.18c.48,0,.9-.11,1.28-.32s.68-.52,.9-.92c.22-.4,.33-.86,.33-1.38s-.11-.99-.33-1.38-.52-.69-.9-.9-.81-.32-1.28-.32-.89,.11-1.27,.32-.68,.52-.9,.9c-.22,.39-.33,.85-.33,1.38s.11,.98,.33,1.38c.22,.4,.52,.7,.9,.92s.8,.32,1.27,.32Z" style="fill: #2c85bc;"/>
    <path d="M99.9,415.97c-.79,0-1.49-.16-2.09-.49-.6-.33-1.07-.77-1.4-1.34-.33-.57-.5-1.22-.5-1.96s.16-1.39,.48-1.96c.32-.57,.77-1.02,1.33-1.34,.56-.32,1.2-.48,1.91-.48s1.35,.16,1.9,.48c.55,.32,.98,.76,1.3,1.34,.31,.57,.47,1.24,.47,2.01,0,.06,0,.12,0,.2,0,.08-.01,.15-.02,.21h-6.31v-.97h5.61l-.55,.34c0-.48-.09-.9-.29-1.27-.21-.37-.49-.67-.85-.88s-.78-.31-1.25-.31-.88,.1-1.25,.31c-.36,.21-.65,.5-.85,.88s-.31,.81-.31,1.3v.22c0,.5,.11,.94,.34,1.32,.23,.39,.55,.69,.96,.9s.88,.32,1.41,.32c.44,0,.84-.07,1.2-.22,.36-.15,.67-.37,.95-.67l.74,.87c-.34,.39-.75,.69-1.25,.9-.5,.21-1.06,.31-1.67,.31Z" style="fill: #2c85bc;"/>
    <path d="M105.16,415.89v-7.42h1.29v2.02l-.13-.5c.21-.51,.55-.9,1.04-1.18,.48-.27,1.08-.41,1.79-.41v1.3c-.06,0-.11-.01-.16-.01h-.15c-.72,0-1.29,.21-1.71,.64-.42,.43-.63,1.05-.63,1.86v3.7h-1.34Z" style="fill: #2c85bc;"/>
    <path d="M113.07,415.97c-.55,0-1.03-.09-1.45-.28-.42-.19-.74-.45-.96-.78-.22-.33-.34-.71-.34-1.13s.1-.77,.29-1.09c.19-.33,.5-.59,.94-.79,.43-.2,1.02-.29,1.76-.29h2.35v.96h-2.3c-.67,0-1.12,.11-1.36,.34s-.35,.5-.35,.81c0,.36,.15,.66,.43,.88,.29,.22,.69,.33,1.2,.33s.94-.11,1.32-.34c.38-.22,.65-.55,.82-.98l.27,.92c-.18,.44-.49,.79-.94,1.04-.45,.26-1.01,.38-1.69,.38Zm2.44-.08v-1.57l-.07-.29v-2.67c0-.57-.17-1.01-.5-1.32-.33-.31-.83-.47-1.49-.47-.44,0-.87,.07-1.29,.22-.42,.14-.77,.34-1.06,.58l-.56-1.01c.38-.31,.84-.54,1.38-.71,.54-.16,1.1-.25,1.69-.25,1.02,0,1.8,.25,2.35,.74,.55,.49,.83,1.25,.83,2.27v4.48h-1.27Z" style="fill: #2c85bc;"/>
    <path d="M119.27,415.89v-7.42h1.29v2.02l-.13-.5c.21-.51,.55-.9,1.04-1.18,.48-.27,1.08-.41,1.79-.41v1.3c-.06,0-.11-.01-.16-.01h-.15c-.72,0-1.29,.21-1.71,.64-.42,.43-.63,1.05-.63,1.86v3.7h-1.34Z" style="fill: #2c85bc;"/>
    <path d="M131.9,415.97c-.63,0-1.19-.12-1.67-.35-.48-.23-.85-.59-1.12-1.07-.27-.48-.4-1.08-.4-1.81v-4.27h1.34v4.12c0,.73,.18,1.28,.53,1.64,.35,.36,.84,.55,1.48,.55,.47,0,.87-.1,1.22-.29,.35-.19,.61-.47,.8-.84s.28-.81,.28-1.34v-3.84h1.34v7.42h-1.27v-2l.21,.53c-.24,.5-.61,.88-1.09,1.15-.49,.27-1.03,.41-1.64,.41Z" style="fill: #2c85bc;"/>
    <path d="M140.39,415.97c-.62,0-1.2-.08-1.76-.25-.56-.17-.99-.37-1.31-.62l.56-1.06c.32,.21,.71,.4,1.18,.55s.94,.22,1.43,.22c.62,0,1.08-.09,1.35-.27,.27-.18,.41-.42,.41-.74,0-.23-.08-.42-.25-.55-.17-.13-.39-.23-.67-.29-.28-.07-.58-.12-.92-.18-.34-.05-.67-.12-1.01-.2s-.64-.19-.92-.34c-.28-.14-.5-.35-.67-.6-.17-.26-.25-.6-.25-1.03s.13-.84,.38-1.18,.61-.6,1.07-.78,1.01-.27,1.65-.27c.49,0,.98,.06,1.48,.18,.5,.12,.91,.28,1.23,.5l-.57,1.06c-.34-.22-.69-.38-1.05-.46-.36-.08-.73-.13-1.09-.13-.59,0-1.03,.1-1.32,.29s-.43,.44-.43,.73c0,.25,.09,.45,.26,.58,.17,.13,.4,.24,.67,.31s.58,.14,.92,.19c.34,.05,.67,.12,1.01,.2,.34,.08,.64,.19,.92,.33s.5,.34,.67,.59,.26,.59,.26,1.01c0,.45-.13,.83-.39,1.16-.26,.33-.63,.58-1.11,.76-.48,.18-1.04,.27-1.71,.27Z" style="fill: #2c85bc;"/>
    <path d="M148.39,415.97c-.64,0-1.19-.12-1.67-.35-.48-.23-.85-.59-1.12-1.07-.27-.48-.4-1.08-.4-1.81v-4.27h1.34v4.12c0,.73,.17,1.28,.53,1.64,.35,.36,.84,.55,1.48,.55,.47,0,.87-.1,1.22-.29,.35-.19,.61-.47,.8-.84,.19-.37,.28-.81,.28-1.34v-3.84h1.34v7.42h-1.27v-2l.21,.53c-.24,.5-.61,.88-1.09,1.15-.49,.27-1.03,.41-1.64,.41Z" style="fill: #2c85bc;"/>
    <path d="M156.92,415.97c-.55,0-1.03-.09-1.45-.28-.42-.19-.74-.45-.96-.78-.22-.33-.34-.71-.34-1.13s.1-.77,.29-1.09c.19-.33,.5-.59,.94-.79,.43-.2,1.02-.29,1.76-.29h2.35v.96h-2.3c-.67,0-1.12,.11-1.36,.34s-.35,.5-.35,.81c0,.36,.14,.66,.43,.88,.29,.22,.69,.33,1.2,.33s.95-.11,1.32-.34,.65-.55,.82-.98l.27,.92c-.18,.44-.49,.79-.94,1.04-.45,.26-1.01,.38-1.69,.38Zm2.44-.08v-1.57l-.07-.29v-2.67c0-.57-.17-1.01-.5-1.32-.33-.31-.83-.47-1.49-.47-.44,0-.87,.07-1.29,.22s-.78,.34-1.06,.58l-.56-1.01c.38-.31,.84-.54,1.38-.71,.54-.16,1.1-.25,1.69-.25,1.02,0,1.8,.25,2.35,.74s.83,1.25,.83,2.27v4.48h-1.27Z" style="fill: #2c85bc;"/>
    <path d="M163.12,415.89v-7.42h1.29v2.02l-.13-.5c.21-.51,.55-.9,1.04-1.18,.49-.27,1.08-.41,1.79-.41v1.3c-.06,0-.11-.01-.16-.01h-.15c-.72,0-1.29,.21-1.71,.64-.42,.43-.63,1.05-.63,1.86v3.7h-1.34Z" style="fill: #2c85bc;"/>
    <path d="M169.53,407.04c-.26,0-.48-.08-.65-.25s-.26-.37-.26-.62,.09-.46,.26-.63,.39-.25,.65-.25,.48,.08,.65,.24c.17,.16,.26,.37,.26,.61s-.08,.46-.25,.64c-.17,.17-.39,.26-.66,.26Zm-.67,8.85v-7.42h1.34v7.42h-1.34Z" style="fill: #2c85bc;"/>
    <path d="M175.95,415.97c-.74,0-1.4-.16-1.98-.49-.58-.33-1.04-.78-1.38-1.35-.34-.57-.5-1.23-.5-1.95s.17-1.39,.5-1.95c.34-.56,.79-1.01,1.37-1.34s1.24-.49,1.99-.49,1.4,.16,1.98,.48c.58,.32,1.04,.77,1.37,1.34s.5,1.22,.5,1.96-.17,1.39-.5,1.96-.79,1.02-1.37,1.34c-.58,.33-1.24,.49-1.98,.49Zm0-1.18c.48,0,.9-.11,1.28-.32s.67-.52,.89-.92c.21-.4,.32-.86,.32-1.38s-.11-.99-.32-1.38-.51-.69-.89-.9-.81-.32-1.28-.32-.9,.11-1.27,.32-.67,.52-.9,.9c-.22,.39-.34,.85-.34,1.38s.11,.98,.34,1.38c.22,.4,.52,.7,.9,.92s.8,.32,1.27,.32Z" style="fill: #2c85bc;"/>
    <path d="M188.6,415.97c-.74,0-1.4-.16-1.98-.49-.58-.33-1.04-.78-1.38-1.35-.34-.57-.5-1.23-.5-1.95s.17-1.39,.5-1.95c.34-.56,.79-1.01,1.37-1.34s1.24-.49,1.99-.49,1.4,.16,1.98,.48c.58,.32,1.04,.77,1.37,1.34s.5,1.22,.5,1.96-.17,1.39-.5,1.96-.79,1.02-1.37,1.34c-.58,.33-1.24,.49-1.98,.49Zm0-1.18c.48,0,.9-.11,1.28-.32s.67-.52,.89-.92c.21-.4,.32-.86,.32-1.38s-.11-.99-.32-1.38-.51-.69-.89-.9-.81-.32-1.28-.32-.9,.11-1.27,.32-.67,.52-.9,.9c-.22,.39-.34,.85-.34,1.38s.11,.98,.34,1.38c.22,.4,.52,.7,.9,.92s.8,.32,1.27,.32Z" style="fill: #2c85bc;"/>
    <path d="M201.31,415.97c-.76,0-1.43-.16-2.02-.49-.59-.33-1.06-.77-1.39-1.34s-.5-1.22-.5-1.96,.17-1.39,.5-1.96,.8-1.02,1.39-1.34c.59-.32,1.27-.48,2.02-.48,.67,0,1.27,.13,1.8,.4,.53,.27,.94,.66,1.23,1.18l-1.02,.66c-.24-.36-.54-.63-.89-.8-.35-.17-.73-.26-1.13-.26-.49,0-.92,.11-1.3,.32-.38,.21-.69,.52-.91,.9-.22,.39-.34,.85-.34,1.38s.11,.99,.34,1.39c.22,.39,.53,.7,.91,.91,.38,.21,.82,.32,1.3,.32,.4,0,.78-.09,1.13-.26,.35-.17,.65-.44,.89-.8l1.02,.64c-.29,.51-.7,.91-1.23,1.18-.53,.28-1.13,.41-1.8,.41Z" style="fill: #2c85bc;"/>
    <path d="M209.25,415.97c-.74,0-1.4-.16-1.98-.49-.58-.33-1.04-.78-1.38-1.35-.34-.57-.5-1.23-.5-1.95s.17-1.39,.5-1.95c.34-.56,.79-1.01,1.37-1.34s1.24-.49,1.99-.49,1.4,.16,1.98,.48c.58,.32,1.04,.77,1.37,1.34s.5,1.22,.5,1.96-.17,1.39-.5,1.96-.79,1.02-1.37,1.34c-.58,.33-1.24,.49-1.98,.49Zm0-1.18c.48,0,.9-.11,1.28-.32s.67-.52,.89-.92c.21-.4,.32-.86,.32-1.38s-.11-.99-.32-1.38-.51-.69-.89-.9-.81-.32-1.28-.32-.9,.11-1.27,.32-.67,.52-.9,.9c-.22,.39-.34,.85-.34,1.38s.11,.98,.34,1.38c.22,.4,.52,.7,.9,.92s.8,.32,1.27,.32Z" style="fill: #2c85bc;"/>
    <path d="M218.93,408.4c.61,0,1.14,.12,1.6,.35,.46,.23,.82,.59,1.08,1.06,.26,.48,.39,1.08,.39,1.81v4.27h-1.34v-4.12c0-.72-.17-1.26-.52-1.62-.35-.36-.84-.55-1.48-.55-.48,0-.89,.09-1.25,.28s-.63,.46-.82,.83c-.19,.36-.29,.82-.29,1.36v3.82h-1.34v-7.42h1.29v2l-.21-.53c.24-.49,.62-.86,1.12-1.13,.5-.27,1.09-.41,1.76-.41Z" style="fill: #2c85bc;"/>
    <path d="M223.43,409.57v-1.11h4.73v1.11h-4.73Zm3.61,6.4c-.75,0-1.33-.2-1.74-.6-.41-.4-.62-.98-.62-1.72v-6.8h1.34v6.75c0,.4,.1,.71,.3,.92,.2,.21,.49,.32,.86,.32,.42,0,.77-.12,1.05-.35l.42,.97c-.21,.18-.45,.31-.74,.39-.29,.08-.58,.13-.89,.13Z" style="fill: #2c85bc;"/>
    <path d="M230.29,415.89v-7.42h1.29v2.02l-.13-.5c.21-.51,.55-.9,1.04-1.18,.49-.27,1.08-.41,1.79-.41v1.3c-.06,0-.11-.01-.16-.01h-.15c-.72,0-1.29,.21-1.71,.64-.42,.43-.63,1.05-.63,1.86v3.7h-1.34Z" style="fill: #2c85bc;"/>
    <path d="M238.2,415.97c-.55,0-1.03-.09-1.45-.28-.42-.19-.74-.45-.96-.78-.22-.33-.34-.71-.34-1.13s.1-.77,.29-1.09c.19-.33,.5-.59,.94-.79,.43-.2,1.02-.29,1.76-.29h2.35v.96h-2.3c-.67,0-1.12,.11-1.36,.34s-.35,.5-.35,.81c0,.36,.14,.66,.43,.88,.29,.22,.69,.33,1.2,.33s.95-.11,1.32-.34,.65-.55,.82-.98l.27,.92c-.18,.44-.49,.79-.94,1.04-.45,.26-1.01,.38-1.69,.38Zm2.44-.08v-1.57l-.07-.29v-2.67c0-.57-.17-1.01-.5-1.32-.33-.31-.83-.47-1.49-.47-.44,0-.87,.07-1.29,.22s-.78,.34-1.06,.58l-.56-1.01c.38-.31,.84-.54,1.38-.71,.54-.16,1.1-.25,1.69-.25,1.02,0,1.8,.25,2.35,.74s.83,1.25,.83,2.27v4.48h-1.27Z" style="fill: #2c85bc;"/>
    <path d="M246.53,415.97c-.62,0-1.2-.08-1.76-.25-.55-.17-.99-.37-1.31-.62l.56-1.06c.32,.21,.71,.4,1.18,.55s.94,.22,1.43,.22c.62,0,1.08-.09,1.35-.27s.41-.42,.41-.74c0-.23-.08-.42-.25-.55s-.39-.23-.67-.29-.58-.12-.92-.18c-.34-.05-.67-.12-1.01-.2s-.64-.19-.92-.34-.5-.35-.67-.6c-.17-.26-.25-.6-.25-1.03s.13-.84,.38-1.18,.61-.6,1.07-.78c.46-.18,1.01-.27,1.64-.27,.49,0,.98,.06,1.48,.18,.5,.12,.91,.28,1.23,.5l-.57,1.06c-.34-.22-.69-.38-1.05-.46s-.73-.13-1.09-.13c-.59,0-1.03,.1-1.32,.29s-.43,.44-.43,.73c0,.25,.09,.45,.26,.58,.17,.13,.4,.24,.67,.31s.58,.14,.92,.19c.34,.05,.67,.12,1.01,.2,.34,.08,.64,.19,.92,.33s.5,.34,.67,.59,.26,.59,.26,1.01c0,.45-.13,.83-.39,1.16-.26,.33-.63,.58-1.11,.76-.48,.18-1.05,.27-1.71,.27Z" style="fill: #2c85bc;"/>
    <path d="M254.72,415.97c-.79,0-1.49-.16-2.09-.49-.6-.33-1.07-.77-1.4-1.34s-.5-1.22-.5-1.96,.16-1.39,.48-1.96c.32-.57,.76-1.02,1.33-1.34,.56-.32,1.2-.48,1.91-.48s1.35,.16,1.9,.48c.55,.32,.98,.76,1.29,1.34,.31,.57,.47,1.24,.47,2.01,0,.06,0,.12,0,.2,0,.08-.01,.15-.02,.21h-6.31v-.97h5.61l-.55,.34c0-.48-.09-.9-.29-1.27s-.49-.67-.85-.88c-.36-.21-.78-.31-1.25-.31s-.88,.1-1.25,.31c-.36,.21-.65,.5-.85,.88s-.31,.81-.31,1.3v.22c0,.5,.11,.94,.34,1.32,.23,.39,.55,.69,.96,.9,.41,.21,.88,.32,1.41,.32,.44,0,.84-.07,1.2-.22,.36-.15,.67-.37,.94-.67l.74,.87c-.34,.39-.75,.69-1.25,.9-.5,.21-1.06,.31-1.67,.31Z" style="fill: #2c85bc;"/>
    <path d="M263.95,408.4c.61,0,1.14,.12,1.6,.35,.46,.23,.82,.59,1.08,1.06,.26,.48,.39,1.08,.39,1.81v4.27h-1.34v-4.12c0-.72-.17-1.26-.52-1.62-.35-.36-.84-.55-1.48-.55-.48,0-.89,.09-1.25,.28s-.63,.46-.82,.83c-.19,.36-.29,.82-.29,1.36v3.82h-1.34v-7.42h1.29v2l-.21-.53c.24-.49,.62-.86,1.12-1.13,.5-.27,1.09-.41,1.76-.41Zm.55-1.05c-.22,0-.42-.05-.6-.14-.17-.09-.33-.2-.47-.33-.14-.13-.28-.24-.41-.33-.13-.09-.26-.14-.39-.14-.21,0-.37,.08-.5,.23-.13,.15-.2,.37-.22,.64h-.76c.02-.52,.15-.94,.39-1.25,.24-.31,.57-.46,.98-.46,.22,0,.42,.05,.6,.15,.18,.1,.34,.21,.48,.34,.14,.13,.27,.24,.4,.33s.25,.14,.38,.14c.21,0,.37-.07,.5-.22,.13-.15,.2-.36,.21-.62h.76c0,.5-.14,.9-.39,1.2-.25,.31-.58,.46-.99,.46Z" style="fill: #2c85bc;"/>
    <path d="M271.69,415.97c-.55,0-1.03-.09-1.45-.28-.42-.19-.74-.45-.96-.78-.22-.33-.34-.71-.34-1.13s.1-.77,.29-1.09c.19-.33,.5-.59,.94-.79,.43-.2,1.02-.29,1.76-.29h2.35v.96h-2.3c-.67,0-1.12,.11-1.36,.34s-.35,.5-.35,.81c0,.36,.14,.66,.43,.88,.29,.22,.69,.33,1.2,.33s.95-.11,1.32-.34,.65-.55,.82-.98l.27,.92c-.18,.44-.49,.79-.94,1.04-.45,.26-1.01,.38-1.69,.38Zm2.44-.08v-1.57l-.07-.29v-2.67c0-.57-.17-1.01-.5-1.32-.33-.31-.83-.47-1.49-.47-.44,0-.87,.07-1.29,.22s-.78,.34-1.06,.58l-.56-1.01c.38-.31,.84-.54,1.38-.71,.54-.16,1.1-.25,1.69-.25,1.02,0,1.8,.25,2.35,.74s.83,1.25,.83,2.27v4.48h-1.27Z" style="fill: #2c85bc;"/>
  </g>
  <g>
    <path d="M115.55,344.89v-13.3h1.9v13.3h-1.9Z" style="fill: #01426a;"/>
    <path d="M126.55,334.72c.82,0,1.55,.16,2.18,.48,.63,.32,1.12,.8,1.47,1.44s.53,1.46,.53,2.45v5.79h-1.82v-5.59c0-.97-.24-1.71-.71-2.2s-1.14-.74-2-.74c-.65,0-1.21,.13-1.69,.38-.48,.25-.85,.63-1.11,1.12-.26,.49-.39,1.11-.39,1.84v5.19h-1.82v-10.07h1.75v2.72l-.29-.72c.33-.66,.84-1.17,1.52-1.54,.68-.37,1.48-.55,2.39-.55Z" style="fill: #01426a;"/>
    <path d="M138.29,344.47c-.98,0-1.85-.21-2.61-.62-.77-.41-1.37-.98-1.82-1.72-.45-.73-.67-1.58-.67-2.55s.23-1.83,.67-2.56c.45-.73,1.06-1.29,1.82-1.7,.77-.41,1.64-.61,2.61-.61,.86,0,1.65,.17,2.36,.52,.71,.35,1.28,.88,1.7,1.61,.42,.72,.64,1.63,.64,2.74s-.21,1.99-.64,2.72-.99,1.26-1.7,1.62c-.71,.36-1.5,.54-2.36,.54Zm.23,4.22c-.92,0-1.82-.13-2.69-.39-.87-.26-1.57-.63-2.12-1.11l.87-1.41c.47,.41,1.04,.73,1.73,.96s1.4,.35,2.15,.35c1.19,0,2.06-.28,2.62-.84,.56-.56,.84-1.41,.84-2.55v-2.13l.19-1.99-.1-2.01v-2.76h1.73v8.7c0,1.77-.44,3.08-1.33,3.91-.89,.84-2.19,1.25-3.9,1.25Zm-.02-5.81c.67,0,1.27-.14,1.79-.42,.52-.28,.93-.67,1.23-1.16,.3-.49,.45-1.06,.45-1.71s-.15-1.22-.45-1.71c-.3-.49-.71-.88-1.23-1.15-.52-.27-1.11-.41-1.79-.41s-1.27,.14-1.8,.41c-.53,.27-.94,.66-1.23,1.15-.3,.49-.45,1.06-.45,1.71s.15,1.22,.45,1.71c.3,.49,.71,.88,1.23,1.16,.53,.28,1.12,.42,1.8,.42Z" style="fill: #01426a;"/>
    <path d="M147.22,344.89v-10.07h1.75v2.74l-.17-.68c.28-.7,.75-1.23,1.41-1.6,.66-.37,1.47-.55,2.43-.55v1.77c-.08-.01-.15-.02-.22-.02h-.2c-.98,0-1.75,.29-2.32,.87-.57,.58-.85,1.42-.85,2.53v5.02h-1.82Z" style="fill: #01426a;"/>
    <path d="M159.5,345c-1.08,0-2.02-.22-2.84-.66-.82-.44-1.45-1.05-1.9-1.82-.45-.77-.67-1.66-.67-2.66s.22-1.89,.66-2.66c.44-.77,1.04-1.38,1.81-1.81,.77-.44,1.63-.66,2.59-.66s1.84,.22,2.58,.65c.75,.43,1.33,1.04,1.76,1.81,.42,.78,.64,1.69,.64,2.73,0,.08,0,.17,0,.27s-.02,.2-.03,.29h-8.57v-1.31h7.62l-.74,.46c.01-.65-.12-1.22-.4-1.73-.28-.51-.66-.9-1.15-1.19-.49-.28-1.05-.43-1.7-.43s-1.2,.14-1.69,.43c-.49,.29-.88,.68-1.16,1.2-.28,.51-.42,1.1-.42,1.76v.3c0,.67,.16,1.27,.47,1.79s.74,.93,1.3,1.23c.56,.29,1.2,.44,1.92,.44,.59,0,1.14-.1,1.62-.3,.49-.2,.92-.51,1.28-.91l1.01,1.18c-.46,.53-1.02,.94-1.7,1.21-.68,.28-1.43,.42-2.27,.42Z" style="fill: #01426a;"/>
    <path d="M169.53,345c-.84,0-1.63-.11-2.38-.34-.75-.23-1.35-.51-1.78-.84l.76-1.44c.43,.29,.96,.54,1.6,.74,.63,.2,1.28,.3,1.94,.3,.85,0,1.46-.12,1.83-.36,.37-.24,.56-.58,.56-1.01,0-.32-.12-.56-.34-.74-.23-.18-.53-.31-.9-.4-.37-.09-.79-.17-1.25-.24-.46-.07-.91-.16-1.37-.27s-.87-.26-1.25-.46c-.38-.2-.68-.47-.91-.82-.23-.35-.34-.81-.34-1.4s.17-1.14,.51-1.6c.34-.46,.83-.81,1.45-1.05,.63-.25,1.37-.37,2.23-.37,.66,0,1.33,.08,2,.24s1.23,.38,1.66,.67l-.78,1.44c-.46-.3-.93-.51-1.42-.63-.49-.11-.99-.17-1.48-.17-.8,0-1.39,.13-1.79,.39s-.59,.59-.59,1c0,.34,.12,.61,.35,.79s.54,.33,.91,.43c.37,.1,.79,.19,1.24,.26,.46,.07,.91,.16,1.37,.27,.46,.11,.87,.26,1.25,.45,.37,.19,.68,.46,.91,.8,.23,.34,.35,.8,.35,1.37,0,.61-.18,1.13-.53,1.58-.35,.44-.85,.79-1.5,1.04-.65,.25-1.42,.37-2.32,.37Z" style="fill: #01426a;"/>
    <path d="M179.11,345c-.75,0-1.4-.13-1.97-.38-.56-.25-1-.61-1.3-1.05s-.46-.96-.46-1.53,.13-1.04,.39-1.48,.68-.8,1.27-1.06c.59-.27,1.38-.4,2.38-.4h3.19v1.31h-3.12c-.91,0-1.53,.15-1.84,.46-.32,.3-.48,.67-.48,1.1,0,.49,.2,.89,.59,1.19,.39,.3,.94,.45,1.63,.45s1.28-.15,1.8-.46c.51-.3,.88-.75,1.11-1.33l.36,1.25c-.24,.6-.67,1.07-1.27,1.42-.61,.35-1.38,.52-2.3,.52Zm3.31-.11v-2.13l-.09-.4v-3.63c0-.77-.22-1.37-.67-1.79-.45-.42-1.12-.64-2.02-.64-.6,0-1.18,.1-1.75,.29-.57,.2-1.05,.46-1.44,.79l-.76-1.37c.52-.42,1.14-.74,1.87-.96,.73-.22,1.49-.33,2.29-.33,1.38,0,2.44,.34,3.19,1.01,.75,.67,1.12,1.7,1.12,3.08v6.08h-1.73Z" style="fill: #01426a;"/>
    <path d="M187.52,344.89v-10.07h1.75v2.74l-.17-.68c.28-.7,.75-1.23,1.41-1.6,.66-.37,1.47-.55,2.43-.55v1.77c-.08-.01-.15-.02-.22-.02h-.2c-.98,0-1.75,.29-2.32,.87s-.86,1.42-.86,2.53v5.02h-1.82Z" style="fill: #01426a;"/>
  </g>
  <rect x="14" y="248" width="16" height="16" style="fill: none; stroke: #919191; stroke-miterlimit: 10;"/>
  <path d="M25.56,93.67c2.3,0,4.17,1.87,4.17,4.17s-1.87,4.17-4.17,4.17-4.17-1.87-4.17-4.17,1.87-4.17,4.17-4.17Zm0-1.67c-3.22,0-5.84,2.61-5.84,5.84s2.61,5.84,5.84,5.84,5.84-2.61,5.84-5.84-2.61-5.84-5.84-5.84Zm5.31,11.12c-.41,.42-.88,.78-1.38,1.09,2.4,1.56,3.65,4.24,4.15,6.13H17.46c.48-1.91,1.72-4.59,4.15-6.14-.5-.31-.97-.68-1.38-1.09-3.55,2.56-4.68,7.09-4.68,8.9h20.02c0-1.79-1.2-6.3-4.7-8.88Z" style="fill: #0a486f;"/>
  <path d="M30.5,179.33v-3.19c0-2.37-1.58-4.53-3.89-5.03-3.24-.7-6.11,1.76-6.11,4.88v3.33h-2.5v11.67h15v-11.67h-2.5Zm-8.33-3.33c0-2.07,1.89-3.7,4.03-3.26,1.57,.32,2.64,1.79,2.64,3.39v3.2h-6.67v-3.33Zm9.17,13.33h-11.67v-8.33h11.67v8.33Z" style="fill: #0a486f;"/>
  <path d="M41.5,410v-1.91c0-1.42-.95-2.72-2.33-3.02-1.95-.42-3.67,1.05-3.67,2.93v2h-1.5v7h9v-7h-1.5Zm-5-2c0-1.24,1.13-2.22,2.42-1.96,.94,.19,1.58,1.08,1.58,2.04v1.92h-4v-2Zm5.5,8h-7v-5h7v5Z" style="fill: #0a486f;"/>
  <path d="M279.4,175.33c-4.08,0-7.74,3.09-9.85,6.48-.1,.16-.14,.34-.14,.52s.05,.36,.14,.52c2.11,3.39,5.78,6.48,9.85,6.48s7.8-3.09,9.86-6.49c.09-.16,.14-.33,.14-.51s-.05-.35-.14-.51c-2.07-3.4-5.72-6.49-9.86-6.49Zm8.41,7c-1.84,2.88-4.9,5.5-8.41,5.5s-6.53-2.63-8.4-5.5c1.87-2.87,4.94-5.5,8.4-5.5s6.58,2.62,8.41,5.5Zm-8.41-4c2.21,0,4,1.79,4,4s-1.79,4-4,4-4-1.79-4-4,1.79-4,4-4Zm0,1.5c-1.38,0-2.5,1.12-2.5,2.5s1.12,2.5,2.5,2.5,2.5-1.12,2.5-2.5-1.12-2.5-2.5-2.5Z" style="fill: #0a486f;"/>
</svg>