<?xml version="1.0" encoding="UTF-8"?>
<svg id="Layer_1" data-name="Layer 1" xmlns="http://www.w3.org/2000/svg" viewBox="0 0 310 500">
  <g>
    <path d="M13.45,43.27c-1.35,0-2.59-.22-3.73-.66s-2.12-1.07-2.96-1.89c-.84-.82-1.5-1.77-1.96-2.85s-.7-2.28-.7-3.6,.23-2.52,.7-3.6,1.12-2.03,1.97-2.85c.85-.82,1.84-1.45,2.97-1.89,1.13-.44,2.38-.66,3.73-.66,1.43,0,2.74,.25,3.92,.74,1.18,.49,2.18,1.22,3,2.19l-2.1,1.98c-.65-.68-1.37-1.2-2.15-1.54-.78-.34-1.62-.51-2.53-.51s-1.75,.15-2.51,.45c-.76,.3-1.42,.73-1.97,1.28-.56,.55-1,1.2-1.31,1.95-.32,.75-.48,1.58-.48,2.48s.16,1.72,.48,2.47c.32,.75,.75,1.4,1.31,1.95,.56,.55,1.22,.98,1.97,1.28,.76,.3,1.6,.45,2.51,.45s1.74-.17,2.53-.51,1.5-.86,2.15-1.56l2.1,1.97c-.82,.97-1.82,1.7-3,2.2s-2.5,.75-3.95,.75Z" style="fill: #0a486f;"/>
    <path d="M29.22,43.19c-1.35,0-2.56-.29-3.64-.89-1.08-.59-1.92-1.4-2.54-2.44-.62-1.03-.93-2.21-.93-3.53s.31-2.53,.93-3.55c.62-1.02,1.46-1.82,2.52-2.41,1.07-.59,2.28-.89,3.65-.89s2.61,.3,3.69,.89c1.08,.59,1.92,1.4,2.53,2.41s.91,2.2,.91,3.55-.3,2.51-.91,3.54c-.61,1.03-1.45,1.83-2.54,2.43-1.08,.59-2.31,.89-3.68,.89Zm0-2.65c.77,0,1.45-.17,2.05-.51s1.07-.83,1.41-1.47,.51-1.38,.51-2.21-.17-1.59-.51-2.21-.81-1.11-1.41-1.45-1.28-.51-2.03-.51-1.42,.17-2.03,.51c-.6,.34-1.07,.82-1.42,1.45-.35,.62-.53,1.36-.53,2.21s.17,1.57,.53,2.21c.35,.64,.82,1.13,1.42,1.47,.6,.34,1.27,.51,2,.51Zm-2.12-12.7l3.38-3.42h3.7l-4.38,3.42h-2.7Z" style="fill: #0a486f;"/>
    <path d="M45,43.19c-1.28,0-2.44-.28-3.46-.85s-1.83-1.36-2.41-2.39c-.58-1.03-.88-2.23-.88-3.61s.29-2.57,.88-3.6c.58-1.03,1.39-1.83,2.41-2.4s2.18-.85,3.46-.85c1.12,0,2.12,.25,3,.74,.88,.49,1.58,1.24,2.1,2.25s.78,2.3,.78,3.86-.25,2.83-.75,3.85c-.5,1.02-1.19,1.77-2.06,2.26-.88,.49-1.9,.74-3.06,.74Zm.38-2.65c.75,0,1.42-.17,2.01-.51s1.07-.83,1.43-1.47c.36-.64,.54-1.38,.54-2.21s-.18-1.59-.54-2.21c-.36-.62-.83-1.11-1.43-1.45s-1.26-.51-2.01-.51-1.42,.17-2.01,.51c-.59,.34-1.07,.82-1.42,1.45-.36,.62-.54,1.36-.54,2.21s.18,1.57,.54,2.21c.36,.64,.83,1.13,1.42,1.47,.59,.34,1.26,.51,2.01,.51Zm4.07,2.48v-3.15l.08-3.55-.25-3.55v-8.3h3.15v18.55h-2.98Z" style="fill: #0a486f;"/>
    <path d="M58.07,27.47c-.58,0-1.06-.18-1.44-.55s-.56-.82-.56-1.35c0-.5,.19-.93,.56-1.3,.38-.37,.85-.55,1.44-.55s1.06,.17,1.44,.51c.38,.34,.56,.78,.56,1.31s-.18,.99-.55,1.36c-.37,.38-.85,.56-1.45,.56Zm-1.55,15.55v-13.35h3.1v13.35h-3.1Z" style="fill: #0a486f;"/>
    <path d="M69.4,42.42c-1.28,0-2.43-.27-3.45-.81-1.02-.54-1.82-1.3-2.41-2.26s-.89-2.09-.89-3.38,.29-2.44,.89-3.41,1.4-1.73,2.41-2.26c1.02-.53,2.17-.8,3.45-.8,1.13,0,2.15,.23,3.06,.69,.91,.46,1.63,1.16,2.16,2.11s.8,2.17,.8,3.67-.27,2.68-.8,3.62c-.53,.95-1.25,1.66-2.16,2.12-.91,.47-1.93,.7-3.06,.7Zm.4,5.62c-1.25,0-2.45-.16-3.61-.49-1.16-.33-2.12-.8-2.89-1.44l1.4-2.33c.58,.48,1.32,.88,2.2,1.17,.88,.3,1.8,.45,2.75,.45,1.45,0,2.52-.34,3.2-1.01,.68-.67,1.03-1.7,1.03-3.06v-2.38l.25-3-.1-3.03v-3.27h2.97v11.33c0,2.42-.62,4.2-1.85,5.34-1.23,1.14-3.02,1.71-5.35,1.71Zm.08-8.27c.78,0,1.48-.16,2.1-.49,.62-.32,1.1-.78,1.44-1.35,.34-.58,.51-1.23,.51-1.96s-.17-1.43-.51-2-.82-1.01-1.44-1.32-1.32-.48-2.1-.48-1.49,.16-2.11,.48-1.11,.76-1.45,1.32-.51,1.23-.51,2,.17,1.39,.51,1.96c.34,.57,.82,1.03,1.45,1.35,.62,.33,1.33,.49,2.11,.49Z" style="fill: #0a486f;"/>
    <path d="M87.1,43.19c-1.35,0-2.56-.29-3.64-.89s-1.92-1.4-2.54-2.44c-.62-1.03-.92-2.21-.92-3.53s.31-2.53,.92-3.55c.62-1.02,1.46-1.82,2.53-2.41,1.07-.59,2.28-.89,3.65-.89s2.61,.3,3.69,.89c1.07,.59,1.92,1.4,2.53,2.41,.61,1.02,.91,2.2,.91,3.55s-.3,2.51-.91,3.54c-.61,1.03-1.46,1.83-2.54,2.43s-2.31,.89-3.67,.89Zm0-2.65c.77,0,1.45-.17,2.05-.51s1.07-.83,1.41-1.47c.34-.64,.51-1.38,.51-2.21s-.17-1.59-.51-2.21c-.34-.62-.81-1.11-1.41-1.45s-1.27-.51-2.02-.51-1.43,.17-2.03,.51-1.08,.82-1.43,1.45c-.35,.62-.52,1.36-.52,2.21s.17,1.57,.52,2.21c.35,.64,.83,1.13,1.43,1.47s1.27,.51,2,.51Z" style="fill: #0a486f;"/>
    <path d="M109.75,43.19c-1.28,0-2.44-.28-3.46-.85-1.02-.57-1.83-1.36-2.41-2.39-.58-1.03-.88-2.23-.88-3.61s.29-2.57,.88-3.6c.58-1.03,1.39-1.83,2.41-2.4,1.03-.57,2.18-.85,3.46-.85,1.12,0,2.12,.25,3,.74,.88,.49,1.58,1.24,2.1,2.25s.78,2.3,.78,3.86-.25,2.83-.75,3.85c-.5,1.02-1.19,1.77-2.06,2.26-.88,.49-1.9,.74-3.06,.74Zm.38-2.65c.75,0,1.42-.17,2.01-.51,.59-.34,1.07-.83,1.42-1.47s.54-1.38,.54-2.21-.18-1.59-.54-2.21-.83-1.11-1.42-1.45c-.59-.34-1.26-.51-2.01-.51s-1.42,.17-2.01,.51-1.07,.82-1.42,1.45-.54,1.36-.54,2.21,.18,1.57,.54,2.21,.83,1.13,1.42,1.47,1.26,.51,2.01,.51Zm4.08,2.48v-3.15l.07-3.55-.25-3.55v-8.3h3.15v18.55h-2.97Z" style="fill: #0a486f;"/>
    <path d="M127.52,43.19c-1.48,0-2.78-.29-3.89-.89s-1.97-1.4-2.58-2.43c-.61-1.02-.91-2.2-.91-3.54s.29-2.51,.89-3.54,1.41-1.83,2.45-2.43c1.04-.59,2.23-.89,3.56-.89s2.46,.29,3.47,.86c1.02,.58,1.82,1.38,2.4,2.41,.58,1.03,.88,2.26,.88,3.67,0,.12,0,.26-.01,.44,0,.18-.02,.33-.04,.46h-11.12v-2.07h9.47l-1.25,.65c.02-.75-.14-1.42-.46-2.01s-.77-1.05-1.34-1.38c-.57-.32-1.23-.49-2-.49s-1.42,.16-2.01,.49c-.59,.33-1.04,.79-1.36,1.39-.32,.6-.48,1.29-.48,2.08v.5c0,.8,.18,1.51,.54,2.12,.36,.62,.87,1.1,1.54,1.44,.67,.34,1.44,.51,2.32,.51,.75,0,1.43-.12,2.03-.38s1.13-.62,1.6-1.1l1.7,1.95c-.62,.7-1.38,1.23-2.29,1.6-.91,.37-1.95,.55-3.11,.55Z" style="fill: #0a486f;"/>
    <path d="M141.5,43.02l7.88-17.5h3.2l7.9,17.5h-3.42l-6.75-15.78h1.3l-6.77,15.78h-3.33Zm3.62-4.05l.9-2.55h9.42l.88,2.55h-11.2Z" style="fill: #0a486f;"/>
    <path d="M168.02,43.19c-1.13,0-2.13-.21-3-.64-.87-.43-1.55-1.08-2.04-1.95-.49-.88-.74-1.98-.74-3.31v-7.62h3.15v7.23c0,1.18,.27,2.07,.83,2.66,.55,.59,1.32,.89,2.3,.89,.73,0,1.38-.15,1.92-.45,.55-.3,.97-.75,1.28-1.35,.3-.6,.45-1.34,.45-2.23v-6.75h3.12v13.35h-2.97v-3.62l.53,1.12c-.45,.85-1.11,1.51-1.98,1.97s-1.82,.7-2.85,.7Z" style="fill: #0a486f;"/>
    <path d="M177.62,32.27v-2.5h8.9v2.5h-8.9Zm6.8,10.92c-1.47,0-2.6-.38-3.4-1.14s-1.2-1.87-1.2-3.34v-12h3.1v11.9c0,.63,.17,1.12,.5,1.47,.33,.35,.8,.53,1.4,.53,.68,0,1.25-.18,1.7-.55l.9,2.23c-.38,.3-.84,.52-1.38,.67-.53,.15-1.08,.22-1.62,.22Z" style="fill: #0a486f;"/>
    <path d="M196,43.19c-1.35,0-2.56-.29-3.64-.89-1.07-.59-1.92-1.4-2.54-2.44-.62-1.03-.92-2.21-.92-3.53s.31-2.53,.92-3.55c.62-1.02,1.46-1.82,2.53-2.41,1.07-.59,2.28-.89,3.65-.89s2.61,.3,3.69,.89c1.08,.59,1.92,1.4,2.53,2.41s.91,2.2,.91,3.55-.3,2.51-.91,3.54c-.61,1.03-1.45,1.83-2.54,2.43-1.08,.59-2.31,.89-3.67,.89Zm0-2.65c.77,0,1.45-.17,2.05-.51,.6-.34,1.07-.83,1.41-1.47,.34-.64,.51-1.38,.51-2.21s-.17-1.59-.51-2.21c-.34-.62-.81-1.11-1.41-1.45-.6-.34-1.27-.51-2.02-.51s-1.42,.17-2.03,.51c-.6,.34-1.08,.82-1.42,1.45s-.53,1.36-.53,2.21,.18,1.57,.53,2.21,.83,1.13,1.42,1.47c.6,.34,1.27,.51,2,.51Z" style="fill: #0a486f;"/>
    <path d="M206.15,43.02v-13.35h2.97v3.67l-.35-1.07c.38-.9,1.01-1.59,1.88-2.06,.87-.48,1.92-.71,3.17-.71v2.97c-.12-.02-.23-.03-.35-.04-.12,0-.23-.01-.33-.01-1.2,0-2.15,.34-2.85,1.02-.7,.68-1.05,1.73-1.05,3.12v6.45h-3.1Z" style="fill: #0a486f;"/>
    <path d="M218.2,27.47c-.58,0-1.06-.18-1.44-.55s-.56-.82-.56-1.35c0-.5,.19-.93,.56-1.3,.38-.37,.85-.55,1.44-.55s1.06,.17,1.44,.51c.38,.34,.56,.78,.56,1.31s-.18,.99-.55,1.36c-.37,.38-.85,.56-1.45,.56Zm-1.55,15.55v-13.35h3.1v13.35h-3.1Z" style="fill: #0a486f;"/>
    <path d="M222.77,43.02v-1.98l8.22-9.95,.6,1.08h-8.68v-2.5h11.15v1.98l-8.22,9.95-.62-1.07h9.07v2.5h-11.52Z" style="fill: #0a486f;"/>
    <path d="M241.17,43.19c-1,0-1.88-.17-2.62-.51s-1.33-.82-1.74-1.43c-.41-.61-.61-1.29-.61-2.06s.18-1.42,.54-2.02,.95-1.08,1.76-1.42c.82-.35,1.9-.53,3.25-.53h3.88v2.08h-3.65c-1.05,0-1.76,.17-2.14,.51s-.56,.77-.56,1.29c0,.55,.23,.99,.67,1.33,.45,.33,1.08,.5,1.88,.5s1.45-.17,2.06-.52c.61-.35,1.05-.87,1.34-1.55l.5,1.88c-.3,.78-.83,1.39-1.6,1.83-.77,.43-1.75,.65-2.95,.65Zm4.2-.17v-2.73l-.15-.55v-4.72c0-.92-.28-1.63-.84-2.14-.56-.51-1.4-.76-2.54-.76-.73,0-1.46,.12-2.17,.35-.72,.23-1.33,.56-1.85,.97l-1.22-2.27c.73-.55,1.59-.97,2.58-1.25,.98-.28,2.01-.42,3.08-.42,1.95,0,3.45,.47,4.5,1.4,1.05,.93,1.57,2.37,1.57,4.3v7.83h-2.95Z" style="fill: #0a486f;"/>
    <path d="M258.42,43.19c-1.4,0-2.65-.29-3.74-.89s-1.95-1.4-2.56-2.43c-.62-1.02-.92-2.2-.92-3.54s.31-2.53,.92-3.55c.62-1.02,1.47-1.82,2.56-2.41,1.09-.59,2.34-.89,3.74-.89,1.28,0,2.42,.27,3.42,.8,1,.53,1.75,1.31,2.25,2.33l-2.38,1.4c-.4-.62-.89-1.08-1.46-1.39-.58-.31-1.2-.46-1.86-.46-.77,0-1.46,.17-2.08,.51-.62,.34-1.1,.82-1.45,1.45s-.53,1.36-.53,2.21,.18,1.59,.53,2.22c.35,.63,.83,1.12,1.45,1.46,.62,.34,1.31,.51,2.08,.51,.67,0,1.29-.15,1.86-.46s1.06-.78,1.46-1.41l2.38,1.4c-.5,1-1.25,1.77-2.25,2.31-1,.54-2.14,.81-3.42,.81Z" style="fill: #0a486f;"/>
    <path d="M268.4,27.47c-.58,0-1.06-.18-1.44-.55s-.56-.82-.56-1.35c0-.5,.19-.93,.56-1.3,.38-.37,.85-.55,1.44-.55s1.06,.17,1.44,.51c.38,.34,.56,.78,.56,1.31s-.18,.99-.55,1.36c-.37,.38-.85,.56-1.45,.56Zm-1.55,15.55v-13.35h3.1v13.35h-3.1Z" style="fill: #0a486f;"/>
    <path d="M280.07,43.19c-1.35,0-2.56-.29-3.64-.89-1.07-.59-1.92-1.4-2.54-2.44-.62-1.03-.92-2.21-.92-3.53s.31-2.53,.92-3.55c.62-1.02,1.46-1.82,2.53-2.41,1.07-.59,2.28-.89,3.65-.89s2.61,.3,3.69,.89c1.08,.59,1.92,1.4,2.53,2.41s.91,2.2,.91,3.55-.3,2.51-.91,3.54c-.61,1.03-1.45,1.83-2.54,2.43-1.08,.59-2.31,.89-3.67,.89Zm0-2.65c.77,0,1.45-.17,2.05-.51,.6-.34,1.07-.83,1.41-1.47,.34-.64,.51-1.38,.51-2.21s-.17-1.59-.51-2.21c-.34-.62-.81-1.11-1.41-1.45-.6-.34-1.27-.51-2.02-.51s-1.42,.17-2.03,.51c-.6,.34-1.08,.82-1.42,1.45s-.53,1.36-.53,2.21,.18,1.57,.53,2.21,.83,1.13,1.42,1.47c.6,.34,1.27,.51,2,.51Zm-2.12-12.7l3.38-3.42h3.7l-4.38,3.42h-2.7Z" style="fill: #0a486f;"/>
    <path d="M297.77,29.49c1.08,0,2.04,.21,2.86,.62s1.48,1.06,1.98,1.92c.49,.87,.74,1.98,.74,3.33v7.65h-3.12v-7.25c0-1.18-.28-2.07-.83-2.65s-1.33-.88-2.35-.88c-.73,0-1.38,.15-1.95,.45-.57,.3-1,.75-1.31,1.34-.31,.59-.46,1.34-.46,2.24v6.75h-3.1v-13.35h2.97v3.62l-.52-1.12c.45-.85,1.12-1.51,2.01-1.98,.89-.47,1.92-.7,3.09-.7Z" style="fill: #0a486f;"/>
  </g>
  <rect x="1.5" y="154.5" width="307" height="55" rx="8" ry="8" style="fill: none; stroke: #919191; stroke-miterlimit: 10; stroke-width: .75px;"/>
  <rect x="1.5" y="265.5" width="307" height="50" rx="8" ry="8" style="fill: #ffc600;"/>
  <g>
    <path d="M6.26,84.89v-9.8h.71v9.8h-.71Z" style="fill: #01426a;"/>
    <path d="M13.74,77.53c.6,0,1.12,.11,1.56,.34,.44,.23,.79,.57,1.04,1.04,.25,.46,.37,1.03,.37,1.71v4.27h-.7v-4.21c0-.82-.21-1.45-.62-1.88-.42-.43-1-.64-1.74-.64-.57,0-1.06,.12-1.48,.35-.42,.23-.74,.56-.96,.98-.22,.42-.33,.92-.33,1.51v3.89h-.7v-7.31h.67v2.03l-.1-.22c.22-.58,.59-1.03,1.11-1.37,.51-.33,1.14-.5,1.89-.5Z" style="fill: #01426a;"/>
    <path d="M22.43,84.62c-.69,0-1.31-.15-1.86-.46-.55-.3-.98-.72-1.3-1.26-.32-.54-.48-1.15-.48-1.84s.16-1.32,.48-1.85c.32-.53,.76-.95,1.3-1.25,.55-.3,1.16-.45,1.86-.45s1.26,.14,1.79,.43c.53,.29,.95,.69,1.25,1.22,.31,.53,.46,1.16,.46,1.9s-.15,1.36-.46,1.89c-.31,.53-.72,.94-1.25,1.23-.53,.29-1.12,.43-1.79,.43Zm.2,3.04c-.66,0-1.29-.1-1.89-.31s-1.08-.49-1.46-.85l.38-.53c.36,.34,.8,.6,1.31,.78,.51,.19,1.06,.28,1.64,.28,.98,0,1.7-.23,2.16-.69,.46-.46,.69-1.18,.69-2.16v-2.03l.14-1.09-.11-1.09v-2.39h.67v6.52c0,1.22-.3,2.12-.89,2.7-.59,.57-1.48,.86-2.65,.86Zm-.14-3.67c.59,0,1.11-.12,1.55-.37,.45-.25,.8-.59,1.06-1.04s.38-.95,.38-1.52-.13-1.09-.38-1.53c-.26-.44-.61-.78-1.06-1.02-.45-.24-.96-.36-1.55-.36s-1.08,.12-1.53,.36c-.45,.24-.81,.58-1.06,1.02-.26,.44-.38,.95-.38,1.53s.13,1.08,.38,1.52c.26,.44,.61,.79,1.06,1.04,.45,.25,.96,.37,1.53,.37Z" style="fill: #01426a;"/>
    <path d="M29.14,84.89v-7.31h.67v2l-.07-.22c.21-.59,.55-1.04,1.04-1.36,.49-.32,1.09-.47,1.82-.47v.69s-.06,0-.08,0c-.03,0-.06,0-.08,0-.81,0-1.45,.25-1.9,.76-.46,.51-.69,1.22-.69,2.12v3.81h-.7Z" style="fill: #01426a;"/>
    <path d="M37.62,84.95c-.74,0-1.39-.16-1.95-.48s-1.01-.76-1.33-1.32c-.32-.56-.48-1.2-.48-1.92s.15-1.37,.46-1.92c.3-.56,.72-.99,1.25-1.31,.53-.32,1.13-.47,1.79-.47s1.26,.15,1.79,.46c.53,.31,.94,.74,1.25,1.29,.3,.56,.46,1.2,.46,1.93,0,.03,0,.06,0,.09,0,.03,0,.07,0,.1h-6.46v-.55h6.08l-.28,.27c0-.57-.11-1.08-.36-1.53-.25-.45-.58-.81-1-1.06-.42-.26-.91-.38-1.46-.38s-1.02,.13-1.45,.38c-.42,.26-.76,.61-1,1.06s-.36,.97-.36,1.55v.13c0,.6,.13,1.13,.4,1.59s.63,.82,1.1,1.08,1,.38,1.6,.38c.47,0,.9-.08,1.31-.25,.41-.17,.75-.42,1.03-.77l.41,.46c-.32,.39-.72,.69-1.2,.89-.48,.2-1,.3-1.56,.3Z" style="fill: #01426a;"/>
    <path d="M44.86,84.95c-.61,0-1.17-.09-1.7-.27s-.94-.4-1.22-.67l.32-.56c.28,.24,.65,.45,1.12,.62,.47,.17,.97,.26,1.51,.26,.77,0,1.32-.12,1.65-.38s.5-.58,.5-.99c0-.3-.09-.54-.26-.71-.17-.17-.4-.31-.69-.4-.29-.09-.61-.17-.95-.23-.34-.06-.69-.13-1.04-.2-.35-.07-.66-.18-.95-.32-.29-.14-.52-.33-.69-.58-.17-.25-.26-.58-.26-.99,0-.37,.1-.71,.31-1.01,.21-.3,.51-.54,.92-.72,.41-.18,.92-.27,1.54-.27,.46,0,.92,.06,1.38,.2s.84,.3,1.13,.52l-.32,.56c-.31-.23-.65-.4-1.04-.5-.38-.1-.77-.15-1.16-.15-.71,0-1.23,.13-1.56,.39-.33,.26-.5,.59-.5,.98,0,.31,.09,.55,.26,.74,.17,.18,.4,.32,.69,.42s.61,.18,.95,.24c.35,.06,.69,.13,1.04,.2,.34,.07,.66,.18,.95,.31s.52,.32,.69,.56c.17,.24,.26,.56,.26,.96s-.11,.75-.33,1.05-.54,.53-.97,.7-.96,.25-1.58,.25Z" style="fill: #01426a;"/>
    <path d="M52.67,84.95c-.74,0-1.39-.16-1.95-.48-.57-.32-1.01-.76-1.33-1.32-.32-.56-.48-1.2-.48-1.92s.15-1.37,.46-1.92,.72-.99,1.25-1.31c.53-.32,1.13-.47,1.79-.47s1.26,.15,1.79,.46c.53,.31,.94,.74,1.25,1.29,.3,.56,.46,1.2,.46,1.93,0,.03,0,.06,0,.09,0,.03,0,.07,0,.1h-6.45v-.55h6.08l-.28,.27c0-.57-.11-1.08-.36-1.53s-.58-.81-1-1.06c-.42-.26-.91-.38-1.46-.38s-1.02,.13-1.45,.38c-.42,.26-.76,.61-1,1.06s-.36,.97-.36,1.55v.13c0,.6,.13,1.13,.4,1.59s.63,.82,1.1,1.08c.47,.26,1,.38,1.6,.38,.47,0,.9-.08,1.31-.25s.75-.42,1.03-.77l.41,.46c-.32,.39-.72,.69-1.2,.89-.48,.2-1,.3-1.56,.3Z" style="fill: #01426a;"/>
    <path d="M64.63,84.95c-.74,0-1.39-.16-1.95-.48s-1.01-.76-1.33-1.32c-.32-.56-.48-1.2-.48-1.92s.15-1.37,.46-1.92c.3-.56,.72-.99,1.25-1.31,.53-.32,1.13-.47,1.79-.47s1.26,.15,1.79,.46c.53,.31,.94,.74,1.25,1.29,.3,.56,.46,1.2,.46,1.93,0,.03,0,.06,0,.09,0,.03,0,.07,0,.1h-6.45v-.55h6.08l-.28,.27c0-.57-.11-1.08-.36-1.53-.25-.45-.58-.81-1-1.06-.42-.26-.9-.38-1.46-.38s-1.03,.13-1.45,.38c-.43,.26-.76,.61-1,1.06-.24,.45-.36,.97-.36,1.55v.13c0,.6,.13,1.13,.4,1.59,.27,.46,.63,.82,1.1,1.08s1,.38,1.6,.38c.47,0,.9-.08,1.31-.25,.41-.17,.75-.42,1.03-.77l.41,.46c-.32,.39-.72,.69-1.2,.89-.48,.2-1,.3-1.56,.3Z" style="fill: #01426a;"/>
    <path d="M70.02,84.89v-10.39h.7v10.39h-.7Z" style="fill: #01426a;"/>
    <path d="M80.17,84.95c-.71,0-1.34-.16-1.9-.48-.56-.32-.99-.76-1.32-1.32-.32-.56-.48-1.2-.48-1.92s.16-1.37,.48-1.93,.76-1,1.32-1.31c.55-.31,1.19-.47,1.9-.47,.59,0,1.12,.11,1.6,.34,.48,.22,.87,.56,1.17,1.01l-.52,.38c-.26-.37-.59-.65-.98-.83-.39-.18-.82-.27-1.27-.27-.57,0-1.08,.13-1.53,.38-.45,.26-.81,.62-1.06,1.08-.26,.46-.39,1-.39,1.62s.13,1.16,.39,1.62,.61,.82,1.06,1.08,.96,.38,1.53,.38c.46,0,.88-.09,1.27-.27,.39-.18,.72-.45,.98-.83l.52,.38c-.3,.45-.69,.78-1.17,1.01-.48,.22-1.02,.34-1.6,.34Z" style="fill: #01426a;"/>
    <path d="M87.9,84.95c-.7,0-1.32-.16-1.87-.48-.55-.32-.98-.76-1.3-1.32-.32-.56-.48-1.2-.48-1.92s.16-1.37,.48-1.92c.32-.56,.76-.99,1.3-1.31,.55-.32,1.17-.47,1.87-.47s1.32,.16,1.88,.47c.55,.32,.99,.75,1.3,1.31,.32,.56,.48,1.2,.48,1.92s-.16,1.36-.48,1.92c-.32,.56-.75,1-1.3,1.32s-1.18,.48-1.88,.48Zm0-.63c.56,0,1.06-.13,1.51-.38,.45-.26,.8-.62,1.05-1.08s.38-1,.38-1.61-.13-1.15-.38-1.62c-.25-.46-.6-.82-1.05-1.08-.45-.26-.95-.38-1.51-.38s-1.06,.13-1.51,.38c-.44,.26-.79,.62-1.05,1.08-.26,.46-.39,1-.39,1.62s.13,1.14,.39,1.61c.26,.47,.61,.83,1.05,1.08s.95,.38,1.51,.38Zm-.8-7.92l1.95-1.65h1.01l-2.2,1.65h-.76Z" style="fill: #01426a;"/>
    <path d="M96.53,84.95c-.68,0-1.29-.16-1.84-.47-.55-.31-.98-.75-1.29-1.31-.32-.56-.48-1.2-.48-1.93s.16-1.38,.48-1.94c.32-.56,.75-.99,1.29-1.3,.54-.31,1.16-.47,1.84-.47,.64,0,1.23,.15,1.74,.45s.93,.72,1.23,1.27c.3,.55,.45,1.21,.45,1.99s-.15,1.41-.45,1.97c-.3,.56-.71,.99-1.22,1.29-.52,.3-1.1,.45-1.76,.45Zm.04-.63c.56,0,1.06-.13,1.5-.38s.79-.62,1.05-1.08,.38-1,.38-1.61-.13-1.15-.38-1.62c-.26-.46-.61-.82-1.05-1.08-.44-.26-.94-.38-1.5-.38s-1.06,.13-1.51,.38c-.44,.26-.79,.62-1.05,1.08-.26,.46-.39,1-.39,1.62s.13,1.14,.39,1.61c.26,.47,.61,.83,1.05,1.08s.95,.38,1.51,.38Zm2.95,.57v-2.39l.13-1.27-.14-1.27v-5.45h.7v10.39h-.69Z" style="fill: #01426a;"/>
    <path d="M103.52,75.8c-.16,0-.29-.06-.41-.17-.11-.11-.17-.24-.17-.39,0-.16,.06-.29,.17-.41,.11-.11,.25-.17,.41-.17,.17,0,.31,.05,.41,.16s.16,.24,.16,.4-.05,.29-.16,.41c-.11,.11-.25,.17-.41,.17Zm-.35,9.09v-7.31h.7v7.31h-.7Z" style="fill: #01426a;"/>
    <path d="M109.67,84.62c-.69,0-1.31-.15-1.86-.46-.55-.3-.98-.72-1.3-1.26-.32-.54-.48-1.15-.48-1.84s.16-1.32,.48-1.85c.32-.53,.76-.95,1.3-1.25s1.16-.45,1.86-.45,1.26,.14,1.79,.43c.53,.29,.94,.69,1.25,1.22,.31,.53,.46,1.16,.46,1.9s-.15,1.36-.46,1.89c-.31,.53-.73,.94-1.25,1.23-.53,.29-1.12,.43-1.79,.43Zm.2,3.04c-.66,0-1.29-.1-1.89-.31s-1.08-.49-1.46-.85l.38-.53c.36,.34,.8,.6,1.31,.78,.51,.19,1.06,.28,1.64,.28,.98,0,1.7-.23,2.16-.69,.46-.46,.69-1.18,.69-2.16v-2.03l.14-1.09-.11-1.09v-2.39h.67v6.52c0,1.22-.3,2.12-.89,2.7-.59,.57-1.48,.86-2.65,.86Zm-.14-3.67c.59,0,1.11-.12,1.55-.37,.45-.25,.8-.59,1.06-1.04s.38-.95,.38-1.52-.13-1.09-.38-1.53c-.26-.44-.61-.78-1.06-1.02-.45-.24-.97-.36-1.55-.36s-1.08,.12-1.53,.36c-.45,.24-.81,.58-1.06,1.02-.26,.44-.38,.95-.38,1.53s.13,1.08,.38,1.52,.61,.79,1.06,1.04c.45,.25,.96,.37,1.53,.37Z" style="fill: #01426a;"/>
    <path d="M119.23,84.95c-.7,0-1.32-.16-1.87-.48s-.98-.76-1.3-1.32c-.32-.56-.48-1.2-.48-1.92s.16-1.37,.48-1.92,.76-.99,1.3-1.31c.55-.32,1.17-.47,1.87-.47s1.33,.16,1.88,.47c.55,.32,.98,.75,1.3,1.31s.48,1.2,.48,1.92-.16,1.36-.48,1.92c-.32,.56-.75,1-1.3,1.32s-1.18,.48-1.88,.48Zm0-.63c.56,0,1.06-.13,1.51-.38,.45-.26,.8-.62,1.05-1.08s.38-1,.38-1.61-.13-1.15-.38-1.62c-.25-.46-.6-.82-1.05-1.08-.45-.26-.95-.38-1.51-.38s-1.06,.13-1.5,.38c-.44,.26-.79,.62-1.05,1.08-.26,.46-.38,1-.38,1.62s.13,1.14,.38,1.61,.61,.83,1.05,1.08,.95,.38,1.5,.38Z" style="fill: #01426a;"/>
    <path d="M131.46,84.95c-.68,0-1.29-.16-1.84-.47-.55-.31-.98-.75-1.29-1.31-.32-.56-.48-1.2-.48-1.93s.16-1.38,.48-1.94,.75-.99,1.29-1.3,1.16-.47,1.84-.47c.64,0,1.23,.15,1.74,.45s.93,.72,1.23,1.27c.3,.55,.45,1.21,.45,1.99s-.15,1.41-.45,1.97c-.3,.56-.71,.99-1.23,1.29-.52,.3-1.1,.45-1.76,.45Zm.04-.63c.56,0,1.06-.13,1.5-.38s.79-.62,1.05-1.08c.26-.47,.39-1,.39-1.61s-.13-1.15-.39-1.62c-.26-.46-.61-.82-1.05-1.08-.44-.26-.94-.38-1.5-.38s-1.06,.13-1.5,.38c-.44,.26-.79,.62-1.05,1.08-.26,.46-.38,1-.38,1.62s.13,1.14,.38,1.61,.61,.83,1.05,1.08,.95,.38,1.5,.38Zm2.95,.57v-2.39l.13-1.27-.14-1.27v-5.45h.7v10.39h-.69Z" style="fill: #01426a;"/>
    <path d="M141.07,84.95c-.74,0-1.39-.16-1.95-.48s-1.01-.76-1.33-1.32c-.32-.56-.48-1.2-.48-1.92s.15-1.37,.46-1.92c.3-.56,.72-.99,1.25-1.31,.53-.32,1.13-.47,1.79-.47s1.26,.15,1.79,.46c.53,.31,.94,.74,1.25,1.29,.3,.56,.46,1.2,.46,1.93,0,.03,0,.06,0,.09s0,.07,0,.1h-6.45v-.55h6.08l-.28,.27c0-.57-.11-1.08-.36-1.53-.25-.45-.58-.81-1-1.06-.42-.26-.91-.38-1.46-.38s-1.02,.13-1.45,.38c-.42,.26-.76,.61-1,1.06-.24,.45-.36,.97-.36,1.55v.13c0,.6,.13,1.13,.4,1.59,.27,.46,.63,.82,1.1,1.08s1,.38,1.6,.38c.47,0,.9-.08,1.31-.25,.41-.17,.75-.42,1.03-.77l.41,.46c-.32,.39-.72,.69-1.2,.89-.48,.2-1,.3-1.56,.3Z" style="fill: #01426a;"/>
    <path d="M152.03,84.95c-.54,0-1.01-.09-1.41-.26-.4-.17-.7-.42-.91-.73-.21-.32-.31-.68-.31-1.09,0-.37,.09-.71,.26-1.02s.46-.55,.86-.74,.94-.29,1.61-.29h2.69v.55h-2.67c-.76,0-1.29,.14-1.59,.42-.3,.28-.46,.63-.46,1.05,0,.47,.18,.84,.53,1.12,.35,.28,.85,.42,1.5,.42s1.14-.14,1.56-.42c.42-.28,.74-.69,.94-1.22l.2,.48c-.2,.53-.53,.95-1,1.27-.47,.31-1.07,.47-1.8,.47Zm2.63-.06v-1.67l-.03-.25v-2.74c0-.68-.18-1.2-.55-1.55-.37-.35-.91-.53-1.62-.53-.5,0-.97,.09-1.41,.26-.43,.17-.81,.39-1.11,.66l-.35-.5c.36-.33,.8-.58,1.32-.76,.51-.18,1.05-.27,1.61-.27,.91,0,1.6,.23,2.09,.69s.73,1.14,.73,2.04v4.63h-.67Z" style="fill: #01426a;"/>
    <path d="M161.18,84.95c-.63,0-1.17-.12-1.62-.34-.46-.23-.81-.57-1.06-1.04-.25-.46-.37-1.03-.37-1.71v-4.27h.7v4.21c0,.82,.21,1.45,.63,1.88,.42,.43,1.01,.64,1.78,.64,.55,0,1.03-.12,1.43-.35s.71-.56,.92-.99c.21-.42,.32-.93,.32-1.5v-3.89h.7v7.31h-.67v-2.03l.1,.24c-.21,.57-.57,1.02-1.07,1.35-.5,.33-1.09,.5-1.79,.5Z" style="fill: #01426a;"/>
    <path d="M166.38,78.18v-.6h4.37v.6h-4.37Zm3.33,6.76c-.64,0-1.14-.18-1.48-.53-.34-.35-.51-.84-.51-1.46v-6.97h.7v6.9c0,.47,.12,.83,.35,1.08s.57,.38,1.01,.38,.84-.14,1.13-.41l.29,.49c-.19,.18-.41,.31-.68,.39-.27,.08-.54,.13-.82,.13Z" style="fill: #01426a;"/>
    <path d="M176.01,84.95c-.7,0-1.32-.16-1.87-.48s-.98-.76-1.3-1.32c-.32-.56-.48-1.2-.48-1.92s.16-1.37,.48-1.92,.76-.99,1.3-1.31c.55-.32,1.17-.47,1.87-.47s1.33,.16,1.88,.47c.55,.32,.98,.75,1.3,1.31s.48,1.2,.48,1.92-.16,1.36-.48,1.92c-.32,.56-.75,1-1.3,1.32s-1.18,.48-1.88,.48Zm0-.63c.56,0,1.06-.13,1.51-.38,.45-.26,.8-.62,1.05-1.08s.38-1,.38-1.61-.13-1.15-.38-1.62c-.25-.46-.6-.82-1.05-1.08-.45-.26-.95-.38-1.51-.38s-1.06,.13-1.5,.38c-.44,.26-.79,.62-1.05,1.08-.26,.46-.38,1-.38,1.62s.13,1.14,.38,1.61,.61,.83,1.05,1.08,.95,.38,1.5,.38Z" style="fill: #01426a;"/>
    <path d="M181.83,84.89v-7.31h.67v2l-.07-.22c.21-.59,.55-1.04,1.04-1.36,.49-.32,1.09-.47,1.82-.47v.69s-.06,0-.08,0c-.03,0-.06,0-.08,0-.81,0-1.45,.25-1.9,.76-.46,.51-.69,1.22-.69,2.12v3.81h-.7Z" style="fill: #01426a;"/>
    <path d="M187.7,75.8c-.16,0-.29-.06-.41-.17-.11-.11-.17-.24-.17-.39,0-.16,.06-.29,.17-.41,.11-.11,.25-.17,.41-.17,.17,0,.31,.05,.41,.16s.16,.24,.16,.4-.05,.29-.16,.41c-.11,.11-.25,.17-.41,.17Zm-.35,9.09v-7.31h.7v7.31h-.7Z" style="fill: #01426a;"/>
    <path d="M190.14,84.89v-.48l5-6.47,.18,.24h-5.11v-.6h5.66v.48l-5.01,6.47-.21-.24h5.31v.6h-5.81Z" style="fill: #01426a;"/>
    <path d="M200.02,84.95c-.54,0-1.01-.09-1.41-.26-.4-.17-.7-.42-.91-.73-.21-.32-.31-.68-.31-1.09,0-.37,.09-.71,.26-1.02s.46-.55,.86-.74,.94-.29,1.61-.29h2.69v.55h-2.67c-.76,0-1.29,.14-1.59,.42-.3,.28-.46,.63-.46,1.05,0,.47,.18,.84,.53,1.12,.35,.28,.85,.42,1.5,.42s1.14-.14,1.56-.42c.42-.28,.74-.69,.94-1.22l.2,.48c-.2,.53-.53,.95-1,1.27-.47,.31-1.07,.47-1.8,.47Zm2.63-.06v-1.67l-.03-.25v-2.74c0-.68-.18-1.2-.55-1.55-.37-.35-.91-.53-1.62-.53-.5,0-.97,.09-1.41,.26-.43,.17-.81,.39-1.11,.66l-.35-.5c.36-.33,.8-.58,1.32-.76,.51-.18,1.05-.27,1.61-.27,.91,0,1.6,.23,2.09,.69s.73,1.14,.73,2.04v4.63h-.67Z" style="fill: #01426a;"/>
    <path d="M209.11,84.95c-.71,0-1.34-.16-1.9-.48-.56-.32-.99-.76-1.32-1.32-.32-.56-.48-1.2-.48-1.92s.16-1.37,.48-1.93,.76-1,1.32-1.31c.55-.31,1.19-.47,1.9-.47,.59,0,1.12,.11,1.6,.34,.48,.22,.87,.56,1.17,1.01l-.52,.38c-.26-.37-.59-.65-.98-.83-.39-.18-.82-.27-1.27-.27-.57,0-1.08,.13-1.53,.38-.45,.26-.81,.62-1.06,1.08-.26,.46-.38,1-.38,1.62s.13,1.16,.38,1.62,.61,.82,1.06,1.08c.45,.26,.96,.38,1.53,.38,.46,0,.88-.09,1.27-.27,.39-.18,.72-.45,.98-.83l.52,.38c-.3,.45-.69,.78-1.17,1.01-.48,.22-1.02,.34-1.6,.34Z" style="fill: #01426a;"/>
    <path d="M214.33,75.8c-.16,0-.29-.06-.41-.17-.11-.11-.17-.24-.17-.39,0-.16,.06-.29,.17-.41,.11-.11,.25-.17,.41-.17,.17,0,.31,.05,.41,.16s.16,.24,.16,.4-.05,.29-.16,.41c-.11,.11-.25,.17-.41,.17Zm-.35,9.09v-7.31h.7v7.31h-.7Z" style="fill: #01426a;"/>
    <path d="M220.49,84.95c-.7,0-1.32-.16-1.87-.48s-.98-.76-1.3-1.32c-.32-.56-.48-1.2-.48-1.92s.16-1.37,.48-1.92,.76-.99,1.3-1.31c.55-.32,1.17-.47,1.87-.47s1.33,.16,1.88,.47c.55,.32,.98,.75,1.3,1.31s.48,1.2,.48,1.92-.16,1.36-.48,1.92c-.32,.56-.75,1-1.3,1.32s-1.18,.48-1.88,.48Zm0-.63c.56,0,1.06-.13,1.51-.38,.45-.26,.8-.62,1.05-1.08s.38-1,.38-1.61-.13-1.15-.38-1.62c-.25-.46-.6-.82-1.05-1.08-.45-.26-.95-.38-1.51-.38s-1.06,.13-1.5,.38c-.44,.26-.79,.62-1.05,1.08-.26,.46-.38,1-.38,1.62s.13,1.14,.38,1.61,.61,.83,1.05,1.08,.95,.38,1.5,.38Zm-.8-7.92l1.95-1.65h1.01l-2.2,1.65h-.76Z" style="fill: #01426a;"/>
    <path d="M229.88,77.53c.6,0,1.12,.11,1.56,.34,.44,.23,.79,.57,1.04,1.04,.25,.46,.37,1.03,.37,1.71v4.27h-.7v-4.21c0-.82-.21-1.45-.62-1.88-.42-.43-1-.64-1.74-.64-.57,0-1.06,.12-1.48,.35s-.74,.56-.96,.98c-.22,.42-.33,.92-.33,1.51v3.89h-.7v-7.31h.67v2.03l-.1-.22c.22-.58,.59-1.03,1.11-1.37,.51-.33,1.14-.5,1.89-.5Z" style="fill: #01426a;"/>
    <path d="M242.15,84.95c-.68,0-1.29-.16-1.84-.47-.55-.31-.98-.75-1.29-1.31-.32-.56-.48-1.2-.48-1.93s.16-1.37,.48-1.93,.75-1,1.29-1.31,1.16-.47,1.84-.47,1.24,.15,1.76,.45c.52,.3,.93,.73,1.23,1.28,.3,.55,.45,1.22,.45,1.98s-.15,1.43-.45,1.98c-.3,.56-.71,.98-1.23,1.28-.52,.3-1.1,.45-1.74,.45Zm.04-.63c.56,0,1.06-.13,1.5-.38s.79-.62,1.05-1.08c.26-.47,.39-1,.39-1.61s-.13-1.15-.39-1.62c-.26-.46-.61-.82-1.05-1.08-.44-.26-.94-.38-1.5-.38s-1.06,.13-1.5,.38c-.44,.26-.79,.62-1.05,1.08-.26,.46-.38,1-.38,1.62s.13,1.14,.38,1.61,.61,.83,1.05,1.08,.95,.38,1.5,.38Zm2.94,3.29v-5.08l.14-1.27-.13-1.27v-2.39h.69v10.02h-.7Z" style="fill: #01426a;"/>
    <path d="M251.75,84.95c-.63,0-1.17-.12-1.62-.34-.46-.23-.81-.57-1.06-1.04-.25-.46-.37-1.03-.37-1.71v-4.27h.7v4.21c0,.82,.21,1.45,.63,1.88,.42,.43,1.01,.64,1.78,.64,.55,0,1.03-.12,1.43-.35s.71-.56,.92-.99c.21-.42,.32-.93,.32-1.5v-3.89h.7v7.31h-.67v-2.03l.1,.24c-.21,.57-.57,1.02-1.07,1.35-.5,.33-1.09,.5-1.79,.5Z" style="fill: #01426a;"/>
    <path d="M261.12,84.95c-.74,0-1.39-.16-1.95-.48s-1.01-.76-1.33-1.32c-.32-.56-.48-1.2-.48-1.92s.15-1.37,.46-1.92c.3-.56,.72-.99,1.25-1.31,.53-.32,1.13-.47,1.79-.47s1.26,.15,1.79,.46c.53,.31,.94,.74,1.25,1.29,.3,.56,.46,1.2,.46,1.93,0,.03,0,.06,0,.09s0,.07,0,.1h-6.45v-.55h6.08l-.28,.27c0-.57-.11-1.08-.36-1.53-.25-.45-.58-.81-1-1.06-.42-.26-.91-.38-1.46-.38s-1.02,.13-1.45,.38c-.42,.26-.76,.61-1,1.06-.24,.45-.36,.97-.36,1.55v.13c0,.6,.13,1.13,.4,1.59,.27,.46,.63,.82,1.1,1.08s1,.38,1.6,.38c.47,0,.9-.08,1.31-.25,.41-.17,.75-.42,1.03-.77l.41,.46c-.32,.39-.72,.69-1.2,.89-.48,.2-1,.3-1.56,.3Z" style="fill: #01426a;"/>
    <path d="M6.04,101.69v-7.31h.67v2l-.07-.22c.21-.59,.55-1.04,1.04-1.36,.49-.32,1.09-.48,1.82-.48v.69s-.06,0-.08,0c-.03,0-.06,0-.08,0-.81,0-1.45,.25-1.9,.76-.46,.51-.69,1.21-.69,2.12v3.81h-.7Z" style="fill: #01426a;"/>
    <path d="M14.52,101.74c-.74,0-1.39-.16-1.95-.48s-1.01-.76-1.33-1.32c-.32-.56-.48-1.2-.48-1.92s.15-1.37,.46-1.93c.3-.55,.72-.99,1.25-1.31,.53-.32,1.13-.48,1.79-.48s1.26,.15,1.79,.46c.53,.31,.94,.74,1.25,1.29,.3,.55,.46,1.2,.46,1.92,0,.03,0,.06,0,.09,0,.03,0,.07,0,.11h-6.46v-.55h6.08l-.28,.27c0-.57-.11-1.08-.36-1.53-.25-.45-.58-.81-1-1.06-.42-.26-.91-.39-1.46-.39s-1.02,.13-1.45,.39c-.42,.26-.76,.61-1,1.06s-.36,.97-.36,1.55v.13c0,.6,.13,1.13,.4,1.59s.63,.82,1.1,1.08,1,.38,1.6,.38c.47,0,.9-.08,1.31-.25,.41-.17,.75-.42,1.03-.77l.41,.46c-.32,.39-.72,.69-1.2,.89-.48,.2-1,.3-1.56,.3Z" style="fill: #01426a;"/>
    <path d="M22.81,101.74c-.71,0-1.34-.16-1.9-.48s-.99-.76-1.32-1.32c-.32-.56-.48-1.2-.48-1.92s.16-1.37,.48-1.93c.32-.56,.76-1,1.32-1.31,.55-.31,1.19-.47,1.9-.47,.59,0,1.12,.11,1.6,.34,.48,.22,.87,.56,1.17,1.01l-.52,.38c-.26-.37-.59-.65-.98-.83s-.82-.27-1.27-.27c-.57,0-1.08,.13-1.53,.38-.45,.26-.81,.62-1.06,1.08-.26,.46-.39,1-.39,1.62s.13,1.15,.39,1.62c.26,.46,.61,.82,1.06,1.08,.45,.26,.96,.38,1.53,.38,.46,0,.88-.09,1.27-.27s.72-.45,.98-.83l.52,.38c-.3,.45-.69,.78-1.17,1.01-.48,.22-1.01,.34-1.6,.34Z" style="fill: #01426a;"/>
    <path d="M28.03,92.6c-.16,0-.29-.06-.41-.17-.11-.11-.17-.24-.17-.39,0-.16,.06-.29,.17-.41s.25-.17,.41-.17c.17,0,.31,.05,.41,.16,.11,.11,.16,.24,.16,.4s-.05,.29-.16,.41c-.11,.11-.25,.17-.41,.17Zm-.35,9.09v-7.31h.7v7.31h-.7Z" style="fill: #01426a;"/>
    <path d="M31.34,101.69v-10.39h.7v5.45l-.14,1.27,.11,1.27v2.39h-.67Zm3.67,.06c-.64,0-1.23-.15-1.74-.45s-.93-.73-1.23-1.29c-.3-.56-.45-1.22-.45-1.97s.15-1.44,.45-1.99c.3-.55,.71-.98,1.23-1.27,.52-.3,1.1-.45,1.74-.45,.69,0,1.31,.16,1.85,.47,.55,.31,.98,.75,1.29,1.3s.47,1.2,.47,1.94-.16,1.37-.47,1.93c-.31,.56-.74,1-1.29,1.31-.54,.31-1.16,.47-1.85,.47Zm-.04-.63c.56,0,1.06-.13,1.51-.38,.45-.26,.8-.62,1.06-1.08s.38-1,.38-1.61-.13-1.16-.38-1.62c-.26-.46-.61-.82-1.06-1.08-.45-.26-.95-.38-1.51-.38s-1.06,.13-1.5,.38c-.44,.26-.79,.62-1.05,1.08-.26,.46-.38,1-.38,1.62s.13,1.14,.38,1.61c.26,.47,.61,.83,1.05,1.08s.94,.38,1.5,.38Z" style="fill: #01426a;"/>
    <path d="M41.14,92.6c-.16,0-.29-.06-.41-.17-.11-.11-.17-.24-.17-.39,0-.16,.06-.29,.17-.41s.25-.17,.41-.17c.17,0,.31,.05,.41,.16,.11,.11,.16,.24,.16,.4s-.05,.29-.16,.41c-.11,.11-.25,.17-.41,.17Zm-.35,9.09v-7.31h.7v7.31h-.7Z" style="fill: #01426a;"/>
    <path d="M44.44,101.69v-7.31h.67v2l-.07-.22c.21-.59,.55-1.04,1.04-1.36,.49-.32,1.09-.48,1.82-.48v.69s-.06,0-.08,0c-.03,0-.06,0-.08,0-.81,0-1.45,.25-1.9,.76-.46,.51-.69,1.21-.69,2.12v3.81h-.7Z" style="fill: #01426a;"/>
    <path d="M51.93,101.74c-.54,0-1.01-.09-1.41-.26s-.7-.42-.91-.74c-.21-.32-.31-.68-.31-1.09,0-.37,.09-.71,.26-1.01s.46-.55,.86-.74c.4-.19,.94-.29,1.61-.29h2.69v.55h-2.67c-.76,0-1.29,.14-1.59,.42-.3,.28-.46,.63-.46,1.05,0,.47,.18,.84,.53,1.12,.35,.28,.85,.42,1.5,.42s1.14-.14,1.56-.42c.42-.28,.74-.69,.95-1.22l.2,.47c-.2,.53-.53,.96-1,1.27s-1.07,.47-1.8,.47Zm2.63-.06v-1.67l-.03-.25v-2.74c0-.68-.19-1.2-.55-1.55-.37-.36-.91-.53-1.62-.53-.5,0-.97,.09-1.41,.26-.43,.17-.8,.39-1.11,.67l-.35-.5c.37-.33,.8-.58,1.32-.76s1.05-.27,1.61-.27c.91,0,1.6,.23,2.09,.69,.49,.46,.73,1.14,.73,2.04v4.63h-.67Zm-2.97-8.5l1.95-1.65h1.01l-2.2,1.65h-.76Z" style="fill: #01426a;"/>
    <path d="M63.56,101.69l-3.29-7.31h.74l3.08,6.92h-.34l3.11-6.92h.71l-3.3,7.31h-.71Z" style="fill: #01426a;"/>
    <path d="M69.46,92.6c-.16,0-.29-.06-.41-.17-.11-.11-.17-.24-.17-.39,0-.16,.06-.29,.17-.41,.11-.11,.25-.17,.41-.17,.17,0,.3,.05,.41,.16,.11,.11,.16,.24,.16,.4s-.05,.29-.16,.41-.24,.17-.41,.17Zm-.35,9.09v-7.31h.7v7.31h-.7Z" style="fill: #01426a;"/>
    <path d="M74.74,101.74c-.54,0-1.01-.09-1.41-.26-.4-.17-.7-.42-.91-.74-.21-.32-.32-.68-.32-1.09,0-.37,.09-.71,.26-1.01s.46-.55,.86-.74c.4-.19,.94-.29,1.61-.29h2.69v.55h-2.67c-.76,0-1.29,.14-1.59,.42-.3,.28-.46,.63-.46,1.05,0,.47,.18,.84,.53,1.12,.36,.28,.85,.42,1.5,.42s1.14-.14,1.56-.42c.42-.28,.74-.69,.94-1.22l.2,.47c-.2,.53-.53,.96-1,1.27s-1.07,.47-1.8,.47Zm2.63-.06v-1.67l-.03-.25v-2.74c0-.68-.18-1.2-.55-1.55-.37-.36-.91-.53-1.62-.53-.5,0-.97,.09-1.41,.26-.43,.17-.8,.39-1.11,.67l-.35-.5c.36-.33,.8-.58,1.32-.76s1.05-.27,1.61-.27c.9,0,1.6,.23,2.09,.69,.48,.46,.73,1.14,.73,2.04v4.63h-.67Z" style="fill: #01426a;"/>
    <path d="M87.32,101.76c-.73,0-1.42-.12-2.06-.37-.65-.25-1.15-.57-1.51-.96l.32-.53c.34,.35,.79,.64,1.38,.88,.58,.24,1.2,.36,1.86,.36s1.19-.09,1.6-.26c.42-.17,.72-.4,.92-.69,.2-.29,.3-.61,.3-.96,0-.42-.11-.76-.34-1.01-.22-.25-.52-.45-.88-.6-.36-.15-.76-.28-1.19-.38-.43-.1-.86-.21-1.3-.33-.44-.12-.84-.27-1.2-.46-.37-.19-.66-.44-.88-.76-.22-.32-.33-.74-.33-1.25,0-.47,.12-.9,.37-1.29,.24-.39,.62-.71,1.13-.95s1.17-.36,1.97-.36c.54,0,1.08,.08,1.6,.24,.53,.16,.98,.37,1.35,.64l-.27,.57c-.41-.28-.85-.49-1.32-.62-.47-.14-.93-.2-1.37-.2-.62,0-1.14,.09-1.55,.27-.41,.18-.71,.41-.91,.71-.2,.29-.29,.62-.29,.99,0,.42,.11,.76,.33,1.01,.22,.25,.51,.45,.88,.6,.37,.15,.77,.28,1.21,.38,.44,.1,.87,.21,1.3,.33,.43,.12,.83,.27,1.19,.46,.36,.19,.66,.44,.88,.76,.22,.32,.34,.73,.34,1.23,0,.46-.12,.88-.38,1.28s-.64,.71-1.16,.95c-.52,.24-1.18,.36-1.99,.36Z" style="fill: #01426a;"/>
    <path d="M93.27,101.69v-9.8h.6l4.55,7.85h-.32l4.54-7.85h.59v9.8s-.69,0-.69,0v-8.72s.18,0,.18,0l-4.3,7.42h-.35l-4.31-7.42h.21v8.72h-.7Z" style="fill: #01426a;"/>
    <path d="M109.23,101.76c-.73,0-1.42-.12-2.07-.37s-1.15-.57-1.5-.96l.32-.53c.34,.35,.8,.64,1.38,.88s1.2,.36,1.85,.36,1.19-.09,1.6-.26c.42-.17,.72-.4,.92-.69,.2-.29,.3-.61,.3-.96,0-.42-.11-.76-.34-1.01-.22-.25-.52-.45-.88-.6s-.76-.28-1.19-.38c-.43-.1-.86-.21-1.3-.33s-.84-.27-1.2-.46c-.36-.19-.66-.44-.88-.76-.22-.32-.33-.74-.33-1.25,0-.47,.12-.9,.36-1.29,.24-.39,.62-.71,1.13-.95,.51-.24,1.17-.36,1.97-.36,.54,0,1.08,.08,1.6,.24s.98,.37,1.35,.64l-.27,.57c-.41-.28-.85-.49-1.32-.62-.47-.14-.93-.2-1.37-.2-.63,0-1.14,.09-1.55,.27-.41,.18-.71,.41-.91,.71-.2,.29-.29,.62-.29,.99,0,.42,.11,.76,.33,1.01,.22,.25,.51,.45,.88,.6,.36,.15,.76,.28,1.2,.38,.44,.1,.87,.21,1.3,.33,.43,.12,.83,.27,1.19,.46,.36,.19,.66,.44,.88,.76,.22,.32,.34,.73,.34,1.23,0,.46-.13,.88-.38,1.28s-.64,.71-1.15,.95c-.52,.24-1.18,.36-2,.36Z" style="fill: #01426a;"/>
    <path d="M120.53,101.74c-.54,0-1.01-.09-1.41-.26s-.7-.42-.91-.74c-.21-.32-.31-.68-.31-1.09,0-.37,.09-.71,.26-1.01s.46-.55,.86-.74c.4-.19,.94-.29,1.61-.29h2.69v.55h-2.67c-.76,0-1.29,.14-1.59,.42-.3,.28-.46,.63-.46,1.05,0,.47,.18,.84,.53,1.12,.35,.28,.85,.42,1.5,.42s1.14-.14,1.56-.42c.42-.28,.74-.69,.94-1.22l.2,.47c-.2,.53-.53,.96-1,1.27s-1.07,.47-1.8,.47Zm2.63-.06v-1.67l-.03-.25v-2.74c0-.68-.18-1.2-.55-1.55-.37-.36-.91-.53-1.62-.53-.5,0-.97,.09-1.41,.26-.43,.17-.81,.39-1.11,.67l-.35-.5c.36-.33,.8-.58,1.32-.76s1.05-.27,1.61-.27c.91,0,1.6,.23,2.09,.69,.49,.46,.73,1.14,.73,2.04v4.63h-.67Z" style="fill: #01426a;"/>
    <path d="M126.72,101.69v-10.39h.7v10.39h-.7Z" style="fill: #01426a;"/>
    <path d="M137.54,94.32c.6,0,1.12,.12,1.56,.34s.79,.57,1.04,1.04c.25,.46,.37,1.03,.37,1.71v4.27h-.7v-4.21c0-.82-.21-1.45-.62-1.88-.42-.43-1-.64-1.74-.64-.57,0-1.06,.12-1.48,.35s-.74,.56-.96,.98c-.22,.42-.33,.92-.33,1.51v3.89h-.7v-7.31h.67v2.03l-.1-.22c.22-.58,.59-1.03,1.11-1.37,.51-.33,1.14-.5,1.89-.5Z" style="fill: #01426a;"/>
    <path d="M146.36,101.74c-.63,0-1.17-.11-1.62-.34-.46-.23-.81-.57-1.06-1.04-.25-.46-.37-1.03-.37-1.71v-4.27h.7v4.21c0,.82,.21,1.45,.63,1.88,.42,.43,1.01,.64,1.78,.64,.55,0,1.03-.12,1.43-.35s.71-.56,.92-.99c.21-.42,.32-.93,.32-1.5v-3.89h.7v7.31h-.67v-2.03l.1,.24c-.21,.57-.57,1.02-1.07,1.35-.5,.33-1.09,.5-1.79,.5Zm-.6-8.55l1.95-1.65h1.01l-2.2,1.65h-.76Z" style="fill: #01426a;"/>
    <path d="M161.86,94.32c.59,0,1.1,.12,1.53,.34,.43,.23,.77,.57,1.01,1.04,.24,.46,.36,1.03,.36,1.71v4.27h-.7v-4.21c0-.82-.2-1.45-.6-1.88-.4-.43-.96-.64-1.68-.64-.55,0-1.03,.12-1.43,.35s-.71,.56-.92,.98c-.21,.42-.32,.92-.32,1.51v3.89h-.7v-4.21c0-.82-.2-1.45-.6-1.88s-.96-.64-1.68-.64c-.55,0-1.03,.12-1.43,.35s-.71,.56-.92,.98c-.21,.42-.32,.92-.32,1.51v3.89h-.7v-7.31h.67v2.02l-.1-.22c.21-.57,.57-1.02,1.08-1.35s1.11-.5,1.82-.5,1.34,.18,1.84,.55c.5,.37,.81,.92,.95,1.65l-.24-.1c.2-.62,.56-1.13,1.11-1.52,.54-.39,1.2-.58,1.97-.58Z" style="fill: #01426a;"/>
    <path d="M170.62,101.74c-.74,0-1.39-.16-1.95-.48s-1.01-.76-1.33-1.32c-.32-.56-.48-1.2-.48-1.92s.15-1.37,.46-1.93c.3-.55,.72-.99,1.25-1.31,.53-.32,1.13-.48,1.79-.48s1.26,.15,1.79,.46c.53,.31,.94,.74,1.25,1.29,.3,.55,.46,1.2,.46,1.92,0,.03,0,.06,0,.09s0,.07,0,.11h-6.45v-.55h6.08l-.28,.27c0-.57-.11-1.08-.36-1.53-.25-.45-.58-.81-1-1.06-.42-.26-.91-.39-1.46-.39s-1.02,.13-1.45,.39c-.42,.26-.76,.61-1,1.06-.24,.45-.36,.97-.36,1.55v.13c0,.6,.13,1.13,.4,1.59,.27,.46,.63,.82,1.1,1.08s1,.38,1.6,.38c.47,0,.9-.08,1.31-.25,.41-.17,.75-.42,1.03-.77l.41,.46c-.32,.39-.72,.69-1.2,.89s-1,.3-1.56,.3Z" style="fill: #01426a;"/>
    <path d="M176.01,101.69v-7.31h.67v2l-.07-.22c.21-.59,.55-1.04,1.04-1.36,.49-.32,1.09-.48,1.82-.48v.69s-.06,0-.08,0c-.03,0-.06,0-.08,0-.81,0-1.45,.25-1.9,.76-.46,.51-.69,1.21-.69,2.12v3.81h-.7Z" style="fill: #01426a;"/>
    <path d="M184.38,101.74c-.7,0-1.32-.16-1.87-.48s-.98-.76-1.3-1.32c-.32-.56-.48-1.2-.48-1.92s.16-1.37,.48-1.93c.32-.55,.76-.99,1.3-1.31,.55-.32,1.17-.48,1.87-.48s1.33,.16,1.88,.48c.55,.32,.98,.75,1.3,1.31,.32,.56,.48,1.2,.48,1.93s-.16,1.36-.48,1.92c-.32,.56-.75,1-1.3,1.32s-1.18,.48-1.88,.48Zm0-.63c.56,0,1.06-.13,1.51-.38,.45-.26,.8-.62,1.05-1.08s.38-1,.38-1.61-.13-1.16-.38-1.62c-.25-.46-.6-.82-1.05-1.08-.45-.26-.95-.38-1.51-.38s-1.06,.13-1.5,.38c-.44,.26-.79,.62-1.05,1.08-.26,.46-.38,1-.38,1.62s.13,1.14,.38,1.61,.61,.83,1.05,1.08,.95,.38,1.5,.38Z" style="fill: #01426a;"/>
    <path d="M196.62,101.74c-.68,0-1.29-.16-1.84-.47s-.98-.75-1.29-1.31c-.32-.56-.48-1.2-.48-1.93s.16-1.38,.48-1.94,.75-.99,1.29-1.3c.55-.31,1.16-.47,1.84-.47,.64,0,1.23,.15,1.74,.45,.52,.3,.93,.72,1.23,1.27,.3,.55,.45,1.21,.45,1.99s-.15,1.41-.45,1.97c-.3,.56-.71,.99-1.23,1.29-.52,.3-1.1,.45-1.76,.45Zm.04-.63c.56,0,1.06-.13,1.5-.38s.79-.62,1.05-1.08c.26-.47,.39-1,.39-1.61s-.13-1.16-.39-1.62c-.26-.46-.61-.82-1.05-1.08-.44-.26-.94-.38-1.5-.38s-1.06,.13-1.5,.38c-.44,.26-.79,.62-1.05,1.08-.26,.46-.38,1-.38,1.62s.13,1.14,.38,1.61,.61,.83,1.05,1.08,.95,.38,1.5,.38Zm2.95,.57v-2.39l.13-1.27-.14-1.27v-5.45h.7v10.39h-.69Z" style="fill: #01426a;"/>
    <path d="M206.22,101.74c-.74,0-1.39-.16-1.95-.48s-1.01-.76-1.33-1.32c-.32-.56-.48-1.2-.48-1.92s.15-1.37,.46-1.93c.3-.55,.72-.99,1.25-1.31,.53-.32,1.13-.48,1.79-.48s1.26,.15,1.79,.46c.53,.31,.94,.74,1.25,1.29,.3,.55,.46,1.2,.46,1.92,0,.03,0,.06,0,.09s0,.07,0,.11h-6.45v-.55h6.08l-.28,.27c0-.57-.11-1.08-.36-1.53-.25-.45-.58-.81-1-1.06-.42-.26-.91-.39-1.46-.39s-1.02,.13-1.45,.39c-.42,.26-.76,.61-1,1.06-.24,.45-.36,.97-.36,1.55v.13c0,.6,.13,1.13,.4,1.59,.27,.46,.63,.82,1.1,1.08s1,.38,1.6,.38c.47,0,.9-.08,1.31-.25,.41-.17,.75-.42,1.03-.77l.41,.46c-.32,.39-.72,.69-1.2,.89s-1,.3-1.56,.3Z" style="fill: #01426a;"/>
    <path d="M214.01,94.98v-.6h4.37v.6h-4.37Zm3.33,6.76c-.64,0-1.14-.18-1.48-.53-.34-.36-.51-.84-.51-1.46v-6.97h.7v6.9c0,.47,.12,.83,.35,1.08s.57,.38,1.01,.38,.84-.13,1.13-.41l.29,.49c-.19,.18-.41,.31-.68,.39-.27,.08-.54,.12-.82,.12Z" style="fill: #01426a;"/>
    <path d="M223.75,101.74c-.74,0-1.39-.16-1.95-.48s-1.01-.76-1.33-1.32c-.32-.56-.48-1.2-.48-1.92s.15-1.37,.46-1.93c.3-.55,.72-.99,1.25-1.31,.53-.32,1.13-.48,1.79-.48s1.26,.15,1.79,.46c.53,.31,.94,.74,1.25,1.29,.3,.55,.46,1.2,.46,1.92,0,.03,0,.06,0,.09s0,.07,0,.11h-6.45v-.55h6.08l-.28,.27c0-.57-.11-1.08-.36-1.53-.25-.45-.58-.81-1-1.06-.42-.26-.91-.39-1.46-.39s-1.02,.13-1.45,.39c-.42,.26-.76,.61-1,1.06-.24,.45-.36,.97-.36,1.55v.13c0,.6,.13,1.13,.4,1.59,.27,.46,.63,.82,1.1,1.08s1,.38,1.6,.38c.47,0,.9-.08,1.31-.25,.41-.17,.75-.42,1.03-.77l.41,.46c-.32,.39-.72,.69-1.2,.89s-1,.3-1.56,.3Z" style="fill: #01426a;"/>
    <path d="M229.14,101.69v-10.39h.7v10.39h-.7Z" style="fill: #01426a;"/>
    <path d="M235.76,101.74c-.74,0-1.39-.16-1.95-.48s-1.01-.76-1.33-1.32c-.32-.56-.48-1.2-.48-1.92s.15-1.37,.46-1.93c.3-.55,.72-.99,1.25-1.31,.53-.32,1.13-.48,1.79-.48s1.26,.15,1.79,.46c.53,.31,.94,.74,1.25,1.29,.3,.55,.46,1.2,.46,1.92,0,.03,0,.06,0,.09s0,.07,0,.11h-6.45v-.55h6.08l-.28,.27c0-.57-.11-1.08-.36-1.53-.25-.45-.58-.81-1-1.06-.42-.26-.91-.39-1.46-.39s-1.02,.13-1.45,.39c-.42,.26-.76,.61-1,1.06-.24,.45-.36,.97-.36,1.55v.13c0,.6,.13,1.13,.4,1.59,.27,.46,.63,.82,1.1,1.08s1,.38,1.6,.38c.47,0,.9-.08,1.31-.25,.41-.17,.75-.42,1.03-.77l.41,.46c-.32,.39-.72,.69-1.2,.89s-1,.3-1.56,.3Zm-1.06-8.55l1.95-1.65h1.01l-2.2,1.65h-.76Z" style="fill: #01426a;"/>
    <path d="M239.95,94.98v-.6h4.37v.6h-4.37Zm1.34,6.71v-8.43c0-.61,.17-1.09,.53-1.46,.35-.37,.85-.55,1.5-.55,.27,0,.54,.04,.8,.12,.26,.08,.48,.2,.64,.36l-.28,.53c-.14-.14-.31-.24-.5-.31-.2-.07-.41-.1-.63-.1-.45,0-.79,.12-1.02,.37-.23,.25-.35,.61-.35,1.1v1.57s.01,6.8,.01,6.8h-.7Z" style="fill: #01426a;"/>
    <path d="M248.6,101.74c-.7,0-1.32-.16-1.87-.48s-.98-.76-1.3-1.32c-.32-.56-.48-1.2-.48-1.92s.16-1.37,.48-1.93c.32-.55,.76-.99,1.3-1.31,.55-.32,1.17-.48,1.87-.48s1.33,.16,1.88,.48c.55,.32,.98,.75,1.3,1.31,.32,.56,.48,1.2,.48,1.93s-.16,1.36-.48,1.92c-.32,.56-.75,1-1.3,1.32s-1.18,.48-1.88,.48Zm0-.63c.56,0,1.06-.13,1.51-.38,.45-.26,.8-.62,1.05-1.08s.38-1,.38-1.61-.13-1.16-.38-1.62c-.25-.46-.6-.82-1.05-1.08-.45-.26-.95-.38-1.51-.38s-1.06,.13-1.5,.38c-.44,.26-.79,.62-1.05,1.08-.26,.46-.38,1-.38,1.62s.13,1.14,.38,1.61,.61,.83,1.05,1.08,.95,.38,1.5,.38Z" style="fill: #01426a;"/>
    <path d="M257.99,94.32c.6,0,1.12,.12,1.56,.34s.79,.57,1.04,1.04c.25,.46,.37,1.03,.37,1.71v4.27h-.7v-4.21c0-.82-.21-1.45-.62-1.88-.42-.43-1-.64-1.74-.64-.57,0-1.06,.12-1.48,.35s-.74,.56-.96,.98c-.22,.42-.33,.92-.33,1.51v3.89h-.7v-7.31h.67v2.03l-.1-.22c.22-.58,.59-1.03,1.11-1.37,.51-.33,1.14-.5,1.89-.5Z" style="fill: #01426a;"/>
    <path d="M266.7,101.74c-.7,0-1.32-.16-1.87-.48s-.98-.76-1.3-1.32c-.32-.56-.48-1.2-.48-1.92s.16-1.37,.48-1.93c.32-.55,.76-.99,1.3-1.31,.55-.32,1.17-.48,1.87-.48s1.33,.16,1.88,.48c.55,.32,.98,.75,1.3,1.31,.32,.56,.48,1.2,.48,1.93s-.16,1.36-.48,1.92c-.32,.56-.75,1-1.3,1.32s-1.18,.48-1.88,.48Zm0-.63c.56,0,1.06-.13,1.51-.38,.45-.26,.8-.62,1.05-1.08s.38-1,.38-1.61-.13-1.16-.38-1.62c-.25-.46-.6-.82-1.05-1.08-.45-.26-.95-.38-1.51-.38s-1.06,.13-1.5,.38c-.44,.26-.79,.62-1.05,1.08-.26,.46-.38,1-.38,1.62s.13,1.14,.38,1.61,.61,.83,1.05,1.08,.95,.38,1.5,.38Z" style="fill: #01426a;"/>
    <path d="M6.04,118.49v-7.31h.67v2l-.07-.22c.21-.59,.55-1.04,1.04-1.36s1.09-.48,1.82-.48v.69s-.06,0-.08,0c-.03,0-.06,0-.08,0-.81,0-1.45,.25-1.9,.76s-.69,1.22-.69,2.12v3.81h-.7Z" style="fill: #01426a;"/>
    <path d="M14.52,118.54c-.74,0-1.39-.16-1.95-.48-.56-.32-1.01-.76-1.33-1.32-.32-.56-.48-1.2-.48-1.92s.15-1.37,.46-1.92c.3-.56,.72-.99,1.25-1.31s1.13-.48,1.79-.48,1.26,.15,1.79,.46,.94,.74,1.25,1.29c.3,.56,.46,1.2,.46,1.92,0,.03,0,.06,0,.09,0,.03,0,.07,0,.1h-6.46v-.55h6.08l-.28,.27c0-.57-.11-1.08-.36-1.53-.25-.45-.58-.81-1-1.06s-.91-.39-1.46-.39-1.02,.13-1.45,.39-.76,.61-1,1.06c-.24,.45-.36,.97-.36,1.55v.13c0,.6,.13,1.13,.4,1.59,.27,.46,.63,.82,1.1,1.08,.47,.26,1,.38,1.6,.38,.47,0,.9-.08,1.31-.25,.41-.17,.75-.42,1.03-.77l.41,.46c-.32,.39-.72,.69-1.2,.89-.48,.2-1,.3-1.56,.3Z" style="fill: #01426a;"/>
    <path d="M22.76,118.22c-.69,0-1.31-.15-1.86-.46-.55-.3-.98-.72-1.3-1.26-.32-.54-.48-1.15-.48-1.84s.16-1.32,.48-1.85c.32-.53,.76-.95,1.3-1.25,.55-.3,1.16-.45,1.86-.45s1.26,.14,1.78,.43,.95,.69,1.25,1.22c.31,.53,.46,1.16,.46,1.9s-.15,1.36-.46,1.89c-.31,.53-.73,.94-1.25,1.23s-1.12,.43-1.78,.43Zm.2,3.04c-.66,0-1.29-.1-1.89-.31-.6-.21-1.08-.49-1.46-.85l.38-.53c.36,.34,.8,.6,1.31,.78s1.06,.28,1.65,.28c.98,0,1.7-.23,2.16-.69,.46-.46,.69-1.18,.69-2.16v-2.03l.14-1.09-.11-1.09v-2.39h.67v6.52c0,1.22-.3,2.12-.89,2.7-.59,.57-1.48,.86-2.65,.86Zm-.14-3.67c.59,0,1.11-.12,1.55-.37,.45-.25,.8-.59,1.06-1.04,.26-.44,.38-.95,.38-1.52s-.13-1.09-.38-1.53c-.26-.44-.61-.78-1.06-1.02-.45-.24-.97-.36-1.55-.36s-1.08,.12-1.53,.36c-.45,.24-.81,.58-1.06,1.02-.26,.44-.39,.95-.39,1.53s.13,1.08,.39,1.52c.26,.44,.61,.79,1.06,1.04,.45,.25,.96,.37,1.53,.37Z" style="fill: #01426a;"/>
    <path d="M29.81,109.4c-.16,0-.29-.06-.41-.17-.11-.11-.17-.24-.17-.39,0-.16,.06-.29,.17-.41,.11-.11,.25-.17,.41-.17,.17,0,.31,.05,.41,.16s.16,.24,.16,.4-.05,.29-.16,.41c-.11,.11-.25,.17-.41,.17Zm-.35,9.09v-7.31h.7v7.31h-.7Z" style="fill: #01426a;"/>
    <path d="M34.96,118.54c-.61,0-1.17-.09-1.7-.27-.53-.18-.94-.4-1.22-.67l.32-.56c.28,.24,.65,.45,1.12,.62s.97,.26,1.51,.26c.77,0,1.32-.13,1.65-.38s.5-.58,.5-.99c0-.3-.09-.53-.26-.71-.17-.17-.4-.31-.69-.4-.29-.09-.61-.17-.95-.23-.34-.06-.69-.13-1.04-.2-.35-.07-.66-.18-.95-.32-.29-.14-.52-.33-.69-.58-.17-.25-.26-.58-.26-.99,0-.37,.1-.71,.31-1.01,.21-.3,.51-.54,.92-.72,.41-.18,.92-.27,1.54-.27,.46,0,.92,.06,1.38,.2s.84,.3,1.13,.52l-.32,.56c-.31-.23-.65-.4-1.04-.5-.38-.1-.77-.15-1.16-.15-.71,0-1.23,.13-1.56,.39-.33,.26-.5,.59-.5,.98,0,.31,.09,.55,.26,.73s.4,.32,.69,.42,.61,.18,.95,.24c.35,.06,.69,.13,1.04,.2,.34,.07,.66,.18,.95,.31,.29,.14,.52,.32,.69,.56,.17,.24,.26,.56,.26,.96s-.11,.75-.33,1.05-.54,.53-.97,.7-.96,.25-1.58,.25Z" style="fill: #01426a;"/>
    <path d="M38.6,111.78v-.6h4.37v.6h-4.37Zm3.33,6.76c-.64,0-1.14-.18-1.48-.53s-.51-.84-.51-1.46v-6.97h.7v6.9c0,.47,.12,.83,.35,1.08s.57,.38,1.01,.38,.83-.14,1.13-.41l.29,.49c-.19,.18-.41,.31-.68,.39s-.54,.13-.82,.13Z" style="fill: #01426a;"/>
    <path d="M45.38,118.49v-7.31h.67v2l-.07-.22c.21-.59,.55-1.04,1.04-1.36,.48-.32,1.09-.48,1.82-.48v.69s-.06,0-.08,0-.06,0-.08,0c-.81,0-1.45,.25-1.9,.76-.46,.51-.69,1.22-.69,2.12v3.81h-.7Z" style="fill: #01426a;"/>
    <path d="M52.87,118.54c-.54,0-1.01-.09-1.41-.26-.4-.17-.7-.42-.91-.73-.21-.32-.32-.68-.32-1.09,0-.37,.09-.71,.26-1.02,.17-.3,.46-.55,.86-.74,.4-.19,.94-.29,1.61-.29h2.69v.55h-2.67c-.76,0-1.29,.14-1.59,.42-.3,.28-.46,.63-.46,1.05,0,.47,.18,.84,.53,1.12,.36,.28,.85,.42,1.5,.42s1.14-.14,1.56-.42,.74-.69,.94-1.22l.2,.48c-.2,.53-.53,.96-1,1.27s-1.07,.47-1.8,.47Zm2.63-.06v-1.67l-.03-.25v-2.74c0-.68-.18-1.2-.55-1.55-.37-.36-.91-.53-1.62-.53-.5,0-.97,.09-1.41,.26-.43,.17-.8,.39-1.11,.66l-.35-.5c.36-.33,.8-.58,1.32-.76,.51-.18,1.05-.27,1.61-.27,.9,0,1.6,.23,2.09,.69,.48,.46,.73,1.14,.73,2.04v4.63h-.67Z" style="fill: #01426a;"/>
    <path d="M61.87,118.54c-.68,0-1.29-.16-1.84-.47-.54-.31-.98-.75-1.29-1.31-.32-.56-.48-1.2-.48-1.93s.16-1.38,.48-1.94c.32-.56,.75-.99,1.29-1.3,.55-.31,1.16-.47,1.84-.47,.64,0,1.22,.15,1.74,.45,.52,.3,.93,.72,1.23,1.27,.3,.55,.46,1.21,.46,1.99s-.15,1.41-.45,1.97-.71,.99-1.22,1.29c-.52,.3-1.1,.45-1.76,.45Zm.04-.63c.56,0,1.06-.13,1.51-.38,.44-.26,.79-.62,1.05-1.08s.38-1,.38-1.61-.13-1.16-.38-1.62-.61-.82-1.05-1.08-.95-.38-1.51-.38-1.06,.13-1.5,.38-.79,.62-1.05,1.08c-.26,.46-.38,1-.38,1.62s.13,1.14,.38,1.61c.26,.47,.61,.83,1.05,1.08,.44,.26,.94,.38,1.5,.38Zm2.96,.57v-2.39l.12-1.27-.14-1.27v-5.45h.7v10.39h-.69Z" style="fill: #01426a;"/>
    <path d="M71.36,118.54c-.7,0-1.32-.16-1.87-.48-.55-.32-.98-.76-1.3-1.32s-.48-1.2-.48-1.92,.16-1.37,.48-1.92c.32-.56,.76-.99,1.3-1.31,.54-.32,1.17-.48,1.87-.48s1.33,.16,1.88,.48,.98,.75,1.3,1.31c.32,.55,.48,1.2,.48,1.92s-.16,1.36-.48,1.92c-.32,.56-.75,1-1.3,1.32-.55,.32-1.18,.48-1.88,.48Zm0-.63c.56,0,1.06-.13,1.51-.38,.45-.26,.8-.62,1.05-1.08s.38-1,.38-1.61-.13-1.16-.38-1.62-.6-.82-1.05-1.08c-.45-.26-.95-.38-1.51-.38s-1.06,.13-1.5,.38-.79,.62-1.05,1.08-.39,1-.39,1.62,.13,1.14,.39,1.61,.61,.83,1.05,1.08c.44,.26,.95,.38,1.5,.38Z" style="fill: #01426a;"/>
  </g>
  <g>
    <path d="M114.38,298.04c-1.01,0-1.95-.17-2.8-.5s-1.6-.81-2.22-1.42-1.12-1.33-1.47-2.16c-.36-.82-.53-1.73-.53-2.72s.18-1.89,.53-2.72c.35-.82,.85-1.54,1.48-2.16s1.38-1.09,2.23-1.43c.85-.33,1.79-.5,2.8-.5s1.97,.17,2.84,.52c.87,.35,1.61,.87,2.21,1.55l-1.23,1.2c-.51-.53-1.08-.93-1.71-1.19-.63-.26-1.31-.39-2.03-.39s-1.44,.13-2.08,.38c-.64,.25-1.19,.61-1.66,1.06-.47,.46-.83,1-1.09,1.62-.26,.63-.39,1.31-.39,2.04s.13,1.42,.39,2.04c.26,.63,.62,1.17,1.09,1.62,.47,.46,1.02,.81,1.66,1.06,.64,.25,1.33,.38,2.08,.38s1.4-.13,2.03-.39c.63-.26,1.2-.66,1.71-1.21l1.23,1.2c-.61,.68-1.35,1.2-2.21,1.56-.87,.35-1.82,.53-2.86,.53Z" style="fill: #01426a;"/>
    <path d="M126.21,298c-1,0-1.9-.22-2.69-.66-.79-.44-1.42-1.05-1.87-1.83s-.68-1.66-.68-2.65,.23-1.88,.68-2.65c.46-.77,1.08-1.37,1.86-1.81s1.68-.67,2.7-.67,1.9,.22,2.69,.66c.79,.44,1.41,1.04,1.86,1.81,.45,.77,.67,1.66,.67,2.66s-.23,1.89-.67,2.66c-.45,.77-1.07,1.38-1.86,1.82-.79,.44-1.69,.66-2.69,.66Zm0-1.6c.65,0,1.23-.14,1.74-.44,.51-.29,.92-.71,1.21-1.25,.29-.54,.44-1.16,.44-1.87s-.15-1.35-.44-1.87-.69-.93-1.21-1.23c-.51-.29-1.09-.44-1.74-.44s-1.22,.14-1.73,.44c-.51,.29-.91,.7-1.22,1.23s-.46,1.15-.46,1.87,.15,1.33,.46,1.87c.3,.54,.71,.95,1.22,1.25,.51,.29,1.08,.44,1.73,.44Z" style="fill: #01426a;"/>
    <path d="M139.34,287.72c.82,0,1.55,.16,2.18,.48s1.12,.8,1.47,1.44,.53,1.46,.53,2.45v5.79h-1.82v-5.59c0-.97-.24-1.71-.71-2.2-.48-.49-1.14-.74-2-.74-.65,0-1.21,.13-1.69,.38-.48,.25-.85,.63-1.11,1.12-.26,.49-.39,1.11-.39,1.84v5.19h-1.82v-10.07h1.75v2.72l-.29-.72c.33-.66,.84-1.17,1.52-1.54,.68-.37,1.48-.55,2.39-.55Z" style="fill: #01426a;"/>
    <path d="M145.46,289.32v-1.5h6.42v1.5h-6.42Zm4.9,8.68c-1.01,0-1.8-.27-2.36-.82-.56-.54-.84-1.32-.84-2.34v-9.23h1.82v9.16c0,.54,.14,.96,.41,1.25,.27,.29,.66,.44,1.17,.44,.57,0,1.04-.16,1.42-.48l.57,1.31c-.28,.24-.61,.42-1,.53-.39,.11-.79,.17-1.21,.17Z" style="fill: #01426a;"/>
    <path d="M155.68,285.88c-.35,0-.65-.11-.88-.34-.23-.23-.35-.51-.35-.84s.12-.63,.35-.86,.53-.34,.88-.34,.65,.11,.88,.33c.23,.22,.35,.5,.35,.83s-.11,.63-.34,.87-.53,.35-.89,.35Zm-.91,12.01v-10.07h1.82v10.07h-1.82Z" style="fill: #01426a;"/>
    <path d="M165.45,287.72c.82,0,1.55,.16,2.18,.48s1.12,.8,1.47,1.44,.53,1.46,.53,2.45v5.79h-1.82v-5.59c0-.97-.24-1.71-.71-2.2-.48-.49-1.14-.74-2-.74-.65,0-1.21,.13-1.69,.38-.48,.25-.85,.63-1.11,1.12-.26,.49-.39,1.11-.39,1.84v5.19h-1.82v-10.07h1.75v2.72l-.29-.72c.33-.66,.84-1.17,1.52-1.54,.68-.37,1.48-.55,2.39-.55Z" style="fill: #01426a;"/>
    <path d="M177.25,298c-.86,0-1.62-.16-2.27-.47s-1.16-.8-1.52-1.45c-.36-.65-.54-1.47-.54-2.46v-5.79h1.82v5.59c0,.99,.24,1.73,.71,2.22,.47,.49,1.14,.74,2,.74,.63,0,1.19-.13,1.65-.39,.47-.26,.83-.64,1.08-1.14,.25-.5,.38-1.11,.38-1.81v-5.21h1.82v10.07h-1.73v-2.72l.28,.72c-.33,.67-.82,1.19-1.48,1.56-.66,.37-1.4,.55-2.22,.55Z" style="fill: #01426a;"/>
    <path d="M188.82,298c-.75,0-1.4-.13-1.97-.38-.56-.25-1-.61-1.3-1.05-.3-.45-.46-.96-.46-1.53s.13-1.04,.39-1.48,.68-.8,1.27-1.06c.59-.27,1.38-.4,2.38-.4h3.19v1.31h-3.12c-.91,0-1.53,.15-1.84,.46-.32,.3-.47,.67-.47,1.1,0,.49,.2,.89,.59,1.19,.39,.3,.94,.45,1.63,.45s1.28-.15,1.8-.46c.51-.3,.88-.75,1.11-1.33l.36,1.25c-.24,.6-.67,1.07-1.27,1.42-.61,.35-1.38,.52-2.3,.52Zm3.31-.11v-2.13l-.09-.4v-3.63c0-.77-.22-1.37-.67-1.79-.45-.42-1.12-.64-2.02-.64-.6,0-1.18,.1-1.75,.29-.57,.2-1.05,.46-1.44,.79l-.76-1.37c.52-.42,1.14-.74,1.87-.96,.73-.22,1.49-.33,2.29-.33,1.38,0,2.45,.34,3.19,1.01,.75,.67,1.12,1.7,1.12,3.08v6.08h-1.73Z" style="fill: #01426a;"/>
    <path d="M197.24,297.89v-10.07h1.75v2.74l-.17-.68c.28-.7,.75-1.23,1.41-1.6,.66-.37,1.47-.55,2.43-.55v1.77c-.08-.01-.15-.02-.22-.02h-.2c-.98,0-1.75,.29-2.32,.87-.57,.58-.86,1.42-.86,2.53v5.02h-1.82Z" style="fill: #01426a;"/>
  </g>
  <g>
    <path d="M115.21,348.89v-12.6h4.91c1.1,0,2.05,.17,2.83,.52,.78,.35,1.38,.85,1.8,1.51,.42,.66,.63,1.45,.63,2.36s-.21,1.7-.63,2.35c-.42,.65-1.02,1.16-1.8,1.5-.78,.35-1.72,.52-2.83,.52h-3.92l.81-.83v4.66h-1.8Zm1.8-4.48l-.81-.88h3.87c1.15,0,2.02-.25,2.62-.75,.59-.5,.89-1.2,.89-2.1s-.3-1.6-.89-2.09c-.59-.49-1.47-.74-2.62-.74h-3.87l.81-.9v7.45Zm6.62,4.48l-3.2-4.57h1.93l3.24,4.57h-1.96Z" style="fill: #939393;"/>
    <path d="M132.29,349c-1.02,0-1.92-.21-2.69-.63-.77-.42-1.37-1-1.8-1.73s-.64-1.57-.64-2.52,.21-1.79,.62-2.52,.98-1.31,1.71-1.72c.73-.41,1.54-.62,2.46-.62s1.74,.2,2.45,.61c.71,.41,1.26,.98,1.67,1.72,.4,.74,.6,1.6,.6,2.58,0,.07,0,.16,0,.25,0,.1-.02,.19-.03,.27h-8.12v-1.24h7.22l-.7,.43c.01-.61-.11-1.16-.38-1.64-.26-.48-.63-.85-1.09-1.12-.46-.27-1-.4-1.61-.4s-1.13,.13-1.6,.4c-.47,.27-.83,.65-1.1,1.13s-.4,1.04-.4,1.67v.29c0,.64,.15,1.2,.44,1.7s.71,.88,1.23,1.16c.53,.28,1.13,.41,1.82,.41,.56,0,1.08-.1,1.54-.29,.46-.19,.87-.48,1.21-.87l.95,1.12c-.43,.5-.97,.89-1.61,1.15-.64,.26-1.36,.4-2.15,.4Z" style="fill: #939393;"/>
    <path d="M143.02,348.49c-.92,0-1.75-.19-2.47-.58-.73-.39-1.3-.93-1.73-1.63-.43-.7-.64-1.5-.64-2.41s.21-1.73,.64-2.42c.43-.69,1-1.23,1.73-1.61,.73-.38,1.55-.58,2.47-.58,.82,0,1.56,.17,2.23,.5,.67,.33,1.21,.84,1.61,1.52,.4,.68,.6,1.55,.6,2.59s-.2,1.89-.6,2.57c-.4,.68-.94,1.2-1.61,1.54-.67,.34-1.42,.51-2.23,.51Zm.22,4c-.88,0-1.72-.12-2.55-.37s-1.49-.6-2.01-1.05l.83-1.33c.44,.38,.99,.69,1.64,.91,.65,.22,1.33,.33,2.03,.33,1.13,0,1.96-.26,2.48-.79,.53-.53,.79-1.33,.79-2.41v-2.02l.18-1.89-.09-1.91v-2.61h1.64v8.24c0,1.68-.42,2.92-1.26,3.71s-2.07,1.19-3.69,1.19Zm-.02-5.51c.64,0,1.2-.13,1.69-.4,.49-.26,.88-.63,1.16-1.1,.28-.47,.42-1.01,.42-1.62s-.14-1.15-.42-1.62c-.28-.47-.67-.83-1.16-1.09s-1.06-.39-1.69-.39-1.2,.13-1.7,.39-.89,.62-1.17,1.09c-.28,.47-.42,1.01-.42,1.62s.14,1.15,.42,1.62c.28,.47,.67,.83,1.17,1.1,.5,.26,1.06,.4,1.7,.4Z" style="fill: #939393;"/>
    <path d="M151.48,348.89v-9.54h1.66v2.59l-.16-.65c.26-.66,.71-1.16,1.33-1.51,.62-.35,1.39-.52,2.3-.52v1.67c-.07-.01-.14-.02-.21-.02h-.19c-.92,0-1.66,.28-2.2,.83-.54,.55-.81,1.35-.81,2.39v4.75h-1.73Z" style="fill: #939393;"/>
    <path d="M163.11,349c-1.02,0-1.92-.21-2.69-.63-.77-.42-1.37-1-1.8-1.73s-.64-1.57-.64-2.52,.21-1.79,.62-2.52,.98-1.31,1.71-1.72c.73-.41,1.54-.62,2.46-.62s1.74,.2,2.45,.61c.71,.41,1.26,.98,1.67,1.72,.4,.74,.6,1.6,.6,2.58,0,.07,0,.16,0,.25,0,.1-.02,.19-.03,.27h-8.12v-1.24h7.22l-.7,.43c.01-.61-.11-1.16-.38-1.64-.26-.48-.63-.85-1.09-1.12-.46-.27-1-.4-1.61-.4s-1.13,.13-1.6,.4c-.47,.27-.83,.65-1.1,1.13s-.4,1.04-.4,1.67v.29c0,.64,.15,1.2,.44,1.7s.71,.88,1.23,1.16c.53,.28,1.13,.41,1.82,.41,.56,0,1.08-.1,1.54-.29,.46-.19,.87-.48,1.21-.87l.95,1.12c-.43,.5-.97,.89-1.61,1.15-.64,.26-1.36,.4-2.15,.4Z" style="fill: #939393;"/>
    <path d="M172.61,349c-.79,0-1.54-.11-2.26-.32s-1.28-.48-1.68-.79l.72-1.37c.41,.28,.91,.51,1.51,.7s1.21,.29,1.84,.29c.8,0,1.38-.11,1.74-.34,.35-.23,.53-.54,.53-.95,0-.3-.11-.53-.32-.7s-.5-.29-.86-.38c-.35-.08-.75-.16-1.18-.22-.43-.07-.86-.15-1.3-.25-.43-.1-.83-.25-1.19-.43-.36-.19-.65-.44-.86-.77s-.32-.77-.32-1.32,.16-1.08,.49-1.51c.32-.43,.78-.77,1.38-1,.59-.23,1.3-.35,2.11-.35,.62,0,1.26,.08,1.9,.23,.64,.15,1.17,.36,1.58,.64l-.74,1.37c-.43-.29-.88-.49-1.35-.59-.47-.11-.94-.16-1.4-.16-.76,0-1.32,.12-1.69,.37s-.56,.56-.56,.95c0,.32,.11,.57,.33,.75,.22,.17,.51,.31,.86,.41,.35,.1,.75,.18,1.18,.24,.43,.07,.86,.15,1.3,.25,.43,.1,.83,.24,1.18,.42,.35,.18,.64,.43,.86,.76s.33,.76,.33,1.3c0,.58-.17,1.07-.5,1.49-.34,.42-.81,.75-1.42,.98-.61,.23-1.34,.35-2.2,.35Z" style="fill: #939393;"/>
    <path d="M181.68,349c-.71,0-1.33-.12-1.86-.36-.53-.24-.95-.57-1.23-1-.29-.43-.43-.91-.43-1.45s.12-.98,.37-1.4c.25-.42,.65-.76,1.21-1.01,.56-.25,1.31-.38,2.26-.38h3.02v1.24h-2.95c-.86,0-1.45,.14-1.75,.43-.3,.29-.45,.64-.45,1.04,0,.47,.19,.84,.56,1.12,.37,.28,.89,.42,1.55,.42s1.22-.14,1.7-.43c.49-.29,.84-.71,1.05-1.26l.34,1.19c-.23,.56-.63,1.01-1.21,1.34s-1.3,.49-2.18,.49Zm3.13-.11v-2.02l-.09-.38v-3.44c0-.73-.21-1.3-.64-1.7s-1.06-.6-1.92-.6c-.56,0-1.12,.09-1.66,.28-.54,.19-1,.44-1.37,.75l-.72-1.3c.49-.4,1.08-.7,1.77-.91,.69-.21,1.41-.32,2.17-.32,1.31,0,2.32,.32,3.02,.95,.71,.64,1.06,1.61,1.06,2.92v5.76h-1.64Z" style="fill: #939393;"/>
    <path d="M189.66,348.89v-9.54h1.66v2.59l-.16-.65c.26-.66,.71-1.16,1.33-1.51,.62-.35,1.39-.52,2.3-.52v1.67c-.07-.01-.14-.02-.21-.02h-.19c-.92,0-1.66,.28-2.2,.83-.54,.55-.81,1.35-.81,2.39v4.75h-1.73Z" style="fill: #939393;"/>
  </g>
  <path d="M23,187v-8h12v-2h-14v12h14v-2h-12Zm18-10v2h2v8h-2v2h4v-12h-4Zm-2,12.3c0,1.7,1.36,1.62,2,1.7v1h-6v-1c.64-.08,2,0,2-1.7v-12.6c0-1.7-1.36-1.62-2-1.7v-1h6v1c-.64,.08-2,0-2,1.7v12.6Zm-11-6.37c0,.55-.45,1-1,1s-1-.45-1-1,.45-1,1-1,1,.45,1,1Zm4,0c0,.55-.45,1-1,1s-1-.45-1-1,.45-1,1-1,1,.45,1,1Z" style="fill: #0a486f;"/>
</svg>