<?xml version="1.0" encoding="UTF-8"?>
<svg id="Layer_1" data-name="Layer 1" xmlns="http://www.w3.org/2000/svg" viewBox="0 0 310 500">
  <g>
    <path d="M4,43.02V23.47H12.57c2.08,0,3.93,.41,5.54,1.21,1.61,.81,2.86,1.95,3.76,3.42s1.34,3.18,1.34,5.14-.45,3.67-1.34,5.14c-.89,1.47-2.15,2.61-3.76,3.42-1.61,.81-3.46,1.21-5.54,1.21H4Zm3.63-3.07h4.72c1.47,0,2.74-.28,3.81-.84s1.91-1.34,2.51-2.35c.6-1.01,.91-2.18,.91-3.52s-.3-2.56-.91-3.55c-.61-.99-1.44-1.76-2.51-2.32s-2.34-.84-3.81-.84H7.63v13.4Z" style="fill: #0a486f;"/>
    <path d="M28.49,25.65c-.65,0-1.19-.2-1.61-.61-.42-.41-.63-.91-.63-1.51,0-.56,.21-1.04,.63-1.45s.95-.61,1.61-.61,1.19,.19,1.61,.57c.42,.38,.63,.87,.63,1.47s-.21,1.1-.61,1.52c-.41,.42-.95,.63-1.62,.63Zm-1.73,17.37v-14.91h3.46v14.91h-3.46Z" style="fill: #0a486f;"/>
    <path d="M34.85,43.02V22.3h3.46v20.72h-3.46Z" style="fill: #0a486f;"/>
    <path d="M49.93,43.21c-1.66,0-3.1-.33-4.34-.99-1.24-.66-2.2-1.56-2.88-2.71-.68-1.15-1.02-2.46-1.02-3.95s.33-2.81,.99-3.95c.66-1.14,1.57-2.05,2.74-2.71,1.16-.66,2.49-.99,3.98-.99s2.75,.32,3.88,.96,2.03,1.54,2.68,2.7,.98,2.52,.98,4.1c0,.13,0,.29-.01,.49,0,.2-.02,.37-.04,.52h-12.43v-2.32h10.58l-1.4,.73c.02-.84-.15-1.59-.52-2.25-.36-.66-.86-1.17-1.49-1.54s-1.38-.54-2.23-.54-1.59,.18-2.25,.54-1.17,.88-1.52,1.55c-.35,.67-.53,1.44-.53,2.32v.56c0,.89,.2,1.69,.6,2.37,.4,.69,.97,1.22,1.72,1.61,.74,.38,1.61,.57,2.6,.57,.84,0,1.59-.14,2.26-.42,.67-.28,1.27-.69,1.79-1.23l1.9,2.18c-.69,.78-1.54,1.38-2.55,1.79-1.02,.41-2.17,.62-3.48,.62Z" style="fill: #0a486f;"/>
    <path d="M72.47,43.21c-1.12,0-2.09-.19-2.93-.57-.84-.38-1.48-.91-1.94-1.59s-.68-1.45-.68-2.3,.2-1.59,.6-2.26,1.06-1.2,1.97-1.59,2.12-.59,3.63-.59h4.33v2.32h-4.08c-1.17,0-1.97,.19-2.39,.57-.42,.38-.63,.86-.63,1.44,0,.61,.25,1.11,.75,1.48,.5,.37,1.2,.56,2.09,.56s1.62-.2,2.3-.59c.68-.39,1.18-.97,1.49-1.73l.56,2.09c-.33,.88-.93,1.55-1.79,2.04s-1.95,.73-3.29,.73Zm4.69-.2v-3.04l-.17-.61v-5.28c0-1.02-.31-1.82-.94-2.39-.62-.57-1.57-.85-2.83-.85-.82,0-1.63,.13-2.43,.39-.8,.26-1.49,.62-2.07,1.09l-1.37-2.54c.82-.61,1.78-1.08,2.88-1.4s2.24-.47,3.44-.47c2.18,0,3.85,.52,5.03,1.56,1.17,1.04,1.76,2.64,1.76,4.8v8.74h-3.29Z" style="fill: #0a486f;"/>
    <path d="M91.21,43.21c-1.43,0-2.72-.32-3.87-.95-1.15-.63-2.04-1.52-2.7-2.67-.65-1.14-.98-2.49-.98-4.04s.33-2.87,.98-4.02c.65-1.15,1.55-2.05,2.7-2.68,1.14-.63,2.43-.95,3.87-.95,1.25,0,2.36,.27,3.35,.82,.99,.55,1.77,1.39,2.35,2.51,.58,1.13,.87,2.57,.87,4.31s-.28,3.17-.84,4.3c-.56,1.14-1.33,1.98-2.3,2.53s-2.12,.82-3.42,.82Zm.42-2.96c.84,0,1.59-.19,2.25-.57,.66-.38,1.19-.93,1.59-1.65,.4-.72,.6-1.54,.6-2.47s-.2-1.77-.6-2.47c-.4-.7-.93-1.24-1.59-1.62s-1.41-.57-2.25-.57-1.59,.19-2.25,.57-1.19,.92-1.59,1.62c-.4,.7-.6,1.52-.6,2.47s.2,1.76,.6,2.47c.4,.72,.93,1.27,1.59,1.65,.66,.38,1.41,.57,2.25,.57Zm4.55,2.77v-3.52l.08-3.96-.28-3.96v-9.27h3.52v20.72h-3.32Z" style="fill: #0a486f;"/>
    <path d="M105.81,25.65c-.65,0-1.19-.2-1.61-.61-.42-.41-.63-.91-.63-1.51,0-.56,.21-1.04,.63-1.45s.95-.61,1.61-.61,1.19,.19,1.61,.57c.42,.38,.63,.87,.63,1.47s-.21,1.1-.61,1.52c-.41,.42-.95,.63-1.62,.63Zm-1.73,17.37v-14.91h3.46v14.91h-3.46Z" style="fill: #0a486f;"/>
    <path d="M118.85,43.21c-1.51,0-2.86-.33-4.06-.99-1.2-.66-2.15-1.57-2.83-2.72-.69-1.15-1.03-2.47-1.03-3.94s.34-2.83,1.03-3.96c.69-1.13,1.63-2.03,2.82-2.7,1.19-.66,2.55-.99,4.08-.99s2.92,.33,4.12,.99c1.2,.66,2.14,1.56,2.82,2.7,.68,1.14,1.02,2.46,1.02,3.96s-.34,2.81-1.02,3.95c-.68,1.14-1.62,2.05-2.83,2.71-1.21,.66-2.58,.99-4.11,.99Zm0-2.96c.86,0,1.62-.19,2.29-.57,.67-.38,1.2-.93,1.58-1.65,.38-.72,.57-1.54,.57-2.47s-.19-1.77-.57-2.47c-.38-.7-.91-1.24-1.58-1.62s-1.42-.57-2.26-.57-1.59,.19-2.26,.57c-.67,.38-1.2,.92-1.59,1.62-.39,.7-.59,1.52-.59,2.47s.2,1.76,.59,2.47c.39,.72,.92,1.27,1.59,1.65,.67,.38,1.42,.57,2.23,.57Zm-2.37-14.19l3.77-3.83h4.13l-4.89,3.83h-3.02Z" style="fill: #0a486f;"/>
    <path d="M134.8,43.21c-1.27,0-2.47-.16-3.6-.49s-2.05-.72-2.74-1.19l1.34-2.65c.67,.43,1.47,.78,2.4,1.05,.93,.27,1.87,.4,2.82,.4,1.08,0,1.87-.14,2.36-.43,.49-.29,.74-.68,.74-1.19,0-.41-.17-.72-.5-.94s-.77-.38-1.31-.49c-.54-.11-1.14-.21-1.8-.31-.66-.09-1.32-.22-1.98-.38s-1.26-.39-1.8-.7-.98-.72-1.31-1.24-.5-1.22-.5-2.09c0-.93,.27-1.75,.81-2.44,.54-.7,1.3-1.24,2.28-1.63s2.14-.59,3.48-.59c.99,0,2,.12,3.03,.35s1.89,.55,2.58,.96l-1.37,2.65c-.69-.41-1.4-.69-2.12-.85-.73-.16-1.44-.24-2.15-.24-1.04,0-1.83,.15-2.35,.46-.52,.31-.78,.7-.78,1.19,0,.45,.17,.78,.5,1s.77,.4,1.31,.52c.54,.12,1.14,.23,1.8,.34,.66,.1,1.32,.23,1.97,.39s1.25,.38,1.8,.67c.55,.29,.99,.69,1.33,1.21s.5,1.2,.5,2.04c0,.95-.27,1.76-.82,2.44-.55,.68-1.32,1.21-2.32,1.59-1,.38-2.19,.57-3.59,.57Z" style="fill: #0a486f;"/>
    <path d="M156.72,43.21c-1.12,0-2.09-.19-2.93-.57-.84-.38-1.48-.91-1.94-1.59s-.68-1.45-.68-2.3,.2-1.59,.6-2.26,1.06-1.2,1.97-1.59c.91-.39,2.12-.59,3.63-.59h4.33v2.32h-4.08c-1.17,0-1.97,.19-2.39,.57-.42,.38-.63,.86-.63,1.44,0,.61,.25,1.11,.75,1.48,.5,.37,1.2,.56,2.09,.56s1.62-.2,2.3-.59,1.18-.97,1.49-1.73l.56,2.09c-.33,.88-.93,1.55-1.79,2.04s-1.96,.73-3.29,.73Zm4.69-.2v-3.04l-.17-.61v-5.28c0-1.02-.31-1.82-.94-2.39s-1.57-.85-2.83-.85c-.82,0-1.63,.13-2.43,.39-.8,.26-1.49,.62-2.07,1.09l-1.37-2.54c.82-.61,1.78-1.08,2.88-1.4s2.24-.47,3.43-.47c2.18,0,3.85,.52,5.03,1.56,1.17,1.04,1.76,2.64,1.76,4.8v8.74h-3.29Z" style="fill: #0a486f;"/>
    <path d="M176.85,43.02V22.3h3.46v20.72h-3.46Z" style="fill: #0a486f;"/>
    <path d="M189.42,43.21c-1.12,0-2.09-.19-2.93-.57-.84-.38-1.48-.91-1.94-1.59-.46-.68-.68-1.45-.68-2.3s.2-1.59,.6-2.26,1.06-1.2,1.97-1.59,2.12-.59,3.63-.59h4.33v2.32h-4.08c-1.17,0-1.97,.19-2.39,.57-.42,.38-.63,.86-.63,1.44,0,.61,.25,1.11,.75,1.48,.5,.37,1.2,.56,2.09,.56s1.62-.2,2.3-.59,1.18-.97,1.49-1.73l.56,2.09c-.33,.88-.93,1.55-1.79,2.04s-1.96,.73-3.29,.73Zm4.69-.2v-3.04l-.17-.61v-5.28c0-1.02-.31-1.82-.94-2.39s-1.57-.85-2.83-.85c-.82,0-1.63,.13-2.43,.39-.8,.26-1.49,.62-2.07,1.09l-1.37-2.54c.82-.61,1.78-1.08,2.88-1.4s2.24-.47,3.43-.47c2.18,0,3.85,.52,5.03,1.56,1.17,1.04,1.76,2.64,1.76,4.8v8.74h-3.29Z" style="fill: #0a486f;"/>
    <path d="M206.48,43.21c-1.27,0-2.47-.16-3.6-.49-1.14-.33-2.05-.72-2.74-1.19l1.34-2.65c.67,.43,1.47,.78,2.4,1.05s1.87,.4,2.82,.4c1.08,0,1.87-.14,2.36-.43,.49-.29,.74-.68,.74-1.19,0-.41-.17-.72-.5-.94s-.77-.38-1.31-.49c-.54-.11-1.14-.21-1.8-.31-.66-.09-1.32-.22-1.98-.38s-1.26-.39-1.8-.7c-.54-.31-.98-.72-1.31-1.24s-.5-1.22-.5-2.09c0-.93,.27-1.75,.81-2.44,.54-.7,1.3-1.24,2.28-1.63s2.14-.59,3.48-.59c.99,0,2,.12,3.03,.35s1.89,.55,2.58,.96l-1.37,2.65c-.69-.41-1.4-.69-2.12-.85-.73-.16-1.44-.24-2.15-.24-1.04,0-1.82,.15-2.35,.46-.52,.31-.78,.7-.78,1.19,0,.45,.17,.78,.5,1,.34,.22,.77,.4,1.31,.52s1.14,.23,1.8,.34c.66,.1,1.32,.23,1.97,.39,.65,.16,1.25,.38,1.8,.67s.99,.69,1.33,1.21c.34,.52,.5,1.2,.5,2.04,0,.95-.27,1.76-.82,2.44-.55,.68-1.32,1.21-2.32,1.59-1,.38-2.19,.57-3.59,.57Z" style="fill: #0a486f;"/>
    <path d="M223.93,43.02V22.3h3.46v20.72h-3.46Z" style="fill: #0a486f;"/>
    <path d="M236.5,43.21c-1.12,0-2.09-.19-2.93-.57-.84-.38-1.48-.91-1.94-1.59-.46-.68-.68-1.45-.68-2.3s.2-1.59,.6-2.26,1.06-1.2,1.97-1.59,2.12-.59,3.63-.59h4.33v2.32h-4.08c-1.17,0-1.97,.19-2.39,.57-.42,.38-.63,.86-.63,1.44,0,.61,.25,1.11,.75,1.48,.5,.37,1.2,.56,2.09,.56s1.62-.2,2.3-.59,1.18-.97,1.49-1.73l.56,2.09c-.33,.88-.93,1.55-1.79,2.04s-1.96,.73-3.29,.73Zm4.69-.2v-3.04l-.17-.61v-5.28c0-1.02-.31-1.82-.94-2.39s-1.57-.85-2.83-.85c-.82,0-1.63,.13-2.43,.39-.8,.26-1.49,.62-2.07,1.09l-1.37-2.54c.82-.61,1.78-1.08,2.88-1.4s2.24-.47,3.43-.47c2.18,0,3.85,.52,5.03,1.56,1.17,1.04,1.76,2.64,1.76,4.8v8.74h-3.29Z" style="fill: #0a486f;"/>
    <path d="M248.95,43.02v-14.91h3.32v4.1l-.39-1.2c.43-1.01,1.13-1.77,2.09-2.3,.97-.53,2.15-.79,3.55-.79v3.32c-.13-.02-.26-.03-.39-.04-.13,0-.25-.01-.36-.01-1.34,0-2.4,.38-3.18,1.15-.78,.76-1.17,1.93-1.17,3.49v7.21h-3.46Z" style="fill: #0a486f;"/>
    <path d="M266.96,42.35c-1.43,0-2.72-.3-3.85-.91s-2.03-1.45-2.69-2.53c-.66-1.08-.99-2.34-.99-3.77s.33-2.72,.99-3.81c.66-1.09,1.56-1.93,2.69-2.53s2.42-.89,3.85-.89c1.27,0,2.41,.26,3.42,.77s1.82,1.3,2.42,2.36,.89,2.43,.89,4.11-.3,2.99-.89,4.05-1.4,1.85-2.42,2.37c-1.01,.52-2.15,.78-3.42,.78Zm.45,6.28c-1.4,0-2.74-.18-4.04-.54s-2.37-.9-3.23-1.61l1.56-2.6c.65,.54,1.47,.98,2.46,1.31,.99,.33,2.01,.5,3.07,.5,1.62,0,2.81-.38,3.58-1.13,.76-.75,1.14-1.89,1.14-3.42v-2.65l.28-3.35-.11-3.38v-3.66h3.32v12.65c0,2.7-.69,4.69-2.07,5.96s-3.37,1.91-5.98,1.91Zm.08-9.24c.88,0,1.66-.18,2.35-.54,.69-.36,1.22-.87,1.61-1.51s.57-1.37,.57-2.19-.19-1.6-.57-2.23-.92-1.13-1.61-1.48c-.69-.35-1.47-.53-2.35-.53s-1.66,.18-2.36,.53c-.7,.35-1.24,.85-1.62,1.48-.38,.63-.57,1.38-.57,2.23s.19,1.55,.57,2.19c.38,.64,.92,1.14,1.62,1.51,.7,.36,1.48,.54,2.36,.54Z" style="fill: #0a486f;"/>
    <path d="M284.53,43.21c-1.12,0-2.09-.19-2.93-.57-.84-.38-1.48-.91-1.94-1.59-.46-.68-.68-1.45-.68-2.3s.2-1.59,.6-2.26,1.06-1.2,1.97-1.59,2.12-.59,3.63-.59h4.33v2.32h-4.08c-1.17,0-1.97,.19-2.39,.57-.42,.38-.63,.86-.63,1.44,0,.61,.25,1.11,.75,1.48,.5,.37,1.2,.56,2.09,.56s1.62-.2,2.3-.59,1.18-.97,1.49-1.73l.56,2.09c-.33,.88-.93,1.55-1.79,2.04s-1.96,.73-3.29,.73Zm4.69-.2v-3.04l-.17-.61v-5.28c0-1.02-.31-1.82-.94-2.39s-1.57-.85-2.83-.85c-.82,0-1.63,.13-2.43,.39-.8,.26-1.49,.62-2.07,1.09l-1.37-2.54c.82-.61,1.78-1.08,2.88-1.4s2.24-.47,3.43-.47c2.18,0,3.85,.52,5.03,1.56,1.17,1.04,1.76,2.64,1.76,4.8v8.74h-3.29Z" style="fill: #0a486f;"/>
    <path d="M301.59,43.21c-1.27,0-2.47-.16-3.6-.49-1.14-.33-2.05-.72-2.74-1.19l1.34-2.65c.67,.43,1.47,.78,2.4,1.05s1.87,.4,2.82,.4c1.08,0,1.87-.14,2.36-.43,.49-.29,.74-.68,.74-1.19,0-.41-.17-.72-.5-.94s-.77-.38-1.31-.49c-.54-.11-1.14-.21-1.8-.31-.66-.09-1.32-.22-1.98-.38s-1.26-.39-1.8-.7c-.54-.31-.98-.72-1.31-1.24s-.5-1.22-.5-2.09c0-.93,.27-1.75,.81-2.44,.54-.7,1.3-1.24,2.28-1.63s2.14-.59,3.48-.59c.99,0,2,.12,3.03,.35s1.89,.55,2.58,.96l-1.37,2.65c-.69-.41-1.4-.69-2.12-.85-.73-.16-1.44-.24-2.15-.24-1.04,0-1.82,.15-2.35,.46-.52,.31-.78,.7-.78,1.19,0,.45,.17,.78,.5,1,.34,.22,.77,.4,1.31,.52s1.14,.23,1.8,.34c.66,.1,1.32,.23,1.97,.39,.65,.16,1.25,.38,1.8,.67s.99,.69,1.33,1.21c.34,.52,.5,1.2,.5,2.04,0,.95-.27,1.76-.82,2.44-.55,.68-1.32,1.21-2.32,1.59-1,.38-2.19,.57-3.59,.57Z" style="fill: #0a486f;"/>
    <path d="M1.68,64.52v-2.79H11.62v2.79H1.68Zm2.46,12.01v-15.72c0-1.58,.46-2.84,1.38-3.78,.92-.94,2.24-1.41,3.95-1.41,.62,0,1.2,.07,1.75,.2,.55,.13,1.01,.34,1.38,.61l-.98,2.6c-.24-.17-.53-.31-.87-.42s-.68-.17-1.03-.17c-.73,0-1.28,.2-1.65,.6-.37,.4-.56,.99-.56,1.77v1.73l.08,1.54v12.46h-3.46Zm11.7-17.37c-.65,0-1.19-.21-1.61-.62-.42-.41-.63-.91-.63-1.51,0-.56,.21-1.04,.63-1.45,.42-.41,.95-.62,1.61-.62s1.19,.19,1.61,.57c.42,.38,.63,.87,.63,1.47s-.21,1.1-.61,1.52c-.41,.42-.95,.63-1.62,.63Zm-1.73,17.37v-14.91h3.46v14.91h-3.46Z" style="fill: #0a486f;"/>
    <path d="M22.18,76.53v-20.72h3.46v20.72h-3.46Z" style="fill: #0a486f;"/>
    <path d="M34.74,76.72c-1.12,0-2.09-.19-2.93-.57-.84-.38-1.48-.91-1.94-1.59s-.68-1.45-.68-2.3,.2-1.59,.6-2.26c.4-.67,1.06-1.2,1.97-1.59,.91-.39,2.12-.59,3.63-.59h4.33v2.32h-4.08c-1.17,0-1.97,.19-2.39,.57-.42,.38-.63,.86-.63,1.44,0,.62,.25,1.11,.75,1.48,.5,.37,1.2,.56,2.09,.56s1.62-.2,2.3-.59c.68-.39,1.18-.97,1.49-1.73l.56,2.09c-.33,.88-.93,1.55-1.79,2.04-.86,.48-1.95,.73-3.29,.73Zm4.69-.2v-3.04l-.17-.61v-5.28c0-1.02-.31-1.82-.94-2.39-.62-.57-1.57-.85-2.83-.85-.82,0-1.63,.13-2.43,.39-.8,.26-1.49,.62-2.07,1.09l-1.37-2.54c.82-.62,1.78-1.08,2.88-1.4s2.24-.47,3.44-.47c2.18,0,3.85,.52,5.03,1.56,1.17,1.04,1.76,2.64,1.76,4.8v8.74h-3.29Z" style="fill: #0a486f;"/>
    <path d="M51.8,76.72c-1.27,0-2.47-.16-3.6-.49-1.14-.33-2.05-.72-2.74-1.19l1.34-2.65c.67,.43,1.47,.78,2.4,1.05,.93,.27,1.87,.41,2.82,.41,1.08,0,1.87-.14,2.36-.43,.49-.29,.74-.68,.74-1.19,0-.41-.17-.72-.5-.94-.34-.21-.77-.38-1.31-.49-.54-.11-1.14-.21-1.8-.31-.66-.09-1.32-.22-1.98-.38-.66-.16-1.26-.39-1.8-.7-.54-.31-.98-.72-1.31-1.24-.34-.52-.5-1.22-.5-2.09,0-.93,.27-1.75,.81-2.44s1.3-1.24,2.28-1.63c.98-.39,2.14-.59,3.48-.59,.99,0,2,.12,3.03,.35,1.03,.23,1.89,.55,2.58,.96l-1.37,2.65c-.69-.41-1.4-.69-2.12-.85s-1.44-.24-2.15-.24c-1.04,0-1.82,.15-2.35,.46s-.78,.7-.78,1.19c0,.45,.17,.78,.5,1.01,.33,.22,.77,.4,1.31,.52,.54,.12,1.14,.23,1.8,.34,.66,.1,1.32,.23,1.97,.39,.65,.16,1.25,.38,1.8,.67,.55,.29,.99,.69,1.33,1.21,.33,.52,.5,1.2,.5,2.04,0,.95-.28,1.76-.82,2.44s-1.32,1.21-2.32,1.59-2.19,.57-3.59,.57Z" style="fill: #0a486f;"/>
  </g>
  <rect x="1.5" y="389.5" width="307" height="50" rx="8" ry="8" style="fill: #ffc600;"/>
  <g>
    <path d="M114.38,422.04c-1.01,0-1.95-.17-2.8-.5-.85-.34-1.6-.81-2.22-1.42s-1.12-1.33-1.47-2.16c-.35-.82-.53-1.73-.53-2.72s.18-1.89,.53-2.72c.35-.82,.85-1.54,1.48-2.16,.63-.61,1.38-1.09,2.23-1.43,.85-.33,1.79-.5,2.8-.5s1.97,.17,2.84,.52c.87,.35,1.61,.87,2.21,1.55l-1.24,1.2c-.51-.53-1.08-.93-1.71-1.19-.63-.26-1.31-.39-2.03-.39s-1.44,.13-2.08,.38-1.19,.61-1.66,1.06c-.47,.46-.83,1-1.09,1.62-.26,.63-.39,1.31-.39,2.04s.13,1.42,.39,2.04c.26,.63,.62,1.17,1.09,1.62,.47,.46,1.02,.81,1.66,1.06s1.33,.38,2.08,.38,1.4-.13,2.03-.39c.63-.26,1.2-.66,1.71-1.21l1.24,1.2c-.61,.68-1.35,1.2-2.21,1.56-.87,.35-1.82,.53-2.86,.53Z" style="fill: #01426a;"/>
    <path d="M126.22,422c-1,0-1.9-.22-2.69-.66-.79-.44-1.42-1.05-1.87-1.83s-.68-1.66-.68-2.65,.23-1.88,.68-2.65c.46-.77,1.08-1.37,1.86-1.81s1.68-.67,2.7-.67,1.9,.22,2.69,.66c.79,.44,1.41,1.04,1.86,1.81,.45,.77,.67,1.66,.67,2.66s-.22,1.89-.67,2.66c-.45,.77-1.07,1.38-1.86,1.82-.79,.44-1.69,.66-2.69,.66Zm0-1.6c.65,0,1.23-.14,1.74-.44s.92-.71,1.21-1.25c.29-.54,.44-1.16,.44-1.87s-.15-1.35-.44-1.87c-.29-.53-.69-.93-1.21-1.23s-1.09-.44-1.74-.44-1.22,.14-1.73,.44-.91,.7-1.22,1.23-.46,1.15-.46,1.87,.15,1.33,.46,1.87c.3,.54,.71,.95,1.22,1.25s1.08,.44,1.73,.44Z" style="fill: #01426a;"/>
    <path d="M139.34,411.72c.82,0,1.55,.16,2.18,.48,.63,.32,1.12,.8,1.47,1.44s.53,1.46,.53,2.45v5.79h-1.82v-5.59c0-.97-.24-1.71-.71-2.2-.48-.49-1.14-.74-2-.74-.65,0-1.21,.13-1.69,.38-.48,.25-.85,.63-1.11,1.12-.26,.49-.39,1.11-.39,1.84v5.19h-1.82v-10.07h1.75v2.72l-.29-.72c.33-.66,.84-1.17,1.52-1.54,.68-.37,1.48-.55,2.39-.55Z" style="fill: #01426a;"/>
    <path d="M145.46,413.32v-1.5h6.42v1.5h-6.42Zm4.9,8.68c-1.01,0-1.8-.27-2.36-.82-.56-.54-.84-1.32-.84-2.34v-9.23h1.82v9.16c0,.54,.14,.96,.41,1.25,.27,.29,.66,.44,1.17,.44,.57,0,1.04-.16,1.42-.48l.57,1.31c-.28,.24-.61,.42-1,.53-.39,.11-.79,.17-1.21,.17Z" style="fill: #01426a;"/>
    <path d="M155.68,409.88c-.36,0-.65-.11-.88-.34-.23-.23-.35-.51-.35-.84s.12-.63,.35-.86,.53-.34,.88-.34,.65,.11,.88,.33c.23,.22,.35,.5,.35,.83s-.11,.63-.34,.87c-.23,.23-.53,.35-.89,.35Zm-.91,12.01v-10.07h1.82v10.07h-1.82Z" style="fill: #01426a;"/>
    <path d="M165.45,411.72c.82,0,1.55,.16,2.18,.48,.63,.32,1.12,.8,1.47,1.44s.53,1.46,.53,2.45v5.79h-1.82v-5.59c0-.97-.24-1.71-.71-2.2-.48-.49-1.14-.74-2-.74-.65,0-1.21,.13-1.69,.38-.48,.25-.85,.63-1.11,1.12-.26,.49-.39,1.11-.39,1.84v5.19h-1.82v-10.07h1.75v2.72l-.29-.72c.33-.66,.84-1.17,1.52-1.54,.68-.37,1.48-.55,2.39-.55Z" style="fill: #01426a;"/>
    <path d="M177.25,422c-.86,0-1.62-.16-2.27-.47s-1.16-.8-1.52-1.45c-.36-.65-.54-1.47-.54-2.46v-5.79h1.82v5.59c0,.99,.24,1.73,.71,2.22,.48,.49,1.14,.74,2,.74,.63,0,1.18-.13,1.65-.39,.47-.26,.83-.64,1.08-1.14,.25-.5,.38-1.11,.38-1.81v-5.21h1.82v10.07h-1.73v-2.72l.29,.72c-.33,.67-.82,1.19-1.48,1.56-.66,.37-1.4,.55-2.22,.55Z" style="fill: #01426a;"/>
    <path d="M188.82,422c-.75,0-1.4-.13-1.97-.38-.56-.25-1-.61-1.3-1.05s-.46-.96-.46-1.53,.13-1.04,.39-1.48,.68-.8,1.27-1.06c.59-.27,1.38-.4,2.38-.4h3.19v1.31h-3.12c-.91,0-1.53,.15-1.84,.46-.32,.3-.48,.67-.48,1.1,0,.49,.2,.89,.59,1.19,.39,.3,.94,.45,1.63,.45s1.28-.15,1.79-.46c.51-.3,.88-.75,1.11-1.33l.36,1.25c-.24,.6-.67,1.07-1.27,1.42-.61,.35-1.38,.52-2.3,.52Zm3.31-.11v-2.13l-.1-.4v-3.63c0-.77-.22-1.37-.67-1.79-.45-.42-1.12-.64-2.02-.64-.6,0-1.18,.1-1.75,.29-.57,.2-1.05,.46-1.44,.79l-.76-1.37c.52-.42,1.14-.74,1.87-.96,.73-.22,1.49-.33,2.29-.33,1.38,0,2.44,.34,3.19,1.01,.75,.67,1.12,1.7,1.12,3.08v6.08h-1.73Z" style="fill: #01426a;"/>
    <path d="M197.24,421.89v-10.07h1.75v2.74l-.17-.68c.28-.7,.75-1.23,1.41-1.6,.66-.37,1.47-.55,2.43-.55v1.77c-.08-.01-.15-.02-.22-.02h-.2c-.98,0-1.75,.29-2.32,.87-.57,.58-.86,1.42-.86,2.53v5.02h-1.82Z" style="fill: #01426a;"/>
  </g>
  <g>
    <path d="M32.26,119.89v-9.8h.71v9.8h-.71Z" style="fill: #555;"/>
    <path d="M39.74,112.53c.6,0,1.12,.11,1.56,.34,.44,.23,.79,.57,1.04,1.04,.25,.46,.37,1.03,.37,1.71v4.27h-.7v-4.21c0-.82-.21-1.45-.62-1.88-.42-.43-1-.64-1.74-.64-.57,0-1.06,.12-1.48,.35-.42,.23-.74,.56-.96,.98-.22,.42-.33,.92-.33,1.51v3.89h-.7v-7.31h.67v2.03l-.1-.22c.22-.58,.59-1.03,1.11-1.37,.51-.33,1.14-.5,1.89-.5Z" style="fill: #555;"/>
    <path d="M48.43,119.62c-.69,0-1.31-.15-1.85-.46-.55-.3-.98-.72-1.3-1.26-.32-.54-.48-1.15-.48-1.84s.16-1.32,.48-1.85c.32-.53,.76-.95,1.3-1.25,.55-.3,1.16-.45,1.85-.45s1.26,.14,1.78,.43c.53,.29,.95,.69,1.25,1.22,.31,.53,.46,1.16,.46,1.9s-.15,1.36-.46,1.89c-.31,.53-.73,.94-1.25,1.23-.53,.29-1.12,.43-1.78,.43Zm.2,3.04c-.66,0-1.29-.1-1.89-.31s-1.08-.49-1.46-.85l.38-.53c.36,.34,.8,.6,1.31,.78,.51,.19,1.06,.28,1.65,.28,.98,0,1.7-.23,2.16-.69,.46-.46,.69-1.18,.69-2.16v-2.03l.14-1.09-.11-1.09v-2.39h.67v6.52c0,1.22-.3,2.12-.89,2.7-.59,.57-1.48,.86-2.65,.86Zm-.14-3.67c.59,0,1.11-.12,1.55-.37,.45-.25,.8-.59,1.06-1.04,.26-.44,.38-.95,.38-1.52s-.13-1.09-.38-1.53c-.26-.44-.61-.78-1.06-1.02-.45-.24-.97-.36-1.55-.36s-1.08,.12-1.53,.36c-.45,.24-.81,.58-1.06,1.02-.26,.44-.39,.95-.39,1.53s.13,1.08,.39,1.52c.26,.44,.61,.79,1.06,1.04,.45,.25,.96,.37,1.53,.37Z" style="fill: #555;"/>
    <path d="M55.14,119.89v-7.31h.67v2l-.07-.22c.21-.59,.55-1.04,1.04-1.36,.49-.32,1.09-.47,1.82-.47v.69s-.06,0-.08,0c-.03,0-.06,0-.08,0-.81,0-1.45,.25-1.9,.76-.46,.51-.69,1.22-.69,2.12v3.81h-.7Z" style="fill: #555;"/>
    <path d="M63.62,119.95c-.74,0-1.39-.16-1.95-.48-.56-.32-1.01-.76-1.33-1.32-.32-.56-.48-1.2-.48-1.92s.15-1.37,.46-1.92c.3-.56,.72-.99,1.25-1.31,.53-.32,1.13-.47,1.79-.47s1.26,.15,1.79,.46c.53,.31,.94,.74,1.25,1.29,.3,.56,.46,1.2,.46,1.93,0,.03,0,.06,0,.09,0,.03,0,.07,0,.1h-6.45v-.55h6.08l-.28,.27c0-.57-.11-1.08-.36-1.53-.25-.45-.58-.81-1-1.06-.42-.26-.91-.38-1.46-.38s-1.02,.13-1.45,.38c-.42,.26-.76,.61-1,1.06s-.36,.97-.36,1.55v.13c0,.6,.13,1.13,.4,1.59s.63,.82,1.1,1.08c.47,.26,1,.38,1.6,.38,.47,0,.9-.08,1.31-.25,.41-.17,.75-.42,1.03-.77l.41,.46c-.32,.39-.72,.69-1.2,.89-.48,.2-1,.3-1.56,.3Z" style="fill: #555;"/>
    <path d="M70.86,119.95c-.61,0-1.17-.09-1.7-.27s-.94-.4-1.23-.67l.32-.56c.28,.24,.65,.45,1.12,.62,.47,.17,.97,.26,1.51,.26,.77,0,1.32-.12,1.65-.38,.34-.25,.5-.58,.5-.99,0-.3-.09-.54-.26-.71-.17-.17-.4-.31-.69-.4-.29-.09-.61-.17-.95-.23-.35-.06-.69-.13-1.04-.2-.35-.07-.66-.18-.95-.32-.29-.14-.52-.33-.69-.58-.17-.25-.26-.58-.26-.99,0-.37,.1-.71,.31-1.01,.21-.3,.51-.54,.92-.72,.41-.18,.92-.27,1.54-.27,.46,0,.92,.06,1.38,.2,.46,.13,.84,.3,1.13,.52l-.32,.56c-.31-.23-.65-.4-1.04-.5-.38-.1-.77-.15-1.16-.15-.71,0-1.23,.13-1.56,.39-.33,.26-.5,.59-.5,.98,0,.31,.09,.55,.26,.74,.17,.18,.4,.32,.69,.42,.29,.1,.61,.18,.95,.24s.69,.13,1.04,.2c.35,.07,.66,.18,.95,.31,.29,.13,.52,.32,.69,.56,.17,.24,.26,.56,.26,.96s-.11,.75-.33,1.05c-.22,.3-.54,.53-.97,.7-.43,.17-.96,.25-1.58,.25Z" style="fill: #555;"/>
    <path d="M77.68,119.95c-.54,0-1.01-.09-1.41-.26-.4-.17-.7-.42-.91-.73-.21-.32-.31-.68-.31-1.09,0-.37,.09-.71,.26-1.02s.46-.55,.86-.74,.94-.29,1.61-.29h2.69v.55h-2.67c-.76,0-1.29,.14-1.59,.42-.3,.28-.46,.63-.46,1.05,0,.47,.18,.84,.53,1.12,.35,.28,.85,.42,1.5,.42s1.14-.14,1.56-.42c.42-.28,.74-.69,.94-1.22l.2,.48c-.2,.53-.53,.95-1,1.27-.47,.31-1.07,.47-1.8,.47Zm2.63-.06v-1.67l-.03-.25v-2.74c0-.68-.18-1.2-.55-1.55s-.91-.53-1.62-.53c-.5,0-.97,.09-1.41,.26-.43,.17-.8,.39-1.11,.66l-.35-.5c.36-.33,.8-.58,1.32-.76,.51-.18,1.05-.27,1.61-.27,.9,0,1.6,.23,2.09,.69,.48,.46,.73,1.14,.73,2.04v4.63h-.67Z" style="fill: #555;"/>
    <path d="M90.43,119.95c-.74,0-1.39-.16-1.95-.48-.56-.32-1.01-.76-1.33-1.32-.32-.56-.48-1.2-.48-1.92s.15-1.37,.46-1.92c.3-.56,.72-.99,1.25-1.31,.53-.32,1.13-.47,1.79-.47s1.26,.15,1.79,.46c.53,.31,.94,.74,1.25,1.29,.3,.56,.46,1.2,.46,1.93,0,.03,0,.06,0,.09,0,.03,0,.07,0,.1h-6.45v-.55h6.08l-.28,.27c0-.57-.11-1.08-.36-1.53-.25-.45-.58-.81-1-1.06-.42-.26-.91-.38-1.46-.38s-1.02,.13-1.45,.38c-.42,.26-.76,.61-1,1.06s-.36,.97-.36,1.55v.13c0,.6,.13,1.13,.4,1.59s.63,.82,1.1,1.08c.47,.26,1,.38,1.6,.38,.47,0,.9-.08,1.31-.25,.41-.17,.75-.42,1.03-.77l.41,.46c-.32,.39-.72,.69-1.2,.89-.48,.2-1,.3-1.56,.3Z" style="fill: #555;"/>
    <path d="M95.82,119.89v-10.39h.7v10.39h-.7Z" style="fill: #555;"/>
    <path d="M112.17,112.53c.59,0,1.1,.11,1.53,.34,.43,.23,.77,.57,1.01,1.04,.24,.46,.36,1.03,.36,1.71v4.27h-.7v-4.21c0-.82-.2-1.45-.6-1.88s-.96-.64-1.68-.64c-.55,0-1.03,.12-1.43,.35s-.71,.56-.92,.98c-.21,.42-.32,.92-.32,1.51v3.89h-.7v-4.21c0-.82-.2-1.45-.6-1.88-.4-.43-.96-.64-1.68-.64-.55,0-1.03,.12-1.43,.35-.4,.23-.71,.56-.92,.98s-.32,.92-.32,1.51v3.89h-.7v-7.31h.67v2.02l-.1-.22c.21-.57,.57-1.02,1.08-1.35,.5-.33,1.11-.5,1.82-.5s1.34,.18,1.84,.55c.5,.37,.81,.92,.95,1.64l-.24-.1c.2-.62,.56-1.13,1.11-1.52,.54-.39,1.2-.58,1.97-.58Z" style="fill: #555;"/>
    <path d="M120.83,119.95c-.7,0-1.32-.16-1.87-.48-.55-.32-.98-.76-1.3-1.32-.32-.56-.48-1.2-.48-1.92s.16-1.37,.48-1.92c.32-.56,.76-.99,1.3-1.31,.55-.32,1.17-.47,1.87-.47s1.33,.16,1.88,.47c.55,.32,.98,.75,1.3,1.31s.48,1.2,.48,1.92-.16,1.36-.48,1.92c-.32,.56-.75,1-1.3,1.32s-1.18,.48-1.88,.48Zm0-.63c.56,0,1.06-.13,1.51-.38,.45-.26,.8-.62,1.05-1.08s.38-1,.38-1.61-.13-1.15-.38-1.62c-.25-.46-.6-.82-1.05-1.08-.45-.26-.95-.38-1.51-.38s-1.06,.13-1.5,.38c-.44,.26-.79,.62-1.05,1.08-.26,.46-.39,1-.39,1.62s.13,1.14,.39,1.61c.26,.47,.61,.83,1.05,1.08s.94,.38,1.5,.38Z" style="fill: #555;"/>
    <path d="M130.22,112.53c.6,0,1.12,.11,1.56,.34,.44,.23,.79,.57,1.04,1.04,.25,.46,.37,1.03,.37,1.71v4.27h-.7v-4.21c0-.82-.21-1.45-.62-1.88-.42-.43-1-.64-1.74-.64-.57,0-1.06,.12-1.48,.35s-.74,.56-.96,.98c-.22,.42-.33,.92-.33,1.51v3.89h-.7v-7.31h.67v2.03l-.1-.22c.22-.58,.59-1.03,1.11-1.37,.51-.33,1.14-.5,1.89-.5Z" style="fill: #555;"/>
    <path d="M134.87,113.18v-.6h4.37v.6h-4.37Zm3.33,6.76c-.64,0-1.14-.18-1.48-.53-.34-.35-.51-.84-.51-1.46v-6.97h.7v6.9c0,.47,.12,.83,.35,1.08s.57,.38,1.01,.38,.84-.14,1.13-.41l.29,.49c-.19,.18-.41,.31-.68,.39-.27,.08-.54,.13-.82,.13Z" style="fill: #555;"/>
    <path d="M144.5,119.95c-.7,0-1.32-.16-1.87-.48s-.98-.76-1.3-1.32c-.32-.56-.48-1.2-.48-1.92s.16-1.37,.48-1.92,.76-.99,1.3-1.31c.55-.32,1.17-.47,1.87-.47s1.33,.16,1.88,.47c.55,.32,.98,.75,1.3,1.31s.48,1.2,.48,1.92-.16,1.36-.48,1.92c-.32,.56-.75,1-1.3,1.32s-1.18,.48-1.88,.48Zm0-.63c.56,0,1.06-.13,1.51-.38,.45-.26,.8-.62,1.05-1.08s.38-1,.38-1.61-.13-1.15-.38-1.62c-.25-.46-.6-.82-1.05-1.08-.45-.26-.95-.38-1.51-.38s-1.06,.13-1.5,.38c-.44,.26-.79,.62-1.05,1.08-.26,.46-.38,1-.38,1.62s.13,1.14,.38,1.61,.61,.83,1.05,1.08,.95,.38,1.5,.38Z" style="fill: #555;"/>
    <path d="M156.74,119.95c-.68,0-1.29-.16-1.84-.47-.55-.31-.98-.75-1.29-1.31-.32-.56-.48-1.2-.48-1.93s.16-1.38,.48-1.94,.75-.99,1.29-1.3,1.16-.47,1.84-.47c.64,0,1.23,.15,1.74,.45s.93,.72,1.23,1.27c.3,.55,.45,1.21,.45,1.99s-.15,1.41-.45,1.97c-.3,.56-.71,.99-1.23,1.29-.52,.3-1.1,.45-1.76,.45Zm.04-.63c.56,0,1.06-.13,1.5-.38s.79-.62,1.05-1.08c.26-.47,.39-1,.39-1.61s-.13-1.15-.39-1.62c-.26-.46-.61-.82-1.05-1.08-.44-.26-.94-.38-1.5-.38s-1.06,.13-1.5,.38c-.44,.26-.79,.62-1.05,1.08-.26,.46-.38,1-.38,1.62s.13,1.14,.38,1.61,.61,.83,1.05,1.08,.95,.38,1.5,.38Zm2.95,.57v-2.39l.13-1.27-.14-1.27v-5.45h.7v10.39h-.69Z" style="fill: #555;"/>
    <path d="M166.34,119.95c-.74,0-1.39-.16-1.95-.48s-1.01-.76-1.33-1.32c-.32-.56-.48-1.2-.48-1.92s.15-1.37,.46-1.92c.3-.56,.72-.99,1.25-1.31,.53-.32,1.13-.47,1.79-.47s1.26,.15,1.79,.46c.53,.31,.94,.74,1.25,1.29,.3,.56,.46,1.2,.46,1.93,0,.03,0,.06,0,.09s0,.07,0,.1h-6.45v-.55h6.08l-.28,.27c0-.57-.11-1.08-.36-1.53-.25-.45-.58-.81-1-1.06-.42-.26-.91-.38-1.46-.38s-1.02,.13-1.45,.38c-.42,.26-.76,.61-1,1.06-.24,.45-.36,.97-.36,1.55v.13c0,.6,.13,1.13,.4,1.59,.27,.46,.63,.82,1.1,1.08s1,.38,1.6,.38c.47,0,.9-.08,1.31-.25,.41-.17,.75-.42,1.03-.77l.41,.46c-.32,.39-.72,.69-1.2,.89-.48,.2-1,.3-1.56,.3Z" style="fill: #555;"/>
    <path d="M174.12,113.18v-.6h4.37v.6h-4.37Zm3.33,6.76c-.64,0-1.14-.18-1.48-.53-.34-.35-.51-.84-.51-1.46v-6.97h.7v6.9c0,.47,.12,.83,.35,1.08s.57,.38,1.01,.38,.84-.14,1.13-.41l.29,.49c-.19,.18-.41,.31-.68,.39-.27,.08-.54,.13-.82,.13Z" style="fill: #555;"/>
    <path d="M183.87,119.95c-.63,0-1.17-.12-1.62-.34-.46-.23-.81-.57-1.06-1.04-.25-.46-.37-1.03-.37-1.71v-4.27h.7v4.21c0,.82,.21,1.45,.63,1.88,.42,.43,1.01,.64,1.78,.64,.55,0,1.03-.12,1.43-.35s.71-.56,.92-.99c.21-.42,.32-.93,.32-1.5v-3.89h.7v7.31h-.67v-2.03l.1,.24c-.21,.57-.57,1.02-1.07,1.35-.5,.33-1.09,.5-1.79,.5Z" style="fill: #555;"/>
    <path d="M193.86,122.6v-10.02h.67v2.39l-.11,1.27,.14,1.27v5.08h-.7Zm3.67-2.66c-.64,0-1.23-.15-1.74-.45-.52-.3-.93-.72-1.23-1.28-.3-.56-.46-1.22-.46-1.98s.15-1.43,.46-1.98c.3-.56,.71-.98,1.23-1.28,.52-.3,1.1-.45,1.74-.45,.69,0,1.31,.16,1.85,.47s.98,.75,1.29,1.31,.47,1.2,.47,1.93-.16,1.37-.47,1.93c-.31,.56-.74,1-1.29,1.31-.55,.31-1.16,.47-1.85,.47Zm-.04-.63c.56,0,1.06-.13,1.51-.38s.8-.62,1.06-1.08,.39-1,.39-1.61-.13-1.15-.39-1.62c-.26-.46-.61-.82-1.06-1.08-.45-.26-.95-.38-1.51-.38s-1.06,.13-1.5,.38c-.44,.26-.79,.62-1.05,1.08-.26,.46-.38,1-.38,1.62s.13,1.14,.38,1.61,.61,.83,1.05,1.08c.44,.26,.94,.38,1.5,.38Z" style="fill: #555;"/>
    <path d="M203.31,119.89v-7.31h.67v2l-.07-.22c.21-.59,.55-1.04,1.04-1.36,.49-.32,1.09-.47,1.82-.47v.69s-.06,0-.08,0c-.03,0-.06,0-.08,0-.81,0-1.45,.25-1.9,.76-.46,.51-.69,1.22-.69,2.12v3.81h-.7Z" style="fill: #555;"/>
    <path d="M211.8,119.95c-.74,0-1.39-.16-1.95-.48s-1.01-.76-1.33-1.32c-.32-.56-.48-1.2-.48-1.92s.15-1.37,.46-1.92c.3-.56,.72-.99,1.25-1.31,.53-.32,1.13-.47,1.79-.47s1.26,.15,1.79,.46c.53,.31,.94,.74,1.25,1.29,.3,.56,.46,1.2,.46,1.93,0,.03,0,.06,0,.09s0,.07,0,.1h-6.45v-.55h6.08l-.28,.27c0-.57-.11-1.08-.36-1.53-.25-.45-.58-.81-1-1.06-.42-.26-.91-.38-1.46-.38s-1.02,.13-1.45,.38c-.42,.26-.76,.61-1,1.06-.24,.45-.36,.97-.36,1.55v.13c0,.6,.13,1.13,.4,1.59,.27,.46,.63,.82,1.1,1.08s1,.38,1.6,.38c.47,0,.9-.08,1.31-.25,.41-.17,.75-.42,1.03-.77l.41,.46c-.32,.39-.72,.69-1.2,.89-.48,.2-1,.3-1.56,.3Z" style="fill: #555;"/>
    <path d="M219.03,119.95c-.61,0-1.17-.09-1.7-.27s-.94-.4-1.22-.67l.32-.56c.28,.24,.65,.45,1.12,.62,.47,.17,.97,.26,1.51,.26,.76,0,1.32-.12,1.65-.38s.5-.58,.5-.99c0-.3-.09-.54-.26-.71-.17-.17-.4-.31-.69-.4-.29-.09-.61-.17-.95-.23-.35-.06-.69-.13-1.04-.2-.35-.07-.66-.18-.95-.32s-.52-.33-.69-.58c-.17-.25-.26-.58-.26-.99,0-.37,.1-.71,.31-1.01,.21-.3,.51-.54,.92-.72,.41-.18,.92-.27,1.54-.27,.46,0,.92,.06,1.38,.2s.84,.3,1.13,.52l-.32,.56c-.31-.23-.65-.4-1.04-.5-.38-.1-.77-.15-1.16-.15-.71,0-1.23,.13-1.56,.39-.33,.26-.5,.59-.5,.98,0,.31,.09,.55,.26,.74,.17,.18,.4,.32,.69,.42,.29,.1,.61,.18,.95,.24,.34,.06,.69,.13,1.04,.2,.35,.07,.66,.18,.95,.31s.52,.32,.69,.56c.17,.24,.26,.56,.26,.96s-.11,.75-.33,1.05c-.22,.3-.54,.53-.97,.7-.43,.17-.96,.25-1.58,.25Z" style="fill: #555;"/>
    <path d="M222.67,113.18v-.6h4.37v.6h-4.37Zm3.33,6.76c-.64,0-1.14-.18-1.48-.53-.34-.35-.51-.84-.51-1.46v-6.97h.7v6.9c0,.47,.12,.83,.35,1.08s.57,.38,1.01,.38,.84-.14,1.13-.41l.29,.49c-.19,.18-.41,.31-.68,.39-.27,.08-.54,.13-.82,.13Z" style="fill: #555;"/>
    <path d="M231.42,119.95c-.54,0-1.01-.09-1.41-.26-.4-.17-.7-.42-.91-.73-.21-.32-.31-.68-.31-1.09,0-.37,.09-.71,.26-1.02s.46-.55,.86-.74,.94-.29,1.61-.29h2.69v.55h-2.67c-.76,0-1.29,.14-1.59,.42-.3,.28-.46,.63-.46,1.05,0,.47,.18,.84,.53,1.12,.35,.28,.85,.42,1.5,.42s1.14-.14,1.56-.42c.42-.28,.74-.69,.94-1.22l.2,.48c-.2,.53-.53,.95-1,1.27-.47,.31-1.07,.47-1.8,.47Zm2.63-.06v-1.67l-.03-.25v-2.74c0-.68-.18-1.2-.55-1.55-.37-.35-.91-.53-1.62-.53-.5,0-.97,.09-1.41,.26-.43,.17-.81,.39-1.11,.66l-.35-.5c.36-.33,.8-.58,1.32-.76,.51-.18,1.05-.27,1.61-.27,.91,0,1.6,.23,2.09,.69s.73,1.14,.73,2.04v4.63h-.67Z" style="fill: #555;"/>
    <path d="M246.71,112.53c.59,0,1.1,.11,1.53,.34,.43,.23,.77,.57,1.01,1.04,.24,.46,.36,1.03,.36,1.71v4.27h-.7v-4.21c0-.82-.2-1.45-.6-1.88-.4-.43-.96-.64-1.68-.64-.55,0-1.03,.12-1.43,.35s-.71,.56-.92,.98-.32,.92-.32,1.51v3.89h-.7v-4.21c0-.82-.2-1.45-.6-1.88s-.96-.64-1.68-.64c-.55,0-1.03,.12-1.43,.35s-.71,.56-.92,.98-.32,.92-.32,1.51v3.89h-.7v-7.31h.67v2.02l-.1-.22c.21-.57,.57-1.02,1.08-1.35,.5-.33,1.11-.5,1.82-.5s1.34,.18,1.84,.55c.5,.37,.81,.92,.95,1.64l-.24-.1c.2-.62,.56-1.13,1.11-1.52,.54-.39,1.2-.58,1.97-.58Z" style="fill: #555;"/>
    <path d="M255.36,119.95c-.7,0-1.32-.16-1.87-.48s-.98-.76-1.3-1.32c-.32-.56-.48-1.2-.48-1.92s.16-1.37,.48-1.92,.76-.99,1.3-1.31c.55-.32,1.17-.47,1.87-.47s1.33,.16,1.88,.47c.55,.32,.98,.75,1.3,1.31s.48,1.2,.48,1.92-.16,1.36-.48,1.92c-.32,.56-.75,1-1.3,1.32s-1.18,.48-1.88,.48Zm0-.63c.56,0,1.06-.13,1.51-.38,.45-.26,.8-.62,1.05-1.08s.38-1,.38-1.61-.13-1.15-.38-1.62c-.25-.46-.6-.82-1.05-1.08-.45-.26-.95-.38-1.51-.38s-1.06,.13-1.5,.38c-.44,.26-.79,.62-1.05,1.08-.26,.46-.38,1-.38,1.62s.13,1.14,.38,1.61,.61,.83,1.05,1.08,.95,.38,1.5,.38Z" style="fill: #555;"/>
    <path d="M32.26,153.49v-9.8h.71v9.8h-.71Z" style="fill: #555;"/>
    <path d="M39.74,146.12c.6,0,1.12,.11,1.56,.34,.44,.23,.79,.57,1.04,1.04s.37,1.03,.37,1.71v4.27h-.7v-4.21c0-.82-.21-1.45-.62-1.88-.42-.43-1-.64-1.74-.64-.57,0-1.06,.12-1.48,.35-.42,.23-.74,.56-.96,.98-.22,.42-.33,.92-.33,1.51v3.89h-.7v-7.31h.67v2.03l-.1-.22c.22-.58,.59-1.03,1.11-1.37,.51-.33,1.14-.5,1.89-.5Z" style="fill: #555;"/>
    <path d="M44.39,146.78v-.6h4.37v.6h-4.37Zm3.33,6.76c-.64,0-1.14-.18-1.48-.53s-.51-.84-.51-1.46v-6.97h.7v6.9c0,.47,.12,.83,.35,1.08s.57,.38,1.01,.38,.83-.14,1.13-.41l.29,.49c-.19,.18-.41,.31-.68,.39-.27,.08-.54,.13-.82,.13Z" style="fill: #555;"/>
    <path d="M51.16,153.49v-7.31h.67v2l-.07-.22c.21-.59,.55-1.04,1.04-1.36s1.09-.48,1.82-.48v.69s-.06,0-.08,0c-.03,0-.06,0-.08,0-.81,0-1.45,.25-1.9,.76-.46,.51-.69,1.22-.69,2.12v3.81h-.7Z" style="fill: #555;"/>
    <path d="M59.54,153.54c-.7,0-1.32-.16-1.87-.48-.55-.32-.98-.76-1.3-1.32-.32-.56-.48-1.2-.48-1.92s.16-1.37,.48-1.92c.32-.56,.76-.99,1.3-1.31,.55-.32,1.17-.48,1.87-.48s1.33,.16,1.88,.48,.98,.75,1.3,1.31c.32,.55,.48,1.2,.48,1.92s-.16,1.36-.48,1.92c-.32,.56-.75,1-1.3,1.32-.55,.32-1.18,.48-1.88,.48Zm0-.63c.56,0,1.06-.13,1.51-.38,.45-.26,.8-.62,1.05-1.08s.38-1,.38-1.61-.13-1.16-.38-1.62-.6-.82-1.05-1.08c-.45-.26-.95-.38-1.51-.38s-1.06,.13-1.5,.38-.79,.62-1.05,1.08c-.26,.46-.39,1-.39,1.62s.13,1.14,.39,1.61c.26,.47,.61,.83,1.05,1.08,.44,.26,.94,.38,1.5,.38Z" style="fill: #555;"/>
    <path d="M68.17,153.54c-.68,0-1.29-.16-1.84-.47s-.98-.75-1.29-1.31c-.32-.56-.48-1.2-.48-1.93s.16-1.38,.48-1.94c.32-.56,.75-.99,1.29-1.3s1.16-.47,1.84-.47c.64,0,1.23,.15,1.74,.45,.52,.3,.93,.72,1.23,1.27,.3,.55,.46,1.21,.46,1.99s-.15,1.41-.45,1.97-.71,.99-1.22,1.29c-.52,.3-1.1,.45-1.76,.45Zm.04-.63c.56,0,1.06-.13,1.51-.38,.44-.26,.79-.62,1.05-1.08,.26-.47,.38-1,.38-1.61s-.13-1.16-.38-1.62c-.26-.46-.61-.82-1.05-1.08-.44-.26-.95-.38-1.51-.38s-1.06,.13-1.5,.38-.79,.62-1.05,1.08c-.26,.46-.39,1-.39,1.62s.13,1.14,.39,1.61c.26,.47,.61,.83,1.05,1.08,.44,.26,.94,.38,1.5,.38Zm2.95,.57v-2.39l.13-1.27-.14-1.27v-5.45h.7v10.39h-.69Z" style="fill: #555;"/>
    <path d="M77.78,153.54c-.63,0-1.17-.11-1.62-.34-.46-.23-.81-.57-1.06-1.04-.25-.46-.37-1.03-.37-1.71v-4.27h.7v4.21c0,.82,.21,1.45,.63,1.88,.42,.43,1.01,.64,1.78,.64,.55,0,1.03-.12,1.43-.35,.4-.23,.71-.56,.92-.99,.21-.42,.32-.93,.32-1.51v-3.89h.7v7.31h-.67v-2.03l.1,.24c-.21,.57-.57,1.02-1.07,1.35-.5,.33-1.09,.5-1.78,.5Z" style="fill: #555;"/>
    <path d="M87.07,153.54c-.71,0-1.34-.16-1.9-.48-.56-.32-.99-.76-1.32-1.32-.32-.56-.48-1.2-.48-1.92s.16-1.37,.48-1.93c.32-.56,.76-1,1.32-1.31s1.19-.47,1.9-.47c.59,0,1.12,.11,1.6,.34,.48,.22,.87,.56,1.17,1.01l-.52,.38c-.26-.37-.59-.65-.98-.83-.39-.18-.82-.27-1.27-.27-.57,0-1.08,.13-1.53,.38-.45,.26-.81,.62-1.06,1.08-.26,.46-.39,1-.39,1.62s.13,1.16,.39,1.62c.26,.46,.61,.82,1.06,1.08,.45,.26,.96,.38,1.53,.38,.46,0,.88-.09,1.27-.27,.39-.18,.72-.45,.98-.83l.52,.38c-.3,.45-.69,.78-1.17,1.01-.48,.22-1.01,.34-1.6,.34Z" style="fill: #555;"/>
    <path d="M94.91,153.54c-.74,0-1.39-.16-1.95-.48-.56-.32-1.01-.76-1.33-1.32-.32-.56-.48-1.2-.48-1.92s.15-1.37,.46-1.92c.3-.56,.72-.99,1.25-1.31,.53-.32,1.13-.48,1.79-.48s1.26,.15,1.79,.46c.53,.31,.94,.74,1.25,1.29s.46,1.2,.46,1.92c0,.03,0,.06,0,.09,0,.03,0,.07,0,.1h-6.45v-.55h6.08l-.28,.27c0-.57-.11-1.08-.36-1.53-.25-.45-.58-.81-1-1.06s-.91-.39-1.46-.39-1.02,.13-1.45,.39-.76,.61-1,1.06c-.24,.45-.36,.97-.36,1.55v.13c0,.6,.13,1.13,.4,1.59,.27,.46,.63,.82,1.1,1.08,.47,.26,1,.38,1.6,.38,.47,0,.9-.08,1.31-.25,.41-.17,.75-.42,1.03-.77l.41,.46c-.32,.39-.72,.69-1.2,.89-.48,.2-1,.3-1.56,.3Z" style="fill: #555;"/>
    <path d="M102.7,146.78v-.6h4.37v.6h-4.37Zm3.33,6.76c-.64,0-1.14-.18-1.48-.53s-.51-.84-.51-1.46v-6.97h.7v6.9c0,.47,.12,.83,.35,1.08s.57,.38,1.01,.38,.83-.14,1.13-.41l.29,.49c-.19,.18-.41,.31-.68,.39-.27,.08-.54,.13-.82,.13Z" style="fill: #555;"/>
    <path d="M112.44,153.54c-.63,0-1.17-.11-1.62-.34-.46-.23-.81-.57-1.06-1.04-.25-.46-.37-1.03-.37-1.71v-4.27h.7v4.21c0,.82,.21,1.45,.63,1.88,.42,.43,1.01,.64,1.78,.64,.55,0,1.03-.12,1.43-.35,.4-.23,.71-.56,.92-.99,.21-.42,.32-.93,.32-1.51v-3.89h.7v7.31h-.67v-2.03l.1,.24c-.21,.57-.57,1.02-1.07,1.35-.5,.33-1.09,.5-1.78,.5Z" style="fill: #555;"/>
    <path d="M120.69,153.54c-.61,0-1.17-.09-1.7-.27-.53-.18-.94-.4-1.23-.67l.32-.56c.28,.24,.65,.45,1.12,.62,.47,.17,.97,.26,1.51,.26,.77,0,1.32-.13,1.65-.38,.34-.25,.5-.58,.5-.99,0-.3-.09-.53-.26-.71-.17-.17-.4-.31-.69-.4-.29-.09-.61-.17-.95-.23-.35-.06-.69-.13-1.04-.2-.35-.07-.66-.18-.95-.32-.29-.14-.52-.33-.69-.58-.17-.25-.26-.58-.26-.99,0-.37,.1-.71,.31-1.01,.21-.3,.51-.54,.92-.72,.41-.18,.92-.27,1.54-.27,.46,0,.92,.06,1.38,.2,.46,.13,.84,.3,1.13,.52l-.32,.56c-.31-.23-.65-.4-1.04-.5-.38-.1-.77-.15-1.16-.15-.71,0-1.23,.13-1.56,.39-.33,.26-.5,.59-.5,.98,0,.31,.09,.55,.26,.73s.4,.32,.69,.42c.29,.1,.61,.18,.95,.24s.69,.13,1.04,.2,.66,.18,.95,.31c.29,.14,.52,.32,.69,.56s.26,.56,.26,.96-.11,.75-.33,1.05c-.22,.3-.54,.53-.97,.7-.43,.17-.96,.25-1.58,.25Z" style="fill: #555;"/>
    <path d="M131.94,153.54c-.68,0-1.29-.16-1.84-.47s-.98-.75-1.29-1.31-.48-1.2-.48-1.93,.16-1.38,.48-1.94c.32-.56,.75-.99,1.29-1.3s1.16-.47,1.84-.47c.64,0,1.23,.15,1.74,.45,.52,.3,.93,.72,1.23,1.27,.3,.55,.45,1.21,.45,1.99s-.15,1.41-.45,1.97c-.3,.56-.71,.99-1.23,1.29-.52,.3-1.1,.45-1.76,.45Zm.04-.63c.56,0,1.06-.13,1.5-.38,.44-.26,.79-.62,1.05-1.08,.26-.47,.39-1,.39-1.61s-.13-1.16-.39-1.62c-.26-.46-.61-.82-1.05-1.08s-.94-.38-1.5-.38-1.06,.13-1.5,.38-.79,.62-1.05,1.08-.38,1-.38,1.62,.13,1.14,.38,1.61,.61,.83,1.05,1.08c.44,.26,.95,.38,1.5,.38Zm2.95,.57v-2.39l.13-1.27-.14-1.27v-5.45h.7v10.39h-.69Z" style="fill: #555;"/>
    <path d="M140.55,153.54c-.54,0-1.01-.09-1.41-.26-.4-.17-.7-.42-.91-.73s-.31-.68-.31-1.09c0-.37,.09-.71,.26-1.02,.17-.3,.46-.55,.86-.74,.4-.19,.94-.29,1.61-.29h2.69v.55h-2.67c-.76,0-1.29,.14-1.59,.42-.3,.28-.46,.63-.46,1.05,0,.47,.18,.84,.53,1.12s.85,.42,1.5,.42,1.14-.14,1.56-.42,.74-.69,.94-1.22l.2,.48c-.2,.53-.53,.96-1,1.27s-1.07,.47-1.8,.47Zm2.63-.06v-1.67l-.03-.25v-2.74c0-.68-.18-1.2-.55-1.55-.37-.36-.91-.53-1.62-.53-.5,0-.97,.09-1.41,.26-.43,.17-.81,.39-1.11,.66l-.35-.5c.36-.33,.8-.58,1.32-.76,.51-.18,1.05-.27,1.61-.27,.91,0,1.6,.23,2.09,.69s.73,1.14,.73,2.04v4.63h-.67Z" style="fill: #555;"/>
    <path d="M145.54,146.78v-.6h4.37v.6h-4.37Zm3.33,6.76c-.64,0-1.14-.18-1.48-.53s-.51-.84-.51-1.46v-6.97h.7v6.9c0,.47,.12,.83,.35,1.08s.57,.38,1.01,.38,.84-.14,1.13-.41l.29,.49c-.19,.18-.41,.31-.68,.39-.27,.08-.54,.13-.82,.13Z" style="fill: #555;"/>
    <path d="M155.17,153.54c-.7,0-1.32-.16-1.87-.48-.55-.32-.98-.76-1.3-1.32s-.48-1.2-.48-1.92,.16-1.37,.48-1.92c.32-.56,.76-.99,1.3-1.31s1.17-.48,1.87-.48,1.33,.16,1.88,.48,.98,.75,1.3,1.31c.32,.55,.48,1.2,.48,1.92s-.16,1.36-.48,1.92-.75,1-1.3,1.32c-.55,.32-1.18,.48-1.88,.48Zm0-.63c.56,0,1.06-.13,1.51-.38,.45-.26,.8-.62,1.05-1.08s.38-1,.38-1.61-.13-1.16-.38-1.62-.6-.82-1.05-1.08c-.45-.26-.95-.38-1.51-.38s-1.06,.13-1.5,.38-.79,.62-1.05,1.08-.38,1-.38,1.62,.13,1.14,.38,1.61,.61,.83,1.05,1.08c.44,.26,.95,.38,1.5,.38Z" style="fill: #555;"/>
    <path d="M162.84,153.54c-.61,0-1.17-.09-1.7-.27-.53-.18-.94-.4-1.22-.67l.32-.56c.28,.24,.65,.45,1.12,.62s.97,.26,1.51,.26c.76,0,1.32-.13,1.65-.38s.5-.58,.5-.99c0-.3-.09-.53-.26-.71-.17-.17-.4-.31-.69-.4-.29-.09-.61-.17-.95-.23-.35-.06-.69-.13-1.04-.2-.35-.07-.66-.18-.95-.32-.29-.14-.52-.33-.69-.58-.17-.25-.26-.58-.26-.99,0-.37,.1-.71,.31-1.01,.21-.3,.51-.54,.92-.72,.41-.18,.92-.27,1.54-.27,.46,0,.92,.06,1.38,.2s.84,.3,1.13,.52l-.32,.56c-.31-.23-.65-.4-1.04-.5-.38-.1-.77-.15-1.16-.15-.71,0-1.23,.13-1.56,.39-.33,.26-.5,.59-.5,.98,0,.31,.09,.55,.26,.73s.4,.32,.69,.42c.29,.1,.61,.18,.95,.24,.34,.06,.69,.13,1.04,.2,.35,.07,.66,.18,.95,.31,.29,.14,.52,.32,.69,.56s.26,.56,.26,.96-.11,.75-.33,1.05c-.22,.3-.54,.53-.97,.7-.43,.17-.96,.25-1.58,.25Z" style="fill: #555;"/>
    <path d="M36.42,187.16c-.73,0-1.4-.12-2.02-.37s-1.16-.6-1.62-1.05c-.46-.45-.82-.98-1.07-1.58-.25-.6-.38-1.26-.38-1.97s.13-1.37,.38-1.97,.61-1.13,1.07-1.58c.46-.45,1-.8,1.62-1.05,.62-.25,1.3-.37,2.02-.37s1.4,.12,2.02,.37c.62,.25,1.16,.6,1.62,1.04,.46,.45,.81,.97,1.07,1.58,.26,.6,.38,1.26,.38,1.98s-.13,1.38-.38,1.98c-.26,.6-.61,1.13-1.07,1.57-.46,.45-1,.8-1.62,1.04-.62,.25-1.29,.37-2.02,.37Zm0-.66c.62,0,1.2-.11,1.74-.32,.53-.21,.99-.52,1.39-.91,.39-.39,.7-.85,.92-1.37,.22-.52,.33-1.09,.33-1.71s-.11-1.2-.33-1.72c-.22-.52-.52-.97-.92-1.36-.39-.39-.85-.7-1.39-.91-.53-.21-1.11-.32-1.74-.32s-1.2,.11-1.74,.32c-.53,.21-1,.52-1.39,.91-.4,.39-.7,.85-.92,1.36-.22,.52-.33,1.09-.33,1.72s.11,1.19,.33,1.71c.22,.52,.53,.98,.92,1.37,.4,.39,.86,.7,1.39,.91,.53,.21,1.11,.32,1.74,.32Z" style="fill: #555;"/>
    <path d="M43.77,187.09v-10.39h.7v5.45l-.14,1.27,.11,1.27v2.39h-.67Zm3.67,.06c-.64,0-1.23-.15-1.74-.45-.52-.3-.93-.73-1.23-1.29-.3-.56-.45-1.22-.45-1.97s.15-1.44,.45-1.99,.71-.98,1.23-1.27c.52-.3,1.1-.45,1.74-.45,.69,0,1.31,.16,1.85,.47,.55,.31,.98,.75,1.29,1.3s.47,1.2,.47,1.94-.16,1.37-.47,1.93c-.31,.56-.74,1-1.29,1.31-.55,.31-1.16,.47-1.85,.47Zm-.04-.63c.56,0,1.06-.13,1.51-.38,.45-.26,.8-.62,1.06-1.08,.26-.47,.38-1,.38-1.61s-.13-1.16-.38-1.62c-.26-.46-.61-.82-1.06-1.08-.45-.26-.95-.38-1.51-.38s-1.06,.13-1.5,.38c-.44,.26-.79,.62-1.05,1.08-.26,.46-.39,1-.39,1.62s.13,1.14,.39,1.61c.26,.47,.61,.83,1.05,1.08s.94,.38,1.5,.38Z" style="fill: #555;"/>
    <path d="M52.02,180.38v-.6h4.37v.6h-4.37Zm3.33,6.76c-.64,0-1.14-.18-1.48-.53-.34-.36-.51-.84-.51-1.46v-6.97h.7v6.9c0,.47,.12,.83,.35,1.08s.57,.38,1.01,.38,.83-.13,1.13-.41l.29,.49c-.19,.18-.41,.31-.68,.39-.27,.08-.54,.12-.82,.12Z" style="fill: #555;"/>
    <path d="M61.76,187.14c-.74,0-1.39-.16-1.95-.48-.56-.32-1.01-.76-1.33-1.32-.32-.56-.48-1.2-.48-1.92s.15-1.37,.46-1.93c.3-.55,.72-.99,1.25-1.31,.53-.32,1.13-.48,1.79-.48s1.26,.15,1.79,.46c.53,.31,.94,.74,1.25,1.29,.3,.55,.46,1.2,.46,1.92,0,.03,0,.06,0,.09,0,.03,0,.07,0,.11h-6.45v-.55h6.08l-.28,.27c0-.57-.11-1.08-.36-1.53-.25-.45-.58-.81-1-1.06-.42-.26-.91-.39-1.46-.39s-1.02,.13-1.45,.39c-.42,.26-.76,.61-1,1.06s-.36,.97-.36,1.55v.13c0,.6,.13,1.13,.4,1.59s.63,.82,1.1,1.08c.47,.26,1,.38,1.6,.38,.47,0,.9-.08,1.31-.25,.41-.17,.75-.42,1.03-.77l.41,.46c-.32,.39-.72,.69-1.2,.89-.48,.2-1,.3-1.56,.3Z" style="fill: #555;"/>
    <path d="M70.72,179.72c.6,0,1.12,.12,1.56,.34,.44,.23,.79,.57,1.04,1.04,.25,.46,.37,1.03,.37,1.71v4.27h-.7v-4.21c0-.82-.21-1.45-.62-1.88-.42-.43-1-.64-1.74-.64-.57,0-1.06,.12-1.48,.35-.42,.23-.74,.56-.96,.98-.22,.42-.33,.92-.33,1.51v3.89h-.7v-7.31h.67v2.03l-.1-.22c.22-.58,.59-1.03,1.11-1.37,.51-.33,1.14-.5,1.89-.5Z" style="fill: #555;"/>
    <path d="M78.97,180.38v-.6h4.37v.6h-4.37Zm3.33,6.76c-.64,0-1.14-.18-1.48-.53-.34-.36-.51-.84-.51-1.46v-6.97h.7v6.9c0,.47,.12,.83,.35,1.08s.57,.38,1.01,.38,.83-.13,1.13-.41l.29,.49c-.19,.18-.41,.31-.68,.39-.27,.08-.54,.12-.82,.12Z" style="fill: #555;"/>
    <path d="M88.71,187.14c-.63,0-1.17-.11-1.62-.34-.46-.23-.81-.57-1.06-1.04-.25-.46-.37-1.03-.37-1.71v-4.27h.7v4.21c0,.82,.21,1.45,.63,1.88s1.01,.64,1.78,.64c.55,0,1.03-.12,1.43-.35s.71-.56,.92-.99c.21-.42,.32-.93,.32-1.5v-3.89h.7v7.31h-.67v-2.03l.1,.24c-.21,.57-.57,1.02-1.07,1.35-.5,.33-1.09,.5-1.78,.5Z" style="fill: #555;"/>
    <path d="M98.71,189.8v-10.02h.67v2.39l-.11,1.27,.14,1.27v5.08h-.7Zm3.67-2.66c-.64,0-1.23-.15-1.74-.45-.52-.3-.93-.73-1.23-1.28s-.45-1.22-.45-1.98,.15-1.43,.45-1.98,.71-.98,1.23-1.28c.52-.3,1.1-.45,1.74-.45,.69,0,1.31,.16,1.85,.47,.55,.31,.98,.75,1.29,1.31s.47,1.2,.47,1.93-.16,1.37-.47,1.93c-.31,.56-.74,1-1.29,1.31-.55,.31-1.16,.47-1.85,.47Zm-.04-.63c.56,0,1.06-.13,1.51-.38,.45-.26,.8-.62,1.06-1.08,.26-.47,.38-1,.38-1.61s-.13-1.16-.38-1.62c-.26-.46-.61-.82-1.06-1.08-.45-.26-.95-.38-1.51-.38s-1.06,.13-1.5,.38c-.44,.26-.79,.62-1.05,1.08-.26,.46-.39,1-.39,1.62s.13,1.14,.39,1.61c.26,.47,.61,.83,1.05,1.08s.94,.38,1.5,.38Z" style="fill: #555;"/>
    <path d="M108.16,187.09v-7.31h.67v2l-.07-.22c.21-.59,.55-1.04,1.04-1.36,.49-.32,1.09-.48,1.82-.48v.69s-.06,0-.08,0c-.03,0-.06,0-.08,0-.81,0-1.45,.25-1.9,.76-.46,.51-.69,1.21-.69,2.12v3.81h-.7Z" style="fill: #555;"/>
    <path d="M116.64,187.14c-.74,0-1.39-.16-1.95-.48-.56-.32-1.01-.76-1.33-1.32-.32-.56-.48-1.2-.48-1.92s.15-1.37,.46-1.93c.3-.55,.72-.99,1.25-1.31,.53-.32,1.13-.48,1.79-.48s1.26,.15,1.79,.46c.53,.31,.94,.74,1.25,1.29,.3,.55,.46,1.2,.46,1.92,0,.03,0,.06,0,.09,0,.03,0,.07,0,.11h-6.45v-.55h6.08l-.28,.27c0-.57-.11-1.08-.36-1.53-.25-.45-.58-.81-1-1.06-.42-.26-.91-.39-1.46-.39s-1.02,.13-1.45,.39c-.42,.26-.76,.61-1,1.06s-.36,.97-.36,1.55v.13c0,.6,.13,1.13,.4,1.59s.63,.82,1.1,1.08c.47,.26,1,.38,1.6,.38,.47,0,.9-.08,1.31-.25,.41-.17,.75-.42,1.03-.77l.41,.46c-.32,.39-.72,.69-1.2,.89-.48,.2-1,.3-1.56,.3Z" style="fill: #555;"/>
    <path d="M123.88,187.14c-.61,0-1.17-.09-1.7-.27s-.94-.4-1.23-.67l.32-.56c.28,.24,.65,.45,1.12,.62,.47,.17,.97,.26,1.51,.26,.76,0,1.32-.13,1.65-.38s.5-.58,.5-.99c0-.3-.09-.53-.26-.71-.17-.17-.4-.3-.69-.4-.29-.09-.61-.17-.95-.23-.35-.06-.69-.13-1.04-.2-.35-.07-.66-.18-.95-.32-.29-.14-.52-.33-.69-.58-.17-.25-.26-.58-.26-.99,0-.37,.1-.71,.31-1.01,.21-.3,.51-.54,.92-.72s.92-.27,1.54-.27c.46,0,.92,.07,1.38,.2s.84,.3,1.13,.52l-.32,.56c-.31-.23-.65-.4-1.04-.5-.38-.1-.77-.15-1.16-.15-.71,0-1.23,.13-1.56,.39-.33,.26-.5,.59-.5,.98,0,.31,.09,.55,.26,.73,.17,.18,.4,.32,.69,.42,.29,.1,.61,.18,.95,.24,.34,.06,.69,.13,1.04,.2,.35,.08,.66,.18,.95,.32s.52,.32,.69,.56,.26,.56,.26,.96-.11,.75-.33,1.05c-.22,.3-.54,.53-.97,.7-.43,.17-.96,.25-1.58,.25Z" style="fill: #555;"/>
    <path d="M127.52,180.38v-.6h4.37v.6h-4.37Zm3.33,6.76c-.64,0-1.14-.18-1.48-.53-.34-.36-.51-.84-.51-1.46v-6.97h.7v6.9c0,.47,.12,.83,.35,1.08s.57,.38,1.01,.38,.84-.13,1.13-.41l.29,.49c-.19,.18-.41,.31-.68,.39-.27,.08-.54,.12-.82,.12Z" style="fill: #555;"/>
    <path d="M136.27,187.14c-.54,0-1.01-.09-1.41-.26s-.7-.42-.91-.74c-.21-.32-.31-.68-.31-1.09,0-.37,.09-.71,.26-1.01s.46-.55,.86-.74c.4-.19,.94-.29,1.61-.29h2.69v.55h-2.67c-.76,0-1.29,.14-1.59,.42-.3,.28-.46,.63-.46,1.05,0,.47,.18,.84,.53,1.12,.35,.28,.85,.42,1.5,.42s1.14-.14,1.56-.42c.42-.28,.74-.69,.94-1.22l.2,.47c-.2,.53-.53,.96-1,1.27s-1.07,.47-1.8,.47Zm2.63-.06v-1.67l-.03-.25v-2.74c0-.68-.18-1.2-.55-1.55-.37-.36-.91-.53-1.62-.53-.5,0-.97,.09-1.41,.26-.43,.17-.81,.39-1.11,.67l-.35-.5c.36-.33,.8-.58,1.32-.76s1.05-.27,1.61-.27c.91,0,1.6,.23,2.09,.69,.49,.46,.73,1.14,.73,2.04v4.63h-.67Z" style="fill: #555;"/>
    <path d="M151.56,179.72c.59,0,1.1,.12,1.53,.34,.43,.23,.77,.57,1.01,1.04,.24,.46,.36,1.03,.36,1.71v4.27h-.7v-4.21c0-.82-.2-1.45-.6-1.88-.4-.43-.96-.64-1.68-.64-.55,0-1.03,.12-1.43,.35s-.71,.56-.92,.98c-.21,.42-.32,.92-.32,1.51v3.89h-.7v-4.21c0-.82-.2-1.45-.6-1.88s-.96-.64-1.68-.64c-.55,0-1.03,.12-1.43,.35s-.71,.56-.92,.98c-.21,.42-.32,.92-.32,1.51v3.89h-.7v-7.31h.67v2.02l-.1-.22c.21-.57,.57-1.02,1.08-1.35s1.11-.5,1.82-.5,1.34,.18,1.84,.55c.5,.37,.81,.92,.95,1.65l-.24-.1c.2-.62,.56-1.13,1.11-1.52,.54-.39,1.2-.58,1.97-.58Z" style="fill: #555;"/>
    <path d="M160.21,187.14c-.7,0-1.32-.16-1.87-.48s-.98-.76-1.3-1.32c-.32-.56-.48-1.2-.48-1.92s.16-1.37,.48-1.93c.32-.55,.76-.99,1.3-1.31,.55-.32,1.17-.48,1.87-.48s1.33,.16,1.88,.48c.55,.32,.98,.75,1.3,1.31,.32,.56,.48,1.2,.48,1.93s-.16,1.36-.48,1.92c-.32,.56-.75,1-1.3,1.32s-1.18,.48-1.88,.48Zm0-.63c.56,0,1.06-.13,1.51-.38,.45-.26,.8-.62,1.05-1.08s.38-1,.38-1.61-.13-1.16-.38-1.62c-.25-.46-.6-.82-1.05-1.08-.45-.26-.95-.38-1.51-.38s-1.06,.13-1.5,.38c-.44,.26-.79,.62-1.05,1.08-.26,.46-.38,1-.38,1.62s.13,1.14,.38,1.61,.61,.83,1.05,1.08,.95,.38,1.5,.38Z" style="fill: #555;"/>
  </g>
  <path d="M18.2,109c3.75,0,6.79,3.04,6.79,6.79s-3.04,6.79-6.79,6.79-6.79-3.04-6.79-6.79,3.04-6.79,6.79-6.79Zm0,1.02c-3.18,0-5.77,2.58-5.77,5.77s2.59,5.77,5.77,5.77,5.77-2.59,5.77-5.77-2.58-5.77-5.77-5.77Zm-3.43,6.03l2.61,2.33c.1,.09,.22,.13,.34,.13,.14,0,.27-.05,.37-.16l4.04-4.42c.09-.1,.13-.22,.13-.34,0-.28-.22-.51-.51-.51-.14,0-.27,.06-.38,.16l-3.7,4.05-2.24-1.99c-.1-.09-.22-.13-.34-.13-.28,0-.51,.23-.51,.51,0,.14,.06,.28,.17,.38Z" style="fill: #0a486f;"/>
  <path d="M18.2,142c3.75,0,6.79,3.04,6.79,6.79s-3.04,6.79-6.79,6.79-6.79-3.04-6.79-6.79,3.04-6.79,6.79-6.79Zm0,1.02c-3.18,0-5.77,2.58-5.77,5.77s2.59,5.77,5.77,5.77,5.77-2.59,5.77-5.77-2.58-5.77-5.77-5.77Zm-3.43,6.03l2.61,2.33c.1,.09,.22,.13,.34,.13,.14,0,.27-.05,.37-.16l4.04-4.42c.09-.1,.13-.22,.13-.34,0-.28-.22-.51-.51-.51-.14,0-.27,.06-.38,.16l-3.7,4.05-2.24-1.99c-.1-.09-.22-.13-.34-.13-.28,0-.51,.23-.51,.51,0,.14,.06,.28,.17,.38Z" style="fill: #0a486f;"/>
  <path d="M18.2,175c3.75,0,6.79,3.04,6.79,6.79s-3.04,6.79-6.79,6.79-6.79-3.04-6.79-6.79,3.04-6.79,6.79-6.79Zm0,1.02c-3.18,0-5.77,2.58-5.77,5.77s2.59,5.77,5.77,5.77,5.77-2.59,5.77-5.77-2.58-5.77-5.77-5.77Zm-3.43,6.03l2.61,2.33c.1,.09,.22,.13,.34,.13,.14,0,.27-.05,.37-.16l4.04-4.42c.09-.1,.13-.22,.13-.34,0-.28-.22-.51-.51-.51-.14,0-.27,.06-.38,.16l-3.7,4.05-2.24-1.99c-.1-.09-.22-.13-.34-.13-.28,0-.51,.23-.51,.51,0,.14,.06,.28,.17,.38Z" style="fill: #0a486f;"/>
</svg>